g Arrow
v -2.934456E-06 -0.04364825 0.01596089
v -2.934456E-06 -0.04364825 -0.124038
v -2.934456E-06 0.04365024 -0.124038
v -2.934456E-06 0.04365024 0.01596089
v 4.806488E-06 -9.360157E-07 0.1296134
v -2.934456E-06 -0.1079213 0.01596089
v -2.934456E-06 0.1079194 0.01596089
vt 0.4586782 0.6152332
vt 0.4586782 0.6152332
vt 0.4611607 0.6152332
vt 0.4611607 0.6152332
vt 0.4630226 0.6155435
vt 0.4568163 0.6152332
vt 0.4630226 0.6152332
vn -1 0 0
vn -1 0 0
vn -1 0 0
vn -1 0 0
vn -1 0 0
vn -1 0 0
vn -1 0 0
g Arrow_0
f 3/3/3 2/2/2 1/1/1
f 4/4/4 3/3/3 1/1/1
f 5/5/5 4/4/4 1/1/1
f 1/1/1 6/6/6 5/5/5
f 5/5/5 7/7/7 4/4/4
