g crane_crawler_wheel_TC
v 1.340847 0.06422424 -0.1114097
v 1.340847 0.1297593 0.001310587
v -1.340847 0.1297593 0.001310587
v -1.340847 0.06422424 -0.1114097
v 1.340847 -0.06422436 -0.1114097
v 1.340847 0.06422424 -0.1114097
v -1.340847 0.06422424 -0.1114097
v -1.340847 -0.06422436 -0.1114097
v 1.340847 -0.1297594 0.001310587
v 1.340847 -0.06422436 -0.1114097
v -1.340847 -0.06422436 -0.1114097
v -1.340847 -0.1297594 0.001310587
v 1.340847 -0.06422436 -0.1114097
v 1.340847 -0.1297594 0.001310587
v 1.340847 -0.06422436 0.1114095
v 1.340847 0.06422424 -0.1114097
v 1.340847 0.06422424 0.1114095
v 1.340847 0.1297593 0.001310587
v 1.340847 -0.06422436 0.1114095
v 1.340847 -0.1297594 0.001310587
v -1.340847 -0.1297594 0.001310587
v -1.340847 -0.06422436 0.1114095
v 1.340847 0.06422424 0.1114095
v 1.340847 -0.06422436 0.1114095
v -1.340847 -0.06422436 0.1114095
v -1.340847 0.06422424 0.1114095
v -1.340847 -0.06422436 0.1114095
v -1.340847 -0.1297594 0.001310587
v -1.340847 -0.06422436 -0.1114097
v -1.340847 0.06422424 0.1114095
v -1.340847 0.06422424 -0.1114097
v -1.340847 0.1297593 0.001310587
v 1.340847 0.1297593 0.001310587
v 1.340847 0.06422424 0.1114095
v -1.340847 0.06422424 0.1114095
v -1.340847 0.1297593 0.001310587
vt 0.6541615 0.6362852
vt 0.6642169 0.6362852
vt 0.6642169 0.4307078
vt 0.6541615 0.4307078
vt 0.644106 0.6362852
vt 0.6541615 0.6362852
vt 0.6541615 0.4307078
vt 0.644106 0.4307078
vt 0.6340507 0.6362852
vt 0.644106 0.6362852
vt 0.644106 0.4307078
vt 0.6340507 0.4307078
vt 0.6988522 0.644106
vt 0.6943831 0.6362852
vt 0.6843277 0.6362852
vt 0.6943831 0.6530442
vt 0.6787414 0.644106
vt 0.6843277 0.6530442
vt 0.6843277 0.6362852
vt 0.6943831 0.6362852
vt 0.6943831 0.4307078
vt 0.6843277 0.4307078
vt 0.6742723 0.6362852
vt 0.6843277 0.6362852
vt 0.6843277 0.4307078
vt 0.6742723 0.4307078
vt 0.6843277 0.4307078
vt 0.6943831 0.4307078
vt 0.6988522 0.4228869
vt 0.6787414 0.4228869
vt 0.6943831 0.4139487
vt 0.6843277 0.4139487
vt 0.6642169 0.6362852
vt 0.6742723 0.6362852
vt 0.6742723 0.4307078
vt 0.6642169 0.4307078
vn -0.01587105 0.8729059 -0.4876305
vn -0.01587105 0.8729059 -0.4876305
vn -0.01587105 0.8729059 -0.4876305
vn -0.01587105 0.8729059 -0.4876305
vn -0.01587105 0.01587105 -0.9997481
vn -0.01587105 0.01587105 -0.9997481
vn -0.01587105 0.01587105 -0.9997481
vn -0.01587105 0.01587105 -0.9997481
vn -0.01587105 -0.8729059 -0.4876305
vn -0.01587105 -0.8729059 -0.4876305
vn -0.01587105 -0.8729059 -0.4876305
vn -0.01587105 -0.8729059 -0.4876305
vn 0.999874 0.01587105 -0.0003439156
vn 0.999874 0.01587105 -0.0003439156
vn 0.999874 0.01587105 -0.0003439156
vn 0.999874 0.01587105 -0.0003439156
vn 0.999874 0.01587105 -0.0003439156
vn 0.999874 0.01587105 -0.0003439156
vn -0.01587105 -0.8729059 0.4876305
vn -0.01587105 -0.8729059 0.4876305
vn -0.01587105 -0.8729059 0.4876305
vn -0.01587105 -0.8729059 0.4876305
vn -0.01587105 0.01587105 0.9997481
vn -0.01587105 0.01587105 0.9997481
vn -0.01587105 0.01587105 0.9997481
vn -0.01587105 0.01587105 0.9997481
vn -0.999874 0.01587105 -0.0003439156
vn -0.999874 0.01587105 -0.0003439156
vn -0.999874 0.01587105 -0.0003439156
vn -0.999874 0.01587105 -0.0003439156
vn -0.999874 0.01587105 -0.0003439156
vn -0.999874 0.01587105 -0.0003439156
vn -0.01587105 0.8729059 0.4876305
vn -0.01587105 0.8729059 0.4876305
vn -0.01587105 0.8729059 0.4876305
vn -0.01587105 0.8729059 0.4876305
g crane_crawler_wheel_TC_0
f 3/3/3 2/2/2 1/1/1
f 4/4/4 3/3/3 1/1/1
f 7/7/7 6/6/6 5/5/5
f 8/8/8 7/7/7 5/5/5
f 11/11/11 10/10/10 9/9/9
f 12/12/12 11/11/11 9/9/9
f 15/15/15 14/14/14 13/13/13
f 13/13/13 16/16/16 15/15/15
f 16/16/16 17/17/17 15/15/15
f 16/16/16 18/18/18 17/17/17
f 21/21/21 20/20/20 19/19/19
f 22/22/22 21/21/21 19/19/19
f 25/25/25 24/24/24 23/23/23
f 26/26/26 25/25/25 23/23/23
f 29/29/29 28/28/28 27/27/27
f 27/27/27 30/30/30 29/29/29
f 30/30/30 31/31/31 29/29/29
f 30/30/30 32/32/32 31/31/31
f 35/35/35 34/34/34 33/33/33
f 36/36/36 35/35/35 33/33/33
