g Handle_001
v 0.1682866 -0.03044109 0.0140852
v 0.1906817 -0.03044109 0.0140852
v 0.1906817 -0.03044109 -0.01408462
v 0.1682866 -0.03044109 -0.01408462
v 0.1682866 0.03044166 0.0140852
v 0.1682866 0.03044166 -0.01408462
v 0.1554804 0.09484329 0.0140852
v 0.1554804 0.09484329 -0.01408462
v 0.1189972 0.1494361 0.0140852
v 0.1189972 0.1494361 -0.01408462
v 0.06440448 0.1859192 0.0140852
v 0.06440448 0.1859192 -0.01408462
v 2.854007E-06 0.1987254 0.0140852
v 2.854007E-06 0.1987254 -0.01408462
v -0.06439877 0.1859192 0.0140852
v -0.06439877 0.1859192 -0.01408462
v -0.1189978 0.1494361 0.0140852
v -0.1189978 0.1494361 -0.01408462
v -0.155481 0.09484329 0.0140852
v -0.155481 0.09484329 -0.01408462
v -0.1682872 0.03044166 0.0140852
v -0.1682872 0.03044166 -0.01408462
v -0.1682872 -0.03044109 0.0140852
v -0.1682872 -0.03044109 -0.01408462
v -0.1906822 -0.03044109 -0.01408462
v -0.1906822 -0.03044109 0.0140852
v -0.1682872 -0.03044109 0.0140852
v -0.1682872 0.03044166 0.0140852
v -0.1906822 -0.03044109 0.0140852
v -0.1906822 0.03044166 0.0140852
v -0.1906822 -0.03044109 -0.01408462
v -0.1761669 0.103408 0.0140852
v -0.155481 0.09484329 0.0140852
v -0.1906822 0.03044166 -0.01408462
v -0.1682872 0.03044166 -0.01408462
v -0.1761669 0.103408 -0.01408462
v -0.155481 0.09484329 -0.01408462
v -0.1348327 0.165271 0.0140852
v -0.1189978 0.1494361 0.0140852
v -0.1348327 0.165271 -0.01408462
v -0.1189978 0.1494361 -0.01408462
v -0.07296973 0.2066051 0.0140852
v -0.06439877 0.1859192 0.0140852
v -0.07296973 0.2066051 -0.01408462
v -0.06439877 0.1859192 -0.01408462
v 2.854007E-06 0.2211205 0.0140852
v 2.854007E-06 0.1987254 0.0140852
v 2.854007E-06 0.2211205 -0.01408462
v 2.854007E-06 0.1987254 -0.01408462
v 0.07296916 0.2066051 0.0140852
v 0.06440448 0.1859192 0.0140852
v 0.07296916 0.2066051 -0.01408462
v 0.06440448 0.1859192 -0.01408462
v 0.1348322 0.165271 0.0140852
v 0.1189972 0.1494361 0.0140852
v 0.1348322 0.165271 -0.01408462
v 0.1189972 0.1494361 -0.01408462
v 0.1761663 0.103408 0.0140852
v 0.1554804 0.09484329 0.0140852
v 0.1761663 0.103408 -0.01408462
v 0.1554804 0.09484329 -0.01408462
v 0.1906817 0.03044166 0.0140852
v 0.1682866 0.03044166 0.0140852
v 0.1682866 -0.03044109 0.0140852
v 0.1906817 -0.03044109 0.0140852
v 0.1906817 0.03044166 -0.01408462
v 0.1682866 0.03044166 -0.01408462
v 0.1906817 -0.03044109 -0.01408462
v 0.1682866 -0.03044109 -0.01408462
vt 0.4562691 0.5675669
vt 0.4567363 0.5675669
vt 0.4567363 0.5336987
vt 0.4562691 0.5336987
vt 0.4562691 0.5675669
vt 0.4562691 0.5336987
vt 0.4559188 0.5675669
vt 0.4559188 0.5336987
vt 0.4551013 0.5675669
vt 0.4551013 0.5336987
vt 0.4539334 0.5675669
vt 0.4539334 0.5336987
vt 0.4524151 0.5675669
vt 0.4524151 0.5336987
vt 0.4510137 0.5675669
vt 0.4510137 0.5336987
vt 0.4497291 0.5675669
vt 0.4497291 0.5336987
vt 0.4489115 0.5675669
vt 0.4489115 0.5336987
vt 0.4485612 0.5675669
vt 0.4485612 0.5336987
vt 0.4485612 0.5675669
vt 0.4485612 0.5336987
vt 0.448094 0.5336987
vt 0.448094 0.5675669
vt 0.4485612 0.5675669
vt 0.4485612 0.5675669
vt 0.448094 0.5675669
vt 0.448094 0.5675669
vt 0.448094 0.5336987
vt 0.4484444 0.5675669
vt 0.4489115 0.5675669
vt 0.448094 0.5336987
vt 0.4485612 0.5336987
vt 0.4484444 0.5336987
vt 0.4489115 0.5336987
vt 0.4493787 0.5675669
vt 0.4497291 0.5675669
vt 0.4493787 0.5336987
vt 0.4497291 0.5336987
vt 0.4507801 0.5675669
vt 0.4510137 0.5675669
vt 0.4507801 0.5336987
vt 0.4510137 0.5336987
vt 0.4524151 0.5675669
vt 0.4524151 0.5675669
vt 0.4524151 0.5336987
vt 0.4524151 0.5336987
vt 0.4540502 0.5675669
vt 0.4539334 0.5675669
vt 0.4540502 0.5336987
vt 0.4539334 0.5336987
vt 0.4554516 0.5675669
vt 0.4551013 0.5675669
vt 0.4554516 0.5336987
vt 0.4551013 0.5336987
vt 0.4563859 0.5675669
vt 0.4559188 0.5675669
vt 0.4563859 0.5336987
vt 0.4559188 0.5336987
vt 0.4567363 0.5675669
vt 0.4562691 0.5675669
vt 0.4562691 0.5675669
vt 0.4567363 0.5675669
vt 0.4567363 0.5336987
vt 0.4562691 0.5336987
vt 0.4567363 0.5336987
vt 0.4562691 0.5336987
vn -0.7527187 -0.279795 0.5959272
vn 0.7508793 -0.2797949 0.5982432
vn 0.7508793 -0.2797949 -0.5982432
vn -0.7527187 -0.279795 -0.5959272
vn -0.7527187 -0.07974543 0.6534946
vn -0.7527187 -0.07974543 -0.6534946
vn -0.668827 -0.279795 0.6887563
vn -0.668827 -0.279795 -0.6887563
vn -0.51395 -0.5121105 0.6881847
vn -0.51395 -0.5121105 -0.6881847
vn -0.2751812 -0.6669877 0.6923892
vn -0.2751812 -0.6669877 -0.6923892
vn 0.002306895 -0.7250665 0.688675
vn 0.002306895 -0.7250665 -0.688675
vn 0.279795 -0.6669876 0.6905377
vn 0.279795 -0.6669876 -0.6905377
vn 0.5121105 -0.5121105 0.6895546
vn 0.5121105 -0.5121105 -0.6895546
vn 0.6669876 -0.279795 0.6905377
vn 0.6669876 -0.279795 -0.6905377
vn 0.7508793 -0.07974542 0.6556072
vn 0.7508793 -0.07974542 -0.6556072
vn 0.7508793 -0.2797949 0.5982432
vn 0.7508793 -0.2797949 -0.5982432
vn -0.7527187 -0.279795 -0.5959272
vn -0.7527187 -0.279795 0.5959272
vn 0.7508793 -0.2797949 0.5982432
vn 0.7508793 -0.07974542 0.6556072
vn -0.7527187 -0.279795 0.5959272
vn -0.8107976 0.08803805 0.5786679
vn -0.7527187 -0.279795 -0.5959272
vn -0.7720784 0.3203536 0.5488793
vn 0.6669876 -0.279795 0.6905377
vn -0.8107976 0.08803805 -0.5786679
vn 0.7508793 -0.07974542 -0.6556072
vn -0.7720784 0.3203536 -0.5488793
vn 0.6669876 -0.279795 -0.6905377
vn -0.5913885 0.5913885 0.5481964
vn 0.5121105 -0.5121105 0.6895546
vn -0.5913885 0.5913885 -0.5481964
vn 0.5121105 -0.5121105 -0.6895546
vn -0.3203536 0.7720784 0.5488793
vn 0.279795 -0.6669876 0.6905377
vn -0.3203536 0.7720784 -0.5488793
vn 0.279795 -0.6669876 -0.6905377
vn 0.002306895 0.8366105 0.5477933
vn 0.002306895 -0.7250665 0.688675
vn 0.002306895 0.8366105 -0.5477933
vn 0.002306895 -0.7250665 -0.688675
vn 0.3185142 0.7720784 0.5499488
vn -0.2751812 -0.6669877 0.6923892
vn 0.3185142 0.7720784 -0.5499488
vn -0.2751812 -0.6669877 -0.6923892
vn 0.5895491 0.5913885 0.5501741
vn -0.51395 -0.5121105 0.6881847
vn 0.5895491 0.5913885 -0.5501741
vn -0.51395 -0.5121105 -0.6881847
vn 0.770239 0.3203536 0.5514576
vn -0.668827 -0.279795 0.6887563
vn 0.770239 0.3203536 -0.5514576
vn -0.668827 -0.279795 -0.6887563
vn 0.8089582 0.08803806 0.5812365
vn -0.7527187 -0.07974543 0.6534946
vn -0.7527187 -0.279795 0.5959272
vn 0.7508793 -0.2797949 0.5982432
vn 0.8089582 0.08803806 -0.5812365
vn -0.7527187 -0.07974543 -0.6534946
vn 0.7508793 -0.2797949 -0.5982432
vn -0.7527187 -0.279795 -0.5959272
g Handle_001_0
f 3/3/3 2/2/2 1/1/1
f 4/4/4 3/3/3 1/1/1
f 4/4/4 1/1/1 5/5/5
f 6/6/6 4/4/4 5/5/5
f 6/6/6 5/5/5 7/7/7
f 8/8/8 6/6/6 7/7/7
f 8/8/8 7/7/7 9/9/9
f 10/10/10 8/8/8 9/9/9
f 10/10/10 9/9/9 11/11/11
f 12/12/12 10/10/10 11/11/11
f 12/12/12 11/11/11 13/13/13
f 14/14/14 12/12/12 13/13/13
f 14/14/14 13/13/13 15/15/15
f 16/16/16 14/14/14 15/15/15
f 16/16/16 15/15/15 17/17/17
f 18/18/18 16/16/16 17/17/17
f 18/18/18 17/17/17 19/19/19
f 20/20/20 18/18/18 19/19/19
f 20/20/20 19/19/19 21/21/21
f 22/22/22 20/20/20 21/21/21
f 22/22/22 21/21/21 23/23/23
f 24/24/24 22/22/22 23/23/23
f 24/24/24 25/25/25 22/22/22
f 25/25/25 24/24/24 26/26/26
f 24/24/24 27/27/27 26/26/26
f 26/26/26 27/27/27 28/28/28
f 30/30/30 29/29/29 28/28/28
f 31/31/31 29/29/29 30/30/30
f 32/32/32 30/30/30 28/28/28
f 33/33/33 32/32/32 28/28/28
f 34/34/34 31/31/31 30/30/30
f 34/34/34 30/30/30 32/32/32
f 31/31/31 34/34/34 35/35/35
f 34/34/34 36/36/36 35/35/35
f 36/36/36 34/34/34 32/32/32
f 36/36/36 37/37/37 35/35/35
f 38/38/38 32/32/32 33/33/33
f 36/36/36 32/32/32 38/38/38
f 39/39/39 38/38/38 33/33/33
f 36/36/36 40/40/40 37/37/37
f 40/40/40 36/36/36 38/38/38
f 40/40/40 41/41/41 37/37/37
f 42/42/42 38/38/38 39/39/39
f 40/40/40 38/38/38 42/42/42
f 43/43/43 42/42/42 39/39/39
f 40/40/40 44/44/44 41/41/41
f 44/44/44 40/40/40 42/42/42
f 44/44/44 45/45/45 41/41/41
f 46/46/46 42/42/42 43/43/43
f 44/44/44 42/42/42 46/46/46
f 47/47/47 46/46/46 43/43/43
f 44/44/44 48/48/48 45/45/45
f 48/48/48 44/44/44 46/46/46
f 48/48/48 49/49/49 45/45/45
f 50/50/50 46/46/46 47/47/47
f 48/48/48 46/46/46 50/50/50
f 51/51/51 50/50/50 47/47/47
f 48/48/48 52/52/52 49/49/49
f 52/52/52 48/48/48 50/50/50
f 52/52/52 53/53/53 49/49/49
f 54/54/54 50/50/50 51/51/51
f 52/52/52 50/50/50 54/54/54
f 55/55/55 54/54/54 51/51/51
f 52/52/52 56/56/56 53/53/53
f 56/56/56 52/52/52 54/54/54
f 56/56/56 57/57/57 53/53/53
f 58/58/58 54/54/54 55/55/55
f 56/56/56 54/54/54 58/58/58
f 59/59/59 58/58/58 55/55/55
f 56/56/56 60/60/60 57/57/57
f 60/60/60 56/56/56 58/58/58
f 60/60/60 61/61/61 57/57/57
f 62/62/62 58/58/58 59/59/59
f 60/60/60 58/58/58 62/62/62
f 63/63/63 62/62/62 59/59/59
f 63/63/63 64/64/64 62/62/62
f 64/64/64 65/65/65 62/62/62
f 60/60/60 66/66/66 61/61/61
f 66/66/66 60/60/60 62/62/62
f 66/66/66 62/62/62 65/65/65
f 66/66/66 67/67/67 61/61/61
f 68/68/68 66/66/66 65/65/65
f 69/69/69 67/67/67 66/66/66
f 68/68/68 69/69/69 66/66/66
