g Icosphere_034
v 0.2377703 0.1448316 -0.2813486
v -0.2811723 -0.4068678 -0.3521756
v 0.4981678 -0.4168606 -0.1796659
v 0.2377703 0.1448316 -0.2813486
v -0.7526857 0.02998768 -0.2055984
v -0.2811723 -0.4068678 -0.3521756
v 0.2377703 0.1448316 -0.2813486
v 0.006083857 0.6901942 -0.1176131
v -0.7526857 0.02998768 -0.2055984
v 0.4981678 -0.4168606 -0.1796659
v 0.6230533 -0.4295832 -0.01144584
v 0.6447937 0.3098345 -0.1106913
v -0.2811723 -0.4068678 -0.3521756
v -0.001569158 -0.5225405 -0.2774978
v 0.4981678 -0.4168606 -0.1796659
v -0.7526857 0.02998768 -0.2055984
v -0.2281861 -0.5127427 -0.3791805
v -0.2811723 -0.4068678 -0.3521756
v 0.6447937 0.3098345 -0.1106913
v 0.420419 0.672061 0.1354238
v 0.006083857 0.6901942 -0.1176131
v -0.7526857 0.02998768 -0.2055984
v -0.8111314 0.2362778 0.009758371
v -0.2281861 -0.5127427 -0.3791805
v 0.006083857 0.6901942 -0.1176131
v -0.01399921 0.8314581 0.2497803
v -0.4772259 0.5534636 -0.1165895
v 0.6108183 -0.2088156 0.3691088
v 0.225389 0.08818958 0.526215
v 0.3096209 0.5787137 0.6208784
v 0.3096209 0.5787137 0.6208784
v 0.225389 0.08818958 0.526215
v -0.4791757 0.361797 0.528506
v 0.3096209 0.5787137 0.6208784
v -0.4791757 0.361797 0.528506
v 0.006230093 0.8046969 0.657876
v -0.4791757 0.361797 0.528506
v 0.225389 0.08818958 0.526215
v -0.5152473 -0.2597057 0.4191703
v -0.5152473 -0.2597057 0.4191703
v 0.225389 0.08818958 0.526215
v 0.1776674 -0.2792526 0.4377422
v 0.1776674 -0.2792526 0.4377422
v 0.225389 0.08818958 0.526215
v 0.6108183 -0.2088156 0.3691088
v -0.8111314 0.2362778 0.009758371
v -0.7437165 0.02116477 0.3596035
v -0.2281861 -0.5127427 -0.3791805
v 0.420419 0.672061 0.1354238
v -0.01399921 0.8314581 0.2497803
v 0.006083857 0.6901942 -0.1176131
v -0.4772259 0.5534636 -0.1165895
v -0.8111314 0.2362778 0.009758371
v -0.7526857 0.02998768 -0.2055984
v -0.2281861 -0.5127427 -0.3791805
v -0.001569158 -0.5225405 -0.2774978
v -0.2811723 -0.4068678 -0.3521756
v -0.001569158 -0.5225405 -0.2774978
v 0.6230533 -0.4295832 -0.01144584
v 0.4981678 -0.4168606 -0.1796659
v 0.2377703 0.1448316 -0.2813486
v 0.6447937 0.3098345 -0.1106913
v 0.006083857 0.6901942 -0.1176131
v 0.006083857 0.6901942 -0.1176131
v -0.4772259 0.5534636 -0.1165895
v -0.7526857 0.02998768 -0.2055984
v 0.6447937 0.3098345 -0.1106913
v 0.2377703 0.1448316 -0.2813486
v 0.4981678 -0.4168606 -0.1796659
v 0.2722333 -1.372659 0.1910422
v 0.2789114 -1.098564 0.2689372
v 0.5834721 -0.9743608 0.1908472
v -0.3454674 -1.068147 0.2262851
v 0.2789114 -1.098564 0.2689372
v 0.2722333 -1.372659 0.1910422
v -0.008929701 -1.429252 -0.1918035
v -0.3454674 -1.068147 0.2262851
v 0.2722333 -1.372659 0.1910422
v 0.2928038 -1.277849 -0.09621394
v 0.2722333 -1.372659 0.1910422
v 0.5834721 -0.9743608 0.1908472
v -0.008929701 -1.429252 -0.1918035
v 0.2722333 -1.372659 0.1910422
v 0.2928038 -1.277849 -0.09621394
v 0.9217159 0.4293581 0.009417153
v 1.187329 -0.0930455 0.391288
v 0.8075544 0.5165634 0.5454206
v 0.9217159 0.4293581 0.009417153
v 0.8075544 0.5165634 0.5454206
v 0.6717011 0.7068164 0.07610074
v 0.9268829 -0.316884 0.169643
v 1.187329 -0.0930455 0.391288
v 0.9217159 0.4293581 0.009417153
v 0.4102312 1.428344 0.2315008
v 0.3214661 1.287861 0.7227073
v 0.04542133 1.460078 0.7453252
v 0.0003806548 1.561517 0.2315008
v 0.04542133 1.460078 0.7453252
v -0.5108114 1.334656 0.08823832
v -0.5108114 1.334656 0.08823832
v 0.04542133 1.460078 0.7453252
v -0.5128587 1.146402 0.7191002
v 0.4102312 1.428344 0.2315008
v 0.04542133 1.460078 0.7453252
v 0.0003806548 1.561517 0.2315008
v -1.239846 0.2090292 0.4992101
v -1.275967 -0.4124736 0.3898743
v -1.504436 -0.131603 0.3303076
v -1.571851 0.08351003 -0.01953756
v -1.239846 0.2090292 0.4992101
v -1.504436 -0.131603 0.3303076
v -1.612504 -0.3417441 -0.02143863
v -1.504436 -0.131603 0.3303076
v -1.275967 -0.4124736 0.3898743
v -1.237945 0.4006958 -0.1458854
v -1.239846 0.2090292 0.4992101
v -1.571851 0.08351003 -0.01953756
v -1.442724 -1.150185 -0.2143726
v -1.106187 -1.220915 0.1969891
v -0.7696003 -1.58202 -0.2210995
v 0.1776674 -0.2792526 0.4377422
v 0.2789114 -1.098564 0.2689372
v -0.3454674 -1.068147 0.2262851
v -0.5152473 -0.2597057 0.4191703
v -0.6245343 -0.9394591 -0.4563931
v -1.442724 -1.150185 -0.2143726
v -0.7696003 -1.58202 -0.2210995
v -0.008929701 -1.429252 -0.1918035
v 0.6230533 -0.4295832 -0.01144584
v 0.2928038 -1.277849 -0.09621394
v 0.5834721 -0.9743608 0.1908472
v 0.6108183 -0.2088156 0.3691088
v 0.6108183 -0.2088156 0.3691088
v 1.187329 -0.0930455 0.391288
v 0.9268829 -0.316884 0.169643
v 0.6230533 -0.4295832 -0.01144584
v 0.3096209 0.5787137 0.6208784
v 0.8075544 0.5165634 0.5454206
v 1.187329 -0.0930455 0.391288
v 0.6108183 -0.2088156 0.3691088
v -0.4791757 0.361797 0.528506
v -0.5128587 1.146402 0.7191002
v 0.04542133 1.460078 0.7453252
v 0.006230093 0.8046969 0.657876
v -0.01399921 0.8314581 0.2497803
v 0.0003806548 1.561517 0.2315008
v -0.5108114 1.334656 0.08823832
v -0.4772259 0.5534636 -0.1165895
v 0.006230093 0.8046969 0.657876
v 0.04542133 1.460078 0.7453252
v 0.3214661 1.287861 0.7227073
v 0.3096209 0.5787137 0.6208784
v -0.4791757 0.361797 0.528506
v -1.239846 0.2090292 0.4992101
v -1.273578 0.9936338 0.6898042
v -0.5128587 1.146402 0.7191002
v -0.7437165 0.02116477 0.3596035
v -1.504436 -0.131603 0.3303076
v -1.612504 -0.3417441 -0.02143863
v -0.2281861 -0.5127427 -0.3791805
v -0.5152473 -0.2597057 0.4191703
v -1.275967 -0.4124736 0.3898743
v -1.239846 0.2090292 0.4992101
v -0.4791757 0.361797 0.528506
v -0.2281861 -0.5127427 -0.3791805
v -0.6245343 -0.9394591 -0.4563931
v -0.008929701 -1.429252 -0.1918035
v -0.001569158 -0.5225405 -0.2774978
v -0.5128587 1.146402 0.7191002
v -1.273578 0.9936338 0.6898042
v -1.271531 1.181888 0.05894239
v -0.5108114 1.334656 0.08823832
v -0.3454674 -1.068147 0.2262851
v -1.106187 -1.220915 0.1969891
v -1.275967 -0.4124736 0.3898743
v -0.5152473 -0.2597057 0.4191703
v -0.001569158 -0.5225405 -0.2774978
v -0.008929701 -1.429252 -0.1918035
v 0.2928038 -1.277849 -0.09621394
v 0.6230533 -0.4295832 -0.01144584
v 0.6108183 -0.2088156 0.3691088
v 0.5834721 -0.9743608 0.1908472
v 0.2789114 -1.098564 0.2689372
v 0.1776674 -0.2792526 0.4377422
v 0.420419 0.672061 0.1354238
v 0.6717011 0.7068164 0.07610074
v 0.8075544 0.5165634 0.5454206
v 0.3096209 0.5787137 0.6208784
v -0.008929701 -1.429252 -0.1918035
v -0.7696003 -1.58202 -0.2210995
v -1.106187 -1.220915 0.1969891
v -0.3454674 -1.068147 0.2262851
v 0.6230533 -0.4295832 -0.01144584
v 0.9268829 -0.316884 0.169643
v 0.9217159 0.4293581 0.009417153
v 0.6447937 0.3098345 -0.1106913
v 0.6447937 0.3098345 -0.1106913
v 0.9217159 0.4293581 0.009417153
v 0.6717011 0.7068164 0.07610074
v 0.420419 0.672061 0.1354238
v 0.3096209 0.5787137 0.6208784
v 0.3214661 1.287861 0.7227073
v 0.4102312 1.428344 0.2315008
v 0.420419 0.672061 0.1354238
v 0.420419 0.672061 0.1354238
v 0.4102312 1.428344 0.2315008
v 0.0003806548 1.561517 0.2315008
v -0.01399921 0.8314581 0.2497803
v -1.275967 -0.4124736 0.3898743
v -1.106187 -1.220915 0.1969891
v -1.442724 -1.150185 -0.2143726
v -1.612504 -0.3417441 -0.02143863
v -1.237945 0.4006958 -0.1458854
v -1.271531 1.181888 0.05894239
v -1.273578 0.9936338 0.6898042
v -1.239846 0.2090292 0.4992101
v -0.2281861 -0.5127427 -0.3791805
v -1.612504 -0.3417441 -0.02143863
v -1.442724 -1.150185 -0.2143726
v -0.6245343 -0.9394591 -0.4563931
v -0.8111314 0.2362778 0.009758371
v -1.571851 0.08351003 -0.01953756
v -1.504436 -0.131603 0.3303076
v -0.7437165 0.02116477 0.3596035
v -0.4772259 0.5534636 -0.1165895
v -1.237945 0.4006958 -0.1458854
v -1.571851 0.08351003 -0.01953756
v -0.8111314 0.2362778 0.009758371
v -0.5108114 1.334656 0.08823832
v -1.271531 1.181888 0.05894239
v -1.237945 0.4006958 -0.1458854
v -0.4772259 0.5534636 -0.1165895
vt 0.4575054 0.4136451
vt 0.4429571 0.4247449
vt 0.4573976 0.4222663
vt 0.4575054 0.4136451
vt 0.4425261 0.4303487
vt 0.4429571 0.4247449
vt 0.4575054 0.4136451
vt 0.4564277 0.4333661
vt 0.4425261 0.4303487
vt 0.4583675 0.4575054
vt 0.4609538 0.4811058
vt 0.4661265 0.4724846
vt 0.4429571 0.4247449
vt 0.4441426 0.4461901
vt 0.4573976 0.4222663
vt 0.4425261 0.4303487
vt 0.4390776 0.4502851
vt 0.4429571 0.4247449
vt 0.4651567 0.4372456
vt 0.4635402 0.452656
vt 0.4564277 0.4333661
vt 0.4425261 0.4303487
vt 0.4428494 0.4527637
vt 0.4390776 0.4502851
vt 0.4564277 0.4333661
vt 0.4570743 0.4540569
vt 0.4483454 0.4451124
vt 0.461816 0.4701138
vt 0.4566433 0.4887571
vt 0.4606305 0.4789505
vt 0.4616004 0.5140818
vt 0.4576131 0.5238884
vt 0.4486687 0.5123576
vt 0.4616004 0.5140818
vt 0.4486687 0.5123576
vt 0.458152 0.506646
vt 0.4476988 0.4771186
vt 0.4566433 0.4887571
vt 0.4431727 0.4771186
vt 0.4431727 0.4771186
vt 0.4566433 0.4887571
vt 0.452656 0.4859552
vt 0.452656 0.4859552
vt 0.4566433 0.4887571
vt 0.461816 0.4701138
vt 0.4428494 0.4527637
vt 0.4422028 0.4725924
vt 0.4390776 0.4502851
vt 0.4635402 0.452656
vt 0.4570743 0.4540569
vt 0.4564277 0.4333661
vt 0.4483454 0.4451124
vt 0.4428494 0.4527637
vt 0.4425261 0.4303487
vt 0.4390776 0.4502851
vt 0.4441426 0.4461901
vt 0.4429571 0.4247449
vt 0.4451124 0.4814291
vt 0.4609538 0.4811058
vt 0.4583675 0.4575054
vt 0.4575054 0.4136451
vt 0.4651567 0.4372456
vt 0.4564277 0.4333661
vt 0.4564277 0.4333661
vt 0.4483454 0.4451124
vt 0.4425261 0.4303487
vt 0.4651567 0.4372456
vt 0.4575054 0.4136451
vt 0.4573976 0.4222663
vt 0.4499618 0.4682818
vt 0.452656 0.4859552
vt 0.461816 0.4701138
vt 0.4431727 0.4771186
vt 0.452656 0.4859552
vt 0.4499618 0.4682818
vt 0.4441426 0.4461901
vt 0.4431727 0.4771186
vt 0.4499618 0.4682818
vt 0.4609538 0.4811058
vt 0.4509317 0.5034131
vt 0.4627858 0.5052451
vt 0.4451124 0.4814291
vt 0.4509317 0.5034131
vt 0.4609538 0.4811058
vt 0.4651567 0.4372456
vt 0.461816 0.4701138
vt 0.4606305 0.4789505
vt 0.4651567 0.4372456
vt 0.4606305 0.4789505
vt 0.4635402 0.452656
vt 0.4609538 0.4811058
vt 0.4627858 0.5052451
vt 0.4661265 0.4724846
vt 0.4635402 0.452656
vt 0.4606305 0.4789505
vt 0.4571821 0.4715148
vt 0.4570743 0.4540569
vt 0.4571821 0.4715148
vt 0.4483454 0.4451124
vt 0.4483454 0.4451124
vt 0.4571821 0.4715148
vt 0.4476988 0.4771186
vt 0.4635402 0.452656
vt 0.4571821 0.4715148
vt 0.4570743 0.4540569
vt 0.4476988 0.4771186
vt 0.4431727 0.4771186
vt 0.4422028 0.4725924
vt 0.4428494 0.4527637
vt 0.4476988 0.4771186
vt 0.4422028 0.4725924
vt 0.4400475 0.4854164
vt 0.4431727 0.5077237
vt 0.4441426 0.5122498
vt 0.4483454 0.4451124
vt 0.4476988 0.4771186
vt 0.4428494 0.4527637
vt 0.4400475 0.4854164
vt 0.4441426 0.5122498
vt 0.4451124 0.4814291
vt 0.452656 0.4859552
vt 0.452656 0.4859552
vt 0.4431727 0.4771186
vt 0.4431727 0.4771186
vt 0.4390776 0.4502851
vt 0.4390776 0.4502851
vt 0.4441426 0.4461901
vt 0.4441426 0.4461901
vt 0.4609538 0.4811058
vt 0.4609538 0.4811058
vt 0.4627858 0.5052451
vt 0.4627858 0.5052451
vt 0.4627858 0.5052451
vt 0.4627858 0.5052451
vt 0.4609538 0.4811058
vt 0.4609538 0.4811058
vt 0.4606305 0.4789505
vt 0.4606305 0.4789505
vt 0.461816 0.4701138
vt 0.461816 0.4701138
vt 0.4486687 0.5123576
vt 0.4486687 0.5123576
vt 0.458152 0.506646
vt 0.458152 0.506646
vt 0.4570743 0.4540569
vt 0.4570743 0.4540569
vt 0.4483454 0.4451124
vt 0.4483454 0.4451124
vt 0.458152 0.506646
vt 0.458152 0.506646
vt 0.4616004 0.5140818
vt 0.4616004 0.5140818
vt 0.4486687 0.5123576
vt 0.4486687 0.5123576
vt 0.4486687 0.5123576
vt 0.4486687 0.5123576
vt 0.4422028 0.4725924
vt 0.4422028 0.4725924
vt 0.4390776 0.4502851
vt 0.4390776 0.4502851
vt 0.4431727 0.4771186
vt 0.4431727 0.4771186
vt 0.4476988 0.4771186
vt 0.4476988 0.4771186
vt 0.4390776 0.4502851
vt 0.4390776 0.4502851
vt 0.4441426 0.4461901
vt 0.4441426 0.4461901
vt 0.4476988 0.4771186
vt 0.4476988 0.4771186
vt 0.4483454 0.4451124
vt 0.4483454 0.4451124
vt 0.4431727 0.4771186
vt 0.4431727 0.4771186
vt 0.4431727 0.4771186
vt 0.4431727 0.4771186
vt 0.4451124 0.4814291
vt 0.4451124 0.4814291
vt 0.4609538 0.4811058
vt 0.4609538 0.4811058
vt 0.461816 0.4701138
vt 0.461816 0.4701138
vt 0.452656 0.4859552
vt 0.452656 0.4859552
vt 0.4635402 0.452656
vt 0.4635402 0.452656
vt 0.4606305 0.4789505
vt 0.4606305 0.4789505
vt 0.4441426 0.4461901
vt 0.4441426 0.4461901
vt 0.4431727 0.4771186
vt 0.4431727 0.4771186
vt 0.4609538 0.4811058
vt 0.4609538 0.4811058
vt 0.4661265 0.4724846
vt 0.4661265 0.4724846
vt 0.4651567 0.4372456
vt 0.4651567 0.4372456
vt 0.4635402 0.452656
vt 0.4635402 0.452656
vt 0.4606305 0.4789505
vt 0.4606305 0.4789505
vt 0.4635402 0.452656
vt 0.4635402 0.452656
vt 0.4635402 0.452656
vt 0.4635402 0.452656
vt 0.4570743 0.4540569
vt 0.4570743 0.4540569
vt 0.4441426 0.5122498
vt 0.4441426 0.5122498
vt 0.4400475 0.4854164
vt 0.4400475 0.4854164
vt 0.4483454 0.4451124
vt 0.4483454 0.4451124
vt 0.4476988 0.4771186
vt 0.4476988 0.4771186
vt 0.4390776 0.4502851
vt 0.4390776 0.4502851
vt 0.4390776 0.4502851
vt 0.4390776 0.4502851
vt 0.4428494 0.4527637
vt 0.4428494 0.4527637
vt 0.4422028 0.4725924
vt 0.4422028 0.4725924
vt 0.4483454 0.4451124
vt 0.4483454 0.4451124
vt 0.4428494 0.4527637
vt 0.4428494 0.4527637
vt 0.4483454 0.4451124
vt 0.4483454 0.4451124
vt 0.4483454 0.4451124
vt 0.4483454 0.4451124
vn 0.2120323 -0.0800475 -0.9739788
vn 0.2120323 -0.0800475 -0.9739788
vn 0.2120323 -0.0800475 -0.9739788
vn -0.09852018 0.2149774 -0.9716371
vn -0.09852018 0.2149774 -0.9716371
vn -0.09852018 0.2149774 -0.9716371
vn -0.09852017 0.2460326 -0.9642415
vn -0.09852017 0.2460326 -0.9642415
vn -0.09852017 0.2460326 -0.9642415
vn 0.7943182 -0.1033389 -0.5986481
vn 0.7943182 -0.1033389 -0.5986481
vn 0.7943182 -0.1033389 -0.5986481
vn 0.2120323 -0.1111028 -0.9709266
vn 0.2120323 -0.1111028 -0.9709266
vn 0.2120323 -0.1111028 -0.9709266
vn -0.1373392 0.1839221 -0.9732988
vn -0.1373392 0.1839221 -0.9732988
vn -0.1373392 0.1839221 -0.9732988
vn 0.4061276 0.6730424 -0.6181217
vn 0.4061276 0.6730424 -0.6181217
vn 0.4061276 0.6730424 -0.6181217
vn -0.5332937 -0.677861 0.5060655
vn -0.5332937 -0.677861 0.5060655
vn -0.5332937 -0.677861 0.5060655
vn -0.2537964 0.8981928 -0.3589388
vn -0.2537964 0.8981928 -0.3589388
vn -0.2537964 0.8981928 -0.3589388
vn 0.2197961 -0.2197961 0.9504627
vn 0.2197961 -0.2197961 0.9504627
vn 0.2197961 -0.2197961 0.9504627
vn -0.06746493 -0.1809771 0.9811707
vn -0.06746493 -0.1809771 0.9811707
vn -0.06746493 -0.1809771 0.9811707
vn -0.0519373 -0.22756 0.972378
vn -0.0519373 -0.22756 0.972378
vn -0.0519373 -0.22756 0.972378
vn -0.05970111 -0.1732132 0.9830732
vn -0.05970111 -0.1732132 0.9830732
vn -0.05970111 -0.1732132 0.9830732
vn -0.03640968 -0.22756 0.9730831
vn -0.03640968 -0.22756 0.9730831
vn -0.03640968 -0.22756 0.9730831
vn 0.1887409 -0.2508514 0.9494475
vn 0.1887409 -0.2508514 0.9494475
vn 0.1887409 -0.2508514 0.9494475
vn -0.8205546 -0.5458761 -0.1694378
vn -0.8205546 -0.5458761 -0.1694378
vn -0.8205546 -0.5458761 -0.1694378
vn 0.2430875 0.9059566 -0.3466281
vn 0.2430875 0.9059566 -0.3466281
vn 0.2430875 0.9059566 -0.3466281
vn -0.6575147 0.4478917 -0.6058609
vn -0.6575147 0.4478917 -0.6058609
vn -0.6575147 0.4478917 -0.6058609
vn 0.3906 0.4090727 -0.8246764
vn 0.3906 0.4090727 -0.8246764
vn 0.3906 0.4090727 -0.8246764
vn 0.2508514 -0.9340669 -0.254151
vn 0.2508514 -0.9340669 -0.254151
vn 0.2508514 -0.9340669 -0.254151
vn 0.2275599 0.3702536 -0.9006269
vn 0.2275599 0.3702536 -0.9006269
vn 0.2275599 0.3702536 -0.9006269
vn -0.05970112 0.1994497 -0.9780878
vn -0.05970112 0.1994497 -0.9780878
vn -0.05970112 0.1994497 -0.9780878
vn 0.3828362 0.01311824 -0.9237232
vn 0.3828362 0.01311824 -0.9237232
vn 0.3828362 0.01311824 -0.9237232
vn 0.3362533 -0.266379 0.9033139
vn 0.3362533 -0.266379 0.9033139
vn 0.3362533 -0.266379 0.9033139
vn -0.07522874 -0.2741428 0.9587421
vn -0.07522874 -0.2741428 0.9587421
vn -0.07522874 -0.2741428 0.9587421
vn -0.3857812 -0.8253735 0.4122275
vn -0.3857812 -0.8253735 0.4122275
vn -0.3857812 -0.8253735 0.4122275
vn 0.7787906 -0.6079867 -0.1543933
vn 0.7787906 -0.6079867 -0.1543933
vn 0.7787906 -0.6079867 -0.1543933
vn 0.4915296 -0.8331373 -0.253537
vn 0.4915296 -0.8331373 -0.253537
vn 0.4915296 -0.8331373 -0.253537
vn 0.8564287 0.5100022 0.08017204
vn 0.8564287 0.5100022 0.08017204
vn 0.8564287 0.5100022 0.08017204
vn 0.7470992 0.6647125 0
vn 0.7470992 0.6647125 0
vn 0.7470992 0.6647125 0
vn 0.7089163 -0.142158 -0.6908175
vn 0.7089163 -0.142158 -0.6908175
vn 0.7089163 -0.142158 -0.6908175
vn 0.5225849 0.7894995 0.3218629
vn 0.5225849 0.7894995 0.3218629
vn 0.5225849 0.7894995 0.3218629
vn -0.4478917 0.8671376 0.2178657
vn -0.4478917 0.8671376 0.2178657
vn -0.4478917 0.8671376 0.2178657
vn -0.4867108 0.8360823 0.2531382
vn -0.4867108 0.8360823 0.2531382
vn -0.4867108 0.8360823 0.2531382
vn 0.305198 0.9370118 0.1698906
vn 0.305198 0.9370118 0.1698906
vn 0.305198 0.9370118 0.1698906
vn -0.4013088 -0.1343942 0.9060295
vn -0.4013088 -0.1343942 0.9060295
vn -0.4013088 -0.1343942 0.9060295
vn -0.8050271 0.4246003 0.4143018
vn -0.8050271 0.4246003 0.4143018
vn -0.8050271 0.4246003 0.4143018
vn -0.7196251 -0.4760019 0.5055313
vn -0.7196251 -0.4760019 0.5055313
vn -0.7196251 -0.4760019 0.5055313
vn -0.6264594 0.7506804 0.2098275
vn -0.6264594 0.7506804 0.2098275
vn -0.6264594 0.7506804 0.2098275
vn -0.5177661 -0.8098459 0.2758043
vn -0.5177661 -0.8098459 0.2758043
vn -0.5177661 -0.8098459 0.2758043
vn -0.0519373 -0.22756 0.972378
vn -0.0519373 -0.22756 0.972378
vn -0.0519373 -0.22756 0.972378
vn -0.0519373 -0.22756 0.972378
vn -0.0519373 -0.3362533 -0.9403384
vn -0.0519373 -0.3362533 -0.9403384
vn -0.0519373 -0.3362533 -0.9403384
vn -0.0519373 -0.3362533 -0.9403384
vn 0.9495944 -0.1654494 -0.2662647
vn 0.9495944 -0.1654494 -0.2662647
vn 0.9495944 -0.1654494 -0.2662647
vn 0.9495944 -0.1654494 -0.2662647
vn 0.08004751 -0.8176097 0.5701814
vn 0.08004751 -0.8176097 0.5701814
vn 0.08004751 -0.8176097 0.5701814
vn 0.08004751 -0.8176097 0.5701814
vn 0.05675607 -0.2508514 0.9663603
vn 0.05675607 -0.2508514 0.9663603
vn 0.05675607 -0.2508514 0.9663603
vn 0.05675607 -0.2508514 0.9663603
vn -0.00535443 -0.1887409 0.9820124
vn -0.00535443 -0.1887409 0.9820124
vn -0.00535443 -0.1887409 0.9820124
vn -0.00535443 -0.1887409 0.9820124
vn 0.4138914 0.1140478 -0.9031539
vn 0.4138914 0.1140478 -0.9031539
vn 0.4138914 0.1140478 -0.9031539
vn 0.4138914 0.1140478 -0.9031539
vn 0.01017319 -0.1343942 0.9908757
vn 0.01017319 -0.1343942 0.9908757
vn 0.01017319 -0.1343942 0.9908757
vn 0.01017319 -0.1343942 0.9908757
vn 0.01017319 -0.2353237 0.9718637
vn 0.01017319 -0.2353237 0.9718637
vn 0.01017319 -0.2353237 0.9718637
vn 0.01017319 -0.2353237 0.9718637
vn -0.08299256 0.8050271 -0.5874042
vn -0.08299256 0.8050271 -0.5874042
vn -0.08299256 0.8050271 -0.5874042
vn -0.08299256 0.8050271 -0.5874042
vn -0.00535443 -0.1732132 0.9848698
vn -0.00535443 -0.1732132 0.9848698
vn -0.00535443 -0.1732132 0.9848698
vn -0.00535443 -0.1732132 0.9848698
vn 0.3440171 -0.1111027 -0.932367
vn 0.3440171 -0.1111027 -0.932367
vn 0.3440171 -0.1111027 -0.932367
vn 0.3440171 -0.1111027 -0.932367
vn -0.1994497 0.9370118 0.2867551
vn -0.1994497 0.9370118 0.2867551
vn -0.1994497 0.9370118 0.2867551
vn -0.1994497 0.9370118 0.2867551
vn 0.01017319 -0.2275599 0.9737109
vn 0.01017319 -0.2275599 0.9737109
vn 0.01017319 -0.2275599 0.9737109
vn 0.01017319 -0.2275599 0.9737109
vn 0.3828362 -0.0722837 -0.920984
vn 0.3828362 -0.0722837 -0.920984
vn 0.3828362 -0.0722837 -0.920984
vn 0.3828362 -0.0722837 -0.920984
vn 0.2430876 -0.1965047 0.9498917
vn 0.2430876 -0.1965047 0.9498917
vn 0.2430876 -0.1965047 0.9498917
vn 0.2430876 -0.1965047 0.9498917
vn 0.08781132 0.9525396 0.291475
vn 0.08781132 0.9525396 0.291475
vn 0.08781132 0.9525396 0.291475
vn 0.08781132 0.9525396 0.291475
vn 0.1111028 -0.7011524 0.7043021
vn 0.1111028 -0.7011524 0.7043021
vn 0.1111028 -0.7011524 0.7043021
vn 0.1111028 -0.7011524 0.7043021
vn 0.4992933 -0.1576856 -0.8519632
vn 0.4992933 -0.1576856 -0.8519632
vn 0.4992933 -0.1576856 -0.8519632
vn 0.4992933 -0.1576856 -0.8519632
vn -0.02088205 0.4246002 -0.90514
vn -0.02088205 0.4246002 -0.90514
vn -0.02088205 0.4246002 -0.90514
vn -0.02088205 0.4246002 -0.90514
vn 0.9806497 -0.02570082 0.1940763
vn 0.9806497 -0.02570082 0.1940763
vn 0.9806497 -0.02570082 0.1940763
vn 0.9806497 -0.02570082 0.1940763
vn -0.1140478 0.0519373 -0.9921167
vn -0.1140478 0.0519373 -0.9921167
vn -0.1140478 0.0519373 -0.9921167
vn -0.1140478 0.0519373 -0.9921167
vn -0.766208 -0.2974342 0.5696123
vn -0.766208 -0.2974342 0.5696123
vn -0.766208 -0.2974342 0.5696123
vn -0.766208 -0.2974342 0.5696123
vn -0.9991224 -0.04122844 -0.007394471
vn -0.9991224 -0.04122844 -0.007394471
vn -0.9991224 -0.04122844 -0.007394471
vn -0.9991224 -0.04122844 -0.007394471
vn -0.2615602 0.2537964 -0.9312216
vn -0.2615602 0.2537964 -0.9312216
vn -0.2615602 0.2537964 -0.9312216
vn -0.2615602 0.2537964 -0.9312216
vn 0.1887409 -0.8176097 -0.543959
vn 0.1887409 -0.8176097 -0.543959
vn 0.1887409 -0.8176097 -0.543959
vn 0.1887409 -0.8176097 -0.543959
vn 0.1266304 -0.4837657 -0.8659881
vn 0.1266304 -0.4837657 -0.8659881
vn 0.1266304 -0.4837657 -0.8659881
vn 0.1266304 -0.4837657 -0.8659881
vn -0.01311824 0.2537964 -0.9671687
vn -0.01311824 0.2537964 -0.9671687
vn -0.01311824 0.2537964 -0.9671687
vn -0.01311824 0.2537964 -0.9671687
g Icosphere_034_0
f 3/3/3 2/2/2 1/1/1
f 6/6/6 5/5/5 4/4/4
f 9/9/9 8/8/8 7/7/7
f 12/12/12 11/11/11 10/10/10
f 15/15/15 14/14/14 13/13/13
f 18/18/18 17/17/17 16/16/16
f 21/21/21 20/20/20 19/19/19
f 24/24/24 23/23/23 22/22/22
f 27/27/27 26/26/26 25/25/25
f 30/30/30 29/29/29 28/28/28
f 33/33/33 32/32/32 31/31/31
f 36/36/36 35/35/35 34/34/34
f 39/39/39 38/38/38 37/37/37
f 42/42/42 41/41/41 40/40/40
f 45/45/45 44/44/44 43/43/43
f 48/48/48 47/47/47 46/46/46
f 51/51/51 50/50/50 49/49/49
f 54/54/54 53/53/53 52/52/52
f 57/57/57 56/56/56 55/55/55
f 60/60/60 59/59/59 58/58/58
f 63/63/63 62/62/62 61/61/61
f 66/66/66 65/65/65 64/64/64
f 69/69/69 68/68/68 67/67/67
f 72/72/72 71/71/71 70/70/70
f 75/75/75 74/74/74 73/73/73
f 78/78/78 77/77/77 76/76/76
f 81/81/81 80/80/80 79/79/79
f 84/84/84 83/83/83 82/82/82
f 87/87/87 86/86/86 85/85/85
f 90/90/90 89/89/89 88/88/88
f 93/93/93 92/92/92 91/91/91
f 96/96/96 95/95/95 94/94/94
f 99/99/99 98/98/98 97/97/97
f 102/102/102 101/101/101 100/100/100
f 105/105/105 104/104/104 103/103/103
f 108/108/108 107/107/107 106/106/106
f 111/111/111 110/110/110 109/109/109
f 114/114/114 113/113/113 112/112/112
f 117/117/117 116/116/116 115/115/115
f 120/120/120 119/119/119 118/118/118
f 123/123/123 122/122/122 121/121/121
f 124/124/124 123/123/123 121/121/121
f 127/127/127 126/126/126 125/125/125
f 128/128/128 127/127/127 125/125/125
f 131/131/131 130/130/130 129/129/129
f 132/132/132 131/131/131 129/129/129
f 135/135/135 134/134/134 133/133/133
f 136/136/136 135/135/135 133/133/133
f 139/139/139 138/138/138 137/137/137
f 140/140/140 139/139/139 137/137/137
f 143/143/143 142/142/142 141/141/141
f 144/144/144 143/143/143 141/141/141
f 147/147/147 146/146/146 145/145/145
f 148/148/148 147/147/147 145/145/145
f 151/151/151 150/150/150 149/149/149
f 152/152/152 151/151/151 149/149/149
f 155/155/155 154/154/154 153/153/153
f 156/156/156 155/155/155 153/153/153
f 159/159/159 158/158/158 157/157/157
f 160/160/160 159/159/159 157/157/157
f 163/163/163 162/162/162 161/161/161
f 164/164/164 163/163/163 161/161/161
f 167/167/167 166/166/166 165/165/165
f 168/168/168 167/167/167 165/165/165
f 171/171/171 170/170/170 169/169/169
f 172/172/172 171/171/171 169/169/169
f 175/175/175 174/174/174 173/173/173
f 176/176/176 175/175/175 173/173/173
f 179/179/179 178/178/178 177/177/177
f 180/180/180 179/179/179 177/177/177
f 183/183/183 182/182/182 181/181/181
f 184/184/184 183/183/183 181/181/181
f 187/187/187 186/186/186 185/185/185
f 188/188/188 187/187/187 185/185/185
f 191/191/191 190/190/190 189/189/189
f 192/192/192 191/191/191 189/189/189
f 195/195/195 194/194/194 193/193/193
f 196/196/196 195/195/195 193/193/193
f 199/199/199 198/198/198 197/197/197
f 200/200/200 199/199/199 197/197/197
f 203/203/203 202/202/202 201/201/201
f 204/204/204 203/203/203 201/201/201
f 207/207/207 206/206/206 205/205/205
f 208/208/208 207/207/207 205/205/205
f 211/211/211 210/210/210 209/209/209
f 212/212/212 211/211/211 209/209/209
f 215/215/215 214/214/214 213/213/213
f 216/216/216 215/215/215 213/213/213
f 219/219/219 218/218/218 217/217/217
f 220/220/220 219/219/219 217/217/217
f 223/223/223 222/222/222 221/221/221
f 224/224/224 223/223/223 221/221/221
f 227/227/227 226/226/226 225/225/225
f 228/228/228 227/227/227 225/225/225
f 231/231/231 230/230/230 229/229/229
f 232/232/232 231/231/231 229/229/229
