g Icosphere_011
v -0.06140623 -0.001377005 0.3610358
v 0.05810221 -0.0009882541 0.5092146
v 0.01300713 -0.0009882541 0.4056774
v -0.06140623 -0.001377005 0.3610358
v -0.08751731 -0.0009882541 0.4292292
v 0.05810221 -0.0009882541 0.5092146
v -0.1306363 -0.0009882541 0.4055478
v -0.1619955 -0.0009882541 0.3883132
v -0.1405494 -0.002543257 0.2472938
v -0.1860656 -0.00102065 0.2601226
v -0.1629997 -0.001862943 0.1977281
v 0.0274557 -0.0009882541 0.3460365
v 0.01300713 -0.0009882541 0.4056774
v -0.08648065 0.001441438 0.1099029
v 0.02739091 -0.002057319 0.1979873
v 0.124287 -0.0009882541 0.4219077
v 0.1033917 -0.0009882541 0.4597461
v 0.05810221 -0.0009882541 0.5092146
v 0.1002493 -0.0009882541 0.5200996
v 0.3795666 -0.0009882541 0.4956731
v 0.2826705 -0.0009882541 0.5434247
v 0.3655068 -0.0009882541 0.5376906
v 0.4056777 -0.0009882541 0.4214865
v 0.3418254 -0.0009882541 0.3099151
v 0.1261336 -0.001506588 0.2593775
v 0.4932114 -0.0009882541 0.4276742
v 0.4517447 -0.0009882541 0.5317298
v 0.5901076 -0.0009882541 0.5221406
v 0.6941956 -0.0009882541 0.3824495
v 0.7266238 -0.0009882541 0.4536881
v 0.6170933 -0.0009882541 0.2689019
v 0.4282253 -0.001862943 0.2151571
v 0.1386708 -0.004519406 0.1521147
v 0.8832256 -0.0009882541 0.3751281
v 0.7743106 -0.0009882541 0.4297475
v 1.002702 -0.0007614827 0.1923828
v 0.650947 -4.877322E-05 0.1505597
v 0.9205456 -0.0002431486 0.1425579
v 0.9164961 0.00315842 0.02078178
v 1.022496 -0.0005023157 0.1459595
v 0.4513559 -0.003061591 0.1210795
v 0.6646828 -0.0008910664 0.08201002
v 0.6516274 0.0003399775 0.004778215
v 0.3654096 -0.001603776 0.002024564
v 0.1664665 -0.002381278 0.07433219
v 0.1620282 0.003061232 0.001376646
v -0.01763938 -0.005815242 0.06189217
v -0.1620279 -0.003061591 -0.001377005
v -0.2196602 -0.001053046 0.1175807
v -0.3716293 -0.0009234623 0.1260684
v -0.4285164 0.001668209 0.001765397
v -0.4240458 -0.001085442 0.2606734
v -0.4997874 -0.001117837 0.1844782
v -0.2393245 -0.001053046 0.2488164
v -0.4693029 -0.001117837 0.2279859
v -0.4598109 -0.001117837 0.2658891
v -0.4679747 -0.0004699198 0.08045501
v -0.5992752 -0.002478465 0.06739947
v -0.6147605 -0.001506588 -0.002737632
v -0.7790724 0.001603417 -0.003191174
v -0.6410983 -0.001700964 0.1149566
v -0.6081193 -0.001117837 0.2832533
v -0.5813603 -0.001117837 0.3247524
v -0.8228069 -0.003450342 0.05304809
v -0.7181033 -0.001117837 0.2159346
v -0.9242707 -0.004325031 0.03730369
v -0.9798945 0.0005343528 0.06940802
v -1.023467 -0.002510861 0.0009878953
v -1.069566 -0.001700964 0.06600645
v -1.020843 -0.0001783568 0.08855399
v -0.8432163 -0.001441797 0.1270403
v -0.9443886 -0.001117837 0.2101034
v -0.7818584 -0.001117837 0.3018809
v -1.023597 -0.002154506 0.1613152
v -0.9714392 -0.003061591 0.2832209
v -0.8613904 -0.001117837 0.3475592
v -0.8524167 -0.001117837 0.3476563
v -0.635105 -0.001117837 0.350086
v -0.8000001 -0.001117837 0.3482394
v -0.6191987 -0.001117837 0.3425702
v -1.100569 -0.001150233 0.1097409
v -1.087449 -0.001377005 0.09121045
v -1.040928 -0.001117837 0.2556844
v -0.9714392 -0.003061591 0.2832209
v -0.9443886 -0.001117837 0.2101034
v -0.8613904 -0.001117837 0.3475592
v 0.650947 -4.877322E-05 0.1505597
v 0.9164961 0.00315842 0.02078178
v 0.6646828 -0.0008910664 0.08201002
vt 0.1237741 0.8585418
vt 0.1245081 0.8702864
vt 0.1237741 0.862212
vt 0.1237741 0.8585418
vt 0.1237741 0.8636801
vt 0.1245081 0.8702864
vt 0.1237741 0.862212
vt 0.1237741 0.8607439
vt 0.1237741 0.8504675
vt 0.1237741 0.8512015
vt 0.1237741 0.8467973
vt 0.1245081 0.8578078
vt 0.1237741 0.862212
vt 0.1237741 0.840191
vt 0.1245081 0.8467973
vt 0.1245081 0.8636801
vt 0.1245081 0.8658822
vt 0.1245081 0.8702864
vt 0.1245081 0.8710204
vt 0.1252421 0.8688183
vt 0.1245081 0.8724885
vt 0.1252421 0.8717545
vt 0.1252421 0.8636801
vt 0.1245081 0.8548717
vt 0.1245081 0.8512015
vt 0.1252421 0.8636801
vt 0.1252421 0.8717545
vt 0.1252421 0.8710204
vt 0.1259762 0.8607439
vt 0.1259762 0.8658822
vt 0.1252421 0.8519356
vt 0.1252421 0.8482654
vt 0.1245081 0.8431271
vt 0.1259762 0.8600099
vt 0.1259762 0.8636801
vt 0.1267102 0.8460633
vt 0.1252421 0.8431271
vt 0.1259762 0.8423931
vt 0.1259762 0.8335847
vt 0.1267102 0.8431271
vt 0.1252421 0.840925
vt 0.1259762 0.8379889
vt 0.1252421 0.8321167
vt 0.1252421 0.8321167
vt 0.1245081 0.8372549
vt 0.1245081 0.8321167
vt 0.1237741 0.8365209
vt 0.1237741 0.8321167
vt 0.1237741 0.840925
vt 0.12304 0.840925
vt 0.12304 0.8321167
vt 0.12304 0.8512015
vt 0.12304 0.8453292
vt 0.1237741 0.8504675
vt 0.12304 0.8489994
vt 0.12304 0.8519356
vt 0.12304 0.8379889
vt 0.12304 0.8372549
vt 0.12304 0.8313826
vt 0.122306 0.8313826
vt 0.122306 0.840191
vt 0.12304 0.8526696
vt 0.12304 0.8563398
vt 0.122306 0.8357868
vt 0.122306 0.8482654
vt 0.122306 0.8343188
vt 0.121572 0.8372549
vt 0.121572 0.8321167
vt 0.121572 0.8365209
vt 0.121572 0.8387229
vt 0.122306 0.8416591
vt 0.121572 0.8475314
vt 0.122306 0.8541377
vt 0.121572 0.8438612
vt 0.121572 0.8534036
vt 0.122306 0.8578078
vt 0.122306 0.8578078
vt 0.122306 0.8578078
vt 0.122306 0.8578078
vt 0.12304 0.8578078
vt 0.121572 0.840191
vt 0.121572 0.8387229
vt 0.121572 0.8512015
vt 0.121572 0.8534036
vt 0.121572 0.8475314
vt 0.122306 0.8578078
vt 0.1252421 0.8431271
vt 0.1259762 0.8335847
vt 0.1259762 0.8379889
vn 0.004203546 -0.9999912 0
vn 0.0001556303 -1 0
vn 0.0001556303 -1 0
vn 0.004203546 -0.9999912 0
vn 0.0001556303 -1 0
vn 0.0001556303 -1 0
vn -0.003892293 -0.9999925 0
vn -0.003892293 -0.9999925 0
vn 0.0001556303 -1 0
vn -0.03221127 -0.9994811 0
vn 0.008251255 -0.999966 0
vn 0.004203546 -0.9999912 0
vn 0.0001556303 -1 0
vn -0.01603412 -0.9998715 0
vn -0.007940026 -0.9999685 0
vn 0.0001556303 -1 0
vn 0.0001556303 -1 0
vn 0.0001556303 -1 0
vn 0.0001556303 -1 0
vn 0.0001556303 -1 0
vn 0.0001556303 -1 0
vn 0.0001556303 -1 0
vn 0.0001556303 -1 0
vn 0.0001556303 -1 0
vn 0.0001556303 -1 0
vn 0.0001556303 -1 0
vn 0.0001556303 -1 0
vn 0.0001556303 -1 0
vn 0.0001556303 -1 0
vn 0.0001556303 -1 0
vn 0.0001556303 -1 0
vn 0.004203546 -0.9999912 0
vn 0.004203546 -0.9999912 0
vn 0.0001556303 -1 0
vn 0.0001556303 -1 0
vn 0.0001556303 -1 0
vn 0.004203546 -0.9999912 0
vn 0.0001556303 -1 0
vn 0.0001556303 -1 0
vn 0.0001556303 -1 0
vn 0.008251255 -0.999966 0
vn 0.01229856 -0.9999244 0
vn 0.008251255 -0.999966 0
vn 0.0001556303 -1 0
vn 0.004203546 -0.9999912 0
vn 0.0001556303 -0.995952 -0.08988585
vn -0.003892293 -0.9999925 0
vn -0.003892293 -0.9999925 0
vn -0.003892293 -0.9999925 0
vn -0.007940026 -0.9999685 0
vn -0.003892293 -0.9999925 0
vn 0.0001556303 -1 0
vn 0.0001556303 -1 0
vn 0.0001556303 -1 0
vn 0.0001556303 -1 0
vn 0.0001556303 -1 0
vn 0.008251255 -0.999966 0
vn 0.008251255 -0.999966 0
vn -0.003892293 -0.9999925 0
vn 0.008251536 -0.995952 -0.08950642
vn 0.004203546 -0.9999912 0
vn 0.0001556303 -1 0
vn 0.0001556303 -1 0
vn 0.0001556303 -1 0
vn 0.0001556303 -1 0
vn 0.0001556303 -1 0
vn -0.003892293 -0.9999925 0
vn 0.008251255 -0.999966 0
vn 0.02443605 -0.9997013 0
vn 0.01229856 -0.9999244 0
vn -0.003892293 -0.9999925 0
vn 0.008251255 -0.999966 0
vn 0.0001556303 -1 0
vn 0.004203546 -0.9999912 0
vn -0.007940026 -0.9999685 0
vn 0.008251255 -0.999966 0
vn 0.0001556303 -1 0
vn 0.0001556303 -1 0
vn 0.0001556303 -1 0
vn 0.0001556303 -1 0
vn -0.003892293 -0.9999925 0
vn 0.02039115 -0.9997922 0
vn -0.02816886 -0.9996032 0
vn -0.007940026 -0.9999685 0
vn 0.008251255 -0.999966 0
vn 0.008251255 -0.999966 0
vn 0.004203546 -0.9999912 0
vn 0.0001556303 -1 0
vn 0.01229856 -0.9999244 0
g Icosphere_011_0
f 3/3/3 2/2/2 1/1/1
f 6/6/6 5/5/5 4/4/4
f 8/8/8 4/4/4 7/7/7
f 8/8/8 9/9/9 4/4/4
f 9/9/9 8/8/8 10/10/10
f 9/9/9 10/10/10 11/11/11
f 9/9/9 12/12/12 4/4/4
f 12/12/12 13/13/13 4/4/4
f 14/14/14 9/9/9 11/11/11
f 15/15/15 12/12/12 9/9/9
f 15/15/15 9/9/9 14/14/14
f 12/12/12 16/16/16 13/13/13
f 13/13/13 16/16/16 17/17/17
f 18/18/18 13/13/13 17/17/17
f 17/17/17 16/16/16 19/19/19
f 16/16/16 20/20/20 19/19/19
f 20/20/20 21/21/21 19/19/19
f 21/21/21 20/20/20 22/22/22
f 16/16/16 23/23/23 20/20/20
f 12/12/12 24/24/24 16/16/16
f 16/16/16 24/24/24 23/23/23
f 25/25/25 12/12/12 15/15/15
f 24/24/24 12/12/12 25/25/25
f 24/24/24 26/26/26 23/23/23
f 23/23/23 26/26/26 27/27/27
f 27/27/27 26/26/26 28/28/28
f 26/26/26 29/29/29 28/28/28
f 29/29/29 30/30/30 28/28/28
f 24/24/24 31/31/31 26/26/26
f 26/26/26 31/31/31 29/29/29
f 32/32/32 24/24/24 25/25/25
f 32/32/32 31/31/31 24/24/24
f 25/25/25 15/15/15 33/33/33
f 32/32/32 25/25/25 33/33/33
f 31/31/31 34/34/34 29/29/29
f 35/35/35 29/29/29 34/34/34
f 34/34/34 31/31/31 36/36/36
f 31/31/31 37/37/37 36/36/36
f 37/37/37 31/31/31 32/32/32
f 37/37/37 38/38/38 36/36/36
f 37/37/37 39/39/39 38/38/38
f 39/39/39 40/40/40 38/38/38
f 37/37/37 32/32/32 41/41/41
f 41/41/41 32/32/32 33/33/33
f 37/37/37 41/41/41 42/42/42
f 42/42/42 43/43/43 39/39/39
f 42/42/42 41/41/41 43/43/43
f 41/41/41 44/44/44 43/43/43
f 45/45/45 44/44/44 41/41/41
f 41/41/41 33/33/33 45/45/45
f 46/46/46 44/44/44 45/45/45
f 33/33/33 47/47/47 45/45/45
f 47/47/47 46/46/46 45/45/45
f 33/33/33 15/15/15 47/47/47
f 47/47/47 48/48/48 46/46/46
f 15/15/15 14/14/14 47/47/47
f 14/14/14 48/48/48 47/47/47
f 14/14/14 49/49/49 48/48/48
f 49/49/49 14/14/14 11/11/11
f 48/48/48 49/49/49 50/50/50
f 50/50/50 49/49/49 11/11/11
f 51/51/51 48/48/48 50/50/50
f 11/11/11 52/52/52 50/50/50
f 50/50/50 52/52/52 53/53/53
f 11/11/11 54/54/54 52/52/52
f 52/52/52 55/55/55 53/53/53
f 53/53/53 55/55/55 56/56/56
f 51/51/51 50/50/50 57/57/57
f 50/50/50 53/53/53 57/57/57
f 58/58/58 51/51/51 57/57/57
f 58/58/58 59/59/59 51/51/51
f 60/60/60 59/59/59 58/58/58
f 57/57/57 61/61/61 58/58/58
f 57/57/57 53/53/53 61/61/61
f 62/62/62 53/53/53 56/56/56
f 62/62/62 56/56/56 63/63/63
f 58/58/58 64/64/64 60/60/60
f 58/58/58 61/61/61 64/64/64
f 61/61/61 53/53/53 65/65/65
f 65/65/65 53/53/53 62/62/62
f 64/64/64 66/66/66 60/60/60
f 64/64/64 67/67/67 66/66/66
f 68/68/68 60/60/60 66/66/66
f 68/68/68 66/66/66 67/67/67
f 68/68/68 67/67/67 69/69/69
f 67/67/67 70/70/70 69/69/69
f 61/61/61 71/71/71 64/64/64
f 61/61/61 65/65/65 71/71/71
f 71/71/71 67/67/67 64/64/64
f 65/65/65 72/72/72 71/71/71
f 71/71/71 72/72/72 67/67/67
f 65/65/65 62/62/62 73/73/73
f 72/72/72 65/65/65 73/73/73
f 67/67/67 72/72/72 74/74/74
f 67/67/67 74/74/74 70/70/70
f 72/72/72 73/73/73 75/75/75
f 75/75/75 73/73/73 76/76/76
f 76/76/76 73/73/73 77/77/77
f 62/62/62 78/78/78 73/73/73
f 78/78/78 79/79/79 73/73/73
f 78/78/78 62/62/62 80/80/80
f 74/74/74 81/81/81 70/70/70
f 82/82/82 70/70/70 81/81/81
f 74/74/74 83/83/83 81/81/81
f 84/84/84 83/83/83 74/74/74
f 85/85/85 84/84/84 74/74/74
f 86/86/86 83/83/83 84/84/84
f 89/89/89 88/88/88 87/87/87
