g Icosphere_035
v 0.0794108 0.05313026 -0.08700109
v -0.137987 -0.1192431 -0.05360257
v 0.09843218 -0.08490722 -0.03293165
v 0.0794108 0.05313026 -0.08700109
v -0.2056848 0.0525094 -0.03375946
v -0.137987 -0.1192431 -0.05360257
v 0.0794108 0.05313026 -0.08700109
v 0.00066528 0.1740941 -0.02413007
v -0.2056848 0.0525094 -0.03375946
v 0.09843218 -0.08490722 -0.03293165
v 0.1147084 -0.08224726 0.004009417
v 0.1232056 0.06241269 -0.01681368
v -0.137987 -0.1192431 -0.05360257
v -0.05071378 -0.1731239 -0.001067012
v 0.09843218 -0.08490722 -0.03293165
v -0.2056848 0.0525094 -0.03375946
v -0.2257775 -0.01522501 0.01575094
v -0.137987 -0.1192431 -0.05360257
v 0.1232056 0.06241269 -0.01681368
v 0.08659936 0.1357896 0.0108632
v 0.00066528 0.1740941 -0.02413007
v 0.00066528 0.1740941 -0.02413007
v 0.001870475 0.1858782 0.02052303
v -0.1123553 0.1711359 -0.009162516
v 0.03319338 -0.1567076 0.0894322
v 0.04223235 -0.1217752 0.1486207
v 0.1314777 -0.04519664 0.08173842
v 0.1314777 -0.04519664 0.08173842
v 0.07125442 0.000825997 0.1915695
v 0.07944123 0.1242855 0.1212786
v -0.1497285 0.1338905 0.1300497
v 0.07125442 0.000825997 0.1915695
v -0.1870165 -0.08557677 0.1186795
v -0.1497285 0.1338905 0.1300497
v -0.1870165 -0.08557677 0.1186795
v -0.2233976 0.02464991 0.08871396
v -0.1870165 -0.08557677 0.1186795
v 0.07125442 0.000825997 0.1915695
v 0.04223235 -0.1217752 0.1486207
v -0.1870165 -0.08557677 0.1186795
v 0.04223235 -0.1217752 0.1486207
v 0.03319338 -0.1567076 0.0894322
v 0.04223235 -0.1217752 0.1486207
v 0.07125442 0.000825997 0.1915695
v 0.1314777 -0.04519664 0.08173842
v 0.1232056 0.06241269 -0.01681368
v 0.1314777 -0.04519664 0.08173842
v 0.07944123 0.1242855 0.1212786
v 0.1232056 0.06241269 -0.01681368
v 0.07944123 0.1242855 0.1212786
v 0.08659936 0.1357896 0.0108632
v 0.08659936 0.1357896 0.0108632
v 0.07944123 0.1242855 0.1212786
v 0.0140746 0.1777036 0.09205563
v 0.001870475 0.1858782 0.02052303
v 0.0140746 0.1777036 0.09205563
v -0.1123553 0.1711359 -0.009162516
v -0.1123553 0.1711359 -0.009162516
v 0.0140746 0.1777036 0.09205563
v -0.1497285 0.1338905 0.1300497
v -0.2026597 0.09990158 0.0199813
v -0.1497285 0.1338905 0.1300497
v -0.2233976 0.02464991 0.08871396
v -0.2257775 -0.01522501 0.01575094
v -0.2233976 0.02464991 0.08871396
v -0.1870165 -0.08557677 0.1186795
v -0.05071378 -0.1731239 -0.001067012
v -0.1870165 -0.08557677 0.1186795
v 0.03319338 -0.1567076 0.0894322
v 0.1147084 -0.08224726 0.004009417
v 0.03319338 -0.1567076 0.0894322
v 0.1314777 -0.04519664 0.08173842
v 0.08659936 0.1357896 0.0108632
v 0.0140746 0.1777036 0.09205563
v 0.001870475 0.1858782 0.02052303
v 0.08659936 0.1357896 0.0108632
v 0.001870475 0.1858782 0.02052303
v 0.00066528 0.1740941 -0.02413007
v -0.1123553 0.1711359 -0.009162516
v -0.1497285 0.1338905 0.1300497
v -0.2026597 0.09990158 0.0199813
v -0.1123553 0.1711359 -0.009162516
v -0.2026597 0.09990158 0.0199813
v -0.2056848 0.0525094 -0.03375946
v -0.2257775 -0.01522501 0.01575094
v -0.1870165 -0.08557677 0.1186795
v -0.05071378 -0.1731239 -0.001067012
v -0.2257775 -0.01522501 0.01575094
v -0.05071378 -0.1731239 -0.001067012
v -0.137987 -0.1192431 -0.05360257
v -0.05071378 -0.1731239 -0.001067012
v 0.03319338 -0.1567076 0.0894322
v 0.1147084 -0.08224726 0.004009417
v -0.05071378 -0.1731239 -0.001067012
v 0.1147084 -0.08224726 0.004009417
v 0.09843218 -0.08490722 -0.03293165
v 0.1147084 -0.08224726 0.004009417
v 0.1314777 -0.04519664 0.08173842
v 0.1232056 0.06241269 -0.01681368
v 0.0794108 0.05313026 -0.08700109
v 0.1232056 0.06241269 -0.01681368
v 0.00066528 0.1740941 -0.02413007
v 0.00066528 0.1740941 -0.02413007
v -0.1123553 0.1711359 -0.009162516
v -0.2056848 0.0525094 -0.03375946
v 0.1232056 0.06241269 -0.01681368
v 0.0794108 0.05313026 -0.08700109
v 0.09843218 -0.08490722 -0.03293165
v -0.2056848 0.0525094 -0.03375946
v -0.2026597 0.09990158 0.0199813
v -0.2257775 -0.01522501 0.01575094
v -0.2233976 0.02464991 0.08871396
v 0.07944123 0.1242855 0.1212786
v 0.07125442 0.000825997 0.1915695
v -0.1497285 0.1338905 0.1300497
v 0.0140746 0.1777036 0.09205563
vt 0.4575054 0.4136451
vt 0.4429571 0.4247449
vt 0.4573976 0.4222663
vt 0.4575054 0.4136451
vt 0.4425261 0.4303487
vt 0.4429571 0.4247449
vt 0.4575054 0.4136451
vt 0.4564277 0.4333661
vt 0.4425261 0.4303487
vt 0.4583675 0.4575054
vt 0.4609538 0.4811058
vt 0.4661265 0.4724846
vt 0.4429571 0.4247449
vt 0.4441426 0.4461901
vt 0.4573976 0.4222663
vt 0.4425261 0.4303487
vt 0.4390776 0.4502851
vt 0.4429571 0.4247449
vt 0.4651567 0.4372456
vt 0.4635402 0.452656
vt 0.4564277 0.4333661
vt 0.4564277 0.4333661
vt 0.4570743 0.4540569
vt 0.4483454 0.4451124
vt 0.4499618 0.4682818
vt 0.452656 0.4859552
vt 0.461816 0.4701138
vt 0.461816 0.4701138
vt 0.4566433 0.4887571
vt 0.4606305 0.4789505
vt 0.4476988 0.4771186
vt 0.4566433 0.4887571
vt 0.4431727 0.4771186
vt 0.4476988 0.4771186
vt 0.4431727 0.4771186
vt 0.4422028 0.4725924
vt 0.4431727 0.4771186
vt 0.4566433 0.4887571
vt 0.452656 0.4859552
vt 0.4431727 0.4771186
vt 0.452656 0.4859552
vt 0.4499618 0.4682818
vt 0.452656 0.4859552
vt 0.4566433 0.4887571
vt 0.461816 0.4701138
vt 0.4651567 0.4372456
vt 0.461816 0.4701138
vt 0.4606305 0.4789505
vt 0.4651567 0.4372456
vt 0.4606305 0.4789505
vt 0.4635402 0.452656
vt 0.4635402 0.452656
vt 0.4606305 0.4789505
vt 0.4571821 0.4715148
vt 0.4570743 0.4540569
vt 0.4571821 0.4715148
vt 0.4483454 0.4451124
vt 0.4483454 0.4451124
vt 0.4571821 0.4715148
vt 0.4476988 0.4771186
vt 0.4428494 0.4527637
vt 0.4476988 0.4771186
vt 0.4422028 0.4725924
vt 0.4400475 0.4854164
vt 0.4431727 0.5077237
vt 0.4441426 0.5122498
vt 0.4441426 0.4461901
vt 0.4431727 0.4771186
vt 0.4499618 0.4682818
vt 0.4609538 0.4811058
vt 0.4509317 0.5034131
vt 0.4627858 0.5052451
vt 0.4635402 0.452656
vt 0.4571821 0.4715148
vt 0.4570743 0.4540569
vt 0.4635402 0.452656
vt 0.4570743 0.4540569
vt 0.4564277 0.4333661
vt 0.4483454 0.4451124
vt 0.4476988 0.4771186
vt 0.4428494 0.4527637
vt 0.4483454 0.4451124
vt 0.4428494 0.4527637
vt 0.4425261 0.4303487
vt 0.4400475 0.4854164
vt 0.4441426 0.5122498
vt 0.4451124 0.4814291
vt 0.4390776 0.4502851
vt 0.4441426 0.4461901
vt 0.4429571 0.4247449
vt 0.4451124 0.4814291
vt 0.4509317 0.5034131
vt 0.4609538 0.4811058
vt 0.4451124 0.4814291
vt 0.4609538 0.4811058
vt 0.4583675 0.4575054
vt 0.4609538 0.4811058
vt 0.4627858 0.5052451
vt 0.4661265 0.4724846
vt 0.4575054 0.4136451
vt 0.4651567 0.4372456
vt 0.4564277 0.4333661
vt 0.4564277 0.4333661
vt 0.4483454 0.4451124
vt 0.4425261 0.4303487
vt 0.4651567 0.4372456
vt 0.4575054 0.4136451
vt 0.4573976 0.4222663
vt 0.4425261 0.4303487
vt 0.4428494 0.4527637
vt 0.4390776 0.4502851
vt 0.4422028 0.4725924
vt 0.4616004 0.5140818
vt 0.4576131 0.5238884
vt 0.4486687 0.5123576
vt 0.458152 0.506646
vn 0.1290194 -0.3440733 -0.9300362
vn 0.1290194 -0.3440733 -0.9300362
vn 0.1290194 -0.3440733 -0.9300362
vn -0.185881 0.0399516 -0.9817597
vn -0.185881 0.0399516 -0.9817597
vn -0.185881 0.0399516 -0.9817597
vn -0.1705201 0.3625325 -0.9162385
vn -0.1705201 0.3625325 -0.9162385
vn -0.1705201 0.3625325 -0.9162385
vn 0.9124302 -0.1136584 -0.3931322
vn 0.9124302 -0.1136584 -0.3931322
vn 0.9124302 -0.1136584 -0.3931322
vn 0.1520609 -0.5514468 -0.8202341
vn 0.1520609 -0.5514468 -0.8202341
vn 0.1520609 -0.5514468 -0.8202341
vn -0.7542379 -0.2288659 -0.615423
vn -0.7542379 -0.2288659 -0.615423
vn -0.7542379 -0.2288659 -0.615423
vn 0.5130443 0.5161425 -0.6858444
vn 0.5130443 0.5161425 -0.6858444
vn 0.5130443 0.5161425 -0.6858444
vn -0.0553126 0.9692919 -0.2396114
vn -0.0553126 0.9692919 -0.2396114
vn -0.0553126 0.9692919 -0.2396114
vn 0.7357787 -0.6282517 0.2528424
vn 0.7357787 -0.6282517 0.2528424
vn 0.7357787 -0.6282517 0.2528424
vn 0.8893887 0.1782006 0.4209897
vn 0.8893887 0.1782006 0.4209897
vn 0.8893887 0.1782006 0.4209897
vn -0.2703666 -0.006131392 0.9627379
vn -0.2703666 -0.006131392 0.9627379
vn -0.2703666 -0.006131392 0.9627379
vn -0.539184 0.0476321 0.84084
vn -0.539184 0.0476321 0.84084
vn -0.539184 0.0476321 0.84084
vn -0.1705201 -0.2903098 0.9416173
vn -0.1705201 -0.2903098 0.9416173
vn -0.1705201 -0.2903098 0.9416173
vn -0.2012421 -0.8279447 0.5234588
vn -0.2012421 -0.8279447 0.5234588
vn -0.2012421 -0.8279447 0.5234588
vn 0.7357788 -0.3747953 0.5640551
vn 0.7357788 -0.3747953 0.5640551
vn 0.7357788 -0.3747953 0.5640551
vn 0.9508327 0.247325 0.1864069
vn 0.9508327 0.247325 0.1864069
vn 0.9508327 0.247325 0.1864069
vn 0.9047496 0.416296 0.09014237
vn 0.9047496 0.416296 0.09014237
vn 0.9047496 0.416296 0.09014237
vn 0.5975298 0.7926404 0.1211582
vn 0.5975298 0.7926404 0.1211582
vn 0.5975298 0.7926404 0.1211582
vn -0.1628396 0.9769723 0.1378703
vn -0.1628396 0.9769723 0.1378703
vn -0.1628396 0.9769723 0.1378703
vn -0.2089226 0.9539309 0.2153304
vn -0.2089226 0.9539309 0.2153304
vn -0.2089226 0.9539309 0.2153304
vn -0.846404 0.4700595 0.2502886
vn -0.846404 0.4700595 0.2502886
vn -0.846404 0.4700595 0.2502886
vn -0.9462504 -0.2672683 0.1821479
vn -0.9462504 -0.2672683 0.1821479
vn -0.9462504 -0.2672683 0.1821479
vn -0.2396446 -0.8893887 0.3893049
vn -0.2396446 -0.8893887 0.3893049
vn -0.2396446 -0.8893887 0.3893049
vn 0.7434592 -0.6512932 0.1519389
vn 0.7434592 -0.6512932 0.1519389
vn 0.7434592 -0.6512932 0.1519389
vn 0.5115495 0.8592539 0
vn 0.5115495 0.8592539 0
vn 0.5115495 0.8592539 0
vn 0.4746418 0.846404 -0.241486
vn 0.4746418 0.846404 -0.241486
vn 0.4746418 0.846404 -0.241486
vn -0.6083085 0.7926404 0.04101127
vn -0.6083085 0.7926404 0.04101127
vn -0.6083085 0.7926404 0.04101127
vn -0.63135 0.600628 -0.490554
vn -0.63135 0.600628 -0.490554
vn -0.63135 0.600628 -0.490554
vn -0.6620719 -0.7127373 -0.23166
vn -0.6620719 -0.7127373 -0.23166
vn -0.6620719 -0.7127373 -0.23166
vn -0.6236696 -0.7204177 0.3033721
vn -0.6236696 -0.7204177 0.3033721
vn -0.6236696 -0.7204177 0.3033721
vn 0.4669613 -0.8356252 -0.2892708
vn 0.4669613 -0.8356252 -0.2892708
vn 0.4669613 -0.8356252 -0.2892708
vn 0.4823223 -0.8663471 -0.1296446
vn 0.4823223 -0.8663471 -0.1296446
vn 0.4823223 -0.8663471 -0.1296446
vn 0.9815547 -0.08293637 -0.1722555
vn 0.9815547 -0.08293637 -0.1722555
vn 0.9815547 -0.08293637 -0.1722555
vn 0.6128908 0.6390305 -0.4647633
vn 0.6128908 0.6390305 -0.4647633
vn 0.6128908 0.6390305 -0.4647633
vn -0.1321176 0.3010886 -0.9443997
vn -0.1321176 0.3010886 -0.9443997
vn -0.1321176 0.3010886 -0.9443997
vn 0.8509862 -0.08293637 -0.5185981
vn 0.8509862 -0.08293637 -0.5185981
vn 0.8509862 -0.08293637 -0.5185981
vn -0.9692919 0.2012421 -0.1413322
vn -0.9692919 0.2012421 -0.1413322
vn -0.9692919 0.2012421 -0.1413322
vn -0.9769723 0.201242 -0.07089844
vn 0.05221438 0.493101 0.8684037
vn 0.05221438 0.493101 0.8684037
vn 0.05221438 0.493101 0.8684037
vn 0.05221439 0.5315035 0.8454453
g Icosphere_035_0
f 3/3/3 2/2/2 1/1/1
f 6/6/6 5/5/5 4/4/4
f 9/9/9 8/8/8 7/7/7
f 12/12/12 11/11/11 10/10/10
f 15/15/15 14/14/14 13/13/13
f 18/18/18 17/17/17 16/16/16
f 21/21/21 20/20/20 19/19/19
f 24/24/24 23/23/23 22/22/22
f 27/27/27 26/26/26 25/25/25
f 30/30/30 29/29/29 28/28/28
f 33/33/33 32/32/32 31/31/31
f 36/36/36 35/35/35 34/34/34
f 39/39/39 38/38/38 37/37/37
f 42/42/42 41/41/41 40/40/40
f 45/45/45 44/44/44 43/43/43
f 48/48/48 47/47/47 46/46/46
f 51/51/51 50/50/50 49/49/49
f 54/54/54 53/53/53 52/52/52
f 57/57/57 56/56/56 55/55/55
f 60/60/60 59/59/59 58/58/58
f 63/63/63 62/62/62 61/61/61
f 66/66/66 65/65/65 64/64/64
f 69/69/69 68/68/68 67/67/67
f 72/72/72 71/71/71 70/70/70
f 75/75/75 74/74/74 73/73/73
f 78/78/78 77/77/77 76/76/76
f 81/81/81 80/80/80 79/79/79
f 84/84/84 83/83/83 82/82/82
f 87/87/87 86/86/86 85/85/85
f 90/90/90 89/89/89 88/88/88
f 93/93/93 92/92/92 91/91/91
f 96/96/96 95/95/95 94/94/94
f 99/99/99 98/98/98 97/97/97
f 102/102/102 101/101/101 100/100/100
f 105/105/105 104/104/104 103/103/103
f 108/108/108 107/107/107 106/106/106
f 111/111/111 110/110/110 109/109/109
f 111/111/111 112/112/112 110/110/110
f 115/115/115 114/114/114 113/113/113
f 116/116/116 115/115/115 113/113/113
