g Icosphere_026
v 0.08898259 0.07271927 -0.09837964
v -0.2080752 -0.1682336 -0.06471664
v 0.1888409 -0.1580045 -0.06810854
v 0.08898259 0.07271927 -0.09837964
v -0.3411912 0.08695883 -0.05416762
v -0.2080752 -0.1682336 -0.06471664
v 0.08898259 0.07271927 -0.09837964
v 0.004323773 0.3057363 -0.04570921
v -0.3411912 0.08695883 -0.05416762
v 0.1888409 -0.1580045 -0.06810854
v 0.2361782 -0.1628471 -0.00433444
v 0.2444233 0.1174433 -0.04196532
v -0.2080752 -0.1682336 -0.06471664
v -0.08520956 -0.2841021 0.0002200917
v 0.1888409 -0.1580045 -0.06810854
v -0.3411912 0.08695883 -0.05416762
v -0.4149171 -0.02983768 0.02108347
v -0.2080752 -0.1682336 -0.06471664
v 0.2444233 0.1174433 -0.04196532
v 0.1678816 0.2506446 0.01258239
v 0.004323773 0.3057363 -0.04570921
v -0.3411912 0.08695883 -0.05416762
v -0.3619587 0.1802467 0.03052319
v -0.4149171 -0.02983768 0.02108347
v 0.004323773 0.3057363 -0.04570921
v 0.00999827 0.3405619 0.03089651
v -0.1853239 0.2787291 -0.01218487
v 0.05134104 -0.254375 0.148141
v 0.05336765 -0.1784946 0.2290346
v 0.2315383 -0.07914821 0.1399066
v 0.2315383 -0.07914821 0.1399066
v 0.08220945 0.003451996 0.2745586
v 0.1334826 0.2091312 0.2042247
v 0.1334826 0.2091312 0.2042247
v 0.08220945 0.003451996 0.2745586
v -0.2399676 0.2108485 0.2093125
v 0.1334826 0.2091312 0.2042247
v -0.2399676 0.2108485 0.2093125
v 0.02700043 0.3094162 0.1579327
v -0.2399676 0.2108485 0.2093125
v 0.08220945 0.003451996 0.2745586
v -0.3059283 -0.1382184 0.195297
v -0.2399676 0.2108485 0.2093125
v -0.3059283 -0.1382184 0.195297
v -0.3919844 0.04306681 0.1533035
v -0.3059283 -0.1382184 0.195297
v 0.08220945 0.003451996 0.2745586
v 0.05336765 -0.1784946 0.2290346
v -0.3059283 -0.1382184 0.195297
v 0.05336765 -0.1784946 0.2290346
v 0.05134104 -0.254375 0.148141
v 0.05336765 -0.1784946 0.2290346
v 0.08220945 0.003451996 0.2745586
v 0.2315383 -0.07914821 0.1399066
v 0.2444233 0.1174433 -0.04196532
v 0.2315383 -0.07914821 0.1399066
v 0.1334826 0.2091312 0.2042247
v 0.2444233 0.1174433 -0.04196532
v 0.1334826 0.2091312 0.2042247
v 0.1678816 0.2506446 0.01258239
v 0.1678816 0.2506446 0.01258239
v 0.1334826 0.2091312 0.2042247
v 0.02700043 0.3094162 0.1579327
v 0.00999827 0.3405619 0.03089651
v 0.02700043 0.3094162 0.1579327
v -0.1853239 0.2787291 -0.01218487
v -0.1853239 0.2787291 -0.01218487
v 0.02700043 0.3094162 0.1579327
v -0.2399676 0.2108485 0.2093125
v -0.3619587 0.1802467 0.03052319
v -0.2399676 0.2108485 0.2093125
v -0.3919844 0.04306681 0.1533035
v -0.3619587 0.1802467 0.03052319
v -0.3919844 0.04306681 0.1533035
v -0.4149171 -0.02983768 0.02108347
v -0.4149171 -0.02983768 0.02108347
v -0.3919844 0.04306681 0.1533035
v -0.3059283 -0.1382184 0.195297
v -0.08520956 -0.2841021 0.0002200917
v -0.3059283 -0.1382184 0.195297
v 0.05134104 -0.254375 0.148141
v 0.2361782 -0.1628471 -0.00433444
v 0.05134104 -0.254375 0.148141
v 0.2315383 -0.07914821 0.1399066
v 0.1678816 0.2506446 0.01258239
v 0.02700043 0.3094162 0.1579327
v 0.00999827 0.3405619 0.03089651
v 0.1678816 0.2506446 0.01258239
v 0.00999827 0.3405619 0.03089651
v 0.004323773 0.3057363 -0.04570921
v -0.1853239 0.2787291 -0.01218487
v -0.2399676 0.2108485 0.2093125
v -0.3619587 0.1802467 0.03052319
v -0.1853239 0.2787291 -0.01218487
v -0.3619587 0.1802467 0.03052319
v -0.3411912 0.08695883 -0.05416762
v -0.4149171 -0.02983768 0.02108347
v -0.3059283 -0.1382184 0.195297
v -0.08520956 -0.2841021 0.0002200917
v -0.4149171 -0.02983768 0.02108347
v -0.08520956 -0.2841021 0.0002200917
v -0.2080752 -0.1682336 -0.06471664
v -0.08520956 -0.2841021 0.0002200917
v 0.05134104 -0.254375 0.148141
v 0.2361782 -0.1628471 -0.00433444
v -0.08520956 -0.2841021 0.0002200917
v 0.2361782 -0.1628471 -0.00433444
v 0.1888409 -0.1580045 -0.06810854
v 0.2361782 -0.1628471 -0.00433444
v 0.2315383 -0.07914821 0.1399066
v 0.2444233 0.1174433 -0.04196532
v 0.08898259 0.07271927 -0.09837964
v 0.2444233 0.1174433 -0.04196532
v 0.004323773 0.3057363 -0.04570921
v 0.004323773 0.3057363 -0.04570921
v -0.1853239 0.2787291 -0.01218487
v -0.3411912 0.08695883 -0.05416762
v 0.2444233 0.1174433 -0.04196532
v 0.08898259 0.07271927 -0.09837964
v 0.1888409 -0.1580045 -0.06810854
vt 0.4575054 0.4136451
vt 0.4429571 0.4247449
vt 0.4573976 0.4222663
vt 0.4575054 0.4136451
vt 0.4425261 0.4303487
vt 0.4429571 0.4247449
vt 0.4575054 0.4136451
vt 0.4564277 0.4333661
vt 0.4425261 0.4303487
vt 0.4583675 0.4575054
vt 0.4609538 0.4811058
vt 0.4661265 0.4724846
vt 0.4429571 0.4247449
vt 0.4441426 0.4461901
vt 0.4573976 0.4222663
vt 0.4425261 0.4303487
vt 0.4390776 0.4502851
vt 0.4429571 0.4247449
vt 0.4651567 0.4372456
vt 0.4635402 0.452656
vt 0.4564277 0.4333661
vt 0.4425261 0.4303487
vt 0.4428494 0.4527637
vt 0.4390776 0.4502851
vt 0.4564277 0.4333661
vt 0.4570743 0.4540569
vt 0.4483454 0.4451124
vt 0.4499618 0.4682818
vt 0.452656 0.4859552
vt 0.461816 0.4701138
vt 0.461816 0.4701138
vt 0.4566433 0.4887571
vt 0.4606305 0.4789505
vt 0.4616004 0.5140818
vt 0.4576131 0.5238884
vt 0.4486687 0.5123576
vt 0.4616004 0.5140818
vt 0.4486687 0.5123576
vt 0.458152 0.506646
vt 0.4476988 0.4771186
vt 0.4566433 0.4887571
vt 0.4431727 0.4771186
vt 0.4476988 0.4771186
vt 0.4431727 0.4771186
vt 0.4422028 0.4725924
vt 0.4431727 0.4771186
vt 0.4566433 0.4887571
vt 0.452656 0.4859552
vt 0.4431727 0.4771186
vt 0.452656 0.4859552
vt 0.4499618 0.4682818
vt 0.452656 0.4859552
vt 0.4566433 0.4887571
vt 0.461816 0.4701138
vt 0.4651567 0.4372456
vt 0.461816 0.4701138
vt 0.4606305 0.4789505
vt 0.4651567 0.4372456
vt 0.4606305 0.4789505
vt 0.4635402 0.452656
vt 0.4635402 0.452656
vt 0.4606305 0.4789505
vt 0.4571821 0.4715148
vt 0.4570743 0.4540569
vt 0.4571821 0.4715148
vt 0.4483454 0.4451124
vt 0.4483454 0.4451124
vt 0.4571821 0.4715148
vt 0.4476988 0.4771186
vt 0.4428494 0.4527637
vt 0.4476988 0.4771186
vt 0.4422028 0.4725924
vt 0.4428494 0.4527637
vt 0.4422028 0.4725924
vt 0.4390776 0.4502851
vt 0.4400475 0.4854164
vt 0.4431727 0.5077237
vt 0.4441426 0.5122498
vt 0.4441426 0.4461901
vt 0.4431727 0.4771186
vt 0.4499618 0.4682818
vt 0.4609538 0.4811058
vt 0.4509317 0.5034131
vt 0.4627858 0.5052451
vt 0.4635402 0.452656
vt 0.4571821 0.4715148
vt 0.4570743 0.4540569
vt 0.4635402 0.452656
vt 0.4570743 0.4540569
vt 0.4564277 0.4333661
vt 0.4483454 0.4451124
vt 0.4476988 0.4771186
vt 0.4428494 0.4527637
vt 0.4483454 0.4451124
vt 0.4428494 0.4527637
vt 0.4425261 0.4303487
vt 0.4400475 0.4854164
vt 0.4441426 0.5122498
vt 0.4451124 0.4814291
vt 0.4390776 0.4502851
vt 0.4441426 0.4461901
vt 0.4429571 0.4247449
vt 0.4451124 0.4814291
vt 0.4509317 0.5034131
vt 0.4609538 0.4811058
vt 0.4451124 0.4814291
vt 0.4609538 0.4811058
vt 0.4583675 0.4575054
vt 0.4609538 0.4811058
vt 0.4627858 0.5052451
vt 0.4661265 0.4724846
vt 0.4575054 0.4136451
vt 0.4651567 0.4372456
vt 0.4564277 0.4333661
vt 0.4564277 0.4333661
vt 0.4483454 0.4451124
vt 0.4425261 0.4303487
vt 0.4651567 0.4372456
vt 0.4575054 0.4136451
vt 0.4573976 0.4222663
vn -0.004683355 -0.1342451 -0.9909371
vn -0.004683355 -0.1342451 -0.9909371
vn -0.004683355 -0.1342451 -0.9909371
vn -0.1050205 -0.01075314 -0.9944119
vn -0.1050205 -0.01075314 -0.9944119
vn -0.1050205 -0.01075314 -0.9944119
vn -0.0973023 0.1899213 -0.9769658
vn -0.0973023 0.1899213 -0.9769658
vn -0.0973023 0.1899213 -0.9769658
vn 0.7980142 -0.1033721 -0.5937067
vn 0.7980142 -0.1033721 -0.5937067
vn 0.7980142 -0.1033721 -0.5937067
vn 0.003034889 -0.4815661 -0.8764045
vn 0.003034889 -0.4815661 -0.8764045
vn 0.003034889 -0.4815661 -0.8764045
vn -0.4986511 -0.226864 -0.8365882
vn -0.4986511 -0.226864 -0.8365882
vn -0.4986511 -0.226864 -0.8365882
vn 0.4352566 0.5449604 -0.7166378
vn 0.4352566 0.5449604 -0.7166378
vn 0.4352566 0.5449604 -0.7166378
vn -0.8536903 0.2362307 -0.4641205
vn -0.8536903 0.2362307 -0.4641205
vn -0.8536903 0.2362307 -0.4641205
vn -0.1976395 0.8999997 -0.3885087
vn -0.1976395 0.8999997 -0.3885087
vn -0.1976395 0.8999997 -0.3885087
vn 0.5973397 -0.5896215 0.5436283
vn 0.5973397 -0.5896215 0.5436283
vn 0.5973397 -0.5896215 0.5436283
vn 0.6899586 0.07414754 0.720041
vn 0.6899586 0.07414754 0.720041
vn 0.6899586 0.07414754 0.720041
vn 0.01075314 0.3211314 0.9469736
vn 0.01075314 0.3211314 0.9469736
vn 0.01075314 0.3211314 0.9469736
vn 0.01075314 0.4291869 0.9031518
vn 0.01075314 0.4291869 0.9031518
vn 0.01075314 0.4291869 0.9031518
vn -0.1976395 -0.00303489 0.98027
vn -0.1976395 -0.00303489 0.98027
vn -0.1976395 -0.00303489 0.98027
vn -0.3751591 0.03555634 0.9262783
vn -0.3751591 0.03555634 0.9262783
vn -0.3751591 0.03555634 0.9262783
vn -0.1127388 -0.226864 0.9673793
vn -0.1127388 -0.226864 0.9673793
vn -0.1127388 -0.226864 0.9673793
vn -0.1436118 -0.7208317 0.6780688
vn -0.1436118 -0.7208317 0.6780688
vn -0.1436118 -0.7208317 0.6780688
vn 0.5510303 -0.2808917 0.7857897
vn 0.5510303 -0.2808917 0.7857897
vn 0.5510303 -0.2808917 0.7857897
vn 0.9137878 0.2362307 0.3304344
vn 0.9137878 0.2362307 0.3304344
vn 0.9137878 0.2362307 0.3304344
vn 0.8829148 0.4060321 0.235795
vn 0.8829148 0.4060321 0.235795
vn 0.8829148 0.4060321 0.235795
vn 0.5973397 0.7533531 0.2750351
vn 0.5973397 0.7533531 0.2750351
vn 0.5973397 0.7533531 0.2750351
vn -0.3442861 0.8999997 0.2673339
vn -0.3442861 0.8999997 0.2673339
vn -0.3442861 0.8999997 0.2673339
vn -0.3056949 0.9308729 0.2000662
vn -0.3056949 0.9308729 0.2000662
vn -0.3056949 0.9308729 0.2000662
vn -0.7379166 0.529524 0.4184296
vn -0.7379166 0.529524 0.4184296
vn -0.7379166 0.529524 0.4184296
vn -0.969464 0.243949 0.02506881
vn -0.969464 0.243949 0.02506881
vn -0.969464 0.243949 0.02506881
vn -0.876845 -0.3349194 0.3449228
vn -0.876845 -0.3349194 0.3449228
vn -0.876845 -0.3349194 0.3449228
vn -0.2362307 -0.8906331 0.3885457
vn -0.2362307 -0.8906331 0.3885457
vn -0.2362307 -0.8906331 0.3885457
vn 0.6513675 -0.6513675 0.389154
vn 0.6513675 -0.6513675 0.389154
vn 0.6513675 -0.6513675 0.389154
vn 0.5047208 0.8536903 0.1283344
vn 0.5047208 0.8536903 0.1283344
vn 0.5047208 0.8536903 0.1283344
vn 0.4198202 0.8150991 -0.3992049
vn 0.4198202 0.8150991 -0.3992049
vn 0.4198202 0.8150991 -0.3992049
vn -0.4523415 0.876845 0.1628798
vn -0.4523415 0.876845 0.1628798
vn -0.4523415 0.876845 0.1628798
vn -0.4677781 0.5372423 -0.7018222
vn -0.4677781 0.5372423 -0.7018222
vn -0.4677781 0.5372423 -0.7018222
vn -0.6144247 -0.7825776 -0.1002723
vn -0.6144247 -0.7825776 -0.1002723
vn -0.6144247 -0.7825776 -0.1002723
vn -0.6067065 -0.7671412 -0.2083306
vn -0.6067065 -0.7671412 -0.2083306
vn -0.6067065 -0.7671412 -0.2083306
vn 0.3503559 -0.9292243 -0.1174433
vn 0.3503559 -0.9292243 -0.1174433
vn 0.3503559 -0.9292243 -0.1174433
vn 0.3349194 -0.890633 -0.3075739
vn 0.3349194 -0.890633 -0.3075739
vn 0.3349194 -0.890633 -0.3075739
vn 0.9986885 -0.02618963 0.04399246
vn 0.9986885 -0.02618963 0.04399246
vn 0.9986885 -0.02618963 0.04399246
vn 0.2500187 0.2979766 -0.9212494
vn 0.2500187 0.2979766 -0.9212494
vn 0.2500187 0.2979766 -0.9212494
vn -0.213076 0.3674408 -0.9053098
vn -0.213076 0.3674408 -0.9053098
vn -0.213076 0.3674408 -0.9053098
vn 0.3349195 0.02011985 -0.942032
vn 0.3349195 0.02011985 -0.942032
vn 0.3349195 0.02011985 -0.942032
g Icosphere_026_0
f 3/3/3 2/2/2 1/1/1
f 6/6/6 5/5/5 4/4/4
f 9/9/9 8/8/8 7/7/7
f 12/12/12 11/11/11 10/10/10
f 15/15/15 14/14/14 13/13/13
f 18/18/18 17/17/17 16/16/16
f 21/21/21 20/20/20 19/19/19
f 24/24/24 23/23/23 22/22/22
f 27/27/27 26/26/26 25/25/25
f 30/30/30 29/29/29 28/28/28
f 33/33/33 32/32/32 31/31/31
f 36/36/36 35/35/35 34/34/34
f 39/39/39 38/38/38 37/37/37
f 42/42/42 41/41/41 40/40/40
f 45/45/45 44/44/44 43/43/43
f 48/48/48 47/47/47 46/46/46
f 51/51/51 50/50/50 49/49/49
f 54/54/54 53/53/53 52/52/52
f 57/57/57 56/56/56 55/55/55
f 60/60/60 59/59/59 58/58/58
f 63/63/63 62/62/62 61/61/61
f 66/66/66 65/65/65 64/64/64
f 69/69/69 68/68/68 67/67/67
f 72/72/72 71/71/71 70/70/70
f 75/75/75 74/74/74 73/73/73
f 78/78/78 77/77/77 76/76/76
f 81/81/81 80/80/80 79/79/79
f 84/84/84 83/83/83 82/82/82
f 87/87/87 86/86/86 85/85/85
f 90/90/90 89/89/89 88/88/88
f 93/93/93 92/92/92 91/91/91
f 96/96/96 95/95/95 94/94/94
f 99/99/99 98/98/98 97/97/97
f 102/102/102 101/101/101 100/100/100
f 105/105/105 104/104/104 103/103/103
f 108/108/108 107/107/107 106/106/106
f 111/111/111 110/110/110 109/109/109
f 114/114/114 113/113/113 112/112/112
f 117/117/117 116/116/116 115/115/115
f 120/120/120 119/119/119 118/118/118
