g Icosphere_036
v 0.0612098 0.04095274 -0.0670604
v -0.1063602 -0.09191252 -0.04131684
v 0.07587148 -0.06544643 -0.02538371
v 0.0612098 0.04095274 -0.0670604
v -0.1585417 0.04047418 -0.02602178
v -0.1063602 -0.09191252 -0.04131684
v 0.0612098 0.04095274 -0.0670604
v 0.0005128165 0.1341916 -0.01859946
v -0.1585417 0.04047418 -0.02602178
v 0.07587148 -0.06544643 -0.02538371
v 0.08841716 -0.06339615 0.003090436
v 0.09496684 0.04810764 -0.01295999
v -0.1063602 -0.09191252 -0.04131684
v -0.03909012 -0.1334438 -0.000822471
v 0.07587148 -0.06544643 -0.02538371
v -0.1585417 0.04047418 -0.02602178
v -0.1740291 -0.01173545 0.01214079
v -0.1063602 -0.09191252 -0.04131684
v 0.09496684 0.04810764 -0.01295999
v 0.06675074 0.1046665 0.00837333
v 0.0005128165 0.1341916 -0.01859946
v 0.0005128165 0.1341916 -0.01859946
v 0.00144178 0.1432748 0.01581912
v -0.08660333 0.1319114 -0.007062479
v 0.02558545 -0.1207901 0.06893425
v 0.03255268 -0.09386428 0.1145567
v 0.1013429 -0.03483756 0.0630039
v 0.1013429 -0.03483756 0.0630039
v 0.05492287 0.0006366586 0.1476616
v 0.06123326 0.09579912 0.09348141
v -0.1154106 0.1032027 0.1002422
v 0.05492287 0.0006366586 0.1476616
v -0.1441521 -0.06596252 0.09147804
v -0.1154106 0.1032027 0.1002422
v -0.1441521 -0.06596252 0.09147804
v -0.1721946 0.01900011 0.06838062
v -0.1441521 -0.06596252 0.09147804
v 0.05492287 0.0006366586 0.1476616
v 0.03255268 -0.09386428 0.1145567
v -0.1441521 -0.06596252 0.09147804
v 0.03255268 -0.09386428 0.1145567
v 0.02558545 -0.1207901 0.06893425
v 0.03255268 -0.09386428 0.1145567
v 0.05492287 0.0006366586 0.1476616
v 0.1013429 -0.03483756 0.0630039
v 0.09496684 0.04810764 -0.01295999
v 0.1013429 -0.03483756 0.0630039
v 0.06123326 0.09579912 0.09348141
v 0.09496684 0.04810764 -0.01295999
v 0.06123326 0.09579912 0.09348141
v 0.06675074 0.1046665 0.00837333
v 0.06675074 0.1046665 0.00837333
v 0.06123326 0.09579912 0.09348141
v 0.01084871 0.1369738 0.07095639
v 0.00144178 0.1432748 0.01581912
v 0.01084871 0.1369738 0.07095639
v -0.08660333 0.1319114 -0.007062479
v -0.08660333 0.1319114 -0.007062479
v 0.01084871 0.1369738 0.07095639
v -0.1154106 0.1032027 0.1002422
v -0.1562099 0.07700404 0.01540155
v -0.1154106 0.1032027 0.1002422
v -0.1721946 0.01900011 0.06838062
v -0.1740291 -0.01173545 0.01214079
v -0.1721946 0.01900011 0.06838062
v -0.1441521 -0.06596252 0.09147804
v -0.03909012 -0.1334438 -0.000822471
v -0.1441521 -0.06596252 0.09147804
v 0.02558545 -0.1207901 0.06893425
v 0.08841716 -0.06339615 0.003090436
v 0.02558545 -0.1207901 0.06893425
v 0.1013429 -0.03483756 0.0630039
v 0.06675074 0.1046665 0.00837333
v 0.01084871 0.1369738 0.07095639
v 0.00144178 0.1432748 0.01581912
v 0.06675074 0.1046665 0.00837333
v 0.00144178 0.1432748 0.01581912
v 0.0005128165 0.1341916 -0.01859946
v -0.08660333 0.1319114 -0.007062479
v -0.1154106 0.1032027 0.1002422
v -0.1562099 0.07700404 0.01540155
v -0.08660333 0.1319114 -0.007062479
v -0.1562099 0.07700404 0.01540155
v -0.1585417 0.04047418 -0.02602178
v -0.1740291 -0.01173545 0.01214079
v -0.1441521 -0.06596252 0.09147804
v -0.03909012 -0.1334438 -0.000822471
v -0.1740291 -0.01173545 0.01214079
v -0.03909012 -0.1334438 -0.000822471
v -0.1063602 -0.09191252 -0.04131684
v -0.03909012 -0.1334438 -0.000822471
v 0.02558545 -0.1207901 0.06893425
v 0.08841716 -0.06339615 0.003090436
v -0.03909012 -0.1334438 -0.000822471
v 0.08841716 -0.06339615 0.003090436
v 0.07587148 -0.06544643 -0.02538371
v 0.08841716 -0.06339615 0.003090436
v 0.1013429 -0.03483756 0.0630039
v 0.09496684 0.04810764 -0.01295999
v 0.0612098 0.04095274 -0.0670604
v 0.09496684 0.04810764 -0.01295999
v 0.0005128165 0.1341916 -0.01859946
v 0.0005128165 0.1341916 -0.01859946
v -0.08660333 0.1319114 -0.007062479
v -0.1585417 0.04047418 -0.02602178
v 0.09496684 0.04810764 -0.01295999
v 0.0612098 0.04095274 -0.0670604
v 0.07587148 -0.06544643 -0.02538371
v -0.1585417 0.04047418 -0.02602178
v -0.1562099 0.07700404 0.01540155
v -0.1740291 -0.01173545 0.01214079
v -0.1721946 0.01900011 0.06838062
v 0.06123326 0.09579912 0.09348141
v 0.05492287 0.0006366586 0.1476616
v -0.1154106 0.1032027 0.1002422
v 0.01084871 0.1369738 0.07095639
vt 0.4575054 0.4136451
vt 0.4429571 0.4247449
vt 0.4573976 0.4222663
vt 0.4575054 0.4136451
vt 0.4425261 0.4303487
vt 0.4429571 0.4247449
vt 0.4575054 0.4136451
vt 0.4564277 0.4333661
vt 0.4425261 0.4303487
vt 0.4583675 0.4575054
vt 0.4609538 0.4811058
vt 0.4661265 0.4724846
vt 0.4429571 0.4247449
vt 0.4441426 0.4461901
vt 0.4573976 0.4222663
vt 0.4425261 0.4303487
vt 0.4390776 0.4502851
vt 0.4429571 0.4247449
vt 0.4651567 0.4372456
vt 0.4635402 0.452656
vt 0.4564277 0.4333661
vt 0.4564277 0.4333661
vt 0.4570743 0.4540569
vt 0.4483454 0.4451124
vt 0.4499618 0.4682818
vt 0.452656 0.4859552
vt 0.461816 0.4701138
vt 0.461816 0.4701138
vt 0.4566433 0.4887571
vt 0.4606305 0.4789505
vt 0.4476988 0.4771186
vt 0.4566433 0.4887571
vt 0.4431727 0.4771186
vt 0.4476988 0.4771186
vt 0.4431727 0.4771186
vt 0.4422028 0.4725924
vt 0.4431727 0.4771186
vt 0.4566433 0.4887571
vt 0.452656 0.4859552
vt 0.4431727 0.4771186
vt 0.452656 0.4859552
vt 0.4499618 0.4682818
vt 0.452656 0.4859552
vt 0.4566433 0.4887571
vt 0.461816 0.4701138
vt 0.4651567 0.4372456
vt 0.461816 0.4701138
vt 0.4606305 0.4789505
vt 0.4651567 0.4372456
vt 0.4606305 0.4789505
vt 0.4635402 0.452656
vt 0.4635402 0.452656
vt 0.4606305 0.4789505
vt 0.4571821 0.4715148
vt 0.4570743 0.4540569
vt 0.4571821 0.4715148
vt 0.4483454 0.4451124
vt 0.4483454 0.4451124
vt 0.4571821 0.4715148
vt 0.4476988 0.4771186
vt 0.4428494 0.4527637
vt 0.4476988 0.4771186
vt 0.4422028 0.4725924
vt 0.4400475 0.4854164
vt 0.4431727 0.5077237
vt 0.4441426 0.5122498
vt 0.4441426 0.4461901
vt 0.4431727 0.4771186
vt 0.4499618 0.4682818
vt 0.4609538 0.4811058
vt 0.4509317 0.5034131
vt 0.4627858 0.5052451
vt 0.4635402 0.452656
vt 0.4571821 0.4715148
vt 0.4570743 0.4540569
vt 0.4635402 0.452656
vt 0.4570743 0.4540569
vt 0.4564277 0.4333661
vt 0.4483454 0.4451124
vt 0.4476988 0.4771186
vt 0.4428494 0.4527637
vt 0.4483454 0.4451124
vt 0.4428494 0.4527637
vt 0.4425261 0.4303487
vt 0.4400475 0.4854164
vt 0.4441426 0.5122498
vt 0.4451124 0.4814291
vt 0.4390776 0.4502851
vt 0.4441426 0.4461901
vt 0.4429571 0.4247449
vt 0.4451124 0.4814291
vt 0.4509317 0.5034131
vt 0.4609538 0.4811058
vt 0.4451124 0.4814291
vt 0.4609538 0.4811058
vt 0.4583675 0.4575054
vt 0.4609538 0.4811058
vt 0.4627858 0.5052451
vt 0.4661265 0.4724846
vt 0.4575054 0.4136451
vt 0.4651567 0.4372456
vt 0.4564277 0.4333661
vt 0.4564277 0.4333661
vt 0.4483454 0.4451124
vt 0.4425261 0.4303487
vt 0.4651567 0.4372456
vt 0.4575054 0.4136451
vt 0.4573976 0.4222663
vt 0.4425261 0.4303487
vt 0.4428494 0.4527637
vt 0.4390776 0.4502851
vt 0.4422028 0.4725924
vt 0.4616004 0.5140818
vt 0.4576131 0.5238884
vt 0.4486687 0.5123576
vt 0.458152 0.506646
vn 0.1290195 -0.3440734 -0.9300362
vn 0.1290195 -0.3440734 -0.9300362
vn 0.1290195 -0.3440734 -0.9300362
vn -0.1858809 0.03995147 -0.9817598
vn -0.1858809 0.03995147 -0.9817598
vn -0.1858809 0.03995147 -0.9817598
vn -0.1705199 0.3625324 -0.9162386
vn -0.1705199 0.3625324 -0.9162386
vn -0.1705199 0.3625324 -0.9162386
vn 0.9124302 -0.1136585 -0.3931322
vn 0.9124302 -0.1136585 -0.3931322
vn 0.9124302 -0.1136585 -0.3931322
vn 0.152061 -0.5514468 -0.820234
vn 0.152061 -0.5514468 -0.820234
vn 0.152061 -0.5514468 -0.820234
vn -0.7542377 -0.2288659 -0.6154233
vn -0.7542377 -0.2288659 -0.6154233
vn -0.7542377 -0.2288659 -0.6154233
vn 0.5130443 0.5161422 -0.6858444
vn 0.5130443 0.5161422 -0.6858444
vn 0.5130443 0.5161422 -0.6858444
vn -0.05531247 0.9692917 -0.2396125
vn -0.05531247 0.9692917 -0.2396125
vn -0.05531247 0.9692917 -0.2396125
vn 0.7357787 -0.6282517 0.2528424
vn 0.7357787 -0.6282517 0.2528424
vn 0.7357787 -0.6282517 0.2528424
vn 0.8893887 0.1782004 0.4209897
vn 0.8893887 0.1782004 0.4209897
vn 0.8893887 0.1782004 0.4209897
vn -0.2703664 -0.006131511 0.962738
vn -0.2703664 -0.006131511 0.962738
vn -0.2703664 -0.006131511 0.962738
vn -0.5391838 0.04763197 0.84084
vn -0.5391838 0.04763197 0.84084
vn -0.5391838 0.04763197 0.84084
vn -0.1705199 -0.2903099 0.9416173
vn -0.1705199 -0.2903099 0.9416173
vn -0.1705199 -0.2903099 0.9416173
vn -0.2012419 -0.8279448 0.5234588
vn -0.2012419 -0.8279448 0.5234588
vn -0.2012419 -0.8279448 0.5234588
vn 0.7357788 -0.3747954 0.564055
vn 0.7357788 -0.3747954 0.564055
vn 0.7357788 -0.3747954 0.564055
vn 0.9508328 0.2473249 0.1864068
vn 0.9508328 0.2473249 0.1864068
vn 0.9508328 0.2473249 0.1864068
vn 0.9047496 0.4162958 0.09014311
vn 0.9047496 0.4162958 0.09014311
vn 0.9047496 0.4162958 0.09014311
vn 0.5975298 0.7926402 0.1211594
vn 0.5975298 0.7926402 0.1211594
vn 0.5975298 0.7926402 0.1211594
vn -0.1628394 0.9769721 0.137872
vn -0.1628394 0.9769721 0.137872
vn -0.1628394 0.9769721 0.137872
vn -0.2089224 0.9539307 0.2153315
vn -0.2089224 0.9539307 0.2153315
vn -0.2089224 0.9539307 0.2153315
vn -0.8464038 0.4700593 0.2502898
vn -0.8464038 0.4700593 0.2502898
vn -0.8464038 0.4700593 0.2502898
vn -0.9462501 -0.2672684 0.1821487
vn -0.9462501 -0.2672684 0.1821487
vn -0.9462501 -0.2672684 0.1821487
vn -0.2396444 -0.8893887 0.3893048
vn -0.2396444 -0.8893887 0.3893048
vn -0.2396444 -0.8893887 0.3893048
vn 0.7434593 -0.6512932 0.1519387
vn 0.7434593 -0.6512932 0.1519387
vn 0.7434593 -0.6512932 0.1519387
vn 0.5115495 0.8592538 0
vn 0.5115495 0.8592538 0
vn 0.5115495 0.8592538 0
vn 0.4746419 0.8464037 -0.2414868
vn 0.4746419 0.8464037 -0.2414868
vn 0.4746419 0.8464037 -0.2414868
vn -0.6083083 0.7926402 0.04101926
vn -0.6083083 0.7926402 0.04101926
vn -0.6083083 0.7926402 0.04101926
vn -0.6313498 0.6006278 -0.4905545
vn -0.6313498 0.6006278 -0.4905545
vn -0.6313498 0.6006278 -0.4905545
vn -0.6620718 -0.7127373 -0.2316605
vn -0.6620718 -0.7127373 -0.2316605
vn -0.6620718 -0.7127373 -0.2316605
vn -0.6236693 -0.7204178 0.3033725
vn -0.6236693 -0.7204178 0.3033725
vn -0.6236693 -0.7204178 0.3033725
vn 0.4669614 -0.8356252 -0.2892707
vn 0.4669614 -0.8356252 -0.2892707
vn 0.4669614 -0.8356252 -0.2892707
vn 0.4823224 -0.8663473 -0.1296442
vn 0.4823224 -0.8663473 -0.1296442
vn 0.4823224 -0.8663473 -0.1296442
vn 0.9815547 -0.08293649 -0.1722555
vn 0.9815547 -0.08293649 -0.1722555
vn 0.9815547 -0.08293649 -0.1722555
vn 0.6128908 0.6390303 -0.4647636
vn 0.6128908 0.6390303 -0.4647636
vn 0.6128908 0.6390303 -0.4647636
vn -0.1321175 0.3010884 -0.9443997
vn -0.1321175 0.3010884 -0.9443997
vn -0.1321175 0.3010884 -0.9443997
vn 0.8509862 -0.08293649 -0.518598
vn 0.8509862 -0.08293649 -0.518598
vn 0.8509862 -0.08293649 -0.518598
vn -0.9692917 0.2012419 -0.141334
vn -0.9692917 0.2012419 -0.141334
vn -0.9692917 0.2012419 -0.141334
vn -0.9769721 0.2012419 -0.07090175
vn 0.05221449 0.4931008 0.8684038
vn 0.05221449 0.4931008 0.8684038
vn 0.05221449 0.4931008 0.8684038
vn 0.05221449 0.5315033 0.8454453
g Icosphere_036_0
f 3/3/3 2/2/2 1/1/1
f 6/6/6 5/5/5 4/4/4
f 9/9/9 8/8/8 7/7/7
f 12/12/12 11/11/11 10/10/10
f 15/15/15 14/14/14 13/13/13
f 18/18/18 17/17/17 16/16/16
f 21/21/21 20/20/20 19/19/19
f 24/24/24 23/23/23 22/22/22
f 27/27/27 26/26/26 25/25/25
f 30/30/30 29/29/29 28/28/28
f 33/33/33 32/32/32 31/31/31
f 36/36/36 35/35/35 34/34/34
f 39/39/39 38/38/38 37/37/37
f 42/42/42 41/41/41 40/40/40
f 45/45/45 44/44/44 43/43/43
f 48/48/48 47/47/47 46/46/46
f 51/51/51 50/50/50 49/49/49
f 54/54/54 53/53/53 52/52/52
f 57/57/57 56/56/56 55/55/55
f 60/60/60 59/59/59 58/58/58
f 63/63/63 62/62/62 61/61/61
f 66/66/66 65/65/65 64/64/64
f 69/69/69 68/68/68 67/67/67
f 72/72/72 71/71/71 70/70/70
f 75/75/75 74/74/74 73/73/73
f 78/78/78 77/77/77 76/76/76
f 81/81/81 80/80/80 79/79/79
f 84/84/84 83/83/83 82/82/82
f 87/87/87 86/86/86 85/85/85
f 90/90/90 89/89/89 88/88/88
f 93/93/93 92/92/92 91/91/91
f 96/96/96 95/95/95 94/94/94
f 99/99/99 98/98/98 97/97/97
f 102/102/102 101/101/101 100/100/100
f 105/105/105 104/104/104 103/103/103
f 108/108/108 107/107/107 106/106/106
f 111/111/111 110/110/110 109/109/109
f 111/111/111 112/112/112 110/110/110
f 115/115/115 114/114/114 113/113/113
f 116/116/116 115/115/115 113/113/113
