g lunar_rover_base_FL
v 0.9274129 0.4105176 0.6983414
v 0.9274129 0.1901526 0.7365679
v 0.9274129 0.2800975 0.884977
v 0.9274129 0.3880314 0.8647395
v 0.9274129 0.04624075 1.134574
v 0.9274129 0.1901526 1.30547
v 0.9274129 0.2800975 1.159309
v 0.9274129 0.2103903 1.07611
v 0.9274129 0.04624075 0.9097119
v 0.9274129 0.2103903 0.9681761
v 0.9274129 0.6061478 1.233514
v 0.9274129 0.682601 1.022143
v 0.9274129 0.5184515 1.022143
v 0.9274129 0.4824736 1.123331
v 0.9274129 0.6061478 0.8107725
v 0.9274129 0.4105176 0.6983414
v 0.9274129 0.3880314 0.8647395
v 0.9274129 0.4824736 0.9187065
v 0.9274129 0.4105176 1.345945
v 0.9274129 0.6061478 1.233514
v 0.9274129 0.4824736 1.123331
v 0.9274129 0.3880314 1.179547
v 0.9274129 0.682601 1.022143
v 0.9274129 0.6061478 0.8107725
v 0.9274129 0.4824736 0.9187065
v 0.9274129 0.5184515 1.022143
v 0.9274129 0.1901526 0.7365679
v 0.9274129 0.04624075 0.9097119
v 0.9274129 0.2103903 0.9681761
v 0.9274129 0.2800975 0.884977
v 0.9274129 0.1901526 1.30547
v 0.9274129 0.4105176 1.345945
v 0.9274129 0.3880314 1.179547
v 0.9274129 0.2800975 1.159309
v 0.8239763 0.6263854 1.251503
v 0.7205396 0.6061478 1.233514
v 0.7205396 0.682601 1.022143
v 0.8239763 0.7095845 1.022143
v 0.8239763 0.6263854 0.7927836
v 0.7205396 0.6061478 0.8107725
v 0.7205396 0.4105176 0.6983414
v 0.8239763 0.4150149 0.6713579
v 0.8239763 0.01925731 0.9007174
v 0.7205396 0.04624075 0.9097119
v 0.7205396 0.04624075 1.134574
v 0.8239763 0.01925731 1.143569
v 0.8239763 0.4150149 1.372928
v 0.7205396 0.4105176 1.345945
v 0.7205396 0.6061478 1.233514
v 0.8239763 0.6263854 1.251503
v 0.8239763 0.7095845 1.022143
v 0.7205396 0.682601 1.022143
v 0.7205396 0.6061478 0.8107725
v 0.8239763 0.6263854 0.7927836
v 0.8239763 0.1744123 0.7140817
v 0.7205396 0.1901526 0.7365679
v 0.7205396 0.04624075 0.9097119
v 0.8239763 0.01925731 0.9007174
v 0.8239763 0.1744123 1.330204
v 0.7205396 0.1901526 1.30547
v 0.7205396 0.4105176 1.345945
v 0.8239763 0.4150149 1.372928
v 0.8239763 0.4150149 0.6713579
v 0.7205396 0.4105176 0.6983414
v 0.7205396 0.1901526 0.7365679
v 0.8239763 0.1744123 0.7140817
v 0.8239763 0.01925731 1.143569
v 0.7205396 0.04624075 1.134574
v 0.7205396 0.1901526 1.30547
v 0.8239763 0.1744123 1.330204
v 0.9274129 0.04624075 1.134574
v 0.8239763 0.01925731 1.143569
v 0.8239763 0.1744123 1.330204
v 0.9274129 0.1901526 1.30547
v 0.9274129 0.4105176 0.6983414
v 0.8239763 0.4150149 0.6713579
v 0.8239763 0.1744123 0.7140817
v 0.9274129 0.1901526 0.7365679
v 0.9274129 0.1901526 1.30547
v 0.8239763 0.1744123 1.330204
v 0.8239763 0.4150149 1.372928
v 0.9274129 0.4105176 1.345945
v 0.9274129 0.1901526 0.7365679
v 0.8239763 0.1744123 0.7140817
v 0.8239763 0.01925731 0.9007174
v 0.9274129 0.04624075 0.9097119
v 0.9274129 0.682601 1.022143
v 0.8239763 0.7095845 1.022143
v 0.8239763 0.6263854 0.7927836
v 0.9274129 0.6061478 0.8107725
v 0.9274129 0.4105176 1.345945
v 0.8239763 0.4150149 1.372928
v 0.8239763 0.6263854 1.251503
v 0.9274129 0.6061478 1.233514
v 0.9274129 0.04624075 0.9097119
v 0.8239763 0.01925731 0.9007174
v 0.8239763 0.01925731 1.143569
v 0.9274129 0.04624075 1.134574
v 0.9274129 0.6061478 0.8107725
v 0.8239763 0.6263854 0.7927836
v 0.8239763 0.4150149 0.6713579
v 0.9274129 0.4105176 0.6983414
v 0.9274129 0.6061478 1.233514
v 0.8239763 0.6263854 1.251503
v 0.8239763 0.7095845 1.022143
v 0.9274129 0.682601 1.022143
v 0.7205396 0.1901526 1.30547
v 0.7205396 0.04624075 1.134574
v 0.7205396 0.04624075 0.9097119
v 0.7205396 0.1901526 0.7365679
v 0.7205396 0.4105176 1.345945
v 0.7205396 0.4105176 0.6983414
v 0.7205396 0.6061478 1.233514
v 0.7205396 0.6061478 0.8107725
v 0.7205396 0.682601 1.022143
v 0.9274129 0.4824736 0.9187065
v 0.9274129 0.3880314 0.8647395
v 0.9071753 0.379037 0.920955
v 0.9071753 0.4397498 0.9546844
v 0.9274129 0.2103903 0.9681761
v 0.9274129 0.2103903 1.07611
v 0.9071753 0.2643571 1.058121
v 0.9071753 0.2643571 0.9861651
v 0.9274129 0.3880314 1.179547
v 0.9274129 0.4824736 1.123331
v 0.9071753 0.4397498 1.089602
v 0.9071753 0.379037 1.123331
v 0.9274129 0.5184515 1.022143
v 0.9274129 0.4824736 0.9187065
v 0.9071753 0.4397498 0.9546844
v 0.9071753 0.4644846 1.022143
v 0.9274129 0.2800975 0.884977
v 0.9274129 0.2103903 0.9681761
v 0.9071753 0.2643571 0.9861651
v 0.9071753 0.3093297 0.9321981
v 0.9274129 0.2800975 1.159309
v 0.9274129 0.3880314 1.179547
v 0.9071753 0.379037 1.123331
v 0.9071753 0.3093297 1.112088
v 0.9274129 0.3880314 0.8647395
v 0.9274129 0.2800975 0.884977
v 0.9071753 0.3093297 0.9321981
v 0.9071753 0.379037 0.920955
v 0.9274129 0.2103903 1.07611
v 0.9274129 0.2800975 1.159309
v 0.9071753 0.3093297 1.112088
v 0.9071753 0.2643571 1.058121
v 0.9274129 0.4824736 1.123331
v 0.9274129 0.5184515 1.022143
v 0.9071753 0.4644846 1.022143
v 0.9071753 0.4397498 1.089602
v 0.9071753 0.4644846 1.022143
v 0.9071753 0.4397498 0.9546844
v 0.9071753 0.379037 0.920955
v 0.9071753 0.3093297 0.9321981
v 0.9071753 0.2643571 0.9861651
v 0.9071753 0.2643571 1.058121
v 0.9071753 0.3093297 1.112088
v 0.9071753 0.4397498 1.089602
v 0.9071753 0.379037 1.123331
vt 0.5036088 0.2141656
vt 0.5231218 0.1946526
vt 0.4971044 0.1783918
vt 0.4873479 0.1946526
vt 0.373522 0.1783918
vt 0.3897828 0.2044091
vt 0.4092958 0.1848961
vt 0.3995393 0.1686353
vt 0.3637654 0.1393657
vt 0.3995393 0.1458701
vt 0.432061 0.2304265
vt 0.4580784 0.2304265
vt 0.4548262 0.2109135
vt 0.4385654 0.2076613
vt 0.4808435 0.2271743
vt 0.5036088 0.2141656
vt 0.4873479 0.1946526
vt 0.471087 0.2044091
vt 0.4092958 0.22067
vt 0.432061 0.2304265
vt 0.4385654 0.2076613
vt 0.4223045 0.1979048
vt 0.4580784 0.2304265
vt 0.4808435 0.2271743
vt 0.471087 0.2044091
vt 0.4548262 0.2109135
vt 0.5231218 0.1946526
vt 0.5361304 0.1621309
vt 0.5036088 0.1588788
vt 0.4971044 0.1783918
vt 0.3897828 0.2044091
vt 0.4092958 0.22067
vt 0.4223045 0.1979048
vt 0.4092958 0.1848961
vt 0.4288089 0.2434352
vt 0.4255567 0.2564439
vt 0.4580784 0.259696
vt 0.4580784 0.2434352
vt 0.4840958 0.240183
vt 0.4906 0.2531917
vt 0.5198696 0.2369308
vt 0.5101131 0.2239221
vt 0.3442524 0.1458701
vt 0.3247394 0.1556266
vt 0.3410003 0.1946526
vt 0.3572611 0.1848961
vt 0.4027915 0.2304265
vt 0.3962871 0.2466873
vt 0.4255567 0.2564439
vt 0.4288089 0.2434352
vt 0.4580784 0.2434352
vt 0.4580784 0.259696
vt 0.4906 0.2531917
vt 0.4840958 0.240183
vt 0.5328783 0.201157
vt 0.5458869 0.2109135
vt 0.5686522 0.1816439
vt 0.5556434 0.1686353
vt 0.3767741 0.2109135
vt 0.3670176 0.2239221
vt 0.3962871 0.2466873
vt 0.4027915 0.2304265
vt 0.5101131 0.2239221
vt 0.5198696 0.2369308
vt 0.5458869 0.2109135
vt 0.5328783 0.201157
vt 0.3572611 0.1848961
vt 0.3410003 0.1946526
vt 0.3670176 0.2239221
vt 0.3767741 0.2109135
vt 0.373522 0.1783918
vt 0.3572611 0.1848961
vt 0.3767741 0.2109135
vt 0.3897828 0.2044091
vt 0.5036088 0.2141656
vt 0.5101131 0.2239221
vt 0.5328783 0.201157
vt 0.5231218 0.1946526
vt 0.3897828 0.2044091
vt 0.3767741 0.2109135
vt 0.4027915 0.2304265
vt 0.4092958 0.22067
vt 0.5231218 0.1946526
vt 0.5328783 0.201157
vt 0.5556434 0.1686353
vt 0.5361304 0.1621309
vt 0.4580784 0.2304265
vt 0.4580784 0.2434352
vt 0.4840958 0.240183
vt 0.4808435 0.2271743
vt 0.4092958 0.22067
vt 0.4027915 0.2304265
vt 0.4288089 0.2434352
vt 0.432061 0.2304265
vt 0.3637654 0.1393657
vt 0.3442524 0.1458701
vt 0.3572611 0.1848961
vt 0.373522 0.1783918
vt 0.4808435 0.2271743
vt 0.4840958 0.240183
vt 0.5101131 0.2239221
vt 0.5036088 0.2141656
vt 0.432061 0.2304265
vt 0.4288089 0.2434352
vt 0.4580784 0.2434352
vt 0.4580784 0.2304265
vt 0.3312438 0.2336787
vt 0.3410003 0.1946526
vt 0.3247394 0.1556266
vt 0.2857134 0.1361136
vt 0.2954699 0.259696
vt 0.2466873 0.1458701
vt 0.2531917 0.2531917
vt 0.22067 0.1816439
vt 0.2239221 0.2239221
vt 0.3800263 0.9654168
vt 0.393035 0.9524082
vt 0.3832785 0.949156
vt 0.3767741 0.9556603
vt 0.3865306 0.9198865
vt 0.3702698 0.9133821
vt 0.3702698 0.9231387
vt 0.3800263 0.929643
vt 0.3442524 0.9361473
vt 0.3475046 0.9524082
vt 0.3540089 0.949156
vt 0.3540089 0.9393995
vt 0.3605133 0.9654168
vt 0.3800263 0.9654168
vt 0.3767741 0.9556603
vt 0.3637654 0.9556603
vt 0.3962871 0.9361473
vt 0.3865306 0.9198865
vt 0.3800263 0.929643
vt 0.3865306 0.9393995
vt 0.3540089 0.9198865
vt 0.3442524 0.9361473
vt 0.3540089 0.9393995
vt 0.3605133 0.929643
vt 0.393035 0.9524082
vt 0.3962871 0.9361473
vt 0.3865306 0.9393995
vt 0.3832785 0.949156
vt 0.3702698 0.9133821
vt 0.3540089 0.9198865
vt 0.3605133 0.929643
vt 0.3702698 0.9231387
vt 0.3475046 0.9524082
vt 0.3605133 0.9654168
vt 0.3637654 0.9556603
vt 0.3540089 0.949156
vt 0.3637654 0.9556603
vt 0.3767741 0.9556603
vt 0.3832785 0.949156
vt 0.3865306 0.9393995
vt 0.3800263 0.929643
vt 0.3702698 0.9231387
vt 0.3605133 0.929643
vt 0.3540089 0.949156
vt 0.3540089 0.9393995
vn 0.999874 0.01587105 -0.0003439156
vn 0.999874 0.01587105 -0.0003439156
vn 0.999874 0.01587105 -0.0003439156
vn 0.999874 0.01587105 -0.0003439156
vn 0.999874 0.01587105 -0.0003439156
vn 0.999874 0.01587105 -0.0003439156
vn 0.999874 0.01587105 -0.0003439156
vn 0.999874 0.01587105 -0.0003439156
vn 0.999874 0.01587105 -0.0003439156
vn 0.999874 0.01587105 -0.0003439156
vn 0.999874 -0.01587099 -0.000346655
vn 0.999874 -0.01587099 -0.000346655
vn 0.999874 -0.01587099 -0.000346655
vn 0.999874 -0.01587099 -0.000346655
vn 0.999874 0.01587105 -0.0003439156
vn 0.999874 0.01587105 -0.0003439156
vn 0.999874 0.01587105 -0.0003439156
vn 0.999874 0.01587105 -0.0003439156
vn 0.999874 -0.01587099 -0.000346655
vn 0.999874 -0.01587099 -0.000346655
vn 0.999874 -0.01587099 -0.000346655
vn 0.999874 -0.01587099 -0.000346655
vn 0.999874 -0.01587099 -0.000346655
vn 0.999874 -0.01587099 -0.000346655
vn 0.999874 -0.01587099 -0.000346655
vn 0.999874 -0.01587099 -0.000346655
vn 0.999874 0.01587105 -0.0003439156
vn 0.999874 0.01587105 -0.0003439156
vn 0.999874 0.01587105 -0.0003439156
vn 0.999874 0.01587105 -0.0003439156
vn 0.999874 -0.01587099 -0.000346655
vn 0.999874 -0.01587099 -0.000346655
vn 0.999874 -0.01587099 -0.000346655
vn 0.999874 -0.01587099 -0.000346655
vn -0.2380652 0.9046479 0.3534643
vn -0.2380652 0.9046479 0.3534643
vn -0.2380652 0.9046479 0.3534643
vn -0.2380652 0.9046479 0.3534643
vn -0.2380652 0.4920015 -0.8374124
vn -0.2380652 0.4920015 -0.8374124
vn -0.2380652 0.4920015 -0.8374124
vn -0.2380652 0.4920015 -0.8374124
vn -0.2380652 -0.968132 -0.07775256
vn -0.2380652 -0.968132 -0.07775256
vn -0.2380652 -0.968132 -0.07775256
vn -0.2380652 -0.968132 -0.07775256
vn -0.2380652 0.4920015 0.8374124
vn -0.2380652 0.4920015 0.8374124
vn -0.2380652 0.4920015 0.8374124
vn -0.2380652 0.4920015 0.8374124
vn -0.2380652 0.9046479 -0.3534643
vn -0.2380652 0.9046479 -0.3534643
vn -0.2380652 0.9046479 -0.3534643
vn -0.2380652 0.9046479 -0.3534643
vn -0.2380652 -0.7459377 -0.6220143
vn -0.2380652 -0.7459377 -0.6220143
vn -0.2380652 -0.7459377 -0.6220143
vn -0.2380652 -0.7459377 -0.6220143
vn -0.2380652 -0.1745812 0.9554299
vn -0.2380652 -0.1745812 0.9554299
vn -0.2380652 -0.1745812 0.9554299
vn -0.2380652 -0.1745812 0.9554299
vn -0.2380652 -0.1745812 -0.9554299
vn -0.2380652 -0.1745812 -0.9554299
vn -0.2380652 -0.1745812 -0.9554299
vn -0.2380652 -0.1745812 -0.9554299
vn -0.2380652 -0.7459377 0.6220143
vn -0.2380652 -0.7459377 0.6220143
vn -0.2380652 -0.7459377 0.6220143
vn -0.2380652 -0.7459377 0.6220143
vn 0.2380652 -0.7459377 0.6220143
vn 0.2380652 -0.7459377 0.6220143
vn 0.2380652 -0.7459377 0.6220143
vn 0.2380652 -0.7459377 0.6220143
vn 0.2380652 -0.1745812 -0.9554299
vn 0.2380652 -0.1745812 -0.9554299
vn 0.2380652 -0.1745812 -0.9554299
vn 0.2380652 -0.1745812 -0.9554299
vn 0.2380652 -0.1745812 0.9554299
vn 0.2380652 -0.1745812 0.9554299
vn 0.2380652 -0.1745812 0.9554299
vn 0.2380652 -0.1745812 0.9554299
vn 0.2380652 -0.7459377 -0.6220143
vn 0.2380652 -0.7459377 -0.6220143
vn 0.2380652 -0.7459377 -0.6220143
vn 0.2380652 -0.7459377 -0.6220143
vn 0.2380652 0.9046479 -0.3534643
vn 0.2380652 0.9046479 -0.3534643
vn 0.2380652 0.9046479 -0.3534643
vn 0.2380652 0.9046479 -0.3534643
vn 0.2380652 0.4920015 0.8374124
vn 0.2380652 0.4920015 0.8374124
vn 0.2380652 0.4920015 0.8374124
vn 0.2380652 0.4920015 0.8374124
vn 0.2380652 -0.968132 -0.07775256
vn 0.2380652 -0.968132 -0.07775256
vn 0.2380652 -0.968132 -0.07775256
vn 0.2380652 -0.968132 -0.07775256
vn 0.2380652 0.4920015 -0.8374124
vn 0.2380652 0.4920015 -0.8374124
vn 0.2380652 0.4920015 -0.8374124
vn 0.2380652 0.4920015 -0.8374124
vn 0.2380652 0.9046479 0.3534643
vn 0.2380652 0.9046479 0.3534643
vn 0.2380652 0.9046479 0.3534643
vn 0.2380652 0.9046479 0.3534643
vn -0.999874 0.01587105 -0.0003439156
vn -0.999874 0.01587105 -0.0003439156
vn -0.999874 0.01587105 -0.0003439156
vn -0.999874 0.01587105 -0.0003439156
vn -0.999874 0.01587105 -0.0003439156
vn -0.999874 0.01587105 -0.0003439156
vn -0.999874 0.01587105 -0.0003439156
vn -0.999874 0.01587105 -0.0003439156
vn -0.999874 0.01587105 -0.0003439156
vn 0.9363899 -0.1745812 0.304459
vn 0.9363899 -0.1745812 0.304459
vn 0.9363899 -0.1745812 0.304459
vn 0.9363899 -0.1745812 0.304459
vn 0.931708 0.3632082 0
vn 0.931708 0.3632082 0
vn 0.931708 0.3632082 0
vn 0.931708 0.3632082 0
vn 0.9363899 -0.1745812 -0.304459
vn 0.9363899 -0.1745812 -0.304459
vn 0.9363899 -0.1745812 -0.304459
vn 0.9363899 -0.1745812 -0.304459
vn 0.931708 -0.3632082 0
vn 0.931708 -0.3632082 0
vn 0.931708 -0.3632082 0
vn 0.931708 -0.3632082 0
vn 0.9363899 0.2698073 0.2244502
vn 0.9363899 0.2698073 0.2244502
vn 0.9363899 0.2698073 0.2244502
vn 0.9363899 0.2698073 0.2244502
vn 0.9363899 0.07935512 -0.3418723
vn 0.9363899 0.07935512 -0.3418723
vn 0.9363899 0.07935512 -0.3418723
vn 0.9363899 0.07935512 -0.3418723
vn 0.9363899 0.07935512 0.3418723
vn 0.9363899 0.07935512 0.3418723
vn 0.9363899 0.07935512 0.3418723
vn 0.9363899 0.07935512 0.3418723
vn 0.9363899 0.2698073 -0.2244502
vn 0.9363899 0.2698073 -0.2244502
vn 0.9363899 0.2698073 -0.2244502
vn 0.9363899 0.2698073 -0.2244502
vn 0.931708 -0.3632082 0
vn 0.931708 -0.3632082 0
vn 0.931708 -0.3632082 0
vn 0.931708 -0.3632082 0
vn 0.999874 0.01587105 -0.0003439156
vn 0.999874 0.01587105 -0.0003439156
vn 0.999874 0.01587105 -0.0003439156
vn 0.999874 0.01587105 -0.0003439156
vn 0.999874 0.01587105 -0.0003439156
vn 0.999874 0.01587105 -0.0003439156
vn 0.999874 0.01587105 -0.0003439156
vn 0.999874 0.01587105 -0.0003439156
vn 0.999874 0.01587105 -0.0003439156
g lunar_rover_base_FL_0
f 3/3/3 2/2/2 1/1/1
f 4/4/4 3/3/3 1/1/1
f 7/7/7 6/6/6 5/5/5
f 8/8/8 7/7/7 5/5/5
f 8/8/8 5/5/5 9/9/9
f 10/10/10 8/8/8 9/9/9
f 13/13/13 12/12/12 11/11/11
f 14/14/14 13/13/13 11/11/11
f 17/17/17 16/16/16 15/15/15
f 18/18/18 17/17/17 15/15/15
f 21/21/21 20/20/20 19/19/19
f 22/22/22 21/21/21 19/19/19
f 25/25/25 24/24/24 23/23/23
f 26/26/26 25/25/25 23/23/23
f 29/29/29 28/28/28 27/27/27
f 30/30/30 29/29/29 27/27/27
f 33/33/33 32/32/32 31/31/31
f 34/34/34 33/33/33 31/31/31
f 37/37/37 36/36/36 35/35/35
f 38/38/38 37/37/37 35/35/35
f 41/41/41 40/40/40 39/39/39
f 42/42/42 41/41/41 39/39/39
f 45/45/45 44/44/44 43/43/43
f 46/46/46 45/45/45 43/43/43
f 49/49/49 48/48/48 47/47/47
f 50/50/50 49/49/49 47/47/47
f 53/53/53 52/52/52 51/51/51
f 54/54/54 53/53/53 51/51/51
f 57/57/57 56/56/56 55/55/55
f 58/58/58 57/57/57 55/55/55
f 61/61/61 60/60/60 59/59/59
f 62/62/62 61/61/61 59/59/59
f 65/65/65 64/64/64 63/63/63
f 66/66/66 65/65/65 63/63/63
f 69/69/69 68/68/68 67/67/67
f 70/70/70 69/69/69 67/67/67
f 73/73/73 72/72/72 71/71/71
f 74/74/74 73/73/73 71/71/71
f 77/77/77 76/76/76 75/75/75
f 78/78/78 77/77/77 75/75/75
f 81/81/81 80/80/80 79/79/79
f 82/82/82 81/81/81 79/79/79
f 85/85/85 84/84/84 83/83/83
f 86/86/86 85/85/85 83/83/83
f 89/89/89 88/88/88 87/87/87
f 90/90/90 89/89/89 87/87/87
f 93/93/93 92/92/92 91/91/91
f 94/94/94 93/93/93 91/91/91
f 97/97/97 96/96/96 95/95/95
f 98/98/98 97/97/97 95/95/95
f 101/101/101 100/100/100 99/99/99
f 102/102/102 101/101/101 99/99/99
f 105/105/105 104/104/104 103/103/103
f 106/106/106 105/105/105 103/103/103
f 109/109/109 108/108/108 107/107/107
f 107/107/107 110/110/110 109/109/109
f 107/107/107 111/111/111 110/110/110
f 111/111/111 112/112/112 110/110/110
f 111/111/111 113/113/113 112/112/112
f 113/113/113 114/114/114 112/112/112
f 113/113/113 115/115/115 114/114/114
g lunar_rover_base_FL_1
f 118/118/118 117/117/117 116/116/116
f 119/119/119 118/118/118 116/116/116
f 122/122/122 121/121/121 120/120/120
f 123/123/123 122/122/122 120/120/120
f 126/126/126 125/125/125 124/124/124
f 127/127/127 126/126/126 124/124/124
f 130/130/130 129/129/129 128/128/128
f 131/131/131 130/130/130 128/128/128
f 134/134/134 133/133/133 132/132/132
f 135/135/135 134/134/134 132/132/132
f 138/138/138 137/137/137 136/136/136
f 139/139/139 138/138/138 136/136/136
f 142/142/142 141/141/141 140/140/140
f 143/143/143 142/142/142 140/140/140
f 146/146/146 145/145/145 144/144/144
f 147/147/147 146/146/146 144/144/144
f 150/150/150 149/149/149 148/148/148
f 151/151/151 150/150/150 148/148/148
f 154/154/154 153/153/153 152/152/152
f 155/155/155 154/154/154 152/152/152
f 155/155/155 152/152/152 156/156/156
f 156/156/156 152/152/152 157/157/157
f 158/158/158 157/157/157 152/152/152
f 158/158/158 152/152/152 159/159/159
f 160/160/160 158/158/158 159/159/159
