g lunar_rover_base_BL
v 0.9280859 0.4122226 -1.350375
v 0.9280859 0.189858 -1.309574
v 0.9280859 0.2796198 -1.164731
v 0.9280859 0.3877422 -1.183091
v 0.9280859 0.04501486 -0.9138057
v 0.9280859 0.189858 -0.7404019
v 0.9280859 0.2796198 -0.8872851
v 0.9280859 0.2102584 -0.9709269
v 0.9280859 0.04501486 -1.13821
v 0.9280859 0.2102584 -1.081089
v 0.9280859 0.6060268 -0.8138435
v 0.9280859 0.6835486 -1.026008
v 0.9280859 0.5183049 -1.026008
v 0.9280859 0.4815842 -0.9240059
v 0.9280859 0.6060268 -1.238173
v 0.9280859 0.4122226 -1.350375
v 0.9280859 0.3877422 -1.183091
v 0.9280859 0.4815842 -1.12801
v 0.9280859 0.4122226 -0.7016411
v 0.9280859 0.6060268 -0.8138435
v 0.9280859 0.4815842 -0.9240059
v 0.9280859 0.3877422 -0.8689247
v 0.9280859 0.6835486 -1.026008
v 0.9280859 0.6060268 -1.238173
v 0.9280859 0.4815842 -1.12801
v 0.9280859 0.5183049 -1.026008
v 0.9280859 0.189858 -1.309574
v 0.9280859 0.04501486 -1.13821
v 0.9280859 0.2102584 -1.081089
v 0.9280859 0.2796198 -1.164731
v 0.9280859 0.189858 -0.7404019
v 0.9280859 0.4122226 -0.7016411
v 0.9280859 0.3877422 -0.8689247
v 0.9280859 0.2796198 -0.8872851
v 0.8240438 0.6264273 -0.7975232
v 0.7200015 0.6060268 -0.8138435
v 0.7200015 0.6835486 -1.026008
v 0.8240438 0.7100691 -1.026008
v 0.8240438 0.6264273 -1.254493
v 0.7200015 0.6060268 -1.238173
v 0.7200015 0.4122226 -1.350375
v 0.8240438 0.4163028 -1.376896
v 0.8240438 0.01849425 -1.148411
v 0.7200015 0.04501486 -1.13821
v 0.7200015 0.04501486 -0.9138057
v 0.8240438 0.01849425 -0.9036055
v 0.8240438 0.4163028 -0.6751205
v 0.7200015 0.4122226 -0.7016411
v 0.7200015 0.6060268 -0.8138435
v 0.8240438 0.6264273 -0.7975232
v 0.8240438 0.7100691 -1.026008
v 0.7200015 0.6835486 -1.026008
v 0.7200015 0.6060268 -1.238173
v 0.8240438 0.6264273 -1.254493
v 0.8240438 0.1755776 -1.334055
v 0.7200015 0.189858 -1.309574
v 0.7200015 0.04501486 -1.13821
v 0.8240438 0.01849425 -1.148411
v 0.8240438 0.1755776 -0.7179615
v 0.7200015 0.189858 -0.7404019
v 0.7200015 0.4122226 -0.7016411
v 0.8240438 0.4163028 -0.6751205
v 0.8240438 0.4163028 -1.376896
v 0.7200015 0.4122226 -1.350375
v 0.7200015 0.189858 -1.309574
v 0.8240438 0.1755776 -1.334055
v 0.8240438 0.01849425 -0.9036055
v 0.7200015 0.04501486 -0.9138057
v 0.7200015 0.189858 -0.7404019
v 0.8240438 0.1755776 -0.7179615
v 0.9280859 0.04501486 -0.9138057
v 0.8240438 0.01849425 -0.9036055
v 0.8240438 0.1755776 -0.7179615
v 0.9280859 0.189858 -0.7404019
v 0.9280859 0.4122226 -1.350375
v 0.8240438 0.4163028 -1.376896
v 0.8240438 0.1755776 -1.334055
v 0.9280859 0.189858 -1.309574
v 0.9280859 0.189858 -0.7404019
v 0.8240438 0.1755776 -0.7179615
v 0.8240438 0.4163028 -0.6751205
v 0.9280859 0.4122226 -0.7016411
v 0.9280859 0.189858 -1.309574
v 0.8240438 0.1755776 -1.334055
v 0.8240438 0.01849425 -1.148411
v 0.9280859 0.04501486 -1.13821
v 0.9280859 0.6835486 -1.026008
v 0.8240438 0.7100691 -1.026008
v 0.8240438 0.6264273 -1.254493
v 0.9280859 0.6060268 -1.238173
v 0.9280859 0.4122226 -0.7016411
v 0.8240438 0.4163028 -0.6751205
v 0.8240438 0.6264273 -0.7975232
v 0.9280859 0.6060268 -0.8138435
v 0.9280859 0.04501486 -1.13821
v 0.8240438 0.01849425 -1.148411
v 0.8240438 0.01849425 -0.9036055
v 0.9280859 0.04501486 -0.9138057
v 0.9280859 0.6060268 -1.238173
v 0.8240438 0.6264273 -1.254493
v 0.8240438 0.4163028 -1.376896
v 0.9280859 0.4122226 -1.350375
v 0.9280859 0.6060268 -0.8138435
v 0.8240438 0.6264273 -0.7975232
v 0.8240438 0.7100691 -1.026008
v 0.9280859 0.6835486 -1.026008
v 0.7200015 0.189858 -0.7404019
v 0.7200015 0.04501486 -0.9138057
v 0.7200015 0.04501486 -1.13821
v 0.7200015 0.189858 -1.309574
v 0.7200015 0.4122226 -0.7016411
v 0.7200015 0.4122226 -1.350375
v 0.7200015 0.6060268 -0.8138435
v 0.7200015 0.6060268 -1.238173
v 0.7200015 0.6835486 -1.026008
v 0.9280859 0.4815842 -1.12801
v 0.9280859 0.3877422 -1.183091
v 0.9056455 0.3795819 -1.12801
v 0.9056455 0.4407833 -1.093329
v 0.9280859 0.2102584 -1.081089
v 0.9280859 0.2102584 -0.9709269
v 0.9056455 0.2632995 -0.9913273
v 0.9056455 0.2632995 -1.060689
v 0.9280859 0.3877422 -0.8689247
v 0.9280859 0.4815842 -0.9240059
v 0.9056455 0.4407833 -0.9586866
v 0.9056455 0.3795819 -0.9240059
v 0.9280859 0.5183049 -1.026008
v 0.9280859 0.4815842 -1.12801
v 0.9056455 0.4407833 -1.093329
v 0.9056455 0.4652638 -1.026008
v 0.9280859 0.2796198 -1.164731
v 0.9280859 0.2102584 -1.081089
v 0.9056455 0.2632995 -1.060689
v 0.9056455 0.3102205 -1.11577
v 0.9280859 0.2796198 -0.8872851
v 0.9280859 0.3877422 -0.8689247
v 0.9056455 0.3795819 -0.9240059
v 0.9056455 0.3102205 -0.9362462
v 0.9280859 0.3877422 -1.183091
v 0.9280859 0.2796198 -1.164731
v 0.9056455 0.3102205 -1.11577
v 0.9056455 0.3795819 -1.12801
v 0.9280859 0.2102584 -0.9709269
v 0.9280859 0.2796198 -0.8872851
v 0.9056455 0.3102205 -0.9362462
v 0.9056455 0.2632995 -0.9913273
v 0.9280859 0.4815842 -0.9240059
v 0.9280859 0.5183049 -1.026008
v 0.9056455 0.4652638 -1.026008
v 0.9056455 0.4407833 -0.9586866
v 0.9056455 0.4652638 -1.026008
v 0.9056455 0.4407833 -1.093329
v 0.9056455 0.3795819 -1.12801
v 0.9056455 0.3102205 -1.11577
v 0.9056455 0.2632995 -1.060689
v 0.9056455 0.2632995 -0.9913273
v 0.9056455 0.3102205 -0.9362462
v 0.9056455 0.4407833 -0.9586866
v 0.9056455 0.3795819 -0.9240059
vt 0.5036699 0.3445022
vt 0.5213552 0.3238693
vt 0.4977748 0.3120791
vt 0.4859846 0.3268169
vt 0.3739777 0.3091315
vt 0.3887154 0.3356595
vt 0.4093483 0.3179742
vt 0.4005056 0.3002889
vt 0.365135 0.2708133
vt 0.3975581 0.2767085
vt 0.4329287 0.3621874
vt 0.4565091 0.3621874
vt 0.4565091 0.3415546
vt 0.4388238 0.338607
vt 0.4800895 0.3592399
vt 0.5036699 0.3445022
vt 0.4859846 0.3268169
vt 0.4712468 0.3356595
vt 0.4093483 0.3503972
vt 0.4329287 0.3621874
vt 0.4388238 0.338607
vt 0.424086 0.3297644
vt 0.4565091 0.3621874
vt 0.4800895 0.3592399
vt 0.4712468 0.3356595
vt 0.4565091 0.3415546
vt 0.5213552 0.3238693
vt 0.536093 0.2914462
vt 0.5036699 0.2914462
vt 0.4977748 0.3120791
vt 0.3887154 0.3356595
vt 0.4093483 0.3503972
vt 0.424086 0.3297644
vt 0.4093483 0.3179742
vt 0.4299811 0.3739777
vt 0.4270336 0.3887154
vt 0.4594567 0.3887154
vt 0.4565091 0.3769252
vt 0.4859846 0.3710301
vt 0.4889322 0.3828203
vt 0.5213552 0.3680826
vt 0.5125126 0.3562924
vt 0.3445022 0.2767085
vt 0.3238693 0.2855511
vt 0.3415546 0.3238693
vt 0.3592399 0.3150266
vt 0.4034532 0.3621874
vt 0.3946105 0.3769252
vt 0.4270336 0.3887154
vt 0.4299811 0.3739777
vt 0.4565091 0.3769252
vt 0.4594567 0.3887154
vt 0.4889322 0.3828203
vt 0.4859846 0.3710301
vt 0.5331454 0.3327119
vt 0.5478832 0.3445022
vt 0.5685161 0.3120791
vt 0.5537783 0.3002889
vt 0.3769252 0.3445022
vt 0.365135 0.3562924
vt 0.3946105 0.3769252
vt 0.4034532 0.3621874
vt 0.5125126 0.3562924
vt 0.5213552 0.3680826
vt 0.5478832 0.3445022
vt 0.5331454 0.3327119
vt 0.3592399 0.3150266
vt 0.3415546 0.3238693
vt 0.365135 0.3562924
vt 0.3769252 0.3445022
vt 0.3739777 0.3091315
vt 0.3592399 0.3150266
vt 0.3769252 0.3445022
vt 0.3887154 0.3356595
vt 0.5036699 0.3445022
vt 0.5125126 0.3562924
vt 0.5331454 0.3327119
vt 0.5213552 0.3238693
vt 0.3887154 0.3356595
vt 0.3769252 0.3445022
vt 0.4034532 0.3621874
vt 0.4093483 0.3503972
vt 0.5213552 0.3238693
vt 0.5331454 0.3327119
vt 0.5537783 0.3002889
vt 0.536093 0.2914462
vt 0.4565091 0.3621874
vt 0.4565091 0.3769252
vt 0.4859846 0.3710301
vt 0.4800895 0.3592399
vt 0.4093483 0.3503972
vt 0.4034532 0.3621874
vt 0.4299811 0.3739777
vt 0.4329287 0.3621874
vt 0.365135 0.2708133
vt 0.3445022 0.2767085
vt 0.3592399 0.3150266
vt 0.3739777 0.3091315
vt 0.4800895 0.3592399
vt 0.4859846 0.3710301
vt 0.5125126 0.3562924
vt 0.5036699 0.3445022
vt 0.4329287 0.3621874
vt 0.4299811 0.3739777
vt 0.4565091 0.3769252
vt 0.4565091 0.3621874
vt 0.3297644 0.365135
vt 0.3415546 0.3238693
vt 0.3238693 0.2855511
vt 0.2855511 0.2678658
vt 0.2973413 0.3887154
vt 0.2442854 0.2767085
vt 0.2531281 0.3857679
vt 0.220705 0.3120791
vt 0.2236525 0.3562924
vt 0.9546453 0.7718971
vt 0.9693831 0.7601069
vt 0.9605404 0.7542118
vt 0.9516977 0.7630544
vt 0.9634879 0.7247363
vt 0.9458026 0.7188412
vt 0.9458026 0.7306314
vt 0.9575928 0.7335789
vt 0.9222222 0.7424216
vt 0.9251698 0.7601069
vt 0.9310648 0.7542118
vt 0.9310648 0.7424216
vt 0.93696 0.7718971
vt 0.9546453 0.7718971
vt 0.9516977 0.7630544
vt 0.9399076 0.7630544
vt 0.9723306 0.7424216
vt 0.9634879 0.7247363
vt 0.9575928 0.7335789
vt 0.9634879 0.7424216
vt 0.9310648 0.7247363
vt 0.9222222 0.7424216
vt 0.9310648 0.7424216
vt 0.93696 0.7335789
vt 0.9693831 0.7601069
vt 0.9723306 0.7424216
vt 0.9634879 0.7424216
vt 0.9605404 0.7542118
vt 0.9458026 0.7188412
vt 0.9310648 0.7247363
vt 0.93696 0.7335789
vt 0.9458026 0.7306314
vt 0.9251698 0.7601069
vt 0.93696 0.7718971
vt 0.9399076 0.7630544
vt 0.9310648 0.7542118
vt 0.9399076 0.7630544
vt 0.9516977 0.7630544
vt 0.9605404 0.7542118
vt 0.9634879 0.7424216
vt 0.9575928 0.7335789
vt 0.9458026 0.7306314
vt 0.93696 0.7335789
vt 0.9310648 0.7542118
vt 0.9310648 0.7424216
vn 0.999874 0.01587105 -0.0003439156
vn 0.999874 0.01587105 -0.0003439156
vn 0.999874 0.01587105 -0.0003439156
vn 0.999874 0.01587105 -0.0003439156
vn 0.999874 0.01587105 -0.0003439156
vn 0.999874 0.01587105 -0.0003439156
vn 0.999874 0.01587105 -0.0003439156
vn 0.999874 0.01587105 -0.0003439156
vn 0.999874 0.01587105 -0.0003439156
vn 0.999874 0.01587105 -0.0003439156
vn 0.999874 -0.01587099 -0.000346655
vn 0.999874 -0.01587099 -0.000346655
vn 0.999874 -0.01587099 -0.000346655
vn 0.999874 -0.01587099 -0.000346655
vn 0.999874 0.01587105 -0.0003439156
vn 0.999874 0.01587105 -0.0003439156
vn 0.999874 0.01587105 -0.0003439156
vn 0.999874 0.01587105 -0.0003439156
vn 0.999874 -0.01587099 -0.000346655
vn 0.999874 -0.01587099 -0.000346655
vn 0.999874 -0.01587099 -0.000346655
vn 0.999874 -0.01587099 -0.000346655
vn 0.999874 -0.01587099 -0.000346655
vn 0.999874 -0.01587099 -0.000346655
vn 0.999874 -0.01587099 -0.000346655
vn 0.999874 -0.01587099 -0.000346655
vn 0.999874 0.01587105 -0.0003439156
vn 0.999874 0.01587105 -0.0003439156
vn 0.999874 0.01587105 -0.0003439156
vn 0.999874 0.01587105 -0.0003439156
vn 0.999874 -0.01587099 -0.000346655
vn 0.999874 -0.01587099 -0.000346655
vn 0.999874 -0.01587099 -0.000346655
vn 0.999874 -0.01587099 -0.000346655
vn -0.2380652 0.9046479 0.3534643
vn -0.2380652 0.9046479 0.3534643
vn -0.2380652 0.9046479 0.3534643
vn -0.2380652 0.9046479 0.3534643
vn -0.2380652 0.4920015 -0.8374124
vn -0.2380652 0.4920015 -0.8374124
vn -0.2380652 0.4920015 -0.8374124
vn -0.2380652 0.4920015 -0.8374124
vn -0.2380652 -0.968132 -0.07775256
vn -0.2380652 -0.968132 -0.07775256
vn -0.2380652 -0.968132 -0.07775256
vn -0.2380652 -0.968132 -0.07775256
vn -0.2380652 0.4920015 0.8374124
vn -0.2380652 0.4920015 0.8374124
vn -0.2380652 0.4920015 0.8374124
vn -0.2380652 0.4920015 0.8374124
vn -0.2380652 0.9046479 -0.3534643
vn -0.2380652 0.9046479 -0.3534643
vn -0.2380652 0.9046479 -0.3534643
vn -0.2380652 0.9046479 -0.3534643
vn -0.2380652 -0.7459377 -0.6220143
vn -0.2380652 -0.7459377 -0.6220143
vn -0.2380652 -0.7459377 -0.6220143
vn -0.2380652 -0.7459377 -0.6220143
vn -0.2380652 -0.1745812 0.9554299
vn -0.2380652 -0.1745812 0.9554299
vn -0.2380652 -0.1745812 0.9554299
vn -0.2380652 -0.1745812 0.9554299
vn -0.2380652 -0.1745812 -0.9554299
vn -0.2380652 -0.1745812 -0.9554299
vn -0.2380652 -0.1745812 -0.9554299
vn -0.2380652 -0.1745812 -0.9554299
vn -0.2380652 -0.7459377 0.6220143
vn -0.2380652 -0.7459377 0.6220143
vn -0.2380652 -0.7459377 0.6220143
vn -0.2380652 -0.7459377 0.6220143
vn 0.2380652 -0.7459377 0.6220143
vn 0.2380652 -0.7459377 0.6220143
vn 0.2380652 -0.7459377 0.6220143
vn 0.2380652 -0.7459377 0.6220143
vn 0.2380652 -0.1745812 -0.9554299
vn 0.2380652 -0.1745812 -0.9554299
vn 0.2380652 -0.1745812 -0.9554299
vn 0.2380652 -0.1745812 -0.9554299
vn 0.2380652 -0.1745812 0.9554299
vn 0.2380652 -0.1745812 0.9554299
vn 0.2380652 -0.1745812 0.9554299
vn 0.2380652 -0.1745812 0.9554299
vn 0.2380652 -0.7459377 -0.6220143
vn 0.2380652 -0.7459377 -0.6220143
vn 0.2380652 -0.7459377 -0.6220143
vn 0.2380652 -0.7459377 -0.6220143
vn 0.2380652 0.9046479 -0.3534643
vn 0.2380652 0.9046479 -0.3534643
vn 0.2380652 0.9046479 -0.3534643
vn 0.2380652 0.9046479 -0.3534643
vn 0.2380652 0.4920015 0.8374124
vn 0.2380652 0.4920015 0.8374124
vn 0.2380652 0.4920015 0.8374124
vn 0.2380652 0.4920015 0.8374124
vn 0.2380652 -0.968132 -0.07775256
vn 0.2380652 -0.968132 -0.07775256
vn 0.2380652 -0.968132 -0.07775256
vn 0.2380652 -0.968132 -0.07775256
vn 0.2380652 0.4920015 -0.8374124
vn 0.2380652 0.4920015 -0.8374124
vn 0.2380652 0.4920015 -0.8374124
vn 0.2380652 0.4920015 -0.8374124
vn 0.2380652 0.9046479 0.3534643
vn 0.2380652 0.9046479 0.3534643
vn 0.2380652 0.9046479 0.3534643
vn 0.2380652 0.9046479 0.3534643
vn -0.999874 0.01587105 -0.0003439156
vn -0.999874 0.01587105 -0.0003439156
vn -0.999874 0.01587105 -0.0003439156
vn -0.999874 0.01587105 -0.0003439156
vn -0.999874 0.01587105 -0.0003439156
vn -0.999874 0.01587105 -0.0003439156
vn -0.999874 0.01587105 -0.0003439156
vn -0.999874 0.01587105 -0.0003439156
vn -0.999874 0.01587105 -0.0003439156
vn 0.9363899 -0.1745812 0.304459
vn 0.9363899 -0.1745812 0.304459
vn 0.9363899 -0.1745812 0.304459
vn 0.9363899 -0.1745812 0.304459
vn 0.931708 0.3632082 0
vn 0.931708 0.3632082 0
vn 0.931708 0.3632082 0
vn 0.931708 0.3632082 0
vn 0.9363899 -0.1745812 -0.304459
vn 0.9363899 -0.1745812 -0.304459
vn 0.9363899 -0.1745812 -0.304459
vn 0.9363899 -0.1745812 -0.304459
vn 0.931708 -0.3632082 0
vn 0.931708 -0.3632082 0
vn 0.931708 -0.3632082 0
vn 0.931708 -0.3632082 0
vn 0.9363899 0.2698073 0.2244502
vn 0.9363899 0.2698073 0.2244502
vn 0.9363899 0.2698073 0.2244502
vn 0.9363899 0.2698073 0.2244502
vn 0.9363899 0.07935512 -0.3418723
vn 0.9363899 0.07935512 -0.3418723
vn 0.9363899 0.07935512 -0.3418723
vn 0.9363899 0.07935512 -0.3418723
vn 0.9363899 0.07935512 0.3418723
vn 0.9363899 0.07935512 0.3418723
vn 0.9363899 0.07935512 0.3418723
vn 0.9363899 0.07935512 0.3418723
vn 0.9363899 0.2698073 -0.2244502
vn 0.9363899 0.2698073 -0.2244502
vn 0.9363899 0.2698073 -0.2244502
vn 0.9363899 0.2698073 -0.2244502
vn 0.931708 -0.3632082 0
vn 0.931708 -0.3632082 0
vn 0.931708 -0.3632082 0
vn 0.931708 -0.3632082 0
vn 0.999874 0.01587105 -0.0003439156
vn 0.999874 0.01587105 -0.0003439156
vn 0.999874 0.01587105 -0.0003439156
vn 0.999874 0.01587105 -0.0003439156
vn 0.999874 0.01587105 -0.0003439156
vn 0.999874 0.01587105 -0.0003439156
vn 0.999874 0.01587105 -0.0003439156
vn 0.999874 0.01587105 -0.0003439156
vn 0.999874 0.01587105 -0.0003439156
g lunar_rover_base_BL_0
f 3/3/3 2/2/2 1/1/1
f 4/4/4 3/3/3 1/1/1
f 7/7/7 6/6/6 5/5/5
f 8/8/8 7/7/7 5/5/5
f 8/8/8 5/5/5 9/9/9
f 10/10/10 8/8/8 9/9/9
f 13/13/13 12/12/12 11/11/11
f 14/14/14 13/13/13 11/11/11
f 17/17/17 16/16/16 15/15/15
f 18/18/18 17/17/17 15/15/15
f 21/21/21 20/20/20 19/19/19
f 22/22/22 21/21/21 19/19/19
f 25/25/25 24/24/24 23/23/23
f 26/26/26 25/25/25 23/23/23
f 29/29/29 28/28/28 27/27/27
f 30/30/30 29/29/29 27/27/27
f 33/33/33 32/32/32 31/31/31
f 34/34/34 33/33/33 31/31/31
f 37/37/37 36/36/36 35/35/35
f 38/38/38 37/37/37 35/35/35
f 41/41/41 40/40/40 39/39/39
f 42/42/42 41/41/41 39/39/39
f 45/45/45 44/44/44 43/43/43
f 46/46/46 45/45/45 43/43/43
f 49/49/49 48/48/48 47/47/47
f 50/50/50 49/49/49 47/47/47
f 53/53/53 52/52/52 51/51/51
f 54/54/54 53/53/53 51/51/51
f 57/57/57 56/56/56 55/55/55
f 58/58/58 57/57/57 55/55/55
f 61/61/61 60/60/60 59/59/59
f 62/62/62 61/61/61 59/59/59
f 65/65/65 64/64/64 63/63/63
f 66/66/66 65/65/65 63/63/63
f 69/69/69 68/68/68 67/67/67
f 70/70/70 69/69/69 67/67/67
f 73/73/73 72/72/72 71/71/71
f 74/74/74 73/73/73 71/71/71
f 77/77/77 76/76/76 75/75/75
f 78/78/78 77/77/77 75/75/75
f 81/81/81 80/80/80 79/79/79
f 82/82/82 81/81/81 79/79/79
f 85/85/85 84/84/84 83/83/83
f 86/86/86 85/85/85 83/83/83
f 89/89/89 88/88/88 87/87/87
f 90/90/90 89/89/89 87/87/87
f 93/93/93 92/92/92 91/91/91
f 94/94/94 93/93/93 91/91/91
f 97/97/97 96/96/96 95/95/95
f 98/98/98 97/97/97 95/95/95
f 101/101/101 100/100/100 99/99/99
f 102/102/102 101/101/101 99/99/99
f 105/105/105 104/104/104 103/103/103
f 106/106/106 105/105/105 103/103/103
f 109/109/109 108/108/108 107/107/107
f 107/107/107 110/110/110 109/109/109
f 107/107/107 111/111/111 110/110/110
f 111/111/111 112/112/112 110/110/110
f 111/111/111 113/113/113 112/112/112
f 113/113/113 114/114/114 112/112/112
f 113/113/113 115/115/115 114/114/114
g lunar_rover_base_BL_1
f 118/118/118 117/117/117 116/116/116
f 119/119/119 118/118/118 116/116/116
f 122/122/122 121/121/121 120/120/120
f 123/123/123 122/122/122 120/120/120
f 126/126/126 125/125/125 124/124/124
f 127/127/127 126/126/126 124/124/124
f 130/130/130 129/129/129 128/128/128
f 131/131/131 130/130/130 128/128/128
f 134/134/134 133/133/133 132/132/132
f 135/135/135 134/134/134 132/132/132
f 138/138/138 137/137/137 136/136/136
f 139/139/139 138/138/138 136/136/136
f 142/142/142 141/141/141 140/140/140
f 143/143/143 142/142/142 140/140/140
f 146/146/146 145/145/145 144/144/144
f 147/147/147 146/146/146 144/144/144
f 150/150/150 149/149/149 148/148/148
f 151/151/151 150/150/150 148/148/148
f 154/154/154 153/153/153 152/152/152
f 155/155/155 154/154/154 152/152/152
f 155/155/155 152/152/152 156/156/156
f 156/156/156 152/152/152 157/157/157
f 158/158/158 157/157/157 152/152/152
f 158/158/158 152/152/152 159/159/159
f 160/160/160 158/158/158 159/159/159
