g pier_concrete_side
v 0.2026396 -1.14521 -0.3812318
v 0.9963832 -1.14521 -0.3812318
v 0.9963832 -0.7483382 -0.3812318
v 0.2026396 -0.7483382 -0.3812318
v 0.9963832 -1.14521 -0.3812318
v 0.9963832 -1.14521 0.4224339
v 0.9963832 -0.7483382 0.4224339
v 0.9963832 -0.7483382 -0.3812318
v 0.9963832 -1.14521 0.4224339
v 0.2026396 -1.14521 0.4224339
v 0.2026396 -0.7483382 0.4224339
v 0.9963832 -0.7483382 0.4224339
v 0.2026396 -1.14521 0.4224339
v 0.2026396 -1.14521 -0.3812318
v 0.2026396 -0.7483382 -0.3812318
v 0.2026396 -0.7483382 0.4224339
v 0.9963832 -1.14521 -0.3812318
v 0.2026396 -1.14521 -0.3812318
v 0.2026396 -1.14521 0.4224339
v 0.9963832 -1.14521 0.4224339
v 1.502395 -0.4010754 2
v 1.502395 -0.7483382 2
v -2 -0.7483382 2
v -2 -0.004203796 2
v 1.998485 -0.004203796 2
v 1.998485 -0.4010754 2
v 0.8574781 -8.15 0.01564026
v 0.7880254 -8.15 0.204154
v 0.7880254 -1.14521 0.204154
v 0.8574781 -1.14521 0.01564026
v 0.7880254 -8.15 0.204154
v 0.5995116 -8.15 0.2835283
v 0.5995116 -1.14521 0.2835283
v 0.7880254 -1.14521 0.204154
v 0.5995116 -8.15 0.2835283
v 0.4109974 -8.15 0.204154
v 0.4109974 -1.14521 0.204154
v 0.5995116 -1.14521 0.2835283
v 0.4109974 -8.15 0.204154
v 0.3415446 -8.15 0.01564026
v 0.3415446 -1.14521 0.01564026
v 0.4109974 -1.14521 0.204154
v 0.3415446 -8.15 0.01564026
v 0.4109974 -8.15 -0.1629524
v 0.4109974 -1.14521 -0.1629524
v 0.3415446 -1.14521 0.01564026
v 0.4109974 -8.15 -0.1629524
v 0.5995116 -8.15 -0.2423267
v 0.5995116 -1.14521 -0.2423267
v 0.4109974 -1.14521 -0.1629524
v 0.5995116 -8.15 -0.2423267
v 0.7880254 -8.15 -0.1629524
v 0.7880254 -1.14521 -0.1629524
v 0.5995116 -1.14521 -0.2423267
v 0.7880254 -8.15 -0.1629524
v 0.8574781 -8.15 0.01564026
v 0.8574781 -1.14521 0.01564026
v 0.7880254 -1.14521 -0.1629524
v 0.7880254 -8.15 -0.1629524
v 0.5995116 -8.15 -0.2423267
v 0.4109974 -8.15 -0.1629524
v 0.8574781 -8.15 0.01564026
v 0.3415446 -8.15 0.01564026
v 0.7880254 -8.15 0.204154
v 0.4109974 -8.15 0.204154
v 0.5995116 -8.15 0.2835283
v 1.502395 -0.4010754 -1.998485
v 1.502395 -0.7483382 -1.998485
v 1.502395 -0.7483382 2
v 1.502395 -0.4010754 2
v -2 -0.7483382 -1.998485
v 1.502395 -0.7483382 -1.998485
v 1.502395 -0.4010754 -1.998485
v -2 -0.004203796 -1.998485
v 1.998485 -0.4010754 -1.998485
v 1.998485 -0.004203796 -1.998485
v -2 -0.004203796 2
v 1.998485 -0.004203796 1.50391
v 1.998485 -0.004203796 2
v 1.998485 -0.004203796 1.097116
v 1.998485 -0.004203796 0.204154
v 1.998485 -0.004203796 -0.2026396
v 1.998485 -0.004203796 -1.095602
v -2 -0.004203796 -1.998485
v 1.998485 -0.004203796 -1.502395
v 1.998485 -0.004203796 -1.998485
v 1.502395 -0.4010754 2
v 1.998485 -0.4010754 2
v 1.998485 -0.4010754 1.50391
v 1.998485 -0.4010754 1.097116
v 1.998485 -0.4010754 0.204154
v 1.998485 -0.4010754 -0.2026396
v 1.998485 -0.4010754 -1.095602
v 1.998485 -0.4010754 -1.502395
v 1.502395 -0.4010754 -1.998485
v 1.998485 -0.4010754 -1.998485
v -2 -0.004203796 -1.998485
v -2 -0.004203796 2
v -2 -0.7483382 2
v -2 -0.7483382 -1.998485
v 1.303959 -0.004203796 0.2537632
v 1.303959 -0.004203796 -0.2423267
v 1.403177 0.2537632 -0.1431084
v 1.403177 0.2537632 0.1545448
v 1.303959 -0.004203796 -0.2423267
v 1.800049 -0.004203796 -0.2423267
v 1.700831 0.2537632 -0.1431084
v 1.403177 0.2537632 -0.1431084
v 1.800049 -0.004203796 -0.2423267
v 1.800049 -0.004203796 0.2537632
v 1.700831 0.2537632 0.1545448
v 1.700831 0.2537632 -0.1431084
v 1.800049 -0.004203796 0.2537632
v 1.303959 -0.004203796 0.2537632
v 1.403177 0.2537632 0.1545448
v 1.700831 0.2537632 0.1545448
v 1.700831 0.2537632 -0.1431084
v 1.700831 0.2537632 0.1545448
v 1.403177 0.2537632 0.1545448
v 1.403177 0.2537632 -0.1431084
v -2 -0.7483382 -1.998485
v -2 -0.7483382 2
v 1.502395 -0.7483382 2
v 1.502395 -0.7483382 -1.998485
v 1.432942 0.2537632 0.07517052
v 1.432942 0.2537632 -0.06373405
v 1.432942 0.5514174 -0.06373405
v 1.432942 0.2537632 0.07517052
v 1.432942 0.5514174 -0.06373405
v 1.432942 0.5514174 0.07517052
v 1.671066 0.2537632 -0.06373405
v 1.671066 0.2537632 0.07517052
v 1.671066 0.5514174 0.07517052
v 1.671066 0.2537632 -0.06373405
v 1.671066 0.5514174 0.07517052
v 1.671066 0.5514174 -0.06373405
v 1.671066 0.2537632 0.07517052
v 1.552004 0.2537632 0.1347017
v 1.552004 0.5514174 0.1347017
v 1.671066 0.2537632 0.07517052
v 1.552004 0.5514174 0.1347017
v 1.671066 0.5514174 0.07517052
v 1.552004 0.2537632 -0.1331873
v 1.671066 0.2537632 -0.06373405
v 1.671066 0.5514174 -0.06373405
v 1.552004 0.2537632 -0.1331873
v 1.671066 0.5514174 -0.06373405
v 1.552004 0.5514174 -0.1331873
v 1.998485 -0.004203796 -1.095602
v 1.998485 -0.004203796 -1.502395
v 1.998485 -0.4010754 -1.502395
v 1.998485 -0.4010754 -1.095602
v 1.998485 -0.004203796 0.204154
v 1.998485 -0.004203796 -0.2026396
v 1.998485 -0.4010754 -0.2026396
v 1.998485 -0.4010754 0.204154
v 1.998485 -0.004203796 1.50391
v 1.998485 -0.004203796 1.097116
v 1.998485 -0.4010754 1.097116
v 1.998485 -0.4010754 1.50391
v 1.432942 0.5514174 0.07517052
v 1.432942 0.5514174 -0.06373405
v 1.47263 0.6010265 -0.04389095
v 1.47263 0.6010265 0.04540539
v 1.432942 0.5514174 -0.06373405
v 1.552004 0.5514174 -0.1331873
v 1.552004 0.6010265 -0.08357811
v 1.47263 0.6010265 -0.04389095
v 1.552004 0.5514174 0.1347017
v 1.432942 0.5514174 0.07517052
v 1.47263 0.6010265 0.04540539
v 1.552004 0.6010265 0.09501457
v 1.671066 0.5514174 -0.06373405
v 1.671066 0.5514174 0.07517052
v 1.631379 0.6010265 0.04540539
v 1.631379 0.6010265 -0.04389095
v 1.552004 0.5514174 -0.1331873
v 1.671066 0.5514174 -0.06373405
v 1.631379 0.6010265 -0.04389095
v 1.552004 0.6010265 -0.08357811
v 1.671066 0.5514174 0.07517052
v 1.552004 0.5514174 0.1347017
v 1.552004 0.6010265 0.09501457
v 1.631379 0.6010265 0.04540539
v 1.552004 0.2537632 0.1347017
v 1.432942 0.2537632 0.07517052
v 1.432942 0.5514174 0.07517052
v 1.552004 0.5514174 0.1347017
v 1.47263 0.6010265 -0.04389095
v 1.552004 0.6010265 -0.08357811
v 1.631379 0.6010265 -0.04389095
v 1.47263 0.6010265 0.04540539
v 1.631379 0.6010265 0.04540539
v 1.552004 0.6010265 0.09501457
v 1.432942 0.2537632 -0.06373405
v 1.552004 0.2537632 -0.1331873
v 1.552004 0.5514174 -0.1331873
v 1.432942 0.5514174 -0.06373405
v 1.998485 -0.4010754 0.204154
v 1.998485 -0.4010754 1.097116
v 1.998485 -0.004203796 1.097116
v 1.998485 -0.004203796 0.204154
v 1.998485 -0.4010754 -1.998485
v 1.998485 -0.4010754 -1.502395
v 1.998485 -0.004203796 -1.502395
v 1.998485 -0.004203796 -1.998485
v 1.998485 -0.4010754 -1.095602
v 1.998485 -0.4010754 -0.2026396
v 1.998485 -0.004203796 -0.2026396
v 1.998485 -0.004203796 -1.095602
v 1.998485 -0.4010754 1.50391
v 1.998485 -0.4010754 2
v 1.998485 -0.004203796 2
v 1.998485 -0.004203796 1.50391
vt 0.3530093 0.7371449
vt 0.2628551 0.7371449
vt 0.2628551 0.7802622
vt 0.3530093 0.7802622
vt 0.2628551 0.7371449
vt 0.2628551 0.6469907
vt 0.2197378 0.6469907
vt 0.2197378 0.7371449
vt 0.2628551 0.6469907
vt 0.3530093 0.6469907
vt 0.3530093 0.6038734
vt 0.2628551 0.6038734
vt 0.3530093 0.6469907
vt 0.3530093 0.7371449
vt 0.3961266 0.7371449
vt 0.3961266 0.6469907
vt 0.2628551 0.7371449
vt 0.3530093 0.7371449
vt 0.3530093 0.6469907
vt 0.2628551 0.6469907
vt 0.9448917 0.03942925
vt 0.9448917 0.0002317442
vt 0.5607561 0.0002317442
vt 0.5607561 0.08254651
vt 0.9997682 0.08254651
vt 0.9997682 0.03942925
vt 0.2197378 0.7371449
vt 0.2197378 0.7136264
vt 0.0002317442 0.7136264
vt 0.0002317442 0.7371449
vt 0.2197378 0.7136264
vt 0.2197378 0.6940277
vt 0.0002317442 0.6940277
vt 0.0002317442 0.7136264
vt 0.2197378 0.6940277
vt 0.2197378 0.6705092
vt 0.0002317442 0.6705092
vt 0.0002317442 0.6940277
vt 0.2197378 0.6705092
vt 0.2197378 0.6469907
vt 0.0002317442 0.6469907
vt 0.0002317442 0.6705092
vt 0.2197378 0.6469907
vt 0.2197378 0.6273919
vt 0.0002317442 0.6273919
vt 0.0002317442 0.6469907
vt 0.2197378 0.6273919
vt 0.2197378 0.6038734
vt 0.0002317442 0.6038734
vt 0.0002317442 0.6273919
vt 0.2197378 0.7802622
vt 0.2197378 0.7606634
vt 0.0002317442 0.7606634
vt 0.0002317442 0.7802622
vt 0.2197378 0.7606634
vt 0.2197378 0.7371449
vt 0.0002317442 0.7371449
vt 0.0002317442 0.7606634
vt 0.4353241 0.6979474
vt 0.4118056 0.6979474
vt 0.3961266 0.7136264
vt 0.4510031 0.7136264
vt 0.3961266 0.7332252
vt 0.4510031 0.7332252
vt 0.4118056 0.7489042
vt 0.4353241 0.7489042
vt 0.05510826 0.5215586
vt 0.09430576 0.5215586
vt 0.09430576 0.08254651
vt 0.05510826 0.08254651
vt 0.5607561 0.6038734
vt 0.9448917 0.6038734
vt 0.9448917 0.5646759
vt 0.5607561 0.5215586
vt 0.9997682 0.5646759
vt 0.9997682 0.5215586
vt 0.5607561 0.08254651
vt 0.9997682 0.137423
vt 0.9997682 0.08254651
vt 0.9997682 0.1805403
vt 0.9997682 0.2785341
vt 0.9997682 0.3255711
vt 0.9997682 0.4235648
vt 0.5607561 0.5215586
vt 0.9997682 0.4666821
vt 0.9997682 0.5215586
vt 0.05510826 0.08254651
vt 0.0002317442 0.08254651
vt 0.0002317442 0.137423
vt 0.0002317442 0.1805403
vt 0.0002317442 0.2785341
vt 0.0002317442 0.3255711
vt 0.0002317442 0.4235648
vt 0.0002317442 0.4666821
vt 0.05510826 0.5215586
vt 0.0002317442 0.5215586
vt 0.5607561 0.5215586
vt 0.5607561 0.08254651
vt 0.4784414 0.08254651
vt 0.4784414 0.5215586
vt 0.5568364 0.6861882
vt 0.5568364 0.7645832
vt 0.5881944 0.7410647
vt 0.5803549 0.7175462
vt 0.5568364 0.7645832
vt 0.6352314 0.7685029
vt 0.6117129 0.7371449
vt 0.5881944 0.7410647
vt 0.6352314 0.7685029
vt 0.6352314 0.6861882
vt 0.6038734 0.7136264
vt 0.6117129 0.7371449
vt 0.6352314 0.6861882
vt 0.5568364 0.6861882
vt 0.5803549 0.7175462
vt 0.6038734 0.7136264
vt 0.6117129 0.7371449
vt 0.6038734 0.7136264
vt 0.5803549 0.7175462
vt 0.5881944 0.7410647
vt 0.4784414 0.5215586
vt 0.4784414 0.08254651
vt 0.09430576 0.08254651
vt 0.09430576 0.5215586
vt 0.5176389 0.6979474
vt 0.4784414 0.6744289
vt 0.5254784 0.7567437
vt 0.5176389 0.6979474
vt 0.5254784 0.7567437
vt 0.5137191 0.7606634
vt 0.5176389 0.6038734
vt 0.5568364 0.6273919
vt 0.5215586 0.7763424
vt 0.5176389 0.6038734
vt 0.5215586 0.7763424
vt 0.5333179 0.7724227
vt 0.5568364 0.6273919
vt 0.5568364 0.6744289
vt 0.5137191 0.7724227
vt 0.5568364 0.6273919
vt 0.5137191 0.7724227
vt 0.5215586 0.7763424
vt 0.4784414 0.6273919
vt 0.5176389 0.6038734
vt 0.5333179 0.7724227
vt 0.4784414 0.6273919
vt 0.5333179 0.7724227
vt 0.5333179 0.7645832
vt 0.8037807 0.7489042
vt 0.7606634 0.7489042
vt 0.7606634 0.7920214
vt 0.8037807 0.7920214
vt 0.8155399 0.7057869
vt 0.7724227 0.7057869
vt 0.7724227 0.7489042
vt 0.8155399 0.7489042
vt 0.5999537 0.7685029
vt 0.5568364 0.7685029
vt 0.5568364 0.8116202
vt 0.5999537 0.8116202
vt 0.5137191 0.7606634
vt 0.5254784 0.7567437
vt 0.5254784 0.7606634
vt 0.5176389 0.7645832
vt 0.5254784 0.7567437
vt 0.5333179 0.7645832
vt 0.5293981 0.7645832
vt 0.5254784 0.7606634
vt 0.5137191 0.7724227
vt 0.5137191 0.7606634
vt 0.5176389 0.7645832
vt 0.5176389 0.7685029
vt 0.5333179 0.7724227
vt 0.5215586 0.7763424
vt 0.5215586 0.7724227
vt 0.5293981 0.7724227
vt 0.5333179 0.7645832
vt 0.5333179 0.7724227
vt 0.5293981 0.7724227
vt 0.5293981 0.7645832
vt 0.5215586 0.7763424
vt 0.5137191 0.7724227
vt 0.5176389 0.7685029
vt 0.5215586 0.7724227
vt 0.5568364 0.6744289
vt 0.5176389 0.6979474
vt 0.5137191 0.7606634
vt 0.5137191 0.7724227
vt 0.5254784 0.7606634
vt 0.5293981 0.7645832
vt 0.5293981 0.7724227
vt 0.5176389 0.7645832
vt 0.5215586 0.7724227
vt 0.5176389 0.7685029
vt 0.4784414 0.6744289
vt 0.4784414 0.6273919
vt 0.5333179 0.7645832
vt 0.5254784 0.7567437
vt 0.4588426 0.7410647
vt 0.5568364 0.7410647
vt 0.5568364 0.6979474
vt 0.4588426 0.6979474
vt 0.5019599 0.7959412
vt 0.5019599 0.7410647
vt 0.4588426 0.7410647
vt 0.4588426 0.7959412
vt 0.7606634 0.7018672
vt 0.7606634 0.6038734
vt 0.7136264 0.6038734
vt 0.7136264 0.7018672
vt 0.7136264 0.7489042
vt 0.7685029 0.7489042
vt 0.7685029 0.7057869
vt 0.7136264 0.7057869
vn -0.01587105 0.01587105 -0.9997481
vn -0.01587105 0.01587105 -0.9997481
vn -0.01587105 0.01587105 -0.9997481
vn -0.01587105 0.01587105 -0.9997481
vn 0.999874 0.01587105 -0.0003439156
vn 0.999874 0.01587105 -0.0003439156
vn 0.999874 0.01587105 -0.0003439156
vn 0.999874 0.01587105 -0.0003439156
vn -0.01587105 0.01587105 0.9997481
vn -0.01587105 0.01587105 0.9997481
vn -0.01587105 0.01587105 0.9997481
vn -0.01587105 0.01587105 0.9997481
vn -0.999874 0.01587105 -0.0003439156
vn -0.999874 0.01587105 -0.0003439156
vn -0.999874 0.01587105 -0.0003439156
vn -0.999874 0.01587105 -0.0003439156
vn -0.01587105 -0.999874 -0.000345267
vn -0.01587105 -0.999874 -0.000345267
vn -0.01587105 -0.999874 -0.000345267
vn -0.01587105 -0.999874 -0.000345267
vn -0.01587105 0.01587105 0.9997481
vn -0.01587105 0.01587105 0.9997481
vn -0.01587105 0.01587105 0.9997481
vn -0.01587105 0.01587105 0.9997481
vn -0.01587105 0.01587105 0.9997481
vn -0.01587105 0.01587105 0.9997481
vn 0.9363899 0.01587105 0.3506023
vn 0.9363899 0.01587105 0.3506023
vn 0.9363899 0.01587105 0.3506023
vn 0.9363899 0.01587105 0.3506023
vn 0.3967754 0.01587105 0.9177785
vn 0.3967754 0.01587105 0.9177785
vn 0.3967754 0.01587105 0.9177785
vn 0.3967754 0.01587105 0.9177785
vn -0.3967754 0.01587105 0.9177785
vn -0.3967754 0.01587105 0.9177785
vn -0.3967754 0.01587105 0.9177785
vn -0.3967754 0.01587105 0.9177785
vn -0.9363899 0.01587105 0.3506023
vn -0.9363899 0.01587105 0.3506023
vn -0.9363899 0.01587105 0.3506023
vn -0.9363899 0.01587105 0.3506023
vn -0.9363899 0.01587105 -0.3506023
vn -0.9363899 0.01587105 -0.3506023
vn -0.9363899 0.01587105 -0.3506023
vn -0.9363899 0.01587105 -0.3506023
vn -0.3967754 0.01587105 -0.9177785
vn -0.3967754 0.01587105 -0.9177785
vn -0.3967754 0.01587105 -0.9177785
vn -0.3967754 0.01587105 -0.9177785
vn 0.3967754 0.01587105 -0.9177785
vn 0.3967754 0.01587105 -0.9177785
vn 0.3967754 0.01587105 -0.9177785
vn 0.3967754 0.01587105 -0.9177785
vn 0.9363899 0.01587105 -0.3506023
vn 0.9363899 0.01587105 -0.3506023
vn 0.9363899 0.01587105 -0.3506023
vn 0.9363899 0.01587105 -0.3506023
vn -0.01587105 -0.999874 -0.000345267
vn -0.01587105 -0.999874 -0.000345267
vn -0.01587105 -0.999874 -0.000345267
vn -0.01587105 -0.999874 -0.000345267
vn -0.01587105 -0.999874 -0.000345267
vn -0.01587105 -0.999874 -0.000345267
vn -0.01587105 -0.999874 -0.000345267
vn -0.01587105 -0.999874 -0.000345267
vn 0.999874 0.01587105 -0.0003439156
vn 0.999874 0.01587105 -0.0003439156
vn 0.999874 0.01587105 -0.0003439156
vn 0.999874 0.01587105 -0.0003439156
vn -0.01587105 0.01587105 -0.9997481
vn -0.01587105 0.01587105 -0.9997481
vn -0.01587105 0.01587105 -0.9997481
vn -0.01587105 0.01587105 -0.9997481
vn -0.01587105 0.01587105 -0.9997481
vn -0.01587105 0.01587105 -0.9997481
vn -0.01587105 0.999874 -0.000345267
vn -0.01587105 0.999874 -0.000345267
vn -0.01587105 0.999874 -0.000345267
vn -0.01587105 0.999874 -0.000345267
vn -0.01587105 0.999874 -0.000345267
vn -0.01587105 0.999874 -0.000345267
vn -0.01587105 0.999874 -0.000345267
vn -0.01587105 0.999874 -0.000345267
vn -0.01587105 0.999874 -0.000345267
vn -0.01587105 0.999874 -0.000345267
vn -0.01587105 -0.999874 -0.000345267
vn -0.01587105 -0.999874 -0.000345267
vn -0.01587105 -0.999874 -0.000345267
vn -0.01587105 -0.999874 -0.000345267
vn -0.01587105 -0.999874 -0.000345267
vn -0.01587105 -0.999874 -0.000345267
vn -0.01587105 -0.999874 -0.000345267
vn -0.01587105 -0.999874 -0.000345267
vn -0.01587105 -0.999874 -0.000345267
vn -0.01587105 -0.999874 -0.000345267
vn -0.999874 0.01587105 -0.0003439156
vn -0.999874 0.01587105 -0.0003439156
vn -0.999874 0.01587105 -0.0003439156
vn -0.999874 0.01587105 -0.0003439156
vn -0.931708 0.3632082 0
vn -0.931708 0.3632082 0
vn -0.931708 0.3632082 0
vn -0.931708 0.3632082 0
vn -0.01587105 0.3650334 -0.9308591
vn -0.01587105 0.3650334 -0.9308591
vn -0.01587105 0.3650334 -0.9308591
vn -0.01587105 0.3650334 -0.9308591
vn 0.931708 0.3632082 0
vn 0.931708 0.3632082 0
vn 0.931708 0.3632082 0
vn 0.931708 0.3632082 0
vn -0.01587105 0.3650334 0.9308591
vn -0.01587105 0.3650334 0.9308591
vn -0.01587105 0.3650334 0.9308591
vn -0.01587105 0.3650334 0.9308591
vn -0.01587105 0.999874 -0.000345267
vn -0.01587105 0.999874 -0.000345267
vn -0.01587105 0.999874 -0.000345267
vn -0.01587105 0.999874 -0.000345267
vn -0.01587105 -0.999874 -0.000345267
vn -0.01587105 -0.999874 -0.000345267
vn -0.01587105 -0.999874 -0.000345267
vn -0.01587105 -0.999874 -0.000345267
vn -0.999874 0.01587105 -0.0003439156
vn -0.999874 0.01587105 -0.0003439156
vn -0.999874 0.01587105 -0.0003439156
vn -0.999874 0.01587105 -0.0003439156
vn -0.999874 0.01587105 -0.0003439156
vn -0.999874 0.01587105 -0.0003439156
vn 0.999874 0.01587105 -0.0003439156
vn 0.999874 0.01587105 -0.0003439156
vn 0.999874 0.01587105 -0.0003439156
vn 0.999874 0.01587105 -0.0003439156
vn 0.999874 0.01587105 -0.0003439156
vn 0.999874 0.01587105 -0.0003439156
vn 0.4920015 0.01587105 0.8704497
vn 0.4920015 0.01587105 0.8704497
vn 0.4920015 0.01587105 0.8704497
vn 0.4920015 0.01587105 0.8704497
vn 0.4920015 0.01587105 0.8704497
vn 0.4920015 0.01587105 0.8704497
vn 0.4920015 0.01587105 -0.8704497
vn 0.4920015 0.01587105 -0.8704497
vn 0.4920015 0.01587105 -0.8704497
vn 0.4920015 0.01587105 -0.8704497
vn 0.4920015 0.01587105 -0.8704497
vn 0.4920015 0.01587105 -0.8704497
vn 0.999874 0.01587105 -0.0003439156
vn 0.999874 0.01587105 -0.0003439156
vn 0.999874 0.01587105 -0.0003439156
vn 0.999874 0.01587105 -0.0003439156
vn 0.999874 0.01587105 -0.0003439156
vn 0.999874 0.01587105 -0.0003439156
vn 0.999874 0.01587105 -0.0003439156
vn 0.999874 0.01587105 -0.0003439156
vn 0.999874 0.01587105 -0.0003439156
vn 0.999874 0.01587105 -0.0003439156
vn 0.999874 0.01587105 -0.0003439156
vn 0.999874 0.01587105 -0.0003439156
vn -0.7776798 0.6189697 -0.1099576
vn -0.7776798 0.6189697 -0.1099576
vn -0.7776798 0.6189697 -0.1099576
vn -0.7776798 0.6189697 -0.1099576
vn -0.3967754 0.6189697 -0.6778243
vn -0.3967754 0.6189697 -0.6778243
vn -0.3967754 0.6189697 -0.6778243
vn -0.3967754 0.6189697 -0.6778243
vn -0.3967754 0.6189697 0.6778243
vn -0.3967754 0.6189697 0.6778243
vn -0.3967754 0.6189697 0.6778243
vn -0.3967754 0.6189697 0.6778243
vn 0.7776798 0.6189697 -0.1099576
vn 0.7776798 0.6189697 -0.1099576
vn 0.7776798 0.6189697 -0.1099576
vn 0.7776798 0.6189697 -0.1099576
vn 0.3967754 0.6189697 -0.6778243
vn 0.3967754 0.6189697 -0.6778243
vn 0.3967754 0.6189697 -0.6778243
vn 0.3967754 0.6189697 -0.6778243
vn 0.3967754 0.6189697 0.6778243
vn 0.3967754 0.6189697 0.6778243
vn 0.3967754 0.6189697 0.6778243
vn 0.3967754 0.6189697 0.6778243
vn -0.4920015 0.01587105 0.8704497
vn -0.4920015 0.01587105 0.8704497
vn -0.4920015 0.01587105 0.8704497
vn -0.4920015 0.01587105 0.8704497
vn -0.01587105 0.999874 -0.000345267
vn -0.01587105 0.999874 -0.000345267
vn -0.01587105 0.999874 -0.000345267
vn -0.01587105 0.999874 -0.000345267
vn -0.01587105 0.999874 -0.000345267
vn -0.01587105 0.999874 -0.000345267
vn -0.4920015 0.01587105 -0.8704497
vn -0.4920015 0.01587105 -0.8704497
vn -0.4920015 0.01587105 -0.8704497
vn -0.4920015 0.01587105 -0.8704497
vn 0.999874 0.01587105 -0.0003439156
vn 0.999874 0.01587105 -0.0003439156
vn 0.999874 0.01587105 -0.0003439156
vn 0.999874 0.01587105 -0.0003439156
vn 0.999874 0.01587105 -0.0003439156
vn 0.999874 0.01587105 -0.0003439156
vn 0.999874 0.01587105 -0.0003439156
vn 0.999874 0.01587105 -0.0003439156
vn 0.999874 0.01587105 -0.0003439156
vn 0.999874 0.01587105 -0.0003439156
vn 0.999874 0.01587105 -0.0003439156
vn 0.999874 0.01587105 -0.0003439156
vn 0.999874 0.01587105 -0.0003439156
vn 0.999874 0.01587105 -0.0003439156
vn 0.999874 0.01587105 -0.0003439156
vn 0.999874 0.01587105 -0.0003439156
g pier_concrete_side_0
f 3/3/3 2/2/2 1/1/1
f 4/4/4 3/3/3 1/1/1
f 7/7/7 6/6/6 5/5/5
f 8/8/8 7/7/7 5/5/5
f 11/11/11 10/10/10 9/9/9
f 12/12/12 11/11/11 9/9/9
f 15/15/15 14/14/14 13/13/13
f 16/16/16 15/15/15 13/13/13
f 19/19/19 18/18/18 17/17/17
f 20/20/20 19/19/19 17/17/17
f 23/23/23 22/22/22 21/21/21
f 21/21/21 24/24/24 23/23/23
f 25/25/25 24/24/24 21/21/21
f 26/26/26 25/25/25 21/21/21
f 29/29/29 28/28/28 27/27/27
f 30/30/30 29/29/29 27/27/27
f 33/33/33 32/32/32 31/31/31
f 34/34/34 33/33/33 31/31/31
f 37/37/37 36/36/36 35/35/35
f 38/38/38 37/37/37 35/35/35
f 41/41/41 40/40/40 39/39/39
f 42/42/42 41/41/41 39/39/39
f 45/45/45 44/44/44 43/43/43
f 46/46/46 45/45/45 43/43/43
f 49/49/49 48/48/48 47/47/47
f 50/50/50 49/49/49 47/47/47
f 53/53/53 52/52/52 51/51/51
f 54/54/54 53/53/53 51/51/51
f 57/57/57 56/56/56 55/55/55
f 58/58/58 57/57/57 55/55/55
f 61/61/61 60/60/60 59/59/59
f 59/59/59 62/62/62 61/61/61
f 62/62/62 63/63/63 61/61/61
f 62/62/62 64/64/64 63/63/63
f 64/64/64 65/65/65 63/63/63
f 64/64/64 66/66/66 65/65/65
f 69/69/69 68/68/68 67/67/67
f 70/70/70 69/69/69 67/67/67
f 73/73/73 72/72/72 71/71/71
f 71/71/71 74/74/74 73/73/73
f 73/73/73 74/74/74 75/75/75
f 74/74/74 76/76/76 75/75/75
f 79/79/79 78/78/78 77/77/77
f 78/78/78 80/80/80 77/77/77
f 80/80/80 81/81/81 77/77/77
f 81/81/81 82/82/82 77/77/77
f 82/82/82 83/83/83 77/77/77
f 77/77/77 83/83/83 84/84/84
f 83/83/83 85/85/85 84/84/84
f 85/85/85 86/86/86 84/84/84
f 89/89/89 88/88/88 87/87/87
f 90/90/90 89/89/89 87/87/87
f 91/91/91 90/90/90 87/87/87
f 92/92/92 91/91/91 87/87/87
f 93/93/93 92/92/92 87/87/87
f 94/94/94 93/93/93 87/87/87
f 95/95/95 94/94/94 87/87/87
f 95/95/95 96/96/96 94/94/94
f 99/99/99 98/98/98 97/97/97
f 100/100/100 99/99/99 97/97/97
f 103/103/103 102/102/102 101/101/101
f 104/104/104 103/103/103 101/101/101
f 107/107/107 106/106/106 105/105/105
f 108/108/108 107/107/107 105/105/105
f 111/111/111 110/110/110 109/109/109
f 112/112/112 111/111/111 109/109/109
f 115/115/115 114/114/114 113/113/113
f 116/116/116 115/115/115 113/113/113
f 119/119/119 118/118/118 117/117/117
f 120/120/120 119/119/119 117/117/117
f 123/123/123 122/122/122 121/121/121
f 124/124/124 123/123/123 121/121/121
g pier_concrete_side_1
f 127/127/127 126/126/126 125/125/125
f 130/130/130 129/129/129 128/128/128
f 133/133/133 132/132/132 131/131/131
f 136/136/136 135/135/135 134/134/134
f 139/139/139 138/138/138 137/137/137
f 142/142/142 141/141/141 140/140/140
f 145/145/145 144/144/144 143/143/143
f 148/148/148 147/147/147 146/146/146
f 151/151/151 150/150/150 149/149/149
f 152/152/152 151/151/151 149/149/149
f 155/155/155 154/154/154 153/153/153
f 156/156/156 155/155/155 153/153/153
f 159/159/159 158/158/158 157/157/157
f 160/160/160 159/159/159 157/157/157
f 163/163/163 162/162/162 161/161/161
f 164/164/164 163/163/163 161/161/161
f 167/167/167 166/166/166 165/165/165
f 168/168/168 167/167/167 165/165/165
f 171/171/171 170/170/170 169/169/169
f 172/172/172 171/171/171 169/169/169
f 175/175/175 174/174/174 173/173/173
f 176/176/176 175/175/175 173/173/173
f 179/179/179 178/178/178 177/177/177
f 180/180/180 179/179/179 177/177/177
f 183/183/183 182/182/182 181/181/181
f 184/184/184 183/183/183 181/181/181
f 187/187/187 186/186/186 185/185/185
f 188/188/188 187/187/187 185/185/185
f 191/191/191 190/190/190 189/189/189
f 189/189/189 192/192/192 191/191/191
f 192/192/192 193/193/193 191/191/191
f 192/192/192 194/194/194 193/193/193
f 197/197/197 196/196/196 195/195/195
f 198/198/198 197/197/197 195/195/195
g pier_concrete_side_2
f 201/201/201 200/200/200 199/199/199
f 202/202/202 201/201/201 199/199/199
f 205/205/205 204/204/204 203/203/203
f 206/206/206 205/205/205 203/203/203
f 209/209/209 208/208/208 207/207/207
f 210/210/210 209/209/209 207/207/207
f 213/213/213 212/212/212 211/211/211
f 214/214/214 213/213/213 211/211/211
