g Ramp01
v -1.570021 3.561493 11.92245
v -1.570021 3.561493 16.02411
v -1.570021 0.004238468 16.03082
v -1.570021 0.004238468 11.92943
v -1.570021 0.3246465 0.7070951
v -1.570021 0.1788112 0.1135478
v -1.570021 0.07218754 -0.4802679
v -1.570021 0.004238468 -1.074084
v -1.570021 0.004238468 11.92943
v -1.570021 0.004238468 16.03082
v -1.023206 0.004238468 16.03082
v -1.023206 0.004238468 11.92943
v -0.1468509 0.004238468 16.03082
v -0.1468509 0.004238468 11.92943
v 0.8801737 0.004238468 16.03082
v 0.8801737 0.004238468 11.92943
v 1.570139 0.004238468 16.03082
v 1.570139 0.004238468 11.92943
v 1.570139 0.004238468 -0.4252104
v -1.570021 0.004238468 -1.074084
v -1.023206 0.004238468 -1.074084
v -0.1718283 0.004238468 -1.074084
v 0.6701493 0.004238468 -1.074084
v 1.570139 0.004238468 -1.074084
v 0.6701493 0.004238468 -1.074084
v 1.570139 0.004238468 -1.074084
v 1.570139 0.07218754 -0.4802679
v 0.6075717 0.07218754 -0.4802679
v -0.1718283 0.004238468 -1.074084
v 0.7445441 0.1788112 0.1135478
v 1.570139 0.1788112 0.1135478
v -0.2035199 0.07218754 -0.4802679
v -1.023206 0.004238468 -1.074084
v 0.8108818 0.3246465 0.7070951
v 1.570139 0.3246465 0.7070951
v 1.570139 0.5091565 1.300911
v -0.1704854 0.1788112 0.1135478
v 0.7198354 0.5091565 1.300911
v 1.570139 0.7326095 1.894727
v -0.1406737 0.3246465 0.7070951
v 0.6951267 0.7326095 1.894727
v 1.570139 0.9753999 2.488274
v -0.1573253 0.5091565 1.300911
v -0.9034222 0.07218754 -0.4802679
v -0.8862335 0.1788112 0.1135478
v -1.570021 0.07218754 -0.4802679
v -1.570021 0.004238468 -1.074084
v -1.570021 0.1788112 0.1135478
v -1.570021 0.3246465 0.7070951
v -0.8862335 0.3246465 0.7070951
v -1.570021 0.5091565 1.300911
v -1.151584 0.5091565 1.300911
v -1.570021 0.7326095 1.894727
v -1.023206 0.7326095 1.894727
v -1.570021 0.9753999 2.488274
v -0.1592053 0.7326095 1.894727
v -1.142721 0.9753999 2.488274
v -1.570021 1.237796 3.082089
v 0.8801737 0.9753999 2.488274
v -1.142721 1.237796 3.082089
v -1.570021 1.539135 3.675905
v -0.1052221 0.9753999 2.488274
v 0.7176868 1.237796 3.082089
v 1.570139 1.237796 3.082089
v 1.570139 1.539135 3.675905
v -1.023206 1.539135 3.675905
v -1.570021 1.879149 4.269721
v -0.1750512 1.237796 3.082089
v 0.7260125 1.539135 3.675905
v 1.570139 1.879149 4.269721
v -1.023206 1.879149 4.269721
v -1.570021 2.258106 4.863268
v -0.1986856 1.539135 3.675905
v 0.7872474 1.879149 4.269721
v 1.570139 2.258106 4.863268
v -1.023206 2.258106 4.863268
v -1.570021 2.676006 5.457084
v -0.1420166 1.879149 4.269721
v 0.7268183 2.258106 4.863268
v -1.023206 2.676006 5.457084
v -1.570021 3.132581 6.0509
v -0.132348 2.258106 4.863268
v 0.7864416 2.676006 5.457084
v 1.570139 2.676006 5.457084
v 1.570139 3.132581 6.0509
v -1.023206 3.132581 6.0509
v -1.570021 3.437144 6.662173
v -0.1632339 2.676006 5.457084
v 0.8801737 3.132581 6.0509
v -1.023206 3.437144 6.662173
v -1.570021 3.569013 7.376847
v -0.1468509 3.132581 6.0509
v -0.1468509 3.437144 6.662173
v 0.8801737 3.437144 6.662173
v 1.570139 3.437144 6.662173
v 1.570139 3.569013 7.376847
v -1.023206 3.569013 7.376847
v -1.570021 3.561493 11.92245
v -0.1468509 3.569013 7.376847
v 0.8801737 3.569013 7.376847
v -1.023206 3.561493 11.92245
v -1.570021 3.561493 16.02411
v -1.023206 3.561493 16.02411
v -0.1468509 3.561493 11.92245
v -0.1468509 3.561493 16.02411
v 0.8801737 3.561493 11.92245
v 1.570139 3.561493 11.92245
v 0.8801737 3.561493 16.02411
v 1.570139 3.561493 16.02411
v -1.023206 0.004238468 16.03082
v -1.570021 0.004238468 16.03082
v -1.570021 3.561493 16.02411
v -1.023206 3.561493 16.02411
v -0.1468509 3.561493 16.02411
v -0.1468509 0.004238468 16.03082
v 0.8801737 0.004238468 16.03082
v 0.8801737 3.561493 16.02411
v 1.570139 3.561493 16.02411
v 1.570139 0.004238468 16.03082
v 1.570139 0.07218754 -0.4802679
v 1.570139 0.004238468 -1.074084
v 1.570139 0.004238468 -0.4252104
v 1.570139 0.004238468 11.92943
v 1.570139 0.1788112 0.1135478
v 1.570139 0.3246465 0.7070951
v 1.570139 3.561493 11.92245
v 1.570139 3.561493 16.02411
v 1.570139 0.004238468 16.03082
v 1.570139 3.561493 11.92245
v 1.570139 0.5091565 1.300911
v 1.570139 0.3246465 0.7070951
v 1.570139 0.7326095 1.894727
v 1.570139 0.9753999 2.488274
v 1.570139 1.237796 3.082089
v 1.570139 1.539135 3.675905
v 1.570139 1.879149 4.269721
v 1.570139 2.258106 4.863268
v 1.570139 2.676006 5.457084
v 1.570139 3.561493 11.92245
v 1.570139 3.132581 6.0509
v 1.570139 2.676006 5.457084
v 1.570139 3.437144 6.662173
v 1.570139 3.569013 7.376847
v -1.570021 0.3246465 0.7070951
v -1.570021 0.5091565 1.300911
v -1.570021 3.561493 11.92245
v -1.570021 0.7326095 1.894727
v -1.570021 0.9753999 2.488274
v -1.570021 1.237796 3.082089
v -1.570021 1.539135 3.675905
v -1.570021 1.879149 4.269721
v -1.570021 2.258106 4.863268
v -1.570021 2.676006 5.457084
v -1.570021 2.676006 5.457084
v -1.570021 3.132581 6.0509
v -1.570021 3.561493 11.92245
v -1.570021 3.437144 6.662173
v -1.570021 3.569013 7.376847
vt -0.004991821 1.074527
vt -0.004991821 1.074527
vt -0.3639317 1.075876
vt -0.3639317 1.075876
vt -0.3315461 -0.1028232
vt -0.3463895 -0.2215702
vt -0.3571847 -0.3396425
vt -0.3639317 -0.4583895
vt 0.6562132 0.9888397
vt 0.6562132 0.9888397
vt 0.7000686 0.9888397
vt 0.7000686 0.9888397
vt 0.7702373 0.9888397
vt 0.7702373 0.9888397
vt 0.8525506 0.9888397
vt 0.8525506 0.9888397
vt 0.9078759 0.9888397
vt 0.9078759 0.9888397
vt 0.9078759 0.05977928
vt 0.6562132 -0.0205099
vt 0.7000686 -0.0205099
vt 0.7682132 -0.0205099
vt 0.8356831 -0.0205099
vt 0.9078759 -0.0205099
vt 0.2655625 -0.6405582
vt 0.1400685 -0.6405582
vt 0.1400685 -0.5123655
vt 0.2743335 -0.5123655
vt 0.3836348 -0.6405582
vt 0.255442 -0.3828232
vt 0.1400685 -0.3828232
vt 0.387683 -0.5123655
vt 0.5023818 -0.6405582
vt 0.2459962 -0.2512569
vt 0.1400685 -0.2512569
vt 0.1400685 -0.1176665
vt 0.3829601 -0.3828232
vt 0.2588155 -0.1176665
vt 0.1400685 0.01862264
vt 0.3789119 -0.2512569
vt 0.262189 0.01862264
vt 0.1400685 0.1569359
vt 0.3816107 -0.1176665
vt 0.4855143 -0.5123655
vt 0.4834902 -0.3828232
vt 0.5786228 -0.5123655
vt 0.5786228 -0.6405582
vt 0.5786228 -0.3828232
vt 0.5786228 -0.2512569
vt 0.4834902 -0.2512569
vt 0.5786228 -0.1176665
vt 0.5205986 -0.1176665
vt 0.5786228 0.01862264
vt 0.5023818 0.01862264
vt 0.5786228 0.1569359
vt 0.3816107 0.01862264
vt 0.5192493 0.1569359
vt 0.5786228 0.2959239
vt 0.2365504 0.1569359
vt 0.5192493 0.2959239
vt 0.5786228 0.4389601
vt 0.374189 0.1569359
vt 0.2588155 0.2959239
vt 0.1400685 0.2959239
vt 0.1400685 0.4389601
vt 0.5023818 0.4389601
vt 0.5786228 0.5860445
vt 0.3836348 0.2959239
vt 0.2581408 0.4389601
vt 0.1400685 0.5860445
vt 0.5023818 0.5860445
vt 0.5786228 0.7378517
vt 0.3870083 0.4389601
vt 0.2493697 0.5860445
vt 0.1400685 0.7378517
vt 0.5023818 0.7378517
vt 0.5786228 0.8937072
vt 0.3789119 0.5860445
vt 0.2581408 0.7378517
vt 0.5023818 0.8937072
vt 0.5786228 1.054286
vt 0.3775625 0.7378517
vt 0.2493697 0.8937072
vt 0.1400685 0.8937072
vt 0.1400685 1.05496
vt 0.5023818 1.054286
vt 0.5779481 1.15684
vt 0.3822854 0.8937072
vt 0.2365504 1.054286
vt 0.5023818 1.15684
vt 0.5779481 1.203394
vt 0.3802613 1.054286
vt 0.3802613 1.157514
vt 0.2365504 1.157514
vt 0.1407432 1.158189
vt 0.1407432 1.204743
vt 0.5023818 1.203394
vt 0.5779481 1.210141
vt 0.380936 1.204069
vt 0.2365504 1.204069
vt 0.5023818 1.210141
vt 0.5779481 1.210141
vt 0.5023818 1.210141
vt 0.380936 1.210816
vt 0.380936 1.210816
vt 0.2365504 1.21149
vt 0.1407432 1.21149
vt 0.2365504 1.21149
vt 0.1407432 1.21149
vt 0.9200205 2.120985
vt 0.9847916 2.120985
vt 0.9847916 1.233755
vt 0.9193457 1.233755
vt 0.813418 1.23443
vt 0.8147674 2.120985
vt 0.6906228 2.121659
vt 0.687924 1.235105
vt 0.6049361 1.235105
vt 0.6083095 2.122334
vt -0.3571847 -0.3396425
vt -0.3639317 -0.4583895
vt -0.3639317 -0.3504377
vt -0.3639317 1.075876
vt -0.3463895 -0.2215702
vt -0.3315461 -0.1028232
vt -0.004991821 1.074527
vt -0.004991821 1.074527
vt -0.3639317 1.075876
vt -0.004991821 1.074527
vt -0.3133292 0.01592385
vt -0.3315461 -0.1028232
vt -0.2903895 0.1346709
vt -0.2661003 0.2527432
vt -0.2397871 0.3714902
vt -0.2094256 0.4902372
vt -0.175016 0.6083095
vt -0.1365581 0.7270566
vt -0.09472679 0.8458036
vt -0.004991821 1.074527
vt -0.04817256 0.9638759
vt -0.09472679 0.8458036
vt -0.0178111 1.038093
vt -0.004317123 1.071153
vt -0.3315461 -0.1028232
vt -0.3133292 0.01592385
vt -0.004991821 1.074527
vt -0.2903895 0.1346709
vt -0.2661003 0.2527432
vt -0.2397871 0.3714902
vt -0.2094256 0.4902372
vt -0.175016 0.6083095
vt -0.1365581 0.7270566
vt -0.09472679 0.8458036
vt -0.09472679 0.8458036
vt -0.04817256 0.9638759
vt -0.004991821 1.074527
vt -0.0178111 1.038093
vt -0.004317123 1.071153
vn -0.9883265 0.1523507 0
vn -0.9764631 0.15294 0.1520826
vn -0.9764631 -0.15294 0.1520826
vn -0.8431308 -0.5372509 -0.02217988
vn -0.9916004 0.1293392 0
vn -0.8666601 0.4901923 -0.09280001
vn -0.7725431 0.6313678 -0.06746747
vn -0.003921539 -0.9999924 0
vn -0.8431308 -0.5372509 -0.02217988
vn -0.9764631 -0.15294 0.1520826
vn -0.003921538 -0.7568569 0.6535687
vn -0.003921539 -0.9999924 0
vn -0.003921538 -0.7568569 0.6535687
vn -0.003921539 -0.9999924 0
vn -0.003921538 -0.7568569 0.6535687
vn -0.003921539 -0.9999924 0
vn 0.9686201 -0.1843123 0.1667457
vn 0.8352877 -0.5450938 -0.0718819
vn 0.02744064 -0.9996234 0
vn -0.003921539 -0.9999924 0
vn -0.003921539 -0.9999924 0
vn -0.003921539 -0.9999924 0
vn -0.003921539 -0.9999924 0
vn 0.003921539 0.9686201 -0.2485151
vn -0.003921539 0.9921494 -0.1249976
vn 0.003921539 0.9686201 -0.2485151
vn 0.3019585 0.9450908 -0.1249976
vn -0.003921539 0.9921494 -0.1249976
vn -0.003921539 0.9921494 -0.1249976
vn -0.003921538 0.9764631 -0.2156487
vn 0.8117585 0.5686231 -0.133101
vn -0.003921539 0.9921494 -0.1249976
vn -0.003921539 0.9921494 -0.1249976
vn -0.003921539 0.960777 -0.2772944
vn 0.9843062 0.1686262 -0.05202403
vn 0.15294 0.9372478 -0.3133305
vn -0.003921538 0.9764631 -0.2156487
vn -0.003921539 0.9450909 -0.3267842
vn 0.4823493 0.8196017 -0.3091803
vn -0.003921539 0.960777 -0.2772944
vn -0.003921539 0.9294047 -0.3690414
vn 0.6078385 0.7254847 -0.322807
vn -0.003921539 0.9450909 -0.3267842
vn -0.003921539 0.9921494 -0.1249976
vn -0.003921538 0.9764631 -0.2156487
vn -0.7725431 0.6313678 -0.06746747
vn -0.003921539 -0.9999924 0
vn -0.8666601 0.4901923 -0.09280001
vn -0.9916004 0.1293392 0
vn -0.003921539 0.960777 -0.2772944
vn -0.2392139 0.9215617 -0.3057793
vn -0.003921539 0.9450909 -0.3267842
vn -0.6784262 0.6862693 -0.2622448
vn -0.003921539 0.9294047 -0.3690414
vn -0.7960724 0.56078 -0.2275842
vn -0.003921539 0.9294047 -0.3690414
vn -0.003921539 0.9215617 -0.3882124
vn -0.8509739 0.4745062 -0.2251385
vn -0.003921539 0.9215617 -0.3882124
vn -0.003921539 0.9058755 -0.423526
vn -0.8823462 0.4117616 -0.2278543
vn -0.003921539 0.9215617 -0.3882124
vn -0.003921539 0.9058755 -0.423526
vn 0.6784262 0.6627401 -0.3170387
vn 0.7647001 0.5686231 -0.3031528
vn -0.003921539 0.8823463 -0.4705845
vn -0.9058755 0.35686 -0.2281241
vn -0.003921539 0.9058755 -0.423526
vn -0.003921539 0.8823463 -0.4705845
vn 0.8274446 0.4823492 -0.2875318
vn -0.003921539 0.858817 -0.5122675
vn -0.9294047 0.3098015 -0.200574
vn -0.003921539 0.8823463 -0.4705845
vn -0.003921539 0.858817 -0.5122675
vn 0.858817 0.4196046 -0.2938799
vn -0.003921538 0.8274446 -0.5615335
vn -0.9450909 0.2705862 -0.183266
vn -0.003921539 0.858817 -0.5122675
vn -0.003921538 0.8274446 -0.5615335
vn -0.003921539 0.8039154 -0.5947307
vn -0.9372478 0.2862723 -0.1990347
vn -0.003921538 0.8274446 -0.5615335
vn -0.003921539 0.8039154 -0.5947307
vn 0.8901893 0.3647031 -0.2730471
vn 0.9058755 0.35686 -0.2281241
vn -0.003921539 0.8431308 -0.5376942
vn -0.8666601 0.4666631 -0.1764254
vn -0.003921539 0.8039154 -0.5947307
vn -0.003921539 0.8431308 -0.5376942
vn -0.003921538 0.9529338 -0.3031528
vn -0.1916022 0.9814727 0
vn -0.003921539 0.8431308 -0.5376942
vn -0.003921538 0.9529338 -0.3031528
vn -0.003921538 0.9529338 -0.3031528
vn 0.8117585 0.552937 -0.1879065
vn 0.15294 0.9843062 -0.08803766
vn -0.003921539 0.9999924 0
vn -0.9883265 0.1523507 0
vn -0.003921539 0.9999924 0
vn -0.003921539 0.9999924 0
vn -0.003921539 0.9999924 0
vn -0.9764631 0.15294 0.1520826
vn -0.003921538 0.7568569 0.6535687
vn -0.003921539 0.9999924 0
vn -0.003921538 0.7568569 0.6535687
vn -0.003921539 0.9999924 0
vn 0.9829165 0.1840521 0
vn -0.003921538 0.7568569 0.6535687
vn 0.9686201 0.1843123 0.1667457
vn -0.003921538 -0.7568569 0.6535687
vn -0.9764631 -0.15294 0.1520826
vn -0.9764631 0.15294 0.1520826
vn -0.003921538 0.7568569 0.6535687
vn -0.003921538 0.7568569 0.6535687
vn -0.003921538 -0.7568569 0.6535687
vn -0.003921538 -0.7568569 0.6535687
vn -0.003921538 0.7568569 0.6535687
vn 0.9686201 0.1843123 0.1667457
vn 0.9686201 -0.1843123 0.1667457
vn 0.3019585 0.9450908 -0.1249976
vn 0.003921539 0.9686201 -0.2485151
vn 0.02744064 -0.9996234 0
vn 0.8352877 -0.5450938 -0.0718819
vn 0.8117585 0.5686231 -0.133101
vn 0.9843062 0.1686262 -0.05202403
vn 0.9829165 0.1840521 0
vn 0.9686201 0.1843123 0.1667457
vn 0.9686201 -0.1843123 0.1667457
vn 0.9829165 0.1840521 0
vn 0.15294 0.9372478 -0.3133305
vn 0.9843062 0.1686262 -0.05202403
vn 0.4823493 0.8196017 -0.3091803
vn 0.6078385 0.7254847 -0.322807
vn 0.6784262 0.6627401 -0.3170387
vn 0.7647001 0.5686231 -0.3031528
vn 0.8274446 0.4823492 -0.2875318
vn 0.858817 0.4196046 -0.2938799
vn 0.8901893 0.3647031 -0.2730471
vn 0.9829165 0.1840521 0
vn 0.9058755 0.35686 -0.2281241
vn 0.8901893 0.3647031 -0.2730471
vn 0.8117585 0.552937 -0.1879065
vn 0.15294 0.9843062 -0.08803766
vn -0.9916004 0.1293392 0
vn -0.2392139 0.9215617 -0.3057793
vn -0.9883265 0.1523507 0
vn -0.6784262 0.6862693 -0.2622448
vn -0.7960724 0.56078 -0.2275842
vn -0.8509739 0.4745062 -0.2251385
vn -0.8823462 0.4117616 -0.2278543
vn -0.9058755 0.35686 -0.2281241
vn -0.9294047 0.3098015 -0.200574
vn -0.9450909 0.2705862 -0.183266
vn -0.9450909 0.2705862 -0.183266
vn -0.9372478 0.2862723 -0.1990347
vn -0.9883265 0.1523507 0
vn -0.8666601 0.4666631 -0.1764254
vn -0.1916022 0.9814727 0
g Ramp01_0
f 3/3/3 2/2/2 1/1/1
f 4/4/4 3/3/3 1/1/1
f 4/4/4 1/1/1 5/5/5
f 4/4/4 5/5/5 6/6/6
f 4/4/4 6/6/6 7/7/7
f 7/7/7 8/8/8 4/4/4
f 11/11/11 10/10/10 9/9/9
f 12/12/12 11/11/11 9/9/9
f 13/13/13 11/11/11 12/12/12
f 14/14/14 13/13/13 12/12/12
f 14/14/14 12/12/12 9/9/9
f 15/15/15 13/13/13 14/14/14
f 16/16/16 15/15/15 14/14/14
f 16/16/16 14/14/14 9/9/9
f 17/17/17 15/15/15 16/16/16
f 18/18/18 17/17/17 16/16/16
f 18/18/18 16/16/16 9/9/9
f 19/19/19 18/18/18 9/9/9
f 19/19/19 9/9/9 20/20/20
f 19/19/19 20/20/20 21/21/21
f 19/19/19 21/21/21 22/22/22
f 19/19/19 22/22/22 23/23/23
f 23/23/23 24/24/24 19/19/19
f 27/27/27 26/26/26 25/25/25
f 28/28/28 27/27/27 25/25/25
f 28/28/28 25/25/25 29/29/29
f 28/28/28 30/30/30 27/27/27
f 30/30/30 31/31/31 27/27/27
f 32/32/32 28/28/28 29/29/29
f 32/32/32 29/29/29 33/33/33
f 30/30/30 34/34/34 31/31/31
f 34/34/34 35/35/35 31/31/31
f 36/36/36 35/35/35 34/34/34
f 37/37/37 30/30/30 28/28/28
f 32/32/32 37/37/37 28/28/28
f 34/34/34 30/30/30 37/37/37
f 38/38/38 36/36/36 34/34/34
f 39/39/39 36/36/36 38/38/38
f 40/40/40 34/34/34 37/37/37
f 38/38/38 34/34/34 40/40/40
f 41/41/41 39/39/39 38/38/38
f 42/42/42 39/39/39 41/41/41
f 43/43/43 38/38/38 40/40/40
f 41/41/41 38/38/38 43/43/43
f 44/44/44 32/32/32 33/33/33
f 45/45/45 37/37/37 32/32/32
f 44/44/44 45/45/45 32/32/32
f 44/44/44 33/33/33 46/46/46
f 33/33/33 47/47/47 46/46/46
f 44/44/44 46/46/46 48/48/48
f 45/45/45 44/44/44 48/48/48
f 45/45/45 48/48/48 49/49/49
f 45/45/45 50/50/50 37/37/37
f 50/50/50 45/45/45 49/49/49
f 50/50/50 40/40/40 37/37/37
f 50/50/50 49/49/49 51/51/51
f 50/50/50 52/52/52 40/40/40
f 52/52/52 50/50/50 51/51/51
f 52/52/52 43/43/43 40/40/40
f 52/52/52 51/51/51 53/53/53
f 54/54/54 52/52/52 53/53/53
f 52/52/52 54/54/54 43/43/43
f 54/54/54 53/53/53 55/55/55
f 54/54/54 56/56/56 43/43/43
f 56/56/56 41/41/41 43/43/43
f 57/57/57 54/54/54 55/55/55
f 54/54/54 57/57/57 56/56/56
f 57/57/57 55/55/55 58/58/58
f 59/59/59 41/41/41 56/56/56
f 59/59/59 42/42/42 41/41/41
f 60/60/60 57/57/57 58/58/58
f 60/60/60 58/58/58 61/61/61
f 57/57/57 62/62/62 56/56/56
f 62/62/62 59/59/59 56/56/56
f 57/57/57 60/60/60 62/62/62
f 59/59/59 63/63/63 42/42/42
f 63/63/63 59/59/59 62/62/62
f 63/63/63 64/64/64 42/42/42
f 65/65/65 64/64/64 63/63/63
f 66/66/66 60/60/60 61/61/61
f 66/66/66 61/61/61 67/67/67
f 60/60/60 68/68/68 62/62/62
f 68/68/68 63/63/63 62/62/62
f 60/60/60 66/66/66 68/68/68
f 69/69/69 65/65/65 63/63/63
f 69/69/69 63/63/63 68/68/68
f 70/70/70 65/65/65 69/69/69
f 71/71/71 66/66/66 67/67/67
f 71/71/71 67/67/67 72/72/72
f 66/66/66 73/73/73 68/68/68
f 73/73/73 69/69/69 68/68/68
f 66/66/66 71/71/71 73/73/73
f 74/74/74 70/70/70 69/69/69
f 74/74/74 69/69/69 73/73/73
f 75/75/75 70/70/70 74/74/74
f 76/76/76 71/71/71 72/72/72
f 76/76/76 72/72/72 77/77/77
f 71/71/71 78/78/78 73/73/73
f 78/78/78 74/74/74 73/73/73
f 71/71/71 76/76/76 78/78/78
f 79/79/79 75/75/75 74/74/74
f 79/79/79 74/74/74 78/78/78
f 80/80/80 76/76/76 77/77/77
f 80/80/80 77/77/77 81/81/81
f 76/76/76 82/82/82 78/78/78
f 82/82/82 79/79/79 78/78/78
f 76/76/76 80/80/80 82/82/82
f 79/79/79 83/83/83 75/75/75
f 83/83/83 79/79/79 82/82/82
f 83/83/83 84/84/84 75/75/75
f 85/85/85 84/84/84 83/83/83
f 86/86/86 80/80/80 81/81/81
f 86/86/86 81/81/81 87/87/87
f 80/80/80 88/88/88 82/82/82
f 88/88/88 83/83/83 82/82/82
f 80/80/80 86/86/86 88/88/88
f 89/89/89 85/85/85 83/83/83
f 89/89/89 83/83/83 88/88/88
f 90/90/90 86/86/86 87/87/87
f 90/90/90 87/87/87 91/91/91
f 86/86/86 92/92/92 88/88/88
f 92/92/92 89/89/89 88/88/88
f 92/92/92 86/86/86 93/93/93
f 89/89/89 92/92/92 93/93/93
f 86/86/86 90/90/90 93/93/93
f 89/89/89 94/94/94 85/85/85
f 94/94/94 89/89/89 93/93/93
f 94/94/94 95/95/95 85/85/85
f 95/95/95 94/94/94 96/96/96
f 97/97/97 90/90/90 91/91/91
f 97/97/97 91/91/91 98/98/98
f 93/93/93 90/90/90 99/99/99
f 94/94/94 93/93/93 99/99/99
f 90/90/90 97/97/97 99/99/99
f 94/94/94 100/100/100 96/96/96
f 100/100/100 94/94/94 99/99/99
f 101/101/101 97/97/97 98/98/98
f 98/98/98 102/102/102 101/101/101
f 102/102/102 103/103/103 101/101/101
f 99/99/99 97/97/97 104/104/104
f 97/97/97 101/101/101 104/104/104
f 101/101/101 103/103/103 104/104/104
f 100/100/100 99/99/99 104/104/104
f 103/103/103 105/105/105 104/104/104
f 96/96/96 100/100/100 106/106/106
f 106/106/106 100/100/100 104/104/104
f 104/104/104 105/105/105 106/106/106
f 107/107/107 96/96/96 106/106/106
f 105/105/105 108/108/108 106/106/106
f 106/106/106 108/108/108 107/107/107
f 108/108/108 109/109/109 107/107/107
f 112/112/112 111/111/111 110/110/110
f 113/113/113 112/112/112 110/110/110
f 113/113/113 110/110/110 114/114/114
f 110/110/110 115/115/115 114/114/114
f 115/115/115 116/116/116 114/114/114
f 116/116/116 117/117/117 114/114/114
f 117/117/117 116/116/116 118/118/118
f 116/116/116 119/119/119 118/118/118
f 122/122/122 121/121/121 120/120/120
f 120/120/120 123/123/123 122/122/122
f 120/120/120 124/124/124 123/123/123
f 124/124/124 125/125/125 123/123/123
f 125/125/125 126/126/126 123/123/123
f 126/126/126 127/127/127 123/123/123
f 127/127/127 128/128/128 123/123/123
f 131/131/131 130/130/130 129/129/129
f 130/130/130 132/132/132 129/129/129
f 132/132/132 133/133/133 129/129/129
f 133/133/133 134/134/134 129/129/129
f 134/134/134 135/135/135 129/129/129
f 135/135/135 136/136/136 129/129/129
f 136/136/136 137/137/137 129/129/129
f 137/137/137 138/138/138 129/129/129
f 141/141/141 140/140/140 139/139/139
f 140/140/140 142/142/142 139/139/139
f 142/142/142 143/143/143 139/139/139
f 146/146/146 145/145/145 144/144/144
f 146/146/146 147/147/147 145/145/145
f 146/146/146 148/148/148 147/147/147
f 146/146/146 149/149/149 148/148/148
f 146/146/146 150/150/150 149/149/149
f 146/146/146 151/151/151 150/150/150
f 146/146/146 152/152/152 151/151/151
f 146/146/146 153/153/153 152/152/152
f 156/156/156 155/155/155 154/154/154
f 156/156/156 157/157/157 155/155/155
f 156/156/156 158/158/158 157/157/157
