g space_shuttle_door_L
v 0.0001277924 5.407142 -3.773405
v -1.799874 5.163644 -8.181391
v 0.0001277924 5.398532 -8.181391
v -1.800412 5.142926 -3.773405
v 0.0001277924 5.41602 0.6345816
v -1.80095 5.12194 0.6345816
v 0.0001277924 5.42463 5.042298
v -1.801758 5.100953 5.042298
v -1.800412 5.142926 -3.773405
v -2.437812 3.590728 -3.773405
v -2.381041 3.604988 -8.181391
v -1.799874 5.163644 -8.181391
v -1.802296 5.080235 9.450285
v -2.608126 3.547678 9.450285
v -2.551354 3.561938 5.042298
v -1.801758 5.100953 5.042298
v -2.551354 3.561938 5.042298
v -2.494583 3.576468 0.6345816
v -1.80095 5.12194 0.6345816
v -2.437812 3.590728 -3.773405
v -1.800412 5.142926 -3.773405
v 0.0001277924 5.433241 9.450285
v -1.802296 5.080235 9.450285
v -1.801758 5.100953 5.042298
v 0.0001277924 5.42463 5.042298
v 0.0001277924 5.398532 -8.181391
v 0.02757168 5.200505 -8.18166
v 0.02918625 5.209384 -3.773674
v 0.0001277924 5.407142 -3.773405
v -2.437812 3.590728 -3.773405
v -2.2527 3.514853 -3.772597
v -2.194852 3.532073 -8.180583
v -2.381041 3.604988 -8.181391
v -2.381041 3.604988 -8.181391
v -2.194852 3.532073 -8.180583
v -1.656197 4.98176 -8.180853
v -1.799874 5.163644 -8.181391
v -1.799874 5.163644 -8.181391
v -1.656197 4.98176 -8.180853
v 0.02757168 5.200505 -8.18166
v 0.0001277924 5.398532 -8.181391
v -1.802296 5.080235 9.450285
v -1.668304 4.90185 9.450554
v -2.42974 3.457274 9.451092
v -2.608126 3.547678 9.450285
v 0.0001277924 5.433241 9.450285
v -1.668304 4.90185 9.450554
v -1.802296 5.080235 9.450285
v 0.03698826 5.236828 9.450016
v 0.0001277924 5.42463 5.042298
v 0.03537464 5.227679 5.042029
v 0.03698826 5.236828 9.450016
v 0.0001277924 5.433241 9.450285
v 0.0001277924 5.41602 0.6345816
v 0.03537464 5.227679 5.042029
v 0.0001277924 5.42463 5.042298
v 0.0321455 5.218532 0.6343126
v 0.0001277924 5.407142 -3.773405
v 0.02918625 5.209384 -3.773674
v -2.608126 3.547678 9.450285
v -2.42974 3.457274 9.451092
v -2.371354 3.474494 5.043105
v -2.551354 3.561938 5.042298
v -2.551354 3.561938 5.042298
v -2.371354 3.474494 5.043105
v -2.312161 3.494405 0.6353884
v -2.494583 3.576468 0.6345816
v -2.2527 3.514853 -3.772597
v -2.437812 3.590728 -3.773405
v 0.02918625 5.209384 -3.773674
v 0.02757168 5.200505 -8.18166
v -1.656197 4.98176 -8.180853
v -1.657811 4.962119 -3.773136
v 0.0321455 5.218532 0.6343126
v -1.661847 4.942477 0.6348505
v 0.03537464 5.227679 5.042029
v -1.665614 4.922567 5.042836
v 0.03698826 5.236828 9.450016
v -1.668304 4.90185 9.450554
v -1.657811 4.962119 -3.773136
v -1.656197 4.98176 -8.180853
v -2.194852 3.532073 -8.180583
v -2.2527 3.514853 -3.772597
v -1.661847 4.942477 0.6348505
v -2.312161 3.494405 0.6353884
v -1.665614 4.922567 5.042836
v -2.371354 3.474494 5.043105
v -1.668304 4.90185 9.450554
v -2.42974 3.457274 9.451092
vt 0.8689191 0.2761459
vt 0.9309384 0.3120518
vt 0.9342026 0.2892026
vt 0.8669606 0.311399
vt 0.7801337 0.2735346
vt 0.7801337 0.311399
vt 0.692654 0.2722289
vt 0.6933068 0.311399
vt 0.8669606 0.311399
vt 0.8682663 0.3446935
vt 0.9302856 0.3335953
vt 0.9309384 0.3120518
vt 0.6201894 0.3100933
vt 0.6188837 0.334901
vt 0.6920012 0.3459992
vt 0.6933068 0.311399
vt 0.6920012 0.3459992
vt 0.7801337 0.3459992
vt 0.7801337 0.311399
vt 0.8682663 0.3446935
vt 0.8669606 0.311399
vt 0.6228008 0.2839799
vt 0.6201894 0.3100933
vt 0.6933068 0.311399
vt 0.692654 0.2722289
vt 0.9342026 0.2892026
vt 0.936814 0.2872441
vt 0.869572 0.2722289
vt 0.8689191 0.2761459
vt 0.8682663 0.3446935
vt 0.8682663 0.3486105
vt 0.932897 0.3355538
vt 0.9302856 0.3335953
vt 0.9302856 0.3335953
vt 0.932897 0.3355538
vt 0.9348555 0.3127046
vt 0.9309384 0.3120518
vt 0.9309384 0.3120518
vt 0.9348555 0.3127046
vt 0.936814 0.2872441
vt 0.9342026 0.2892026
vt 0.6201894 0.3100933
vt 0.6156196 0.3100933
vt 0.6156196 0.3381651
vt 0.6188837 0.334901
vt 0.6228008 0.2839799
vt 0.6156196 0.3100933
vt 0.6201894 0.3100933
vt 0.6201894 0.2807158
vt 0.692654 0.2722289
vt 0.6920012 0.2689647
vt 0.6201894 0.2807158
vt 0.6228008 0.2839799
vt 0.7801337 0.2735346
vt 0.6920012 0.2689647
vt 0.692654 0.2722289
vt 0.7801337 0.2696176
vt 0.8689191 0.2761459
vt 0.869572 0.2722289
vt 0.6188837 0.334901
vt 0.6156196 0.3381651
vt 0.6920012 0.3499162
vt 0.6920012 0.3459992
vt 0.6920012 0.3459992
vt 0.6920012 0.3499162
vt 0.7801337 0.3499162
vt 0.7801337 0.3459992
vt 0.8682663 0.3486105
vt 0.8682663 0.3446935
vt 0.8565153 0.4191166
vt 0.936161 0.4191166
vt 0.936161 0.3884334
vt 0.8565153 0.3884334
vt 0.7762167 0.4191166
vt 0.7762167 0.3877805
vt 0.6959182 0.4191166
vt 0.6959182 0.3877805
vt 0.6156196 0.4191166
vt 0.6156196 0.3877805
vt 0.8565153 0.3884334
vt 0.936161 0.3884334
vt 0.936161 0.3603615
vt 0.8558625 0.3597087
vt 0.7762167 0.3877805
vt 0.7762167 0.3590558
vt 0.6959182 0.3877805
vt 0.6959182 0.358403
vt 0.6156196 0.3877805
vt 0.6156196 0.3577502
vn -0.1359304 0.9905213 0.01976031
vn -0.1359304 0.9905213 0.01976031
vn -0.1359304 0.9905213 0.01976031
vn -0.1359304 0.9905213 0.01976031
vn -0.1670065 0.9827523 0.07941478
vn -0.1670065 0.9827523 0.07941478
vn -0.1670065 0.9827523 0.07941478
vn -0.1670065 0.9827523 0.07941478
vn -0.9283692 0.3612317 -0.08742041
vn -0.9283692 0.3612317 -0.08742041
vn -0.9283692 0.3612317 -0.08742041
vn -0.9283692 0.3612317 -0.08742041
vn -0.8895242 0.4544598 -0.04704223
vn -0.8895242 0.4544598 -0.04704223
vn -0.8895242 0.4544598 -0.04704223
vn -0.8895242 0.4544598 -0.04704223
vn -0.9050622 0.4233837 -0.04010804
vn -0.9050622 0.4233837 -0.04010804
vn -0.9050622 0.4233837 -0.04010804
vn -0.9199518 0.3920313 0
vn -0.9199518 0.3920313 0
vn -0.1825445 0.9827523 0.02958739
vn -0.1825445 0.9827523 0.02958739
vn -0.1825445 0.9827523 0.02958739
vn -0.1825445 0.9827523 0.02958739
vn 0.9896411 0.1435638 0
vn 0.9896411 0.1435638 0
vn 0.9896411 0.1435638 0
vn 0.9896411 0.1435638 0
vn -0.3690007 -0.9284236 -0.04322185
vn -0.3690007 -0.9284236 -0.04322185
vn -0.3690007 -0.9284236 -0.04322185
vn -0.3690007 -0.9284236 -0.04322185
vn 0.003911674 -0.003911674 -0.9999847
vn 0.003911674 -0.003911674 -0.9999847
vn 0.003911674 -0.003911674 -0.9999847
vn 0.003911674 -0.003911674 -0.9999847
vn 0.003911674 -0.003911674 -0.9999847
vn -0.003857315 -0.003911674 -0.9999849
vn -0.003857315 -0.003911674 -0.9999849
vn -0.003857315 -0.003911674 -0.9999849
vn -0.003857315 0.003857315 0.9999851
vn -0.003857315 0.003857315 0.9999851
vn -0.003857315 0.003857315 0.9999851
vn -0.003857315 0.003857315 0.9999851
vn 0.003911674 0.003857315 0.9999849
vn 0.003911674 0.003857315 0.9999849
vn -0.003857315 0.003857315 0.9999851
vn 0.003911674 0.003857315 0.9999849
vn 0.9828067 0.1825445 -0.02772206
vn 0.9828067 0.1825445 -0.02772206
vn 0.9828067 0.1825445 -0.02772206
vn 0.9828067 0.1825445 -0.02772206
vn 0.9828067 0.1670065 -0.07873898
vn 0.9828067 0.1670065 -0.07873898
vn 0.9828067 0.1670065 -0.07873898
vn 0.9828067 0.1670065 -0.07873898
vn 0.9885104 0.1511526 0
vn 0.9885104 0.1511526 0
vn -0.4456303 -0.8952172 0
vn -0.4456303 -0.8952172 0
vn -0.4456303 -0.8952172 0
vn -0.4456303 -0.8952172 0
vn -0.4233837 -0.9051166 -0.03886209
vn -0.4233837 -0.9051166 -0.03886209
vn -0.4233837 -0.9051166 -0.03886209
vn -0.4233837 -0.9051166 -0.03886209
vn -0.3920117 -0.9199602 0
vn -0.3920117 -0.9199602 0
vn 0.1359848 -0.9905757 -0.01637017
vn 0.1359848 -0.9905757 -0.01637017
vn 0.1359848 -0.9905757 -0.01637017
vn 0.1359848 -0.9905757 -0.01637017
vn 0.1670609 -0.9828067 -0.07862352
vn 0.1670609 -0.9828067 -0.07862352
vn 0.1825989 -0.9828067 -0.02736118
vn 0.1825989 -0.9828067 -0.02736118
vn 0.1825989 -0.9828067 -0.02736118
vn 0.1825989 -0.9828067 -0.02736118
vn 0.9284236 -0.361286 0.08661428
vn 0.9284236 -0.361286 0.08661428
vn 0.9284236 -0.361286 0.08661428
vn 0.9284236 -0.361286 0.08661428
vn 0.9051166 -0.4234381 0.03826452
vn 0.9051166 -0.4234381 0.03826452
vn 0.8895786 -0.4545141 0.0454623
vn 0.8895786 -0.4545141 0.0454623
vn 0.8895786 -0.4545141 0.0454623
vn 0.8895786 -0.4545141 0.0454623
g space_shuttle_door_L_0
f 3/3/3 2/2/2 1/1/1
f 2/2/2 4/4/4 1/1/1
f 1/1/1 4/4/4 5/5/5
f 4/4/4 6/6/6 5/5/5
f 5/5/5 6/6/6 7/7/7
f 6/6/6 8/8/8 7/7/7
f 11/11/11 10/10/10 9/9/9
f 12/12/12 11/11/11 9/9/9
f 15/15/15 14/14/14 13/13/13
f 16/16/16 15/15/15 13/13/13
f 18/18/18 17/17/17 16/16/16
f 19/19/19 18/18/18 16/16/16
f 20/20/20 18/18/18 19/19/19
f 21/21/21 20/20/20 19/19/19
f 24/24/24 23/23/23 22/22/22
f 25/25/25 24/24/24 22/22/22
f 28/28/28 27/27/27 26/26/26
f 29/29/29 28/28/28 26/26/26
f 32/32/32 31/31/31 30/30/30
f 33/33/33 32/32/32 30/30/30
f 36/36/36 35/35/35 34/34/34
f 37/37/37 36/36/36 34/34/34
f 40/40/40 39/39/39 38/38/38
f 41/41/41 40/40/40 38/38/38
f 44/44/44 43/43/43 42/42/42
f 45/45/45 44/44/44 42/42/42
f 48/48/48 47/47/47 46/46/46
f 47/47/47 49/49/49 46/46/46
f 52/52/52 51/51/51 50/50/50
f 53/53/53 52/52/52 50/50/50
f 56/56/56 55/55/55 54/54/54
f 55/55/55 57/57/57 54/54/54
f 54/54/54 57/57/57 58/58/58
f 57/57/57 59/59/59 58/58/58
f 62/62/62 61/61/61 60/60/60
f 63/63/63 62/62/62 60/60/60
f 66/66/66 65/65/65 64/64/64
f 67/67/67 66/66/66 64/64/64
f 68/68/68 66/66/66 67/67/67
f 69/69/69 68/68/68 67/67/67
g space_shuttle_door_L_1
f 72/72/72 71/71/71 70/70/70
f 73/73/73 72/72/72 70/70/70
f 73/73/73 70/70/70 74/74/74
f 75/75/75 73/73/73 74/74/74
f 75/75/75 74/74/74 76/76/76
f 77/77/77 75/75/75 76/76/76
f 77/77/77 76/76/76 78/78/78
f 79/79/79 77/77/77 78/78/78
f 82/82/82 81/81/81 80/80/80
f 83/83/83 82/82/82 80/80/80
f 83/83/83 80/80/80 84/84/84
f 85/85/85 83/83/83 84/84/84
f 85/85/85 84/84/84 86/86/86
f 87/87/87 85/85/85 86/86/86
f 87/87/87 86/86/86 88/88/88
f 89/89/89 87/87/87 88/88/88
