g spitfire_wheel_B
v 0.03594973 0.067532 -0.01272821
v 0.0359497 0.02274341 -0.0648485
v 0.03594969 -0.04478889 -0.05212024
v 0.03594969 -0.06753211 0.01272821
v 0.03594972 0.04478935 0.05212063
v 0.03594971 -0.02274304 0.06484841
v -0.0359497 0.06753202 -0.01272819
v -0.03594973 -0.04478888 -0.05212023
v -0.03594972 0.02274342 -0.06484848
v -0.03594973 -0.06753209 0.01272822
v -0.0359497 0.04478936 0.05212064
v -0.03594971 -0.02274303 0.06484842
v -0.03594975 -0.09332784 -0.1086043
v 0.03594967 -0.09332786 -0.1086044
v 0.03594971 0.04739068 -0.1351265
v -0.03594971 0.0473907 -0.1351265
v -0.03594971 -0.04739013 0.1351274
v 0.03594971 -0.04739014 0.1351274
v 0.03594966 -0.1407183 0.0265221
v -0.03594976 -0.1407183 0.02652211
v -0.03594971 0.0473907 -0.1351265
v 0.03594971 0.04739068 -0.1351265
v 0.03594975 0.1407183 -0.02652209
v -0.03594967 0.1407183 -0.02652208
v -0.03594976 -0.1407183 0.02652211
v 0.03594966 -0.1407183 0.0265221
v 0.03594967 -0.09332786 -0.1086044
v -0.03594975 -0.09332784 -0.1086043
v -0.03594967 0.09332842 0.1086052
v 0.03594974 0.09332839 0.1086052
v 0.03594971 -0.04739014 0.1351274
v -0.03594971 -0.04739013 0.1351274
v -0.03594967 0.1407183 -0.02652208
v 0.03594975 0.1407183 -0.02652209
v 0.03594974 0.09332839 0.1086052
v -0.03594967 0.09332842 0.1086052
v 0.03594975 0.1407183 -0.02652209
v 0.03594974 0.09332839 0.1086052
v 0.03594971 0.04739068 -0.1351265
v 0.03594971 -0.04739014 0.1351274
v 0.03594967 -0.09332786 -0.1086044
v 0.03594966 -0.1407183 0.0265221
v -0.03594967 0.1407183 -0.02652208
v -0.03594967 0.09332842 0.1086052
v -0.03594971 0.0473907 -0.1351265
v -0.03594971 -0.04739013 0.1351274
v -0.03594975 -0.09332784 -0.1086043
v -0.03594976 -0.1407183 0.02652211
vt 0.9459748 0.817957
vt 0.9510221 0.8150332
vt 0.9510221 0.8091854
vt 0.9459748 0.8062616
vt 0.9409274 0.8150332
vt 0.9409274 0.8091854
vt 0.01051732 0.966024
vt 0.005469962 0.9572524
vt 0.005469962 0.9631002
vt 0.01051732 0.9543286
vt 0.01556472 0.9631002
vt 0.01556468 0.9572524
vt 0.173038 0.9899901
vt 0.1791358 0.9899901
vt 0.1791358 0.9838976
vt 0.173038 0.9838976
vt 0.1898029 0.9839342
vt 0.1959006 0.9839342
vt 0.1959006 0.9717491
vt 0.1898029 0.9717491
vt 0.173038 0.9838976
vt 0.1791358 0.9838976
vt 0.1791358 0.9717126
vt 0.173038 0.9717126
vt 0.1898029 0.9717491
vt 0.1959006 0.9717491
vt 0.1959006 0.9656566
vt 0.1898029 0.9656566
vt 0.1898029 0.9900266
vt 0.1959006 0.9900266
vt 0.1959006 0.9839342
vt 0.1898029 0.9839342
vt 0.173038 0.9717126
vt 0.1791358 0.9717126
vt 0.1791358 0.9656201
vt 0.173038 0.9656201
vt 0.9459748 0.8242943
vt 0.9354573 0.8182018
vt 0.9564921 0.8182018
vt 0.9354573 0.8060168
vt 0.9564921 0.8060168
vt 0.9459748 0.7999243
vt 0.01051732 0.9723613
vt 0.02103473 0.9662688
vt 2.527522E-09 0.9662688
vt 0.02103472 0.9540838
vt 0 0.9540838
vt 0.01051732 0.9479913
vn 1 -2.478644E-07 0
vn 1 -2.478644E-07 0
vn 1 -2.478644E-07 0
vn 1 -2.478644E-07 0
vn 1 -3.386614E-07 0
vn 1 -2.393907E-07 -2.725519E-07
vn -1 2.478644E-07 0
vn -1 2.478644E-07 0
vn -1 2.478644E-07 0
vn -1 2.478644E-07 0
vn -1 3.386614E-07 0
vn -1 2.393907E-07 1.192414E-07
vn -2.431039E-07 -0.1852155 -0.9826979
vn -2.431039E-07 -0.1852155 -0.9826979
vn -2.431039E-07 -0.1852155 -0.9826979
vn -2.431039E-07 -0.1852155 -0.9826979
vn 0 -0.7584348 0.6517489
vn 0 -0.7584348 0.6517489
vn 0 -0.7584348 0.6517489
vn 0 -0.7584348 0.6517489
vn 0 0.7584344 -0.6517493
vn 0 0.7584344 -0.6517493
vn 0 0.7584344 -0.6517493
vn 0 0.7584344 -0.6517493
vn 0 -0.9436486 -0.330949
vn 0 -0.9436486 -0.330949
vn 0 -0.9436486 -0.330949
vn 0 -0.9436486 -0.330949
vn 2.431039E-07 0.1852155 0.9826979
vn 2.431039E-07 0.1852155 0.9826979
vn 2.431039E-07 0.1852155 0.9826979
vn 2.431039E-07 0.1852155 0.9826979
vn 0 0.9436507 0.3309431
vn 0 0.9436507 0.3309431
vn 0 0.9436507 0.3309431
vn 0 0.9436507 0.3309431
vn 1 -3.386614E-07 0
vn 1 -3.386614E-07 0
vn 1 -2.286935E-07 0
vn 1 -2.393907E-07 -2.725519E-07
vn 1 -3.717309E-07 0
vn 1 -3.814542E-07 0
vn -1 3.386614E-07 0
vn -1 3.386614E-07 0
vn -1 2.286936E-07 1.192428E-07
vn -1 2.393907E-07 1.192414E-07
vn -1 3.717308E-07 0
vn -1 3.814541E-07 1.277594E-07
g spitfire_wheel_B_0
f 3/3/3 2/2/2 1/1/1
f 4/4/4 3/3/3 1/1/1
f 4/4/4 1/1/1 5/5/5
f 6/6/6 4/4/4 5/5/5
f 9/9/9 8/8/8 7/7/7
f 8/8/8 10/10/10 7/7/7
f 7/7/7 10/10/10 11/11/11
f 10/10/10 12/12/12 11/11/11
g spitfire_wheel_B_1
f 15/15/15 14/14/14 13/13/13
f 16/16/16 15/15/15 13/13/13
f 19/19/19 18/18/18 17/17/17
f 20/20/20 19/19/19 17/17/17
f 23/23/23 22/22/22 21/21/21
f 24/24/24 23/23/23 21/21/21
f 27/27/27 26/26/26 25/25/25
f 28/28/28 27/27/27 25/25/25
f 31/31/31 30/30/30 29/29/29
f 32/32/32 31/31/31 29/29/29
f 35/35/35 34/34/34 33/33/33
f 36/36/36 35/35/35 33/33/33
f 1/1/1 37/37/37 5/5/5
f 37/37/37 38/38/38 5/5/5
f 39/39/39 37/37/37 1/1/1
f 5/5/5 38/38/38 6/6/6
f 2/2/2 39/39/39 1/1/1
f 38/38/38 40/40/40 6/6/6
f 41/41/41 39/39/39 2/2/2
f 6/6/6 40/40/40 4/4/4
f 3/3/3 41/41/41 2/2/2
f 40/40/40 42/42/42 4/4/4
f 42/42/42 41/41/41 3/3/3
f 4/4/4 42/42/42 3/3/3
f 43/43/43 7/7/7 11/11/11
f 44/44/44 43/43/43 11/11/11
f 43/43/43 45/45/45 7/7/7
f 44/44/44 11/11/11 12/12/12
f 45/45/45 9/9/9 7/7/7
f 46/46/46 44/44/44 12/12/12
f 45/45/45 47/47/47 9/9/9
f 46/46/46 12/12/12 10/10/10
f 47/47/47 8/8/8 9/9/9
f 48/48/48 46/46/46 10/10/10
f 48/48/48 10/10/10 8/8/8
f 47/47/47 48/48/48 8/8/8
