g spitfire_door
v -0.08555841 0.3474976 0.1934564
v -0.1209873 0.2532336 -0.3066801
v 0.02594104 -0.047132 -0.2500682
v 0.03168458 0.04713198 0.2500683
v -0.1799567 0.2532336 -0.3066801
v -0.1209873 0.2532336 -0.3066801
v -0.08555841 0.3474976 0.1934564
v -0.1485986 0.3476031 0.1940162
v -0.1485986 0.3476031 0.1940162
v -0.02792027 0.047132 0.2500682
v -0.03168458 -0.04713199 -0.2500682
v -0.1799567 0.2532336 -0.3066801
v 0.02594104 -0.047132 -0.2500682
v -0.1209873 0.2532336 -0.3066801
v -0.1799567 0.2532336 -0.3066801
v -0.03168458 -0.04713199 -0.2500682
v -0.08555841 0.3474976 0.1934564
v 0.03168458 0.04713198 0.2500683
v -0.02792027 0.047132 0.2500682
v -0.1485986 0.3476031 0.1940162
vt 0.9342981 0.9429213
vt 0.9332998 0.9863065
vt 0.962038 0.9861344
vt 0.962038 0.9428397
vt 0.2013618 0.9479936
vt 0.1963701 0.9483019
vt 0.1960225 0.9917127
vt 0.2013618 0.9914316
vt 0.4457661 0.9710047
vt 0.4736153 0.9710056
vt 0.4736153 0.9277102
vt 0.444824 0.9275903
vt 0.7571725 0.9660334
vt 0.7570699 0.9948912
vt 0.7615696 0.9970813
vt 0.7615696 0.9681736
vt 0.9837927 0.7229422
vt 0.9840639 0.7507977
vt 0.9887657 0.748935
vt 0.9887657 0.7209722
vn 0.9173223 0.3826815 -0.1098846
vn 0.9173223 0.3826815 -0.1098846
vn 0.9173223 0.3826815 -0.1098846
vn 0.9173223 0.3826815 -0.1098846
vn 4.795255E-07 0.9826979 -0.1852155
vn 4.795255E-07 0.9826979 -0.1852155
vn 4.795255E-07 0.9826979 -0.1852155
vn 4.795255E-07 0.9826979 -0.1852155
vn -0.9148623 -0.3897231 0.1055591
vn -0.9148623 -0.3897231 0.1055591
vn -0.9148623 -0.3897231 0.1055591
vn -0.9148623 -0.3897231 0.1055591
vn 0 -0.1852154 -0.9826979
vn 0 -0.1852154 -0.9826979
vn 0 -0.1852154 -0.9826979
vn 0 -0.1852154 -0.9826979
vn 0.004644717 0.186074 0.9825248
vn 0.004644717 0.186074 0.9825248
vn 0.004644717 0.186074 0.9825248
vn 0.004644717 0.186074 0.9825248
g spitfire_door_0
f 3/3/3 2/2/2 1/1/1
f 4/4/4 3/3/3 1/1/1
f 7/7/7 6/6/6 5/5/5
f 8/8/8 7/7/7 5/5/5
f 11/11/11 10/10/10 9/9/9
f 12/12/12 11/11/11 9/9/9
f 15/15/15 14/14/14 13/13/13
f 16/16/16 15/15/15 13/13/13
f 19/19/19 18/18/18 17/17/17
f 20/20/20 19/19/19 17/17/17
