g Batman Ears 
v -0.1699573 0.1722513 0.078178
v -0.1981732 -0.1722513 -0.09136747
v -0.1425268 -0.07232794 -0.05891343
v -0.113262 -0.0113446 0.03890994
v -0.1241197 -0.01134459 0.09136734
v -0.2072986 -0.07233074 0.0913675
v -0.2631284 -0.1722514 -0.007528082
v -0.1981732 -0.1722513 -0.09136747
v 0.1699573 0.1722514 0.07817801
v 0.1425269 -0.07232793 -0.05891342
v 0.1981733 -0.1722513 -0.09136743
v 0.113262 -0.01134458 0.03890995
v 0.1241197 -0.01134457 0.09136736
v 0.2072986 -0.07233071 0.09136753
v 0.2631284 -0.1722513 -0.007528045
v 0.1981733 -0.1722513 -0.09136743
vt 0.9226281 0.9112933
vt 0.9217654 0.8519261
vt 0.8915154 0.9112933
vt 0.8725221 0.9509615
vt 0.8795689 0.9509615
vt 0.9335534 0.9112918
vt 0.9595969 0.8519261
vt 0.9217654 0.8519261
vt 0.6753981 0.9112932
vt 0.7065107 0.9112932
vt 0.6762607 0.851926
vt 0.7255041 0.9509615
vt 0.7184573 0.9509615
vt 0.6644728 0.9112918
vt 0.6384292 0.851926
vt 0.6762607 0.851926
vn -0.1388079 0.9600683 0.2429019
vn -0.3872849 0.6454431 -0.6583415
vn -0.2273566 0.7072706 -0.6693858
vn 0.6435363 0.7192398 -0.26183
vn 0.5066842 0.4533294 0.7333236
vn -0.7618963 0.1904741 0.6190587
vn -0.7891338 0.5090986 -0.3436368
vn -0.6647537 0.5474527 -0.5083285
vn 0.1388079 0.9600683 0.2429019
vn 0.2392752 0.7051895 -0.6674243
vn 0.3872849 0.6454431 -0.6583415
vn -0.6435363 0.7192398 -0.26183
vn -0.509163 0.4555519 0.730223
vn 0.7618963 0.1904741 0.6190587
vn 0.7891338 0.5090986 -0.3436368
vn 0.6719152 0.5427392 -0.5039483
g Batman Ears _0
f 3/3/3 2/2/2 1/1/1
f 1/1/1 4/4/4 3/3/3
f 4/4/4 1/1/1 5/5/5
f 5/5/5 1/1/1 6/6/6
f 1/1/1 7/7/7 6/6/6
f 7/7/7 1/1/1 8/8/8
f 11/11/11 10/10/10 9/9/9
f 12/12/12 9/9/9 10/10/10
f 9/9/9 12/12/12 13/13/13
f 9/9/9 13/13/13 14/14/14
f 15/15/15 9/9/9 14/14/14
f 9/9/9 15/15/15 16/16/16
