g ButtonElevator
v 0.1068744 -0.2125077 -0.2121314
v 0.1068744 -0.2371429 -0.1526566
v 0.1068744 -0.2371429 0.1526566
v 0.1068744 -0.2125077 0.2121313
v 0.1068744 -0.1530329 -0.2367666
v 0.1068744 -0.1530329 0.2367666
v 0.1068744 0.1530329 -0.2367666
v 0.1068744 0.1530329 0.2367666
v 0.1068744 0.2125077 -0.2121314
v 0.1068744 0.2125077 0.2121313
v 0.1068744 0.2371429 -0.1526566
v 0.1068744 0.2371429 0.1526566
v -0.02260518 -0.2371429 0.1526566
v -0.02260518 -0.2125077 0.2121313
v 0.1068744 -0.2125077 0.2121313
v 0.1068744 -0.2371429 0.1526566
v -0.02260518 -0.2371429 -0.1526566
v 0.1068744 -0.2371429 -0.1526566
v -0.02260518 -0.2125077 -0.2121314
v 0.1068744 -0.2125077 -0.2121314
v -0.02260518 -0.2125077 0.2121313
v 0.1068744 -0.1530329 0.2367666
v 0.1068744 -0.2125077 0.2121313
v -0.02260518 -0.1530329 0.2367666
v 0.1068744 0.1530329 0.2367666
v -0.02260518 0.1530329 0.2367666
v 0.1068744 0.2125077 0.2121313
v -0.02260518 0.2125077 0.2121313
v 0.1068744 0.2371429 0.1526566
v 0.1068744 0.2125077 0.2121313
v -0.02260518 0.2125077 0.2121313
v -0.02260518 0.2371429 0.1526566
v 0.1068744 0.2371429 -0.1526566
v -0.02260518 0.2371429 -0.1526566
v 0.1068744 0.2125077 -0.2121314
v -0.02260518 0.2125077 -0.2121314
v 0.1068744 0.1530329 -0.2367666
v 0.1068744 0.2125077 -0.2121314
v -0.02260518 0.2125077 -0.2121314
v -0.02260518 0.1530329 -0.2367666
v 0.1068744 -0.1530329 -0.2367666
v -0.02260518 -0.1530329 -0.2367666
v 0.1068744 -0.2125077 -0.2121314
v -0.02260518 -0.2125077 -0.2121314
v -0.02260518 -0.174491 0.1741219
v -0.02260518 -0.1874745 0.1427779
v -0.02260518 -0.1874745 -0.1427779
v -0.02260518 -0.174491 -0.1741147
v -0.02260518 -0.1431542 0.1870981
v -0.02260518 -0.1431542 -0.1870981
v -0.02260518 0.1431542 0.1870981
v -0.02260518 0.1431542 -0.1870981
v -0.02260518 0.174491 0.1741219
v -0.02260518 0.174491 -0.1741147
v -0.02260518 0.1874744 0.1427779
v -0.02260518 0.1874744 -0.1427779
v -0.02260518 -0.174491 -0.1741147
v -0.02260518 -0.1530329 -0.2367666
v -0.02260518 -0.1431542 -0.1870981
v -0.02260518 -0.2125077 -0.2121314
v -0.02260518 0.1530329 -0.2367666
v -0.02260518 -0.1874745 -0.1427779
v -0.02260518 0.1431542 -0.1870981
v -0.02260518 -0.2371429 -0.1526566
v -0.02260518 0.2125077 -0.2121314
v -0.02260518 -0.1874745 0.1427779
v -0.02260518 0.174491 -0.1741147
v -0.02260518 -0.2371429 0.1526566
v -0.02260518 0.2371429 -0.1526566
v -0.02260518 -0.174491 0.1741219
v -0.02260518 0.1874744 -0.1427779
v -0.02260518 -0.2125077 0.2121313
v -0.02260518 0.2371429 0.1526566
v -0.02260518 -0.1431542 0.1870981
v -0.02260518 0.1874744 0.1427779
v -0.02260518 -0.1530329 0.2367666
v -0.02260518 0.2125077 0.2121313
v -0.02260518 0.1431542 0.1870981
v -0.02260518 0.174491 0.1741219
v -0.02260518 0.1530329 0.2367666
vt 0.9484085 0.8266447
vt 0.9480587 0.8271695
vt 0.9480587 0.8364418
vt 0.9484085 0.8371416
vt 0.9489334 0.8262948
vt 0.9489334 0.8373165
vt 0.9582056 0.8262948
vt 0.9582056 0.8373165
vt 0.9589055 0.8266447
vt 0.9589055 0.8371416
vt 0.9590804 0.8271695
vt 0.9590804 0.8364418
vt 0.9667781 0.8355671
vt 0.966953 0.8362668
vt 0.966953 0.8362668
vt 0.9667781 0.8355671
vt 0.9667781 0.8262948
vt 0.9667781 0.8262948
vt 0.966953 0.82577
vt 0.966953 0.82577
vt 0.966953 0.8362668
vt 0.9676529 0.8364418
vt 0.966953 0.8362668
vt 0.9676529 0.8364418
vt 0.9769251 0.8364418
vt 0.9769251 0.8364418
vt 0.97745 0.8362668
vt 0.97745 0.8362668
vt 0.9777998 0.8355671
vt 0.97745 0.8362668
vt 0.97745 0.8362668
vt 0.9777998 0.8355671
vt 0.9777998 0.8262948
vt 0.9777998 0.8262948
vt 0.97745 0.82577
vt 0.97745 0.82577
vt 0.9769251 0.8254201
vt 0.97745 0.82577
vt 0.97745 0.82577
vt 0.9769251 0.8254201
vt 0.9676529 0.8254201
vt 0.9676529 0.8254201
vt 0.966953 0.82577
vt 0.966953 0.82577
vt 0.9889965 0.8296188
vt 0.9888216 0.8292689
vt 0.9888216 0.8203465
vt 0.9889965 0.8199967
vt 0.9893464 0.8297938
vt 0.9893464 0.8198217
vt 0.9982688 0.8297938
vt 0.9982688 0.8198217
vt 0.9986187 0.8296188
vt 0.9986187 0.8199967
vt 0.9987936 0.8292689
vt 0.9987936 0.8203465
vt 0.9664282 0.8275194
vt 0.9667781 0.8268197
vt 0.9667781 0.8273445
vt 0.9660783 0.8269946
vt 0.9753506 0.8268197
vt 0.9664282 0.8276944
vt 0.9751756 0.8273445
vt 0.9659033 0.8276944
vt 0.9758754 0.8269946
vt 0.9664282 0.8360919
vt 0.9755255 0.8275194
vt 0.9659033 0.8362668
vt 0.9762253 0.8276944
vt 0.9664282 0.8364418
vt 0.9757004 0.8276944
vt 0.9660783 0.8367917
vt 0.9762253 0.8362668
vt 0.9667781 0.8366168
vt 0.9757004 0.8360919
vt 0.9667781 0.8371416
vt 0.9758754 0.8367917
vt 0.9751756 0.8366168
vt 0.9755255 0.8364418
vt 0.9753506 0.8371416
vn 0.9999924 0.003921539 0
vn 0.9999924 0.003921539 0
vn 0.9999924 0.003921539 0
vn 0.9999924 0.003921539 0
vn 0.9999924 0.003921539 0
vn 0.9999924 0.003921539 0
vn 0.9999924 0.003921539 0
vn 0.9999924 0.003921539 0
vn 0.9999924 0.003921539 0
vn 0.9999924 0.003921539 0
vn 0.9999924 0.003921539 0
vn 0.9999924 0.003921539 0
vn -0.003921539 -0.9843062 0.1764254
vn -0.003921539 -0.9215617 0.3882124
vn -0.003921539 -0.9215617 0.3882124
vn -0.003921539 -0.9843062 0.1764254
vn -0.003921539 -0.9843062 -0.1764254
vn -0.003921539 -0.9843062 -0.1764254
vn -0.003921539 -0.9215617 -0.3882124
vn -0.003921539 -0.9215617 -0.3882124
vn -0.003921539 -0.3803892 0.9248182
vn -0.003921538 -0.1921554 0.9813566
vn -0.003921539 -0.3803892 0.9248182
vn -0.003921538 -0.1921554 0.9813566
vn -0.003921538 0.1921554 0.9813566
vn -0.003921538 0.1921554 0.9813566
vn -0.003921539 0.3803892 0.9248182
vn -0.003921539 0.3803892 0.9248182
vn -0.003921539 0.9843062 0.1764254
vn -0.003921539 0.9215617 0.3882124
vn -0.003921539 0.9215617 0.3882124
vn -0.003921539 0.9843062 0.1764254
vn -0.003921539 0.9843062 -0.1764254
vn -0.003921539 0.9843062 -0.1764254
vn -0.003921539 0.9215617 -0.3882124
vn -0.003921539 0.9215617 -0.3882124
vn -0.003921538 0.1921554 -0.9813566
vn -0.003921539 0.3803892 -0.9248182
vn -0.003921539 0.3803892 -0.9248182
vn -0.003921538 0.1921554 -0.9813566
vn -0.003921538 -0.1921554 -0.9813566
vn -0.003921538 -0.1921554 -0.9813566
vn -0.003921539 -0.3803892 -0.9248182
vn -0.003921539 -0.3803892 -0.9248182
vn -0.9999924 0.003921539 0
vn -0.9999924 0.003921539 0
vn -0.9999924 0.003921539 0
vn -0.9999924 0.003921539 0
vn -0.9999924 0.003921539 0
vn -0.9999924 0.003921539 0
vn -0.9999924 0.003921539 0
vn -0.9999924 0.003921539 0
vn -0.9999924 0.003921539 0
vn -0.9999924 0.003921539 0
vn -0.9999924 0.003921539 0
vn -0.9999924 0.003921539 0
vn -0.9999924 0.003921539 0
vn -0.9999924 0.003921539 0
vn -0.9999924 0.003921539 0
vn -0.9999924 0.003921539 0
vn -0.9999924 0.003921539 0
vn -0.9999924 0.003921539 0
vn -0.9999924 0.003921539 0
vn -0.9999924 0.003921539 0
vn -0.9999924 0.003921539 0
vn -0.9999924 0.003921539 0
vn -0.9999924 0.003921539 0
vn -0.9999924 0.003921539 0
vn -0.9999924 0.003921539 0
vn -0.9999924 0.003921539 0
vn -0.9999924 0.003921539 0
vn -0.9999924 0.003921539 0
vn -0.9999924 0.003921539 0
vn -0.9999924 0.003921539 0
vn -0.9999924 0.003921539 0
vn -0.9999924 0.003921539 0
vn -0.9999924 0.003921539 0
vn -0.9999924 0.003921539 0
vn -0.9999924 0.003921539 0
vn -0.9999924 0.003921539 0
g ButtonElevator_0
f 3/3/3 2/2/2 1/1/1
f 1/1/1 4/4/4 3/3/3
f 1/1/1 5/5/5 4/4/4
f 5/5/5 6/6/6 4/4/4
f 5/5/5 7/7/7 6/6/6
f 7/7/7 8/8/8 6/6/6
f 7/7/7 9/9/9 8/8/8
f 9/9/9 10/10/10 8/8/8
f 9/9/9 11/11/11 10/10/10
f 11/11/11 12/12/12 10/10/10
f 15/15/15 14/14/14 13/13/13
f 16/16/16 15/15/15 13/13/13
f 16/16/16 13/13/13 17/17/17
f 18/18/18 16/16/16 17/17/17
f 17/17/17 19/19/19 18/18/18
f 19/19/19 20/20/20 18/18/18
f 23/23/23 22/22/22 21/21/21
f 22/22/22 24/24/24 21/21/21
f 22/22/22 25/25/25 24/24/24
f 25/25/25 26/26/26 24/24/24
f 26/26/26 25/25/25 27/27/27
f 28/28/28 26/26/26 27/27/27
f 31/31/31 30/30/30 29/29/29
f 32/32/32 31/31/31 29/29/29
f 29/29/29 33/33/33 32/32/32
f 33/33/33 34/34/34 32/32/32
f 34/34/34 33/33/33 35/35/35
f 36/36/36 34/34/34 35/35/35
f 39/39/39 38/38/38 37/37/37
f 40/40/40 39/39/39 37/37/37
f 37/37/37 41/41/41 40/40/40
f 41/41/41 42/42/42 40/40/40
f 42/42/42 41/41/41 43/43/43
f 44/44/44 42/42/42 43/43/43
f 47/47/47 46/46/46 45/45/45
f 45/45/45 48/48/48 47/47/47
f 45/45/45 49/49/49 48/48/48
f 49/49/49 50/50/50 48/48/48
f 49/49/49 51/51/51 50/50/50
f 51/51/51 52/52/52 50/50/50
f 51/51/51 53/53/53 52/52/52
f 53/53/53 54/54/54 52/52/52
f 53/53/53 55/55/55 54/54/54
f 55/55/55 56/56/56 54/54/54
f 59/59/59 58/58/58 57/57/57
f 58/58/58 60/60/60 57/57/57
f 61/61/61 58/58/58 59/59/59
f 57/57/57 60/60/60 62/62/62
f 63/63/63 61/61/61 59/59/59
f 60/60/60 64/64/64 62/62/62
f 65/65/65 61/61/61 63/63/63
f 62/62/62 64/64/64 66/66/66
f 67/67/67 65/65/65 63/63/63
f 64/64/64 68/68/68 66/66/66
f 69/69/69 65/65/65 67/67/67
f 66/66/66 68/68/68 70/70/70
f 71/71/71 69/69/69 67/67/67
f 68/68/68 72/72/72 70/70/70
f 73/73/73 69/69/69 71/71/71
f 70/70/70 72/72/72 74/74/74
f 75/75/75 73/73/73 71/71/71
f 72/72/72 76/76/76 74/74/74
f 77/77/77 73/73/73 75/75/75
f 74/74/74 76/76/76 78/78/78
f 79/79/79 77/77/77 75/75/75
f 76/76/76 80/80/80 78/78/78
f 80/80/80 77/77/77 79/79/79
f 78/78/78 80/80/80 79/79/79
