g Ground
v 120 120 40.793
v 120 120 240
v 120 -120 240
v 120 -120 40.793
v 119.9195 120 38.23159
v 119.9195 -120 38.23159
v 119.6783 120 35.68028
v 119.6783 -120 35.68028
v 119.2774 120 33.14915
v 119.2774 -120 33.14915
v 118.7184 120 30.6482
v 118.7184 -120 30.6482
v 118.0034 120 28.18727
v 118.0034 -120 28.18727
v 117.1354 120 25.7761
v 117.1354 -120 25.7761
v 116.1176 120 23.42419
v 116.1176 -120 23.42419
v 114.9542 120 21.14082
v 114.9542 -120 21.14082
v 113.6497 120 18.93502
v 113.6497 -120 18.93502
v 112.2092 120 16.81548
v 112.2092 -120 16.81548
v 110.6385 120 14.79056
v 110.6385 -120 14.79056
v 108.9438 120 12.86827
v 108.9438 -120 12.86827
v 107.1317 120 11.05618
v 107.1317 -120 11.05618
v 105.2094 120 9.361454
v 105.2094 -120 9.361454
v 103.1845 120 7.790771
v 103.1845 -120 7.790771
v 101.065 120 6.35033
v 101.065 -120 6.35033
v 98.85918 120 5.045822
v 98.85918 -120 5.045822
v 96.57581 120 3.882389
v 96.57581 -120 3.882389
v 94.22391 120 2.864628
v 94.22391 -120 2.864628
v 91.81272 120 1.996552
v 91.81272 -120 1.996552
v 89.35181 120 1.281586
v 89.35181 -120 1.281586
v 86.85085 120 0.7225571
v 86.85085 -120 0.7225571
v 84.31972 120 0.3216629
v 84.31972 -120 0.3216629
v 81.76842 120 0.08049393
v 81.76842 -120 0.08049393
v 79.207 120 0
v 79.207 -120 0
v -120 120 0
v -120 -120 0
vt 0.4174927 0.5
vt 0.625 0.5
vt 0.625 0.75
vt 0.4174927 0.75
vt 0.4148246 0.5
vt 0.4148246 0.75
vt 0.412167 0.5
vt 0.412167 0.75
vt 0.4095304 0.5
vt 0.4095304 0.75
vt 0.4069252 0.5
vt 0.4069252 0.75
vt 0.4043617 0.5
vt 0.4043617 0.75
vt 0.4018501 0.5
vt 0.4018501 0.75
vt 0.3994002 0.5
vt 0.3994002 0.75
vt 0.3970217 0.5
vt 0.3970217 0.75
vt 0.394724 0.5
vt 0.394724 0.75
vt 0.3925161 0.5
vt 0.3925161 0.75
vt 0.3904068 0.5
vt 0.3904068 0.75
vt 0.3884045 0.5
vt 0.3884045 0.75
vt 0.3615955 0.5
vt 0.3615956 0.75
vt 0.3595932 0.5
vt 0.3595932 0.75
vt 0.3574839 0.5
vt 0.3574839 0.75
vt 0.355276 0.5
vt 0.355276 0.75
vt 0.3529783 0.5
vt 0.3529783 0.75
vt 0.3505998 0.5
vt 0.3505998 0.75
vt 0.3481499 0.5
vt 0.3481499 0.75
vt 0.3456382 0.5
vt 0.3456382 0.75
vt 0.3430748 0.5
vt 0.3430748 0.75
vt 0.3404696 0.5
vt 0.3404697 0.75
vt 0.337833 0.5
vt 0.337833 0.75
vt 0.3351754 0.5
vt 0.3351754 0.75
vt 0.3325073 0.5
vt 0.3325073 0.75
vt 0.125 0.5
vt 0.125 0.75
vn -1 0 0.0003989232
vn -1 0 0
vn -1 0 0
vn -1 0 0.0003989232
vn -0.9980267 0 0.06279009
vn -0.9980267 0 0.06279009
vn -0.9921145 0 0.1253344
vn -0.9921145 0 0.1253344
vn -0.9822872 0 0.1873814
vn -0.9822872 0 0.1873814
vn -0.9685832 0 0.2486898
vn -0.9685832 0 0.2486898
vn -0.9510567 0 0.3090165
vn -0.9510567 0 0.3090165
vn -0.9297768 0 0.3681237
vn -0.9297768 0 0.3681237
vn -0.9048268 0 0.42578
vn -0.9048268 0 0.42578
vn -0.8763067 0 0.4817538
vn -0.8763067 0 0.4817538
vn -0.8443277 0 0.535827
vn -0.8443277 0 0.535827
vn -0.8090169 0 0.5877854
vn -0.8090169 0 0.5877854
vn -0.7705134 0 0.6374239
vn -0.7705134 0 0.6374239
vn -0.7289681 0 0.6845477
vn -0.7289681 0 0.6845477
vn -0.6845469 0 0.7289688
vn -0.6845469 0 0.7289688
vn -0.6374242 0 0.7705131
vn -0.6374242 0 0.7705131
vn -0.587786 0 0.8090163
vn -0.587786 0 0.8090163
vn -0.5358268 0 0.8443279
vn -0.5358268 0 0.8443279
vn -0.4817532 0 0.8763069
vn -0.4817532 0 0.8763069
vn -0.4257797 0 0.9048268
vn -0.4257797 0 0.9048268
vn -0.3681244 0 0.9297766
vn -0.3681244 0 0.9297766
vn -0.3090171 0 0.9510565
vn -0.3090171 0 0.9510565
vn -0.2486898 0 0.9685832
vn -0.2486898 0 0.9685832
vn -0.1873814 0 0.9822872
vn -0.1873814 0 0.9822872
vn -0.1253338 0 0.9921146
vn -0.1253338 0 0.9921146
vn -0.06279013 0 0.9980267
vn -0.06279013 0 0.9980267
vn -0.0003989422 0 1
vn -0.0003989422 0 1
vn 0 0 1
vn 0 0 1
g Ground_0
f 3/3/3 2/2/2 1/1/1
f 4/4/4 3/3/3 1/1/1
f 1/1/1 5/5/5 4/4/4
f 5/5/5 6/6/6 4/4/4
f 5/5/5 7/7/7 6/6/6
f 7/7/7 8/8/8 6/6/6
f 7/7/7 9/9/9 8/8/8
f 9/9/9 10/10/10 8/8/8
f 9/9/9 11/11/11 10/10/10
f 11/11/11 12/12/12 10/10/10
f 11/11/11 13/13/13 12/12/12
f 13/13/13 14/14/14 12/12/12
f 13/13/13 15/15/15 14/14/14
f 15/15/15 16/16/16 14/14/14
f 15/15/15 17/17/17 16/16/16
f 17/17/17 18/18/18 16/16/16
f 17/17/17 19/19/19 18/18/18
f 19/19/19 20/20/20 18/18/18
f 19/19/19 21/21/21 20/20/20
f 21/21/21 22/22/22 20/20/20
f 21/21/21 23/23/23 22/22/22
f 23/23/23 24/24/24 22/22/22
f 23/23/23 25/25/25 24/24/24
f 25/25/25 26/26/26 24/24/24
f 25/25/25 27/27/27 26/26/26
f 27/27/27 28/28/28 26/26/26
f 27/27/27 29/29/29 28/28/28
f 29/29/29 30/30/30 28/28/28
f 29/29/29 31/31/31 30/30/30
f 31/31/31 32/32/32 30/30/30
f 31/31/31 33/33/33 32/32/32
f 33/33/33 34/34/34 32/32/32
f 33/33/33 35/35/35 34/34/34
f 35/35/35 36/36/36 34/34/34
f 35/35/35 37/37/37 36/36/36
f 37/37/37 38/38/38 36/36/36
f 37/37/37 39/39/39 38/38/38
f 39/39/39 40/40/40 38/38/38
f 39/39/39 41/41/41 40/40/40
f 41/41/41 42/42/42 40/40/40
f 41/41/41 43/43/43 42/42/42
f 43/43/43 44/44/44 42/42/42
f 43/43/43 45/45/45 44/44/44
f 45/45/45 46/46/46 44/44/44
f 45/45/45 47/47/47 46/46/46
f 47/47/47 48/48/48 46/46/46
f 47/47/47 49/49/49 48/48/48
f 49/49/49 50/50/50 48/48/48
f 49/49/49 51/51/51 50/50/50
f 51/51/51 52/52/52 50/50/50
f 51/51/51 53/53/53 52/52/52
f 53/53/53 54/54/54 52/52/52
f 54/54/54 53/53/53 55/55/55
f 56/56/56 54/54/54 55/55/55
