g Icosphere_032
v 0.2128828 0.1296591 -0.2519154
v -0.3739346 -0.3770894 -0.1702721
v 0.4460558 -0.3732251 -0.1608667
v 0.2128828 0.1296591 -0.2519154
v -0.6739067 0.02685358 -0.184094
v -0.3739346 -0.3770894 -0.1702721
v 0.2128828 0.1296591 -0.2519154
v 0.01772001 0.604879 -0.162441
v -0.6739067 0.02685358 -0.184094
v 0.4460558 -0.3732251 -0.1608667
v 0.5578579 -0.3846342 -0.01023655
v 0.577323 0.2774062 -0.09911793
v -0.3739346 -0.3770894 -0.1702721
v -0.1599814 -0.5558541 0.001009077
v 0.4460558 -0.3732251 -0.1608667
v -0.6739067 0.02685358 -0.184094
v -0.7626449 -0.1691884 0.007020377
v -0.3739346 -0.3770894 -0.1702721
v 0.577323 0.2774062 -0.09911793
v 0.397352 0.5793821 0.02384793
v 0.01772001 0.604879 -0.162441
v -0.6739067 0.02685358 -0.184094
v -0.7262295 0.2115273 0.008717445
v -0.7626449 -0.1691884 0.007020377
v 0.01772001 0.604879 -0.162441
v 0.0303969 0.6986062 0.02384793
v -0.4273002 0.4955305 -0.1043931
v 0.1432417 -0.4982356 0.3489079
v 0.1603964 -0.284589 0.5379573
v 0.5468985 -0.1869565 0.3304651
v 0.5468985 -0.1869565 0.3304651
v 0.2031502 0.04314952 0.6225244
v 0.3178557 0.4536355 0.4636543
v 0.3178557 0.4536355 0.4636543
v 0.2031502 0.04314952 0.6225244
v -0.4293858 0.3340637 0.4303877
v 0.3178557 0.4536355 0.4636543
v -0.4293858 0.3340637 0.4303877
v 0.06936812 0.6436253 0.3325302
v -0.4293858 0.3340637 0.4303877
v 0.2031502 0.04314952 0.6225244
v -0.4607713 -0.2473967 0.4381369
v -0.4293858 0.3340637 0.4303877
v -0.4607713 -0.2473967 0.4381369
v -0.6658712 0.01894074 0.3219798
v -0.4607713 -0.2473967 0.4381369
v 0.2031502 0.04314952 0.6225244
v 0.1603964 -0.284589 0.5379573
v -0.4607713 -0.2473967 0.4381369
v 0.1603964 -0.284589 0.5379573
v 0.1432417 -0.4982356 0.3489079
v 0.1603964 -0.284589 0.5379573
v 0.2031502 0.04314952 0.6225244
v 0.5468985 -0.1869565 0.3304651
v 0.577323 0.2774062 -0.09911793
v 0.5468985 -0.1869565 0.3304651
v 0.3178557 0.4536355 0.4636543
v 0.577323 0.2774062 -0.09911793
v 0.3178557 0.4536355 0.4636543
v 0.397352 0.5793821 0.02384793
v 0.397352 0.5793821 0.02384793
v 0.3178557 0.4536355 0.4636543
v 0.06936812 0.6436253 0.3325302
v 0.0303969 0.6986062 0.02384793
v 0.06936812 0.6436253 0.3325302
v -0.4273002 0.4955305 -0.1043931
v -0.4273002 0.4955305 -0.1043931
v 0.06936812 0.6436253 0.3325302
v -0.4293858 0.3340637 0.4303877
v -0.7262295 0.2115273 0.008717445
v -0.4293858 0.3340637 0.4303877
v -0.6658712 0.01894074 0.3219798
v -0.7262295 0.2115273 0.008717445
v -0.6658712 0.01894074 0.3219798
v -0.7626449 -0.1691884 0.007020377
v -0.7626449 -0.1691884 0.007020377
v -0.6658712 0.01894074 0.3219798
v -0.4607713 -0.2473967 0.4381369
v -0.1599814 -0.5558541 0.001009077
v -0.4607713 -0.2473967 0.4381369
v 0.1432417 -0.4982356 0.3489079
v 0.5578579 -0.3846342 -0.01023655
v 0.1432417 -0.4982356 0.3489079
v 0.5468985 -0.1869565 0.3304651
v 0.397352 0.5793821 0.02384793
v 0.06936812 0.6436253 0.3325302
v 0.0303969 0.6986062 0.02384793
v 0.397352 0.5793821 0.02384793
v 0.0303969 0.6986062 0.02384793
v 0.01772001 0.604879 -0.162441
v -0.4273002 0.4955305 -0.1043931
v -0.4293858 0.3340637 0.4303877
v -0.7262295 0.2115273 0.008717445
v -0.4273002 0.4955305 -0.1043931
v -0.7262295 0.2115273 0.008717445
v -0.6739067 0.02685358 -0.184094
v -0.7626449 -0.1691884 0.007020377
v -0.4607713 -0.2473967 0.4381369
v -0.1599814 -0.5558541 0.001009077
v -0.7626449 -0.1691884 0.007020377
v -0.1599814 -0.5558541 0.001009077
v -0.3739346 -0.3770894 -0.1702721
v -0.1599814 -0.5558541 0.001009077
v 0.1432417 -0.4982356 0.3489079
v 0.5578579 -0.3846342 -0.01023655
v -0.1599814 -0.5558541 0.001009077
v 0.5578579 -0.3846342 -0.01023655
v 0.4460558 -0.3732251 -0.1608667
v 0.5578579 -0.3846342 -0.01023655
v 0.5468985 -0.1869565 0.3304651
v 0.577323 0.2774062 -0.09911793
v 0.2128828 0.1296591 -0.2519154
v 0.577323 0.2774062 -0.09911793
v 0.01772001 0.604879 -0.162441
v 0.01772001 0.604879 -0.162441
v -0.4273002 0.4955305 -0.1043931
v -0.6739067 0.02685358 -0.184094
v 0.577323 0.2774062 -0.09911793
v 0.2128828 0.1296591 -0.2519154
v 0.4460558 -0.3732251 -0.1608667
vt 0.4575054 0.4136451
vt 0.4429571 0.4247449
vt 0.4573976 0.4222663
vt 0.4575054 0.4136451
vt 0.4425261 0.4303487
vt 0.4429571 0.4247449
vt 0.4575054 0.4136451
vt 0.4564277 0.4333661
vt 0.4425261 0.4303487
vt 0.4583675 0.4575054
vt 0.4609538 0.4811058
vt 0.4661265 0.4724846
vt 0.4429571 0.4247449
vt 0.4441426 0.4461901
vt 0.4573976 0.4222663
vt 0.4425261 0.4303487
vt 0.4390776 0.4502851
vt 0.4429571 0.4247449
vt 0.4651567 0.4372456
vt 0.4635402 0.452656
vt 0.4564277 0.4333661
vt 0.4425261 0.4303487
vt 0.4428494 0.4527637
vt 0.4390776 0.4502851
vt 0.4564277 0.4333661
vt 0.4570743 0.4540569
vt 0.4483454 0.4451124
vt 0.4499618 0.4682818
vt 0.452656 0.4859552
vt 0.461816 0.4701138
vt 0.461816 0.4701138
vt 0.4566433 0.4887571
vt 0.4606305 0.4789505
vt 0.4616004 0.5140818
vt 0.4576131 0.5238884
vt 0.4486687 0.5123576
vt 0.4616004 0.5140818
vt 0.4486687 0.5123576
vt 0.458152 0.506646
vt 0.4476988 0.4771186
vt 0.4566433 0.4887571
vt 0.4431727 0.4771186
vt 0.4476988 0.4771186
vt 0.4431727 0.4771186
vt 0.4422028 0.4725924
vt 0.4431727 0.4771186
vt 0.4566433 0.4887571
vt 0.452656 0.4859552
vt 0.4431727 0.4771186
vt 0.452656 0.4859552
vt 0.4499618 0.4682818
vt 0.452656 0.4859552
vt 0.4566433 0.4887571
vt 0.461816 0.4701138
vt 0.4651567 0.4372456
vt 0.461816 0.4701138
vt 0.4606305 0.4789505
vt 0.4651567 0.4372456
vt 0.4606305 0.4789505
vt 0.4635402 0.452656
vt 0.4635402 0.452656
vt 0.4606305 0.4789505
vt 0.4571821 0.4715148
vt 0.4570743 0.4540569
vt 0.4571821 0.4715148
vt 0.4483454 0.4451124
vt 0.4483454 0.4451124
vt 0.4571821 0.4715148
vt 0.4476988 0.4771186
vt 0.4428494 0.4527637
vt 0.4476988 0.4771186
vt 0.4422028 0.4725924
vt 0.4428494 0.4527637
vt 0.4422028 0.4725924
vt 0.4390776 0.4502851
vt 0.4400475 0.4854164
vt 0.4431727 0.5077237
vt 0.4441426 0.5122498
vt 0.4441426 0.4461901
vt 0.4431727 0.4771186
vt 0.4499618 0.4682818
vt 0.4609538 0.4811058
vt 0.4509317 0.5034131
vt 0.4627858 0.5052451
vt 0.4635402 0.452656
vt 0.4571821 0.4715148
vt 0.4570743 0.4540569
vt 0.4635402 0.452656
vt 0.4570743 0.4540569
vt 0.4564277 0.4333661
vt 0.4483454 0.4451124
vt 0.4476988 0.4771186
vt 0.4428494 0.4527637
vt 0.4483454 0.4451124
vt 0.4428494 0.4527637
vt 0.4425261 0.4303487
vt 0.4400475 0.4854164
vt 0.4441426 0.5122498
vt 0.4451124 0.4814291
vt 0.4390776 0.4502851
vt 0.4441426 0.4461901
vt 0.4429571 0.4247449
vt 0.4451124 0.4814291
vt 0.4509317 0.5034131
vt 0.4609538 0.4811058
vt 0.4451124 0.4814291
vt 0.4609538 0.4811058
vt 0.4583675 0.4575054
vt 0.4609538 0.4811058
vt 0.4627858 0.5052451
vt 0.4661265 0.4724846
vt 0.4575054 0.4136451
vt 0.4651567 0.4372456
vt 0.4564277 0.4333661
vt 0.4564277 0.4333661
vt 0.4483454 0.4451124
vt 0.4425261 0.4303487
vt 0.4651567 0.4372456
vt 0.4575054 0.4136451
vt 0.4573976 0.4222663
vn 0.01253602 -0.1743267 -0.9846081
vn 0.01253602 -0.1743267 -0.9846081
vn 0.01253602 -0.1743267 -0.9846081
vn -0.06450715 -0.08187488 -0.9945529
vn -0.06450715 -0.08187488 -0.9945529
vn -0.06450715 -0.08187488 -0.9945529
vn -0.0953244 0.1492546 -0.9841931
vn -0.0953244 0.1492546 -0.9841931
vn -0.0953244 0.1492546 -0.9841931
vn 0.7983763 -0.1049878 -0.5929357
vn 0.7983763 -0.1049878 -0.5929357
vn 0.7983763 -0.1049878 -0.5929357
vn 0.01253602 -0.6828116 -0.7304869
vn 0.01253602 -0.6828116 -0.7304869
vn 0.01253602 -0.6828116 -0.7304869
vn -0.5575834 -0.4362734 -0.7062339
vn -0.5575834 -0.4362734 -0.7062339
vn -0.5575834 -0.4362734 -0.7062339
vn 0.3977518 0.5421748 -0.7401621
vn 0.3977518 0.5421748 -0.7401621
vn 0.3977518 0.5421748 -0.7401621
vn -0.9350949 0.08762009 -0.3433952
vn -0.9350949 0.08762009 -0.3433952
vn -0.9350949 0.08762009 -0.3433952
vn -0.2648194 0.865756 -0.4246613
vn -0.2648194 0.865756 -0.4246613
vn -0.2648194 0.865756 -0.4246613
vn 0.4902036 -0.5980641 0.6340503
vn 0.4902036 -0.5980641 0.6340503
vn 0.4902036 -0.5980641 0.6340503
vn 0.6828115 0.09532441 0.7243491
vn 0.6828115 0.09532441 0.7243491
vn 0.6828115 0.09532441 0.7243491
vn -0.1030287 0.3803841 0.9190719
vn -0.1030287 0.3803841 0.9190719
vn -0.1030287 0.3803841 0.9190719
vn -0.110733 0.4574273 0.8823256
vn -0.110733 0.4574273 0.8823256
vn -0.110733 0.4574273 0.8823256
vn -0.280228 0.02598556 0.9595816
vn -0.280228 0.02598556 0.9595816
vn -0.280228 0.02598556 0.9595816
vn -0.4574273 0.03368988 0.8886087
vn -0.4574273 0.03368988 0.8886087
vn -0.4574273 0.03368988 0.8886087
vn -0.1646633 -0.2282569 0.9595753
vn -0.1646633 -0.2282569 0.9595753
vn -0.1646633 -0.2282569 0.9595753
vn -0.1569589 -0.64429 0.7485014
vn -0.1569589 -0.64429 0.7485014
vn -0.1569589 -0.64429 0.7485014
vn 0.5056123 -0.2744828 0.8179336
vn 0.5056123 -0.2744828 0.8179336
vn 0.5056123 -0.2744828 0.8179336
vn 0.9062368 0.2571151 0.3355993
vn 0.9062368 0.2571151 0.3355993
vn 0.9062368 0.2571151 0.3355993
vn 0.8677151 0.4112014 0.279256
vn 0.8677151 0.4112014 0.279256
vn 0.8677151 0.4112014 0.279256
vn 0.4593863 0.8272344 0.3234924
vn 0.4593863 0.8272344 0.3234924
vn 0.4593863 0.8272344 0.3234924
vn -0.4420187 0.8734604 0.2041727
vn -0.4420187 0.8734604 0.2041727
vn -0.4420187 0.8734604 0.2041727
vn -0.4728359 0.8426431 0.2576409
vn -0.4728359 0.8426431 0.2576409
vn -0.4728359 0.8426431 0.2576409
vn -0.7887129 0.4420187 0.4272605
vn -0.7887129 0.4420187 0.4272605
vn -0.7887129 0.4420187 0.4272605
vn -0.9659122 0.08762009 0.2435907
vn -0.9659122 0.08762009 0.2435907
vn -0.9659122 0.08762009 0.2435907
vn -0.7810085 -0.3977519 0.481476
vn -0.7810085 -0.3977519 0.481476
vn -0.7810085 -0.3977519 0.481476
vn -0.2956366 -0.8677151 0.3995866
vn -0.2956366 -0.8677151 0.3995866
vn -0.2956366 -0.8677151 0.3995866
vn 0.5672468 -0.7059245 0.4241482
vn 0.5672468 -0.7059245 0.4241482
vn 0.5672468 -0.7059245 0.4241482
vn 0.3053001 0.9427992 0.1338712
vn 0.3053001 0.9427992 0.1338712
vn 0.3053001 0.9427992 0.1338712
vn 0.2744828 0.8503474 -0.4489638
vn 0.2744828 0.8503474 -0.4489638
vn 0.2744828 0.8503474 -0.4489638
vn -0.6269222 0.7501913 0.2101939
vn -0.6269222 0.7501913 0.2101939
vn -0.6269222 0.7501913 0.2101939
vn -0.6577395 0.4497229 -0.6042582
vn -0.6577395 0.4497229 -0.6042582
vn -0.6577395 0.4497229 -0.6042582
vn -0.5267661 -0.8214892 0.2183414
vn -0.5267661 -0.8214892 0.2183414
vn -0.5267661 -0.8214892 0.2183414
vn -0.5344704 -0.8214892 -0.1987381
vn -0.5344704 -0.8214892 -0.1987381
vn -0.5344704 -0.8214892 -0.1987381
vn 0.2278189 -0.9737036 0
vn 0.2278189 -0.9737036 0
vn 0.2278189 -0.9737036 0
vn 0.2205525 -0.9447583 -0.2424631
vn 0.2205525 -0.9447583 -0.2424631
vn 0.2205525 -0.9447583 -0.2424631
vn 0.9986885 -0.02024033 0.04702725
vn 0.9986885 -0.02024033 0.04702725
vn 0.9986885 -0.02024033 0.04702725
vn 0.2667785 0.2879323 -0.9197414
vn 0.2667785 0.2879323 -0.9197414
vn 0.2667785 0.2879323 -0.9197414
vn -0.1877762 0.2571151 -0.947962
vn -0.1877762 0.2571151 -0.947962
vn -0.1877762 0.2571151 -0.947962
vn 0.3823432 0.01057693 -0.9239598
vn 0.3823432 0.01057693 -0.9239598
vn 0.3823432 0.01057693 -0.9239598
g Icosphere_032_0
f 3/3/3 2/2/2 1/1/1
f 6/6/6 5/5/5 4/4/4
f 9/9/9 8/8/8 7/7/7
f 12/12/12 11/11/11 10/10/10
f 15/15/15 14/14/14 13/13/13
f 18/18/18 17/17/17 16/16/16
f 21/21/21 20/20/20 19/19/19
f 24/24/24 23/23/23 22/22/22
f 27/27/27 26/26/26 25/25/25
f 30/30/30 29/29/29 28/28/28
f 33/33/33 32/32/32 31/31/31
f 36/36/36 35/35/35 34/34/34
f 39/39/39 38/38/38 37/37/37
f 42/42/42 41/41/41 40/40/40
f 45/45/45 44/44/44 43/43/43
f 48/48/48 47/47/47 46/46/46
f 51/51/51 50/50/50 49/49/49
f 54/54/54 53/53/53 52/52/52
f 57/57/57 56/56/56 55/55/55
f 60/60/60 59/59/59 58/58/58
f 63/63/63 62/62/62 61/61/61
f 66/66/66 65/65/65 64/64/64
f 69/69/69 68/68/68 67/67/67
f 72/72/72 71/71/71 70/70/70
f 75/75/75 74/74/74 73/73/73
f 78/78/78 77/77/77 76/76/76
f 81/81/81 80/80/80 79/79/79
f 84/84/84 83/83/83 82/82/82
f 87/87/87 86/86/86 85/85/85
f 90/90/90 89/89/89 88/88/88
f 93/93/93 92/92/92 91/91/91
f 96/96/96 95/95/95 94/94/94
f 99/99/99 98/98/98 97/97/97
f 102/102/102 101/101/101 100/100/100
f 105/105/105 104/104/104 103/103/103
f 108/108/108 107/107/107 106/106/106
f 111/111/111 110/110/110 109/109/109
f 114/114/114 113/113/113 112/112/112
f 117/117/117 116/116/116 115/115/115
f 120/120/120 119/119/119 118/118/118
