g Icosphere_012
v -0.01168465 0.32964 -0.1446171
v 0.1983876 0.2567455 0.05337317
v -0.1183405 0.2594818 0.1300503
v -0.01168465 0.32964 -0.1446171
v -0.1183405 0.2594818 0.1300503
v -0.1709038 0.3009088 -0.07769818
v 0.1983876 0.2567455 0.05337317
v 0.0491681 0.1494761 0.2046751
v 0.1860742 0.07683302 0.1634292
v 0.2741996 0.0301447 0.07341263
v 0.07121956 -0.1951986 0.1391042
v 0.2455085 -0.1235817 -0.07940837
v -0.01920951 -0.32964 -0.05147184
v 0.1295372 -0.1955206 -0.1503613
v 0.2551259 0.1681172 -0.1750787
v -0.005859932 0.1407038 -0.2046751
v -0.01168465 0.32964 -0.1446171
v -0.1183405 0.2594818 0.1300503
v 0.0491681 0.1494761 0.2046751
v -0.1818591 -0.09077614 0.139899
v -0.2438084 0.1752195 0.07924742
v 0.07121956 -0.1951986 0.1391042
v 0.0491681 0.1494761 0.2046751
v 0.1860742 0.07683302 0.1634292
v -0.1818591 -0.09077614 0.139899
v -0.08106826 -0.2478827 0.09449833
v -0.1823118 -0.2540394 -0.04834319
v -0.01920951 -0.32964 -0.05147184
v -0.2642301 -0.08089724 -0.1092764
v -0.2438084 0.1752195 0.07924742
v -0.0963393 -0.2655882 -0.1423234
v 0.1295372 -0.1955206 -0.1503613
v -0.005859932 0.1407038 -0.2046751
v -0.2449251 0.1312776 -0.1512667
v -0.01168465 0.32964 -0.1446171
v -0.1709038 0.3009088 -0.07769818
v -0.1183405 0.2594818 0.1300503
v -0.280648 0.157182 -0.06351362
v -0.01920951 -0.32964 -0.05147184
v -0.08106826 -0.2478827 0.09449833
v 0.07121956 -0.1951986 0.1391042
v 0.2455085 -0.1235817 -0.07940837
v 0.2455085 -0.1235817 -0.07940837
v 0.2741996 0.0301447 0.07341263
v 0.280648 0.2203687 -0.1085722
v 0.2551259 0.1681172 -0.1750787
v 0.1983876 0.2567455 0.05337317
v -0.01168465 0.32964 -0.1446171
vt 0.4651567 0.4372456
vt 0.461816 0.4701138
vt 0.4606305 0.4789505
vt 0.4651567 0.4372456
vt 0.4606305 0.4789505
vt 0.4635402 0.452656
vt 0.461816 0.4701138
vt 0.4566433 0.4887571
vt 0.452656 0.4859552
vt 0.4499618 0.4682818
vt 0.4431727 0.4771186
vt 0.4441426 0.4461901
vt 0.4390776 0.4502851
vt 0.4429571 0.4247449
vt 0.4573976 0.4222663
vt 0.4575054 0.4136451
vt 0.4651567 0.4372456
vt 0.4616004 0.5140818
vt 0.4576131 0.5238884
vt 0.4486687 0.5123576
vt 0.458152 0.506646
vt 0.4431727 0.4771186
vt 0.4566433 0.4887571
vt 0.452656 0.4859552
vt 0.4476988 0.4771186
vt 0.4422028 0.4725924
vt 0.4428494 0.4527637
vt 0.4390776 0.4502851
vt 0.4483454 0.4451124
vt 0.4571821 0.4715148
vt 0.4425261 0.4303487
vt 0.4429571 0.4247449
vt 0.4575054 0.4136451
vt 0.4564277 0.4333661
vt 0.4651567 0.4372456
vt 0.4635402 0.452656
vt 0.4606305 0.4789505
vt 0.4570743 0.4540569
vt 0.4400475 0.4854164
vt 0.4431727 0.5077237
vt 0.4441426 0.5122498
vt 0.4451124 0.4814291
vt 0.4451124 0.4814291
vt 0.4509317 0.5034131
vt 0.4609538 0.4811058
vt 0.4583675 0.4575054
vt 0.4627858 0.5052451
vt 0.4661265 0.4724846
vn 0.01710336 0.9228697 -0.3847322
vn 0.4416074 0.8167437 0.3713659
vn -0.2254703 0.6727156 0.7047104
vn 0.01710336 0.9228697 -0.3847322
vn -0.2254703 0.6727156 0.7047104
vn -0.4528832 0.8698067 -0.1957885
vn 0.4416074 0.8167437 0.3713659
vn 0.001942498 0.2103095 0.9776328
vn 0.4946704 0.00563793 0.8690625
vn 0.9191743 -0.1762923 0.3521925
vn 0.3582226 -0.5553137 0.7505352
vn 0.8509504 -0.5174116 -0.09038052
vn 0.2899851 -0.9570312 0
vn 0.2672575 -0.3582226 -0.8945669
vn 0.4112856 0.07386179 -0.908509
vn -0.05112049 0.02079879 -0.9984758
vn 0.01710336 0.9228697 -0.3847322
vn -0.2254703 0.6727156 0.7047104
vn 0.001942498 0.2103095 0.9776328
vn -0.5817505 -0.2141945 0.7846574
vn -0.8091633 0.1951486 0.5542308
vn 0.3582226 -0.5553137 0.7505352
vn 0.001942498 0.2103095 0.9776328
vn 0.4946704 0.00563793 0.8690625
vn -0.5817505 -0.2141945 0.7846574
vn -0.2785333 -0.6917614 0.6662471
vn -0.7712612 -0.6235376 0.127895
vn 0.2899851 -0.9570312 0
vn -0.9152893 -0.2596771 -0.3079177
vn -0.8091633 0.1951486 0.5542308
vn -0.1648269 -0.3658031 -0.9159805
vn 0.2672575 -0.3582226 -0.8945669
vn -0.05112049 0.02079879 -0.9984758
vn -0.414981 0.05870093 -0.9079344
vn 0.01710336 0.9228697 -0.3847322
vn -0.4528832 0.8698067 -0.1957885
vn -0.2254703 0.6727156 0.7047104
vn -0.9759327 0.2178899 -0.008905697
vn 0.2899851 -0.9570312 0
vn -0.2785333 -0.6917614 0.6662471
vn 0.3582226 -0.5553137 0.7505352
vn 0.8509504 -0.5174116 -0.09038052
vn 0.8509504 -0.5174116 -0.09038052
vn 0.9191743 -0.1762923 0.3521925
vn 0.8206287 0.5514287 -0.1499829
vn 0.4112856 0.07386179 -0.908509
vn 0.4416074 0.8167437 0.3713659
vn 0.01710336 0.9228697 -0.3847322
g Icosphere_012_0
f 3/3/3 2/2/2 1/1/1
f 6/6/6 5/5/5 4/4/4
f 5/5/5 8/8/8 7/7/7
f 7/7/7 8/8/8 9/9/9
f 7/7/7 9/9/9 10/10/10
f 10/10/10 9/9/9 11/11/11
f 10/10/10 11/11/11 12/12/12
f 14/14/14 12/12/12 13/13/13
f 15/15/15 12/12/12 14/14/14
f 15/15/15 14/14/14 16/16/16
f 15/15/15 16/16/16 17/17/17
f 20/20/20 19/19/19 18/18/18
f 21/21/21 20/20/20 18/18/18
f 24/24/24 23/23/23 22/22/22
f 22/22/22 23/23/23 25/25/25
f 26/26/26 22/22/22 25/25/25
f 26/26/26 25/25/25 27/27/27
f 28/28/28 26/26/26 27/27/27
f 27/27/27 25/25/25 29/29/29
f 25/25/25 30/30/30 29/29/29
f 28/28/28 27/27/27 31/31/31
f 31/31/31 27/27/27 29/29/29
f 32/32/32 28/28/28 31/31/31
f 32/32/32 31/31/31 33/33/33
f 31/31/31 34/34/34 33/33/33
f 31/31/31 29/29/29 34/34/34
f 34/34/34 35/35/35 33/33/33
f 34/34/34 36/36/36 35/35/35
f 30/30/30 37/37/37 36/36/36
f 29/29/29 38/38/38 34/34/34
f 34/34/34 38/38/38 36/36/36
f 29/29/29 30/30/30 38/38/38
f 38/38/38 30/30/30 36/36/36
f 41/41/41 40/40/40 39/39/39
f 42/42/42 41/41/41 39/39/39
f 45/45/45 44/44/44 43/43/43
f 46/46/46 45/45/45 43/43/43
f 47/47/47 44/44/44 45/45/45
f 48/48/48 45/45/45 46/46/46
f 48/48/48 47/47/47 45/45/45
