g Icosphere_020
v 0.2377736 0.1448127 -0.2813629
v -0.4176314 -0.4211801 -0.1901777
v 0.6569721 -0.3471958 -0.6572484
v 0.2377736 0.1448127 -0.2813629
v -0.7526909 0.03000227 -0.2056285
v -0.4176314 -0.4211801 -0.1901777
v 0.2377736 0.1448127 -0.2813629
v 0.01980418 0.6755748 -0.1814276
v -0.7526909 0.03000227 -0.2056285
v 0.6569721 -0.3471958 -0.6572484
v 0.5861424 -0.447062 -0.01526795
v 0.509487 0.3846804 -0.5403426
v -0.4176314 -0.4211801 -0.1901777
v -0.1786848 -0.6208204 0.001126962
v 0.6569721 -0.3471958 -0.6572484
v -0.7526909 0.03000227 -0.2056285
v -0.8517972 -0.1889803 0.007827691
v -0.4176314 -0.4211801 -0.1901777
v 0.509487 0.3846804 -0.5403426
v 0.4437922 0.6471141 0.02664039
v 0.01980418 0.6755748 -0.1814276
v -0.7526909 0.03000227 -0.2056285
v -0.8111323 0.2362512 0.009738896
v -0.8517972 -0.1889803 0.007827691
v 0.01980418 0.6755748 -0.1814276
v 0.03394249 0.7802766 0.02664039
v -0.4772471 0.5534651 -0.1165848
v 0.1599899 -0.5564612 0.3897001
v 0.179148 -0.31786 0.6008307
v 0.6108269 -0.2088062 0.3690914
v 0.6108269 -0.2088062 0.3690914
v 0.226905 0.04819325 0.6952856
v 0.3550248 0.5066751 0.517866
v 0.3550248 0.5066751 0.517866
v 0.226905 0.04819325 0.6952856
v -0.4795958 0.373121 0.4807011
v 0.3550248 0.5066751 0.517866
v -0.4795958 0.373121 0.4807011
v 0.07748571 0.7188648 0.371394
v -0.4795958 0.373121 0.4807011
v 0.226905 0.04819325 0.6952856
v -0.5146192 -0.2763201 0.4893591
v -0.4795958 0.373121 0.4807011
v -0.5146192 -0.2763201 0.4893591
v -0.7437105 0.02116007 0.3596275
v -0.5146192 -0.2763201 0.4893591
v 0.226905 0.04819325 0.6952856
v 0.179148 -0.31786 0.6008307
v -0.5146192 -0.2763201 0.4893591
v 0.179148 -0.31786 0.6008307
v 0.1599899 -0.5564612 0.3897001
v 0.179148 -0.31786 0.6008307
v 0.226905 0.04819325 0.6952856
v 0.6108269 -0.2088062 0.3690914
v 0.509487 0.3846804 -0.5403426
v 0.6108269 -0.2088062 0.3690914
v 0.3550248 0.5066751 0.517866
v 0.509487 0.3846804 -0.5403426
v 0.3550248 0.5066751 0.517866
v 0.4437922 0.6471141 0.02664039
v 0.4437922 0.6471141 0.02664039
v 0.3550248 0.5066751 0.517866
v 0.07748571 0.7188648 0.371394
v 0.03394249 0.7802766 0.02664039
v 0.07748571 0.7188648 0.371394
v -0.4772471 0.5534651 -0.1165848
v -0.4772471 0.5534651 -0.1165848
v 0.07748571 0.7188648 0.371394
v -0.4795958 0.373121 0.4807011
v -0.8111323 0.2362512 0.009738896
v -0.4795958 0.373121 0.4807011
v -0.7437105 0.02116007 0.3596275
v -0.8111323 0.2362512 0.009738896
v -0.7437105 0.02116007 0.3596275
v -0.8517972 -0.1889803 0.007827691
v -0.8517972 -0.1889803 0.007827691
v -0.7437105 0.02116007 0.3596275
v -0.5146192 -0.2763201 0.4893591
v -0.1786848 -0.6208204 0.001126962
v -0.5146192 -0.2763201 0.4893591
v 0.1599899 -0.5564612 0.3897001
v 0.5861424 -0.447062 -0.01526795
v 0.1599899 -0.5564612 0.3897001
v 0.6108269 -0.2088062 0.3690914
v 0.4437922 0.6471141 0.02664039
v 0.07748571 0.7188648 0.371394
v 0.03394249 0.7802766 0.02664039
v 0.4437922 0.6471141 0.02664039
v 0.03394249 0.7802766 0.02664039
v 0.01980418 0.6755748 -0.1814276
v -0.4772471 0.5534651 -0.1165848
v -0.4795958 0.373121 0.4807011
v -0.8111323 0.2362512 0.009738896
v -0.4772471 0.5534651 -0.1165848
v -0.8111323 0.2362512 0.009738896
v -0.7526909 0.03000227 -0.2056285
v -0.8517972 -0.1889803 0.007827691
v -0.5146192 -0.2763201 0.4893591
v -0.1786848 -0.6208204 0.001126962
v -0.8517972 -0.1889803 0.007827691
v -0.1786848 -0.6208204 0.001126962
v -0.4176314 -0.4211801 -0.1901777
v -0.1786848 -0.6208204 0.001126962
v 0.1599899 -0.5564612 0.3897001
v 0.5861424 -0.447062 -0.01526795
v -0.1786848 -0.6208204 0.001126962
v 0.5861424 -0.447062 -0.01526795
v 0.6569721 -0.3471958 -0.6572484
v 0.5861424 -0.447062 -0.01526795
v 0.6108269 -0.2088062 0.3690914
v 0.509487 0.3846804 -0.5403426
v 0.2377736 0.1448127 -0.2813629
v 0.509487 0.3846804 -0.5403426
v 0.01980418 0.6755748 -0.1814276
v 0.01980418 0.6755748 -0.1814276
v -0.4772471 0.5534651 -0.1165848
v -0.7526909 0.03000227 -0.2056285
v 0.509487 0.3846804 -0.5403426
v 0.2377736 0.1448127 -0.2813629
v 0.6569721 -0.3471958 -0.6572484
vt 0.4575054 0.4136451
vt 0.4429571 0.4247449
vt 0.4573976 0.4222663
vt 0.4575054 0.4136451
vt 0.4425261 0.4303487
vt 0.4429571 0.4247449
vt 0.4575054 0.4136451
vt 0.4564277 0.4333661
vt 0.4425261 0.4303487
vt 0.4583675 0.4575054
vt 0.4609538 0.4811058
vt 0.4661265 0.4724846
vt 0.4429571 0.4247449
vt 0.4441426 0.4461901
vt 0.4573976 0.4222663
vt 0.4425261 0.4303487
vt 0.4390776 0.4502851
vt 0.4429571 0.4247449
vt 0.4651567 0.4372456
vt 0.4635402 0.452656
vt 0.4564277 0.4333661
vt 0.4425261 0.4303487
vt 0.4428494 0.4527637
vt 0.4390776 0.4502851
vt 0.4564277 0.4333661
vt 0.4570743 0.4540569
vt 0.4483454 0.4451124
vt 0.4499618 0.4682818
vt 0.452656 0.4859552
vt 0.461816 0.4701138
vt 0.461816 0.4701138
vt 0.4566433 0.4887571
vt 0.4606305 0.4789505
vt 0.4616004 0.5140818
vt 0.4576131 0.5238884
vt 0.4486687 0.5123576
vt 0.4616004 0.5140818
vt 0.4486687 0.5123576
vt 0.458152 0.506646
vt 0.4476988 0.4771186
vt 0.4566433 0.4887571
vt 0.4431727 0.4771186
vt 0.4476988 0.4771186
vt 0.4431727 0.4771186
vt 0.4422028 0.4725924
vt 0.4431727 0.4771186
vt 0.4566433 0.4887571
vt 0.452656 0.4859552
vt 0.4431727 0.4771186
vt 0.452656 0.4859552
vt 0.4499618 0.4682818
vt 0.452656 0.4859552
vt 0.4566433 0.4887571
vt 0.461816 0.4701138
vt 0.4651567 0.4372456
vt 0.461816 0.4701138
vt 0.4606305 0.4789505
vt 0.4651567 0.4372456
vt 0.4606305 0.4789505
vt 0.4635402 0.452656
vt 0.4635402 0.452656
vt 0.4606305 0.4789505
vt 0.4571821 0.4715148
vt 0.4570743 0.4540569
vt 0.4571821 0.4715148
vt 0.4483454 0.4451124
vt 0.4483454 0.4451124
vt 0.4571821 0.4715148
vt 0.4476988 0.4771186
vt 0.4428494 0.4527637
vt 0.4476988 0.4771186
vt 0.4422028 0.4725924
vt 0.4428494 0.4527637
vt 0.4422028 0.4725924
vt 0.4390776 0.4502851
vt 0.4400475 0.4854164
vt 0.4431727 0.5077237
vt 0.4441426 0.5122498
vt 0.4441426 0.4461901
vt 0.4431727 0.4771186
vt 0.4499618 0.4682818
vt 0.4609538 0.4811058
vt 0.4509317 0.5034131
vt 0.4627858 0.5052451
vt 0.4635402 0.452656
vt 0.4571821 0.4715148
vt 0.4570743 0.4540569
vt 0.4635402 0.452656
vt 0.4570743 0.4540569
vt 0.4564277 0.4333661
vt 0.4483454 0.4451124
vt 0.4476988 0.4771186
vt 0.4428494 0.4527637
vt 0.4483454 0.4451124
vt 0.4428494 0.4527637
vt 0.4425261 0.4303487
vt 0.4400475 0.4854164
vt 0.4441426 0.5122498
vt 0.4451124 0.4814291
vt 0.4390776 0.4502851
vt 0.4441426 0.4461901
vt 0.4429571 0.4247449
vt 0.4451124 0.4814291
vt 0.4509317 0.5034131
vt 0.4609538 0.4811058
vt 0.4451124 0.4814291
vt 0.4609538 0.4811058
vt 0.4583675 0.4575054
vt 0.4609538 0.4811058
vt 0.4627858 0.5052451
vt 0.4661265 0.4724846
vt 0.4575054 0.4136451
vt 0.4651567 0.4372456
vt 0.4564277 0.4333661
vt 0.4564277 0.4333661
vt 0.4483454 0.4451124
vt 0.4425261 0.4303487
vt 0.4651567 0.4372456
vt 0.4575054 0.4136451
vt 0.4573976 0.4222663
vn -0.3967069 0.3197873 -0.8604415
vn -0.3967069 0.3197873 -0.8604415
vn -0.3967069 0.3197873 -0.8604415
vn -0.06595263 -0.0801946 -0.9945949
vn -0.06595263 -0.0801946 -0.9945949
vn -0.06595263 -0.0801946 -0.9945949
vn -0.08902851 0.1505642 -0.9845834
vn -0.08902851 0.1505642 -0.9845834
vn -0.08902851 0.1505642 -0.9845834
vn 0.972462 0.1736401 0.1554567
vn 0.972462 0.1736401 0.1554567
vn 0.972462 0.1736401 0.1554567
vn -0.196716 -0.787855 -0.5835987
vn -0.196716 -0.787855 -0.5835987
vn -0.196716 -0.787855 -0.5835987
vn -0.5582381 -0.4340248 -0.7071016
vn -0.5582381 -0.4340248 -0.7071016
vn -0.5582381 -0.4340248 -0.7071016
vn 0.2494177 0.8889924 -0.3840356
vn 0.2494177 0.8889924 -0.3840356
vn 0.2494177 0.8889924 -0.3840356
vn -0.9351441 0.08902851 -0.3428985
vn -0.9351441 0.08902851 -0.3428985
vn -0.9351441 0.08902851 -0.3428985
vn -0.2659436 0.8659166 -0.4236303
vn -0.2659436 0.8659166 -0.4236303
vn -0.2659436 0.8659166 -0.4236303
vn 0.4878685 -0.595556 0.6381986
vn 0.4878685 -0.595556 0.6381986
vn 0.4878685 -0.595556 0.6381986
vn 0.6801675 0.08902851 0.7276305
vn 0.6801675 0.08902851 0.7276305
vn 0.6801675 0.08902851 0.7276305
vn -0.1044124 0.381323 0.9185264
vn -0.1044124 0.381323 0.9185264
vn -0.1044124 0.381323 0.9185264
vn -0.1121044 0.4582426 0.8817291
vn -0.1121044 0.4582426 0.8817291
vn -0.1121044 0.4582426 0.8817291
vn -0.2813275 0.02749283 0.9592179
vn -0.2813275 0.02749283 0.9592179
vn -0.2813275 0.02749283 0.9592179
vn -0.4582426 0.0351848 0.8881305
vn -0.4582426 0.0351848 0.8881305
vn -0.4582426 0.0351848 0.8881305
vn -0.1659481 -0.2263419 0.9598076
vn -0.1659481 -0.2263419 0.9598076
vn -0.1659481 -0.2263419 0.9598076
vn -0.1582562 -0.6493996 0.7437977
vn -0.1582562 -0.6493996 0.7437977
vn -0.1582562 -0.6493996 0.7437977
vn 0.5109444 -0.2801856 0.8126696
vn 0.5109444 -0.2801856 0.8126696
vn 0.5109444 -0.2801856 0.8126696
vn 0.9416941 0.3197873 0.1046338
vn 0.9416941 0.3197873 0.1046338
vn 0.9416941 0.3197873 0.1046338
vn 0.9878458 -0.08788656 0.1282047
vn 0.9878458 -0.08788656 0.1282047
vn 0.9878458 -0.08788656 0.1282047
vn 0.4647926 0.8274567 0.3150924
vn 0.4647926 0.8274567 0.3150924
vn 0.4647926 0.8274567 0.3150924
vn -0.4428587 0.8736085 0.2017037
vn -0.4428587 0.8736085 0.2017037
vn -0.4428587 0.8736085 0.2017037
vn -0.4736265 0.8428406 0.255534
vn -0.4736265 0.8428406 0.255534
vn -0.4736265 0.8428406 0.255534
vn -0.7889968 0.4428587 0.4258639
vn -0.7889968 0.4428587 0.4258639
vn -0.7889968 0.4428587 0.4258639
vn -0.9659119 0.08902851 0.2430802
vn -0.9659119 0.08902851 0.2430802
vn -0.9659119 0.08902851 0.2430802
vn -0.781305 -0.395565 0.4827949
vn -0.781305 -0.395565 0.4827949
vn -0.781305 -0.395565 0.4827949
vn -0.2967114 -0.8647745 0.4051263
vn -0.2967114 -0.8647745 0.4051263
vn -0.2967114 -0.8647745 0.4051263
vn 0.5724801 -0.7109354 0.4084574
vn 0.5724801 -0.7109354 0.4084574
vn 0.5724801 -0.7109354 0.4084574
vn 0.3032615 0.9428361 0.1381758
vn 0.3032615 0.9428361 0.1381758
vn 0.3032615 0.9428361 0.1381758
vn 0.2801856 0.8505326 -0.4450735
vn 0.2801856 0.8505326 -0.4450735
vn 0.2801856 0.8505326 -0.4450735
vn -0.6274657 0.7505371 0.2073182
vn -0.6274657 0.7505371 0.2073182
vn -0.6274657 0.7505371 0.2073182
vn -0.6582335 0.4505506 -0.6031026
vn -0.6582335 0.4505506 -0.6031026
vn -0.6582335 0.4505506 -0.6031026
vn -0.5274702 -0.8186227 0.2272266
vn -0.5274702 -0.8186227 0.2272266
vn -0.5274702 -0.8186227 0.2272266
vn -0.5274702 -0.8263147 -0.1974313
vn -0.5274702 -0.8263147 -0.1974313
vn -0.5274702 -0.8263147 -0.1974313
vn 0.2186499 -0.972462 -0.08068395
vn 0.2186499 -0.972462 -0.08068395
vn 0.2186499 -0.972462 -0.08068395
vn 0.2186499 -0.96477 -0.1463252
vn 0.2186499 -0.96477 -0.1463252
vn 0.2186499 -0.96477 -0.1463252
vn 0.9955379 0.0351848 -0.0875578
vn 0.9955379 0.0351848 -0.0875578
vn 0.9955379 0.0351848 -0.0875578
vn -0.6274657 -0.1109624 -0.7706971
vn -0.6274657 -0.1109624 -0.7706971
vn -0.6274657 -0.1109624 -0.7706971
vn -0.189024 0.2582516 -0.9474049
vn -0.189024 0.2582516 -0.9474049
vn -0.189024 0.2582516 -0.9474049
vn -0.6813095 -0.01865893 -0.7317577
vn -0.6813095 -0.01865893 -0.7317577
vn -0.6813095 -0.01865893 -0.7317577
g Icosphere_020_0
f 3/3/3 2/2/2 1/1/1
f 6/6/6 5/5/5 4/4/4
f 9/9/9 8/8/8 7/7/7
f 12/12/12 11/11/11 10/10/10
f 15/15/15 14/14/14 13/13/13
f 18/18/18 17/17/17 16/16/16
f 21/21/21 20/20/20 19/19/19
f 24/24/24 23/23/23 22/22/22
f 27/27/27 26/26/26 25/25/25
f 30/30/30 29/29/29 28/28/28
f 33/33/33 32/32/32 31/31/31
f 36/36/36 35/35/35 34/34/34
f 39/39/39 38/38/38 37/37/37
f 42/42/42 41/41/41 40/40/40
f 45/45/45 44/44/44 43/43/43
f 48/48/48 47/47/47 46/46/46
f 51/51/51 50/50/50 49/49/49
f 54/54/54 53/53/53 52/52/52
f 57/57/57 56/56/56 55/55/55
f 60/60/60 59/59/59 58/58/58
f 63/63/63 62/62/62 61/61/61
f 66/66/66 65/65/65 64/64/64
f 69/69/69 68/68/68 67/67/67
f 72/72/72 71/71/71 70/70/70
f 75/75/75 74/74/74 73/73/73
f 78/78/78 77/77/77 76/76/76
f 81/81/81 80/80/80 79/79/79
f 84/84/84 83/83/83 82/82/82
f 87/87/87 86/86/86 85/85/85
f 90/90/90 89/89/89 88/88/88
f 93/93/93 92/92/92 91/91/91
f 96/96/96 95/95/95 94/94/94
f 99/99/99 98/98/98 97/97/97
f 102/102/102 101/101/101 100/100/100
f 105/105/105 104/104/104 103/103/103
f 108/108/108 107/107/107 106/106/106
f 111/111/111 110/110/110 109/109/109
f 114/114/114 113/113/113 112/112/112
f 117/117/117 116/116/116 115/115/115
f 120/120/120 119/119/119 118/118/118
