g lunar_rover_base_FR
v -0.9268525 0.411946 0.6978581
v -0.9268525 0.3867963 0.8646401
v -0.9268525 0.2795793 0.8844951
v -0.9268525 0.1908936 0.7375681
v -0.9268525 0.04529023 1.134668
v -0.9268525 0.2795793 1.159818
v -0.9268525 0.1908936 1.306745
v -0.9268525 0.2107486 1.076427
v -0.9268525 0.04529023 0.9096448
v -0.9268525 0.2107486 0.9678861
v -0.9268525 0.6065251 1.23262
v -0.9268525 0.4821004 1.124079
v -0.9268525 0.519163 1.022156
v -0.9268525 0.6832978 1.022156
v -0.9268525 0.6065251 0.8103698
v -0.9268525 0.4821004 0.9202341
v -0.9268525 0.3867963 0.8646401
v -0.9268525 0.411946 0.6978581
v -0.9268525 0.411946 1.345131
v -0.9268525 0.3867963 1.178349
v -0.9268525 0.4821004 1.124079
v -0.9268525 0.6065251 1.23262
v -0.9268525 0.6832978 1.022156
v -0.9268525 0.519163 1.022156
v -0.9268525 0.4821004 0.9202341
v -0.9268525 0.6065251 0.8103698
v -0.9268525 0.1908936 0.7375681
v -0.9268525 0.2795793 0.8844951
v -0.9268525 0.2107486 0.9678861
v -0.9268525 0.04529023 0.9096448
v -0.9268525 0.1908936 1.306745
v -0.9268525 0.2795793 1.159818
v -0.9268525 0.3867963 1.178349
v -0.9268525 0.411946 1.345131
v -0.8236064 0.6263801 1.251151
v -0.8236064 0.7097711 1.022156
v -0.7203604 0.6832978 1.022156
v -0.7203604 0.6065251 1.23262
v -0.8236064 0.6263801 0.7931621
v -0.8236064 0.415917 0.6713848
v -0.7203604 0.411946 0.6978581
v -0.7203604 0.6065251 0.8103698
v -0.8236064 0.01881689 0.9003791
v -0.8236064 0.01881689 1.143934
v -0.7203604 0.04529023 1.134668
v -0.7203604 0.04529023 0.9096448
v -0.8236064 0.415917 1.372928
v -0.8236064 0.6263801 1.251151
v -0.7203604 0.6065251 1.23262
v -0.7203604 0.411946 1.345131
v -0.8236064 0.7097711 1.022156
v -0.8236064 0.6263801 0.7931621
v -0.7203604 0.6065251 0.8103698
v -0.7203604 0.6832978 1.022156
v -0.8236064 0.1750096 0.7137421
v -0.8236064 0.01881689 0.9003791
v -0.7203604 0.04529023 0.9096448
v -0.7203604 0.1908936 0.7375681
v -0.8236064 0.1750096 1.330571
v -0.8236064 0.415917 1.372928
v -0.7203604 0.411946 1.345131
v -0.7203604 0.1908936 1.306745
v -0.8236064 0.415917 0.6713848
v -0.8236064 0.1750096 0.7137421
v -0.7203604 0.1908936 0.7375681
v -0.7203604 0.411946 0.6978581
v -0.8236064 0.01881689 1.143934
v -0.8236064 0.1750096 1.330571
v -0.7203604 0.1908936 1.306745
v -0.7203604 0.04529023 1.134668
v -0.9268525 0.04529023 1.134668
v -0.9268525 0.1908936 1.306745
v -0.8236064 0.1750096 1.330571
v -0.8236064 0.01881689 1.143934
v -0.9268525 0.411946 0.6978581
v -0.9268525 0.1908936 0.7375681
v -0.8236064 0.1750096 0.7137421
v -0.8236064 0.415917 0.6713848
v -0.9268525 0.1908936 1.306745
v -0.9268525 0.411946 1.345131
v -0.8236064 0.415917 1.372928
v -0.8236064 0.1750096 1.330571
v -0.9268525 0.1908936 0.7375681
v -0.9268525 0.04529023 0.9096448
v -0.8236064 0.01881689 0.9003791
v -0.8236064 0.1750096 0.7137421
v -0.9268525 0.6832978 1.022156
v -0.9268525 0.6065251 0.8103698
v -0.8236064 0.6263801 0.7931621
v -0.8236064 0.7097711 1.022156
v -0.9268525 0.411946 1.345131
v -0.9268525 0.6065251 1.23262
v -0.8236064 0.6263801 1.251151
v -0.8236064 0.415917 1.372928
v -0.9268525 0.04529023 0.9096448
v -0.9268525 0.04529023 1.134668
v -0.8236064 0.01881689 1.143934
v -0.8236064 0.01881689 0.9003791
v -0.9268525 0.6065251 0.8103698
v -0.9268525 0.411946 0.6978581
v -0.8236064 0.415917 0.6713848
v -0.8236064 0.6263801 0.7931621
v -0.9268525 0.6065251 1.23262
v -0.9268525 0.6832978 1.022156
v -0.8236064 0.7097711 1.022156
v -0.8236064 0.6263801 1.251151
v -0.7203604 0.1908936 0.7375681
v -0.7203604 0.04529023 0.9096448
v -0.7203604 0.04529023 1.134668
v -0.7203604 0.1908936 1.306745
v -0.7203604 0.411946 1.345131
v -0.7203604 0.411946 0.6978581
v -0.7203604 0.6065251 0.8103698
v -0.7203604 0.6065251 1.23262
v -0.7203604 0.6832978 1.022156
v -0.9268525 0.4821004 0.9202341
v -0.9069975 0.4410667 0.9559731
v -0.9069975 0.3788543 0.9202341
v -0.9268525 0.3867963 0.8646401
v -0.9268525 0.2107486 0.9678861
v -0.9069975 0.2636953 0.9864175
v -0.9069975 0.2636953 1.057895
v -0.9268525 0.2107486 1.076427
v -0.9268525 0.3867963 1.178349
v -0.9069975 0.3788543 1.124079
v -0.9069975 0.4410667 1.08834
v -0.9268525 0.4821004 1.124079
v -0.9268525 0.519163 1.022156
v -0.9069975 0.4648927 1.022156
v -0.9069975 0.4410667 0.9559731
v -0.9268525 0.4821004 0.9202341
v -0.9268525 0.2795793 0.8844951
v -0.9069975 0.3100236 0.9321471
v -0.9069975 0.2636953 0.9864175
v -0.9268525 0.2107486 0.9678861
v -0.9268525 0.2795793 1.159818
v -0.9069975 0.3100236 1.112166
v -0.9069975 0.3788543 1.124079
v -0.9268525 0.3867963 1.178349
v -0.9268525 0.3867963 0.8646401
v -0.9069975 0.3788543 0.9202341
v -0.9069975 0.3100236 0.9321471
v -0.9268525 0.2795793 0.8844951
v -0.9268525 0.2107486 1.076427
v -0.9069975 0.2636953 1.057895
v -0.9069975 0.3100236 1.112166
v -0.9268525 0.2795793 1.159818
v -0.9268525 0.4821004 1.124079
v -0.9069975 0.4410667 1.08834
v -0.9069975 0.4648927 1.022156
v -0.9268525 0.519163 1.022156
v -0.9069975 0.4648927 1.022156
v -0.9069975 0.3788543 0.9202341
v -0.9069975 0.4410667 0.9559731
v -0.9069975 0.3100236 0.9321471
v -0.9069975 0.2636953 0.9864175
v -0.9069975 0.2636953 1.057895
v -0.9069975 0.3100236 1.112166
v -0.9069975 0.4410667 1.08834
v -0.9069975 0.3788543 1.124079
vt 0.503855 0.44318
vt 0.4865193 0.463405
vt 0.4980764 0.4778514
vt 0.5211907 0.463405
vt 0.3738371 0.4807407
vt 0.4085085 0.4720728
vt 0.3882836 0.4547371
vt 0.3998407 0.4894086
vt 0.3651693 0.5154121
vt 0.3998407 0.5096335
vt 0.4345121 0.4258443
vt 0.4402907 0.4489585
vt 0.4547371 0.4460692
vt 0.4576264 0.4258443
vt 0.4807407 0.4316228
vt 0.4720728 0.4518479
vt 0.4865193 0.463405
vt 0.503855 0.44318
vt 0.4085085 0.4374014
vt 0.422955 0.4576264
vt 0.4402907 0.4489585
vt 0.4345121 0.4258443
vt 0.4576264 0.4258443
vt 0.4547371 0.4460692
vt 0.4720728 0.4518479
vt 0.4807407 0.4316228
vt 0.5211907 0.463405
vt 0.4980764 0.4778514
vt 0.503855 0.4980764
vt 0.5356371 0.4951871
vt 0.3882836 0.4547371
vt 0.4085085 0.4720728
vt 0.422955 0.4576264
vt 0.4085085 0.4374014
vt 0.4287335 0.4142871
vt 0.4576264 0.4113978
vt 0.4576264 0.3998407
vt 0.4258443 0.3998407
vt 0.4865193 0.4171764
vt 0.5125228 0.4316228
vt 0.5211907 0.4200657
vt 0.4894086 0.4056193
vt 0.3449443 0.5125228
vt 0.3593907 0.4720728
vt 0.342055 0.463405
vt 0.3247193 0.503855
vt 0.40273 0.4258443
vt 0.4287335 0.4142871
vt 0.4258443 0.3998407
vt 0.3940621 0.4113978
vt 0.4576264 0.4113978
vt 0.4865193 0.4171764
vt 0.4894086 0.4056193
vt 0.4576264 0.3998407
vt 0.5327478 0.4547371
vt 0.5529729 0.4894086
vt 0.5703086 0.4778514
vt 0.5471942 0.4460692
vt 0.3767264 0.4460692
vt 0.40273 0.4258443
vt 0.3940621 0.4113978
vt 0.3651693 0.4345121
vt 0.5125228 0.4316228
vt 0.5327478 0.4547371
vt 0.5471942 0.4460692
vt 0.5211907 0.4200657
vt 0.3593907 0.4720728
vt 0.3767264 0.4460692
vt 0.3651693 0.4345121
vt 0.342055 0.463405
vt 0.3738371 0.4807407
vt 0.3882836 0.4547371
vt 0.3767264 0.4460692
vt 0.3593907 0.4720728
vt 0.503855 0.44318
vt 0.5211907 0.463405
vt 0.5327478 0.4547371
vt 0.5125228 0.4316228
vt 0.3882836 0.4547371
vt 0.4085085 0.4374014
vt 0.40273 0.4258443
vt 0.3767264 0.4460692
vt 0.5211907 0.463405
vt 0.5356371 0.4951871
vt 0.5529729 0.4894086
vt 0.5327478 0.4547371
vt 0.4576264 0.4258443
vt 0.4807407 0.4316228
vt 0.4865193 0.4171764
vt 0.4576264 0.4113978
vt 0.4085085 0.4374014
vt 0.4345121 0.4258443
vt 0.4287335 0.4142871
vt 0.40273 0.4258443
vt 0.3651693 0.5154121
vt 0.3738371 0.4807407
vt 0.3593907 0.4720728
vt 0.3449443 0.5125228
vt 0.4807407 0.4316228
vt 0.503855 0.44318
vt 0.5125228 0.4316228
vt 0.4865193 0.4171764
vt 0.4345121 0.4258443
vt 0.4576264 0.4258443
vt 0.4576264 0.4113978
vt 0.4287335 0.4142871
vt 0.2871585 0.5211907
vt 0.3247193 0.503855
vt 0.342055 0.463405
vt 0.3304978 0.422955
vt 0.2958264 0.3998407
vt 0.2467086 0.5096335
vt 0.220705 0.4749621
vt 0.2524871 0.40273
vt 0.2235943 0.4345121
vt 0.9401371 0.4576264
vt 0.9372478 0.4662943
vt 0.9459156 0.4720728
vt 0.9545835 0.4691836
vt 0.9488049 0.5009657
vt 0.9430264 0.4922978
vt 0.9314692 0.4980764
vt 0.9314692 0.5067443
vt 0.9054657 0.4865193
vt 0.9141335 0.48363
vt 0.9170228 0.4720728
vt 0.9083549 0.4691836
vt 0.9228014 0.4576264
vt 0.9256907 0.4662943
vt 0.9372478 0.4662943
vt 0.9401371 0.4576264
vt 0.9574728 0.4865193
vt 0.9488049 0.48363
vt 0.9430264 0.4922978
vt 0.9488049 0.5009657
vt 0.9141335 0.5009657
vt 0.9199121 0.4922978
vt 0.9141335 0.48363
vt 0.9054657 0.4865193
vt 0.9545835 0.4691836
vt 0.9459156 0.4720728
vt 0.9488049 0.48363
vt 0.9574728 0.4865193
vt 0.9314692 0.5067443
vt 0.9314692 0.4980764
vt 0.9199121 0.4922978
vt 0.9141335 0.5009657
vt 0.9083549 0.4691836
vt 0.9170228 0.4720728
vt 0.9256907 0.4662943
vt 0.9228014 0.4576264
vt 0.9256907 0.4662943
vt 0.9459156 0.4720728
vt 0.9372478 0.4662943
vt 0.9488049 0.48363
vt 0.9430264 0.4922978
vt 0.9314692 0.4980764
vt 0.9199121 0.4922978
vt 0.9170228 0.4720728
vt 0.9141335 0.48363
vn -0.999874 0.01587105 -0.0003439156
vn -0.999874 0.01587105 -0.0003439156
vn -0.999874 0.01587105 -0.0003439156
vn -0.999874 0.01587105 -0.0003439156
vn -0.999874 0.01587105 -0.0003439156
vn -0.999874 0.01587105 -0.0003439156
vn -0.999874 0.01587105 -0.0003439156
vn -0.999874 0.01587105 -0.0003439156
vn -0.999874 0.01587105 -0.0003439156
vn -0.999874 0.01587105 -0.0003439156
vn -0.999874 -0.01587099 -0.000346655
vn -0.999874 -0.01587099 -0.000346655
vn -0.999874 -0.01587099 -0.000346655
vn -0.999874 -0.01587099 -0.000346655
vn -0.999874 0.01587105 -0.0003439156
vn -0.999874 0.01587105 -0.0003439156
vn -0.999874 0.01587105 -0.0003439156
vn -0.999874 0.01587105 -0.0003439156
vn -0.999874 -0.01587099 -0.000346655
vn -0.999874 -0.01587099 -0.000346655
vn -0.999874 -0.01587099 -0.000346655
vn -0.999874 -0.01587099 -0.000346655
vn -0.999874 -0.01587099 -0.000346655
vn -0.999874 -0.01587099 -0.000346655
vn -0.999874 -0.01587099 -0.000346655
vn -0.999874 -0.01587099 -0.000346655
vn -0.999874 0.01587105 -0.0003439156
vn -0.999874 0.01587105 -0.0003439156
vn -0.999874 0.01587105 -0.0003439156
vn -0.999874 0.01587105 -0.0003439156
vn -0.999874 -0.01587099 -0.000346655
vn -0.999874 -0.01587099 -0.000346655
vn -0.999874 -0.01587099 -0.000346655
vn -0.999874 -0.01587099 -0.000346655
vn 0.2380652 0.9046479 0.3534643
vn 0.2380652 0.9046479 0.3534643
vn 0.2380652 0.9046479 0.3534643
vn 0.2380652 0.9046479 0.3534643
vn 0.2380652 0.4920015 -0.8374124
vn 0.2380652 0.4920015 -0.8374124
vn 0.2380652 0.4920015 -0.8374124
vn 0.2380652 0.4920015 -0.8374124
vn 0.2380652 -0.968132 -0.07775256
vn 0.2380652 -0.968132 -0.07775256
vn 0.2380652 -0.968132 -0.07775256
vn 0.2380652 -0.968132 -0.07775256
vn 0.2380652 0.4920015 0.8374124
vn 0.2380652 0.4920015 0.8374124
vn 0.2380652 0.4920015 0.8374124
vn 0.2380652 0.4920015 0.8374124
vn 0.2380652 0.9046479 -0.3534643
vn 0.2380652 0.9046479 -0.3534643
vn 0.2380652 0.9046479 -0.3534643
vn 0.2380652 0.9046479 -0.3534643
vn 0.2380652 -0.7459377 -0.6220143
vn 0.2380652 -0.7459377 -0.6220143
vn 0.2380652 -0.7459377 -0.6220143
vn 0.2380652 -0.7459377 -0.6220143
vn 0.2380652 -0.1745812 0.9554299
vn 0.2380652 -0.1745812 0.9554299
vn 0.2380652 -0.1745812 0.9554299
vn 0.2380652 -0.1745812 0.9554299
vn 0.2380652 -0.1745812 -0.9554299
vn 0.2380652 -0.1745812 -0.9554299
vn 0.2380652 -0.1745812 -0.9554299
vn 0.2380652 -0.1745812 -0.9554299
vn 0.2380652 -0.7459377 0.6220143
vn 0.2380652 -0.7459377 0.6220143
vn 0.2380652 -0.7459377 0.6220143
vn 0.2380652 -0.7459377 0.6220143
vn -0.2380652 -0.7459377 0.6220143
vn -0.2380652 -0.7459377 0.6220143
vn -0.2380652 -0.7459377 0.6220143
vn -0.2380652 -0.7459377 0.6220143
vn -0.2380652 -0.1745812 -0.9554299
vn -0.2380652 -0.1745812 -0.9554299
vn -0.2380652 -0.1745812 -0.9554299
vn -0.2380652 -0.1745812 -0.9554299
vn -0.2380652 -0.1745812 0.9554299
vn -0.2380652 -0.1745812 0.9554299
vn -0.2380652 -0.1745812 0.9554299
vn -0.2380652 -0.1745812 0.9554299
vn -0.2380652 -0.7459377 -0.6220143
vn -0.2380652 -0.7459377 -0.6220143
vn -0.2380652 -0.7459377 -0.6220143
vn -0.2380652 -0.7459377 -0.6220143
vn -0.2380652 0.9046479 -0.3534643
vn -0.2380652 0.9046479 -0.3534643
vn -0.2380652 0.9046479 -0.3534643
vn -0.2380652 0.9046479 -0.3534643
vn -0.2380652 0.4920015 0.8374124
vn -0.2380652 0.4920015 0.8374124
vn -0.2380652 0.4920015 0.8374124
vn -0.2380652 0.4920015 0.8374124
vn -0.2380652 -0.968132 -0.07775256
vn -0.2380652 -0.968132 -0.07775256
vn -0.2380652 -0.968132 -0.07775256
vn -0.2380652 -0.968132 -0.07775256
vn -0.2380652 0.4920015 -0.8374124
vn -0.2380652 0.4920015 -0.8374124
vn -0.2380652 0.4920015 -0.8374124
vn -0.2380652 0.4920015 -0.8374124
vn -0.2380652 0.9046479 0.3534643
vn -0.2380652 0.9046479 0.3534643
vn -0.2380652 0.9046479 0.3534643
vn -0.2380652 0.9046479 0.3534643
vn 0.999874 0.01587105 -0.0003439156
vn 0.999874 0.01587105 -0.0003439156
vn 0.999874 0.01587105 -0.0003439156
vn 0.999874 0.01587105 -0.0003439156
vn 0.999874 0.01587105 -0.0003439156
vn 0.999874 0.01587105 -0.0003439156
vn 0.999874 0.01587105 -0.0003439156
vn 0.999874 0.01587105 -0.0003439156
vn 0.999874 0.01587105 -0.0003439156
vn -0.9363899 -0.1745812 0.304459
vn -0.9363899 -0.1745812 0.304459
vn -0.9363899 -0.1745812 0.304459
vn -0.9363899 -0.1745812 0.304459
vn -0.931708 0.3632082 0
vn -0.931708 0.3632082 0
vn -0.931708 0.3632082 0
vn -0.931708 0.3632082 0
vn -0.9363899 -0.1745812 -0.304459
vn -0.9363899 -0.1745812 -0.304459
vn -0.9363899 -0.1745812 -0.304459
vn -0.9363899 -0.1745812 -0.304459
vn -0.931708 -0.3632082 0
vn -0.931708 -0.3632082 0
vn -0.931708 -0.3632082 0
vn -0.931708 -0.3632082 0
vn -0.9363899 0.2698073 0.2244502
vn -0.9363899 0.2698073 0.2244502
vn -0.9363899 0.2698073 0.2244502
vn -0.9363899 0.2698073 0.2244502
vn -0.9363899 0.07935512 -0.3418723
vn -0.9363899 0.07935512 -0.3418723
vn -0.9363899 0.07935512 -0.3418723
vn -0.9363899 0.07935512 -0.3418723
vn -0.9363899 0.07935512 0.3418723
vn -0.9363899 0.07935512 0.3418723
vn -0.9363899 0.07935512 0.3418723
vn -0.9363899 0.07935512 0.3418723
vn -0.9363899 0.2698073 -0.2244502
vn -0.9363899 0.2698073 -0.2244502
vn -0.9363899 0.2698073 -0.2244502
vn -0.9363899 0.2698073 -0.2244502
vn -0.931708 -0.3632082 0
vn -0.931708 -0.3632082 0
vn -0.931708 -0.3632082 0
vn -0.931708 -0.3632082 0
vn -0.999874 0.01587105 -0.0003439156
vn -0.999874 0.01587105 -0.0003439156
vn -0.999874 0.01587105 -0.0003439156
vn -0.999874 0.01587105 -0.0003439156
vn -0.999874 0.01587105 -0.0003439156
vn -0.999874 0.01587105 -0.0003439156
vn -0.999874 0.01587105 -0.0003439156
vn -0.999874 0.01587105 -0.0003439156
vn -0.999874 0.01587105 -0.0003439156
g lunar_rover_base_FR_0
f 3/3/3 2/2/2 1/1/1
f 4/4/4 3/3/3 1/1/1
f 7/7/7 6/6/6 5/5/5
f 6/6/6 8/8/8 5/5/5
f 5/5/5 8/8/8 9/9/9
f 8/8/8 10/10/10 9/9/9
f 13/13/13 12/12/12 11/11/11
f 14/14/14 13/13/13 11/11/11
f 17/17/17 16/16/16 15/15/15
f 18/18/18 17/17/17 15/15/15
f 21/21/21 20/20/20 19/19/19
f 22/22/22 21/21/21 19/19/19
f 25/25/25 24/24/24 23/23/23
f 26/26/26 25/25/25 23/23/23
f 29/29/29 28/28/28 27/27/27
f 30/30/30 29/29/29 27/27/27
f 33/33/33 32/32/32 31/31/31
f 34/34/34 33/33/33 31/31/31
f 37/37/37 36/36/36 35/35/35
f 38/38/38 37/37/37 35/35/35
f 41/41/41 40/40/40 39/39/39
f 42/42/42 41/41/41 39/39/39
f 45/45/45 44/44/44 43/43/43
f 46/46/46 45/45/45 43/43/43
f 49/49/49 48/48/48 47/47/47
f 50/50/50 49/49/49 47/47/47
f 53/53/53 52/52/52 51/51/51
f 54/54/54 53/53/53 51/51/51
f 57/57/57 56/56/56 55/55/55
f 58/58/58 57/57/57 55/55/55
f 61/61/61 60/60/60 59/59/59
f 62/62/62 61/61/61 59/59/59
f 65/65/65 64/64/64 63/63/63
f 66/66/66 65/65/65 63/63/63
f 69/69/69 68/68/68 67/67/67
f 70/70/70 69/69/69 67/67/67
f 73/73/73 72/72/72 71/71/71
f 74/74/74 73/73/73 71/71/71
f 77/77/77 76/76/76 75/75/75
f 78/78/78 77/77/77 75/75/75
f 81/81/81 80/80/80 79/79/79
f 82/82/82 81/81/81 79/79/79
f 85/85/85 84/84/84 83/83/83
f 86/86/86 85/85/85 83/83/83
f 89/89/89 88/88/88 87/87/87
f 90/90/90 89/89/89 87/87/87
f 93/93/93 92/92/92 91/91/91
f 94/94/94 93/93/93 91/91/91
f 97/97/97 96/96/96 95/95/95
f 98/98/98 97/97/97 95/95/95
f 101/101/101 100/100/100 99/99/99
f 102/102/102 101/101/101 99/99/99
f 105/105/105 104/104/104 103/103/103
f 106/106/106 105/105/105 103/103/103
f 109/109/109 108/108/108 107/107/107
f 107/107/107 110/110/110 109/109/109
f 107/107/107 111/111/111 110/110/110
f 107/107/107 112/112/112 111/111/111
f 112/112/112 113/113/113 111/111/111
f 113/113/113 114/114/114 111/111/111
f 113/113/113 115/115/115 114/114/114
g lunar_rover_base_FR_1
f 118/118/118 117/117/117 116/116/116
f 119/119/119 118/118/118 116/116/116
f 122/122/122 121/121/121 120/120/120
f 123/123/123 122/122/122 120/120/120
f 126/126/126 125/125/125 124/124/124
f 127/127/127 126/126/126 124/124/124
f 130/130/130 129/129/129 128/128/128
f 131/131/131 130/130/130 128/128/128
f 134/134/134 133/133/133 132/132/132
f 135/135/135 134/134/134 132/132/132
f 138/138/138 137/137/137 136/136/136
f 139/139/139 138/138/138 136/136/136
f 142/142/142 141/141/141 140/140/140
f 143/143/143 142/142/142 140/140/140
f 146/146/146 145/145/145 144/144/144
f 147/147/147 146/146/146 144/144/144
f 150/150/150 149/149/149 148/148/148
f 151/151/151 150/150/150 148/148/148
f 154/154/154 153/153/153 152/152/152
f 153/153/153 155/155/155 152/152/152
f 152/152/152 155/155/155 156/156/156
f 152/152/152 156/156/156 157/157/157
f 157/157/157 158/158/158 152/152/152
f 152/152/152 158/158/158 159/159/159
f 158/158/158 160/160/160 159/159/159
