g lunar_rover_base_BR
v -0.9274129 0.4115902 -1.349866
v -0.9274129 0.3868127 -1.18318
v -0.9274129 0.2809451 -1.162908
v -0.9274129 0.1908451 -1.311573
v -0.9274129 0.04668498 -0.9128804
v -0.9274129 0.2809451 -0.8881029
v -0.9274129 0.1908451 -0.7416903
v -0.9274129 0.2111176 -0.9714454
v -0.9274129 0.04668498 -1.13813
v -0.9274129 0.2111176 -1.079565
v -0.9274129 0.6053052 -0.8137703
v -0.9274129 0.4814177 -0.9241428
v -0.9274129 0.5197102 -1.025505
v -0.9274129 0.6841427 -1.025505
v -0.9274129 0.6053052 -1.237241
v -0.9274129 0.4814177 -1.12912
v -0.9274129 0.3868127 -1.18318
v -0.9274129 0.4115902 -1.349866
v -0.9274129 0.4115902 -0.7033978
v -0.9274129 0.3868127 -0.8700829
v -0.9274129 0.4814177 -0.9241428
v -0.9274129 0.6053052 -0.8137703
v -0.9274129 0.6841427 -1.025505
v -0.9274129 0.5197102 -1.025505
v -0.9274129 0.4814177 -1.12912
v -0.9274129 0.6053052 -1.237241
v -0.9274129 0.1908451 -1.311573
v -0.9274129 0.2809451 -1.162908
v -0.9274129 0.2111176 -1.079565
v -0.9274129 0.04668498 -1.13813
v -0.9274129 0.1908451 -0.7416903
v -0.9274129 0.2809451 -0.8881029
v -0.9274129 0.3868127 -0.8700829
v -0.9274129 0.4115902 -0.7033978
v -0.8237978 0.6255778 -0.7957503
v -0.8237978 0.7111727 -1.025505
v -0.7201828 0.6841427 -1.025505
v -0.7201828 0.6053052 -0.8137703
v -0.8237978 0.6255778 -1.25526
v -0.8237978 0.4160951 -1.376896
v -0.7201828 0.4115902 -1.349866
v -0.7201828 0.6053052 -1.237241
v -0.8237978 0.01965499 -1.147141
v -0.8237978 0.01965499 -0.9038703
v -0.7201828 0.04668498 -0.9128804
v -0.7201828 0.04668498 -1.13813
v -0.8237978 0.4160951 -0.6741152
v -0.8237978 0.6255778 -0.7957503
v -0.7201828 0.6053052 -0.8137703
v -0.7201828 0.4115902 -0.7033978
v -0.8237978 0.7111727 -1.025505
v -0.8237978 0.6255778 -1.25526
v -0.7201828 0.6053052 -1.237241
v -0.7201828 0.6841427 -1.025505
v -0.8237978 0.1750776 -1.334098
v -0.8237978 0.01965499 -1.147141
v -0.7201828 0.04668498 -1.13813
v -0.7201828 0.1908451 -1.311573
v -0.8237978 0.1750776 -0.7169128
v -0.8237978 0.4160951 -0.6741152
v -0.7201828 0.4115902 -0.7033978
v -0.7201828 0.1908451 -0.7416903
v -0.8237978 0.4160951 -1.376896
v -0.8237978 0.1750776 -1.334098
v -0.7201828 0.1908451 -1.311573
v -0.7201828 0.4115902 -1.349866
v -0.8237978 0.01965499 -0.9038703
v -0.8237978 0.1750776 -0.7169128
v -0.7201828 0.1908451 -0.7416903
v -0.7201828 0.04668498 -0.9128804
v -0.9274129 0.04668498 -0.9128804
v -0.9274129 0.1908451 -0.7416903
v -0.8237978 0.1750776 -0.7169128
v -0.8237978 0.01965499 -0.9038703
v -0.9274129 0.4115902 -1.349866
v -0.9274129 0.1908451 -1.311573
v -0.8237978 0.1750776 -1.334098
v -0.8237978 0.4160951 -1.376896
v -0.9274129 0.1908451 -0.7416903
v -0.9274129 0.4115902 -0.7033978
v -0.8237978 0.4160951 -0.6741152
v -0.8237978 0.1750776 -0.7169128
v -0.9274129 0.1908451 -1.311573
v -0.9274129 0.04668498 -1.13813
v -0.8237978 0.01965499 -1.147141
v -0.8237978 0.1750776 -1.334098
v -0.9274129 0.6841427 -1.025505
v -0.9274129 0.6053052 -1.237241
v -0.8237978 0.6255778 -1.25526
v -0.8237978 0.7111727 -1.025505
v -0.9274129 0.4115902 -0.7033978
v -0.9274129 0.6053052 -0.8137703
v -0.8237978 0.6255778 -0.7957503
v -0.8237978 0.4160951 -0.6741152
v -0.9274129 0.04668498 -1.13813
v -0.9274129 0.04668498 -0.9128804
v -0.8237978 0.01965499 -0.9038703
v -0.8237978 0.01965499 -1.147141
v -0.9274129 0.6053052 -1.237241
v -0.9274129 0.4115902 -1.349866
v -0.8237978 0.4160951 -1.376896
v -0.8237978 0.6255778 -1.25526
v -0.9274129 0.6053052 -0.8137703
v -0.9274129 0.6841427 -1.025505
v -0.8237978 0.7111727 -1.025505
v -0.8237978 0.6255778 -0.7957503
v -0.7201828 0.1908451 -1.311573
v -0.7201828 0.04668498 -1.13813
v -0.7201828 0.04668498 -0.9128804
v -0.7201828 0.1908451 -0.7416903
v -0.7201828 0.4115902 -0.7033978
v -0.7201828 0.4115902 -1.349866
v -0.7201828 0.6053052 -1.237241
v -0.7201828 0.6053052 -0.8137703
v -0.7201828 0.6841427 -1.025505
v -0.9274129 0.4814177 -1.12912
v -0.9071404 0.4408727 -1.09308
v -0.9071404 0.3800552 -1.126868
v -0.9274129 0.3868127 -1.18318
v -0.9274129 0.2111176 -1.079565
v -0.9071404 0.2629251 -1.061545
v -0.9071404 0.2629251 -0.9894654
v -0.9274129 0.2111176 -0.9714454
v -0.9274129 0.3868127 -0.8700829
v -0.9071404 0.3800552 -0.9241428
v -0.9071404 0.4408727 -0.9601829
v -0.9274129 0.4814177 -0.9241428
v -0.9274129 0.5197102 -1.025505
v -0.9071404 0.4656502 -1.025505
v -0.9071404 0.4408727 -1.09308
v -0.9274129 0.4814177 -1.12912
v -0.9274129 0.2809451 -1.162908
v -0.9071404 0.3102276 -1.115605
v -0.9071404 0.2629251 -1.061545
v -0.9274129 0.2111176 -1.079565
v -0.9274129 0.2809451 -0.8881029
v -0.9071404 0.3102276 -0.9354054
v -0.9071404 0.3800552 -0.9241428
v -0.9274129 0.3868127 -0.8700829
v -0.9274129 0.3868127 -1.18318
v -0.9071404 0.3800552 -1.126868
v -0.9071404 0.3102276 -1.115605
v -0.9274129 0.2809451 -1.162908
v -0.9274129 0.2111176 -0.9714454
v -0.9071404 0.2629251 -0.9894654
v -0.9071404 0.3102276 -0.9354054
v -0.9274129 0.2809451 -0.8881029
v -0.9274129 0.4814177 -0.9241428
v -0.9071404 0.4408727 -0.9601829
v -0.9071404 0.4656502 -1.025505
v -0.9274129 0.5197102 -1.025505
v -0.9071404 0.4656502 -1.025505
v -0.9071404 0.3800552 -1.126868
v -0.9071404 0.4408727 -1.09308
v -0.9071404 0.3102276 -1.115605
v -0.9071404 0.2629251 -1.061545
v -0.9071404 0.2629251 -0.9894654
v -0.9071404 0.3102276 -0.9354054
v -0.9071404 0.4408727 -0.9601829
v -0.9071404 0.3800552 -0.9241428
vt 0.5019947 0.04987548
vt 0.4869241 0.06871378
vt 0.4982271 0.08378442
vt 0.520833 0.06871378
vt 0.3738943 0.08378442
vt 0.4078032 0.0762491
vt 0.388965 0.06117846
vt 0.4002679 0.0950874
vt 0.3625913 0.121461
vt 0.4002679 0.1176934
vt 0.4341769 0.03103717
vt 0.4379445 0.05364314
vt 0.4567828 0.05364314
vt 0.4567828 0.03103717
vt 0.4793888 0.03480484
vt 0.4718535 0.0574108
vt 0.4869241 0.06871378
vt 0.5019947 0.04987548
vt 0.4115709 0.04234016
vt 0.4228739 0.06494612
vt 0.4379445 0.05364314
vt 0.4341769 0.03103717
vt 0.4567828 0.03103717
vt 0.4567828 0.05364314
vt 0.4718535 0.0574108
vt 0.4793888 0.03480484
vt 0.520833 0.06871378
vt 0.4982271 0.08378442
vt 0.5019947 0.1026227
vt 0.5359037 0.1026227
vt 0.388965 0.06117846
vt 0.4078032 0.0762491
vt 0.4228739 0.06494612
vt 0.4115709 0.04234016
vt 0.4304092 0.01973419
vt 0.4567828 0.01973419
vt 0.4605505 0.00466355
vt 0.4266416 0.00466355
vt 0.4869241 0.02350185
vt 0.5132977 0.03857249
vt 0.520833 0.02726951
vt 0.4906918 0.01219887
vt 0.343753 0.1176934
vt 0.3588237 0.08001676
vt 0.343753 0.06871378
vt 0.3249147 0.110158
vt 0.4040356 0.03103717
vt 0.4304092 0.01973419
vt 0.4266416 0.00466355
vt 0.3965003 0.01596653
vt 0.4567828 0.01973419
vt 0.4869241 0.02350185
vt 0.4906918 0.01219887
vt 0.4605505 0.00466355
vt 0.532136 0.06117846
vt 0.554742 0.0950874
vt 0.5698126 0.08378442
vt 0.5472066 0.04987548
vt 0.377662 0.04987548
vt 0.4040356 0.03103717
vt 0.3965003 0.01596653
vt 0.366359 0.03857249
vt 0.5132977 0.03857249
vt 0.532136 0.06117846
vt 0.5472066 0.04987548
vt 0.520833 0.02726951
vt 0.3588237 0.08001676
vt 0.377662 0.04987548
vt 0.366359 0.03857249
vt 0.343753 0.06871378
vt 0.3738943 0.08378442
vt 0.388965 0.06117846
vt 0.377662 0.04987548
vt 0.3588237 0.08001676
vt 0.5019947 0.04987548
vt 0.520833 0.06871378
vt 0.532136 0.06117846
vt 0.5132977 0.03857249
vt 0.388965 0.06117846
vt 0.4115709 0.04234016
vt 0.4040356 0.03103717
vt 0.377662 0.04987548
vt 0.520833 0.06871378
vt 0.5359037 0.1026227
vt 0.554742 0.0950874
vt 0.532136 0.06117846
vt 0.4567828 0.03103717
vt 0.4793888 0.03480484
vt 0.4869241 0.02350185
vt 0.4567828 0.01973419
vt 0.4115709 0.04234016
vt 0.4341769 0.03103717
vt 0.4304092 0.01973419
vt 0.4040356 0.03103717
vt 0.3625913 0.121461
vt 0.3738943 0.08378442
vt 0.3588237 0.08001676
vt 0.343753 0.1176934
vt 0.4793888 0.03480484
vt 0.5019947 0.04987548
vt 0.5132977 0.03857249
vt 0.4869241 0.02350185
vt 0.4341769 0.03103717
vt 0.4567828 0.03103717
vt 0.4567828 0.01973419
vt 0.4304092 0.01973419
vt 0.2872381 0.1252287
vt 0.3249147 0.110158
vt 0.343753 0.06871378
vt 0.33245 0.02726951
vt 0.2947734 0.00466355
vt 0.2457938 0.1176934
vt 0.2194202 0.08001676
vt 0.2533292 0.008431211
vt 0.2231879 0.03857249
vt 0.3173794 0.9164374
vt 0.3136117 0.9239727
vt 0.3249147 0.9315081
vt 0.33245 0.9277404
vt 0.3249147 0.9578817
vt 0.3211471 0.9503464
vt 0.3098441 0.954114
vt 0.3098441 0.965417
vt 0.2834705 0.942811
vt 0.2947734 0.942811
vt 0.2947734 0.9315081
vt 0.2872381 0.9277404
vt 0.2985411 0.9164374
vt 0.3023087 0.9239727
vt 0.3136117 0.9239727
vt 0.3173794 0.9164374
vt 0.3362177 0.942811
vt 0.3249147 0.942811
vt 0.3211471 0.9503464
vt 0.3249147 0.9578817
vt 0.2910058 0.9578817
vt 0.2985411 0.9503464
vt 0.2947734 0.942811
vt 0.2834705 0.942811
vt 0.33245 0.9277404
vt 0.3249147 0.9315081
vt 0.3249147 0.942811
vt 0.3362177 0.942811
vt 0.3098441 0.965417
vt 0.3098441 0.954114
vt 0.2985411 0.9503464
vt 0.2910058 0.9578817
vt 0.2872381 0.9277404
vt 0.2947734 0.9315081
vt 0.3023087 0.9239727
vt 0.2985411 0.9164374
vt 0.3023087 0.9239727
vt 0.3249147 0.9315081
vt 0.3136117 0.9239727
vt 0.3249147 0.942811
vt 0.3211471 0.9503464
vt 0.3098441 0.954114
vt 0.2985411 0.9503464
vt 0.2947734 0.9315081
vt 0.2947734 0.942811
vn -0.999874 0.01587105 -0.0003439156
vn -0.999874 0.01587105 -0.0003439156
vn -0.999874 0.01587105 -0.0003439156
vn -0.999874 0.01587105 -0.0003439156
vn -0.999874 0.01587105 -0.0003439156
vn -0.999874 0.01587105 -0.0003439156
vn -0.999874 0.01587105 -0.0003439156
vn -0.999874 0.01587105 -0.0003439156
vn -0.999874 0.01587105 -0.0003439156
vn -0.999874 0.01587105 -0.0003439156
vn -0.999874 -0.01587099 -0.000346655
vn -0.999874 -0.01587099 -0.000346655
vn -0.999874 -0.01587099 -0.000346655
vn -0.999874 -0.01587099 -0.000346655
vn -0.999874 0.01587105 -0.0003439156
vn -0.999874 0.01587105 -0.0003439156
vn -0.999874 0.01587105 -0.0003439156
vn -0.999874 0.01587105 -0.0003439156
vn -0.999874 -0.01587099 -0.000346655
vn -0.999874 -0.01587099 -0.000346655
vn -0.999874 -0.01587099 -0.000346655
vn -0.999874 -0.01587099 -0.000346655
vn -0.999874 -0.01587099 -0.000346655
vn -0.999874 -0.01587099 -0.000346655
vn -0.999874 -0.01587099 -0.000346655
vn -0.999874 -0.01587099 -0.000346655
vn -0.999874 0.01587105 -0.0003439156
vn -0.999874 0.01587105 -0.0003439156
vn -0.999874 0.01587105 -0.0003439156
vn -0.999874 0.01587105 -0.0003439156
vn -0.999874 -0.01587099 -0.000346655
vn -0.999874 -0.01587099 -0.000346655
vn -0.999874 -0.01587099 -0.000346655
vn -0.999874 -0.01587099 -0.000346655
vn 0.2380652 0.9046479 0.3534643
vn 0.2380652 0.9046479 0.3534643
vn 0.2380652 0.9046479 0.3534643
vn 0.2380652 0.9046479 0.3534643
vn 0.2380652 0.4920015 -0.8374124
vn 0.2380652 0.4920015 -0.8374124
vn 0.2380652 0.4920015 -0.8374124
vn 0.2380652 0.4920015 -0.8374124
vn 0.2380652 -0.968132 -0.07775256
vn 0.2380652 -0.968132 -0.07775256
vn 0.2380652 -0.968132 -0.07775256
vn 0.2380652 -0.968132 -0.07775256
vn 0.2380652 0.4920015 0.8374124
vn 0.2380652 0.4920015 0.8374124
vn 0.2380652 0.4920015 0.8374124
vn 0.2380652 0.4920015 0.8374124
vn 0.2380652 0.9046479 -0.3534643
vn 0.2380652 0.9046479 -0.3534643
vn 0.2380652 0.9046479 -0.3534643
vn 0.2380652 0.9046479 -0.3534643
vn 0.2380652 -0.7459377 -0.6220143
vn 0.2380652 -0.7459377 -0.6220143
vn 0.2380652 -0.7459377 -0.6220143
vn 0.2380652 -0.7459377 -0.6220143
vn 0.2380652 -0.1745812 0.9554299
vn 0.2380652 -0.1745812 0.9554299
vn 0.2380652 -0.1745812 0.9554299
vn 0.2380652 -0.1745812 0.9554299
vn 0.2380652 -0.1745812 -0.9554299
vn 0.2380652 -0.1745812 -0.9554299
vn 0.2380652 -0.1745812 -0.9554299
vn 0.2380652 -0.1745812 -0.9554299
vn 0.2380652 -0.7459377 0.6220143
vn 0.2380652 -0.7459377 0.6220143
vn 0.2380652 -0.7459377 0.6220143
vn 0.2380652 -0.7459377 0.6220143
vn -0.2380652 -0.7459377 0.6220143
vn -0.2380652 -0.7459377 0.6220143
vn -0.2380652 -0.7459377 0.6220143
vn -0.2380652 -0.7459377 0.6220143
vn -0.2380652 -0.1745812 -0.9554299
vn -0.2380652 -0.1745812 -0.9554299
vn -0.2380652 -0.1745812 -0.9554299
vn -0.2380652 -0.1745812 -0.9554299
vn -0.2380652 -0.1745812 0.9554299
vn -0.2380652 -0.1745812 0.9554299
vn -0.2380652 -0.1745812 0.9554299
vn -0.2380652 -0.1745812 0.9554299
vn -0.2380652 -0.7459377 -0.6220143
vn -0.2380652 -0.7459377 -0.6220143
vn -0.2380652 -0.7459377 -0.6220143
vn -0.2380652 -0.7459377 -0.6220143
vn -0.2380652 0.9046479 -0.3534643
vn -0.2380652 0.9046479 -0.3534643
vn -0.2380652 0.9046479 -0.3534643
vn -0.2380652 0.9046479 -0.3534643
vn -0.2380652 0.4920015 0.8374124
vn -0.2380652 0.4920015 0.8374124
vn -0.2380652 0.4920015 0.8374124
vn -0.2380652 0.4920015 0.8374124
vn -0.2380652 -0.968132 -0.07775256
vn -0.2380652 -0.968132 -0.07775256
vn -0.2380652 -0.968132 -0.07775256
vn -0.2380652 -0.968132 -0.07775256
vn -0.2380652 0.4920015 -0.8374124
vn -0.2380652 0.4920015 -0.8374124
vn -0.2380652 0.4920015 -0.8374124
vn -0.2380652 0.4920015 -0.8374124
vn -0.2380652 0.9046479 0.3534643
vn -0.2380652 0.9046479 0.3534643
vn -0.2380652 0.9046479 0.3534643
vn -0.2380652 0.9046479 0.3534643
vn 0.999874 0.01587105 -0.0003439156
vn 0.999874 0.01587105 -0.0003439156
vn 0.999874 0.01587105 -0.0003439156
vn 0.999874 0.01587105 -0.0003439156
vn 0.999874 0.01587105 -0.0003439156
vn 0.999874 0.01587105 -0.0003439156
vn 0.999874 0.01587105 -0.0003439156
vn 0.999874 0.01587105 -0.0003439156
vn 0.999874 0.01587105 -0.0003439156
vn -0.9363899 -0.1745812 0.304459
vn -0.9363899 -0.1745812 0.304459
vn -0.9363899 -0.1745812 0.304459
vn -0.9363899 -0.1745812 0.304459
vn -0.931708 0.3632082 0
vn -0.931708 0.3632082 0
vn -0.931708 0.3632082 0
vn -0.931708 0.3632082 0
vn -0.9363899 -0.1745812 -0.304459
vn -0.9363899 -0.1745812 -0.304459
vn -0.9363899 -0.1745812 -0.304459
vn -0.9363899 -0.1745812 -0.304459
vn -0.931708 -0.3632082 0
vn -0.931708 -0.3632082 0
vn -0.931708 -0.3632082 0
vn -0.931708 -0.3632082 0
vn -0.9363899 0.2698073 0.2244502
vn -0.9363899 0.2698073 0.2244502
vn -0.9363899 0.2698073 0.2244502
vn -0.9363899 0.2698073 0.2244502
vn -0.9363899 0.07935512 -0.3418723
vn -0.9363899 0.07935512 -0.3418723
vn -0.9363899 0.07935512 -0.3418723
vn -0.9363899 0.07935512 -0.3418723
vn -0.9363899 0.07935512 0.3418723
vn -0.9363899 0.07935512 0.3418723
vn -0.9363899 0.07935512 0.3418723
vn -0.9363899 0.07935512 0.3418723
vn -0.9363899 0.2698073 -0.2244502
vn -0.9363899 0.2698073 -0.2244502
vn -0.9363899 0.2698073 -0.2244502
vn -0.9363899 0.2698073 -0.2244502
vn -0.931708 -0.3632082 0
vn -0.931708 -0.3632082 0
vn -0.931708 -0.3632082 0
vn -0.931708 -0.3632082 0
vn -0.999874 0.01587105 -0.0003439156
vn -0.999874 0.01587105 -0.0003439156
vn -0.999874 0.01587105 -0.0003439156
vn -0.999874 0.01587105 -0.0003439156
vn -0.999874 0.01587105 -0.0003439156
vn -0.999874 0.01587105 -0.0003439156
vn -0.999874 0.01587105 -0.0003439156
vn -0.999874 0.01587105 -0.0003439156
vn -0.999874 0.01587105 -0.0003439156
g lunar_rover_base_BR_0
f 3/3/3 2/2/2 1/1/1
f 4/4/4 3/3/3 1/1/1
f 7/7/7 6/6/6 5/5/5
f 6/6/6 8/8/8 5/5/5
f 5/5/5 8/8/8 9/9/9
f 8/8/8 10/10/10 9/9/9
f 13/13/13 12/12/12 11/11/11
f 14/14/14 13/13/13 11/11/11
f 17/17/17 16/16/16 15/15/15
f 18/18/18 17/17/17 15/15/15
f 21/21/21 20/20/20 19/19/19
f 22/22/22 21/21/21 19/19/19
f 25/25/25 24/24/24 23/23/23
f 26/26/26 25/25/25 23/23/23
f 29/29/29 28/28/28 27/27/27
f 30/30/30 29/29/29 27/27/27
f 33/33/33 32/32/32 31/31/31
f 34/34/34 33/33/33 31/31/31
f 37/37/37 36/36/36 35/35/35
f 38/38/38 37/37/37 35/35/35
f 41/41/41 40/40/40 39/39/39
f 42/42/42 41/41/41 39/39/39
f 45/45/45 44/44/44 43/43/43
f 46/46/46 45/45/45 43/43/43
f 49/49/49 48/48/48 47/47/47
f 50/50/50 49/49/49 47/47/47
f 53/53/53 52/52/52 51/51/51
f 54/54/54 53/53/53 51/51/51
f 57/57/57 56/56/56 55/55/55
f 58/58/58 57/57/57 55/55/55
f 61/61/61 60/60/60 59/59/59
f 62/62/62 61/61/61 59/59/59
f 65/65/65 64/64/64 63/63/63
f 66/66/66 65/65/65 63/63/63
f 69/69/69 68/68/68 67/67/67
f 70/70/70 69/69/69 67/67/67
f 73/73/73 72/72/72 71/71/71
f 74/74/74 73/73/73 71/71/71
f 77/77/77 76/76/76 75/75/75
f 78/78/78 77/77/77 75/75/75
f 81/81/81 80/80/80 79/79/79
f 82/82/82 81/81/81 79/79/79
f 85/85/85 84/84/84 83/83/83
f 86/86/86 85/85/85 83/83/83
f 89/89/89 88/88/88 87/87/87
f 90/90/90 89/89/89 87/87/87
f 93/93/93 92/92/92 91/91/91
f 94/94/94 93/93/93 91/91/91
f 97/97/97 96/96/96 95/95/95
f 98/98/98 97/97/97 95/95/95
f 101/101/101 100/100/100 99/99/99
f 102/102/102 101/101/101 99/99/99
f 105/105/105 104/104/104 103/103/103
f 106/106/106 105/105/105 103/103/103
f 109/109/109 108/108/108 107/107/107
f 107/107/107 110/110/110 109/109/109
f 107/107/107 111/111/111 110/110/110
f 107/107/107 112/112/112 111/111/111
f 112/112/112 113/113/113 111/111/111
f 113/113/113 114/114/114 111/111/111
f 113/113/113 115/115/115 114/114/114
g lunar_rover_base_BR_1
f 118/118/118 117/117/117 116/116/116
f 119/119/119 118/118/118 116/116/116
f 122/122/122 121/121/121 120/120/120
f 123/123/123 122/122/122 120/120/120
f 126/126/126 125/125/125 124/124/124
f 127/127/127 126/126/126 124/124/124
f 130/130/130 129/129/129 128/128/128
f 131/131/131 130/130/130 128/128/128
f 134/134/134 133/133/133 132/132/132
f 135/135/135 134/134/134 132/132/132
f 138/138/138 137/137/137 136/136/136
f 139/139/139 138/138/138 136/136/136
f 142/142/142 141/141/141 140/140/140
f 143/143/143 142/142/142 140/140/140
f 146/146/146 145/145/145 144/144/144
f 147/147/147 146/146/146 144/144/144
f 150/150/150 149/149/149 148/148/148
f 151/151/151 150/150/150 148/148/148
f 154/154/154 153/153/153 152/152/152
f 153/153/153 155/155/155 152/152/152
f 152/152/152 155/155/155 156/156/156
f 152/152/152 156/156/156 157/157/157
f 157/157/157 158/158/158 152/152/152
f 152/152/152 158/158/158 159/159/159
f 158/158/158 160/160/160 159/159/159
