g Spin_Holder
v 1.071127 -0.2130531 -0.2570544
v 1.009003 -0.417941 0.2570305
v 1.071127 -0.2130531 0.2570305
v 1.009003 -0.417941 -0.2570544
v 0.9080613 -0.6067535 0.2570305
v 0.9080613 -0.6067535 -0.2570544
v 0.7722615 -0.7722615 0.2570305
v 0.7722615 -0.7722615 -0.2570544
v 0.6067535 -0.9080613 0.2570305
v 0.6067535 -0.9080613 -0.2570544
v 0.417941 -1.009003 0.2570305
v 0.417941 -1.009003 -0.2570544
v 0.2130531 -1.071127 0.2570305
v 0.2130531 -1.071127 -0.2570544
v 1.191232E-05 -1.09212 0.2570305
v 1.191232E-05 -1.09212 -0.2570544
v -0.2130623 -1.071127 0.2570305
v -0.2130623 -1.071127 -0.2570544
v -0.4179502 -1.009003 0.2570305
v -0.4179502 -1.009003 -0.2570544
v -0.6067627 -0.9080613 0.2570305
v -0.6067627 -0.9080613 -0.2570544
v -0.7722377 -0.7722615 0.2570305
v -0.7722377 -0.7722615 -0.2570544
v -0.9080704 -0.6067535 0.2570305
v -0.9080704 -0.6067535 -0.2570544
v -1.008979 -0.417941 0.2570305
v -1.008979 -0.417941 -0.2570544
v -1.071136 -0.2130531 0.2570305
v -1.071136 -0.2130531 -0.2570544
v 0.9080942 -0.3761514 -0.2570544
v 1.071127 -0.2130531 -0.2570544
v 0.9640447 -0.1917622 -0.2570544
v 1.009003 -0.417941 -0.2570544
v 0.817286 -0.5460827 -0.2570544
v 0.9080613 -0.6067535 -0.2570544
v 0.69502 -0.69502 -0.2570544
v 0.7722615 -0.7722615 -0.2570544
v 0.5460827 -0.817286 -0.2570544
v 0.6067535 -0.9080613 -0.2570544
v 0.3761514 -0.9080942 -0.2570544
v 0.417941 -1.009003 -0.2570544
v 0.1917622 -0.9640447 -0.2570544
v 0.2130531 -1.071127 -0.2570544
v 1.191232E-05 -0.9829261 -0.2570544
v 1.191232E-05 -1.09212 -0.2570544
v -0.1917714 -0.9640447 -0.2570544
v -0.2130623 -1.071127 -0.2570544
v -0.3761606 -0.9080942 -0.2570544
v -0.4179502 -1.009003 -0.2570544
v -0.5460919 -0.817286 -0.2570544
v -0.6067627 -0.9080613 -0.2570544
v -0.6950293 -0.69502 -0.2570544
v -0.7722377 -0.7722615 -0.2570544
v -0.8172622 -0.5460827 -0.2570544
v -0.9080704 -0.6067535 -0.2570544
v -0.9081035 -0.3761514 -0.2570544
v -1.008979 -0.417941 -0.2570544
v -0.9640539 -0.1917622 -0.2570544
v -1.071136 -0.2130531 -0.2570544
v 0.9640447 -0.1917622 0.2570305
v 1.071127 -0.2130531 0.2570305
v 1.009003 -0.417941 0.2570305
v 0.9080942 -0.3761514 0.2570305
v 0.9080613 -0.6067535 0.2570305
v 0.817286 -0.5460827 0.2570305
v 0.7722615 -0.7722615 0.2570305
v 0.69502 -0.69502 0.2570305
v 0.6067535 -0.9080613 0.2570305
v 0.5460827 -0.817286 0.2570305
v 0.417941 -1.009003 0.2570305
v 0.3761514 -0.9080942 0.2570305
v 0.2130531 -1.071127 0.2570305
v 0.1917622 -0.9640447 0.2570305
v 1.191232E-05 -1.09212 0.2570305
v 1.191232E-05 -0.9829261 0.2570305
v -0.2130623 -1.071127 0.2570305
v -0.1917714 -0.9640447 0.2570305
v -0.4179502 -1.009003 0.2570305
v -0.3761606 -0.9080942 0.2570305
v -0.6067627 -0.9080613 0.2570305
v -0.5460919 -0.817286 0.2570305
v -0.7722377 -0.7722615 0.2570305
v -0.6950293 -0.69502 0.2570305
v -0.9080704 -0.6067535 0.2570305
v -0.8172622 -0.5460827 0.2570305
v -1.008979 -0.417941 0.2570305
v -0.9081035 -0.3761514 0.2570305
v -1.071136 -0.2130531 0.2570305
v -0.9640539 -0.1917622 0.2570305
v 1.071127 -0.2130531 -0.2570544
v 1.071127 -0.2130531 0.2570305
v 0.9640447 -0.1917622 0.2570305
v 0.9640447 -0.1917622 -0.2570544
v -0.9640539 -0.1917622 0.2570305
v -0.9640539 -0.1917622 -0.2570544
v -0.9081035 -0.3761514 -0.2570544
v -0.9081035 -0.3761514 0.2570305
v -0.8172622 -0.5460827 -0.2570544
v -0.8172622 -0.5460827 0.2570305
v -0.6950293 -0.69502 -0.2570544
v -0.6950293 -0.69502 0.2570305
v -0.5460919 -0.817286 -0.2570544
v -0.5460919 -0.817286 0.2570305
v -0.3761606 -0.9080942 -0.2570544
v -0.3761606 -0.9080942 0.2570305
v -0.1917714 -0.9640447 -0.2570544
v -0.1917714 -0.9640447 0.2570305
v 1.191232E-05 -0.9829261 -0.2570544
v 1.191232E-05 -0.9829261 0.2570305
v 0.1917622 -0.9640447 -0.2570544
v 0.1917622 -0.9640447 0.2570305
v 0.3761514 -0.9080942 -0.2570544
v 0.3761514 -0.9080942 0.2570305
v 0.5460827 -0.817286 -0.2570544
v 0.5460827 -0.817286 0.2570305
v 0.69502 -0.69502 -0.2570544
v 0.69502 -0.69502 0.2570305
v 0.817286 -0.5460827 -0.2570544
v 0.817286 -0.5460827 0.2570305
v 0.9080942 -0.3761514 -0.2570544
v 0.9080942 -0.3761514 0.2570305
v 0.9640447 -0.1917622 -0.2570544
v 0.9640447 -0.1917622 0.2570305
v -1.071136 -0.2130531 -0.2570544
v -0.9640539 -0.1917622 -0.2570544
v -0.9640539 -0.1917622 0.2570305
v -1.071136 -0.2130531 0.2570305
v 0.1051461 -0.1051461 -0.2491982
v 0.93635 -0.4494648 -0.2491982
v 0.9686 -0.4012054 -0.2491982
v 0.1373961 -0.05691973 -0.2491982
v 0.9799222 -0.3442976 -0.2491982
v 0.1487182 -1.191232E-05 -0.2491982
v 0.1373961 0.05692891 -0.2491982
v 0.1051461 0.1051553 -0.2491982
v 0.05691973 -0.1373961 -0.2491982
v 0.05691973 0.1374053 -0.2491982
v 1.191232E-05 -0.1487182 -0.2491982
v 1.191232E-05 0.1487274 -0.2491982
v -0.05692891 -0.1373961 -0.2491982
v -0.05692891 0.1374053 -0.2491982
v -0.1051553 -0.1051461 -0.2491982
v -0.1051553 0.1051553 -0.2491982
v -0.1374053 -0.05691973 -0.2491982
v -0.1374053 0.05692891 -0.2491982
v -0.1487274 -1.191232E-05 -0.2491982
v -0.1374053 -0.05691973 -0.09075413
v -0.1487274 -1.191232E-05 -0.09075413
v -0.1374053 0.05692891 -0.09075413
v -0.1051553 -0.1051461 -0.09075413
v -0.1051553 0.1051553 -0.09075413
v -0.05692891 -0.1373961 -0.09075413
v -0.05692891 0.1374053 -0.09075413
v 1.191232E-05 -0.1487182 -0.09075413
v 1.191232E-05 0.1487274 -0.09075413
v 0.05691973 -0.1373961 -0.09075413
v 0.05691973 0.1374053 -0.09075413
v 0.1051461 -0.1051461 -0.09075413
v 0.1051461 0.1051553 -0.09075413
v 0.1373961 -0.05691973 -0.09075413
v 0.1373961 0.05692891 -0.09075413
v 0.93635 -0.4494648 -0.09075413
v 0.1487182 -1.191232E-05 -0.09075413
v 0.9686 -0.4012054 -0.09075413
v 0.9799222 -0.3442976 -0.09075413
v 0.9799222 -0.3442976 -0.2491982
v 0.9686 -0.4012054 -0.2491982
v 0.9686 -0.4012054 -0.09075413
v 0.9799222 -0.3442976 -0.09075413
v 0.93635 -0.4494648 -0.09075413
v 0.1487182 -1.191232E-05 -0.2491982
v 0.93635 -0.4494648 -0.2491982
v 0.1487182 -1.191232E-05 -0.09075413
v 0.1051461 -0.1051461 -0.09075413
v 0.1373961 0.05692891 -0.2491982
v 0.1051461 -0.1051461 -0.2491982
v 0.1373961 0.05692891 -0.09075413
v 0.05691973 -0.1373961 -0.09075413
v 0.1051461 0.1051553 -0.2491982
v 0.05691973 -0.1373961 -0.2491982
v 0.1051461 0.1051553 -0.09075413
v 1.191232E-05 -0.1487182 -0.09075413
v 0.05691973 0.1374053 -0.2491982
v 1.191232E-05 -0.1487182 -0.2491982
v 0.05691973 0.1374053 -0.09075413
v -0.05692891 -0.1373961 -0.09075413
v 1.191232E-05 0.1487274 -0.2491982
v -0.05692891 -0.1373961 -0.2491982
v 1.191232E-05 0.1487274 -0.09075413
v -0.1051553 -0.1051461 -0.09075413
v -0.05692891 0.1374053 -0.2491982
v -0.1051553 -0.1051461 -0.2491982
v -0.05692891 0.1374053 -0.09075413
v -0.1374053 -0.05691973 -0.09075413
v -0.1051553 0.1051553 -0.2491982
v -0.1374053 -0.05691973 -0.2491982
v -0.1051553 0.1051553 -0.09075413
v -0.1487274 -1.191232E-05 -0.09075413
v -0.1374053 0.05692891 -0.2491982
v -0.1487274 -1.191232E-05 -0.2491982
v -0.1374053 0.05692891 -0.09075413
vt 0.1202563 0.444763
vt 0.1206019 0.4499468
vt 0.1202563 0.444763
vt 0.1206019 0.4499468
vt 0.1209475 0.454785
vt 0.1209475 0.454785
vt 0.1212931 0.4589321
vt 0.1212931 0.4589321
vt 0.1216387 0.4623879
vt 0.1216387 0.4623879
vt 0.1223298 0.4651527
vt 0.1223298 0.4651527
vt 0.123021 0.466535
vt 0.123021 0.466535
vt 0.1237122 0.4672262
vt 0.1237122 0.4672262
vt 0.1244034 0.466535
vt 0.1244034 0.466535
vt 0.1250945 0.4651527
vt 0.1250945 0.4651527
vt 0.1257857 0.4623879
vt 0.1257857 0.4623879
vt 0.1264769 0.4589321
vt 0.1264769 0.4589321
vt 0.1268225 0.454785
vt 0.1268225 0.454785
vt 0.1271681 0.4499468
vt 0.1271681 0.4499468
vt 0.1275137 0.444763
vt 0.1275137 0.444763
vt 0.1216387 0.4554762
vt 0.1209475 0.4513291
vt 0.1212931 0.4509836
vt 0.1212931 0.456513
vt 0.1219843 0.4599688
vt 0.1216387 0.4613512
vt 0.1223298 0.4637703
vt 0.1219843 0.4658438
vt 0.1226754 0.4668806
vt 0.1226754 0.4689541
vt 0.1233666 0.4689541
vt 0.1233666 0.4717188
vt 0.1240578 0.4706821
vt 0.1240578 0.4731012
vt 0.124749 0.4710276
vt 0.124749 0.4737923
vt 0.1250945 0.4706821
vt 0.1254401 0.4731012
vt 0.1257857 0.4689541
vt 0.1261313 0.4717188
vt 0.1264769 0.4668806
vt 0.1264769 0.4689541
vt 0.1268225 0.4637703
vt 0.1271681 0.4658438
vt 0.1271681 0.4599688
vt 0.1275137 0.4613512
vt 0.1275137 0.4554762
vt 0.1278592 0.456513
vt 0.1278592 0.4509836
vt 0.1282048 0.4513291
vt 0.1212931 0.4509836
vt 0.1209475 0.4513291
vt 0.1212931 0.456513
vt 0.1216387 0.4554762
vt 0.1216387 0.4613512
vt 0.1219843 0.4599688
vt 0.1219843 0.4658438
vt 0.1223298 0.4637703
vt 0.1226754 0.4689541
vt 0.1226754 0.4668806
vt 0.1233666 0.4717188
vt 0.1233666 0.4689541
vt 0.1240578 0.4731012
vt 0.1240578 0.4706821
vt 0.124749 0.4737923
vt 0.124749 0.4710276
vt 0.1254401 0.4731012
vt 0.1250945 0.4706821
vt 0.1261313 0.4717188
vt 0.1257857 0.4689541
vt 0.1264769 0.4689541
vt 0.1264769 0.4668806
vt 0.1271681 0.4658438
vt 0.1268225 0.4637703
vt 0.1275137 0.4613512
vt 0.1271681 0.4599688
vt 0.1278592 0.456513
vt 0.1275137 0.4554762
vt 0.1282048 0.4513291
vt 0.1278592 0.4509836
vt 0.1209475 0.4478733
vt 0.1209475 0.4478733
vt 0.1212931 0.4471821
vt 0.1212931 0.4471821
vt 0.1271681 0.4444174
vt 0.1271681 0.4444174
vt 0.1268225 0.44891
vt 0.1268225 0.44891
vt 0.1264769 0.4534027
vt 0.1264769 0.4534027
vt 0.1261313 0.4572041
vt 0.1261313 0.4572041
vt 0.1257857 0.4603144
vt 0.1257857 0.4603144
vt 0.1250945 0.4623879
vt 0.1250945 0.4623879
vt 0.1244034 0.4637703
vt 0.1244034 0.4637703
vt 0.1237122 0.4644615
vt 0.1237122 0.4644615
vt 0.123021 0.4637703
vt 0.123021 0.4637703
vt 0.1226754 0.4623879
vt 0.1226754 0.4623879
vt 0.1219843 0.4603144
vt 0.1219843 0.4603144
vt 0.1216387 0.4572041
vt 0.1216387 0.4572041
vt 0.1209475 0.4534027
vt 0.1209475 0.4534027
vt 0.1209475 0.44891
vt 0.1209475 0.44891
vt 0.1206019 0.4444174
vt 0.1206019 0.4444174
vt 0.1282048 0.4478733
vt 0.1278592 0.4471821
vt 0.1278592 0.4471821
vt 0.1282048 0.4478733
vt 0.1254401 0.4537483
vt 0.1268225 0.4378512
vt 0.1268225 0.4402703
vt 0.1254401 0.4558218
vt 0.1268225 0.4426894
vt 0.1254401 0.4585865
vt 0.1254401 0.4613512
vt 0.1254401 0.4634247
vt 0.1254401 0.4523659
vt 0.1254401 0.4648071
vt 0.1250945 0.4516747
vt 0.1250945 0.4654982
vt 0.1250945 0.4523659
vt 0.1250945 0.4648071
vt 0.1250945 0.4537483
vt 0.1250945 0.4634247
vt 0.1250945 0.4558218
vt 0.1250945 0.4613512
vt 0.1250945 0.4585865
vt 0.1250945 0.4558218
vt 0.1250945 0.4585865
vt 0.1250945 0.4613512
vt 0.1250945 0.4537483
vt 0.1250945 0.4634247
vt 0.1250945 0.4523659
vt 0.1250945 0.4648071
vt 0.1250945 0.4516747
vt 0.1250945 0.4654982
vt 0.1254401 0.4523659
vt 0.1254401 0.4648071
vt 0.1254401 0.4537483
vt 0.1254401 0.4634247
vt 0.1254401 0.4558218
vt 0.1254401 0.4613512
vt 0.1268225 0.4378512
vt 0.1254401 0.4585865
vt 0.1268225 0.4402703
vt 0.1268225 0.4426894
vt 0.1292416 0.4350865
vt 0.1292416 0.4323218
vt 0.1292416 0.4323218
vt 0.1292416 0.4350865
vt 0.1292416 0.4299027
vt 0.1278592 0.450638
vt 0.1292416 0.4299027
vt 0.1278592 0.450638
vt 0.1278592 0.4457997
vt 0.1278592 0.4534027
vt 0.1278592 0.4457997
vt 0.1278592 0.4534027
vt 0.1278592 0.4444174
vt 0.1278592 0.4554762
vt 0.1278592 0.4444174
vt 0.1278592 0.4554762
vt 0.1275137 0.4440718
vt 0.1278592 0.4572041
vt 0.1275137 0.4440718
vt 0.1278592 0.4572041
vt 0.1275137 0.4444174
vt 0.1275137 0.4575497
vt 0.1275137 0.4444174
vt 0.1275137 0.4575497
vt 0.1275137 0.4457997
vt 0.1275137 0.4572041
vt 0.1275137 0.4457997
vt 0.1275137 0.4572041
vt 0.1275137 0.4482189
vt 0.1275137 0.4554762
vt 0.1275137 0.4482189
vt 0.1275137 0.4554762
vt 0.1275137 0.450638
vt 0.1275137 0.4534027
vt 0.1275137 0.450638
vt 0.1275137 0.4534027
vn 0.9670392 0.1902675 -0.1692141
vn 0.904902 -0.3767352 0.1980481
vn 0.9670392 0.1902675 0.1692141
vn 0.904902 -0.3767352 -0.1980481
vn 0.8194632 -0.5476127 0.1691166
vn 0.8194632 -0.5476127 -0.1691166
vn 0.6951887 -0.6951887 0.182826
vn 0.6951887 -0.6951887 -0.182826
vn 0.5476127 -0.8194632 0.1691165
vn 0.5476127 -0.8194632 -0.1691165
vn 0.3767352 -0.904902 0.198048
vn 0.3767352 -0.904902 -0.198048
vn 0.1903233 -0.9670392 0.1691512
vn 0.1903233 -0.9670392 -0.1691512
vn -0.003855666 -0.9825736 0.1858342
vn -0.003855666 -0.9825736 -0.1858342
vn -0.1902675 -0.9670392 0.1692141
vn -0.1902675 -0.9670392 -0.1692141
vn -0.3766793 -0.904902 0.1981542
vn -0.3766793 -0.904902 -0.1981542
vn -0.5475568 -0.8194632 0.1692974
vn -0.5475568 -0.8194632 -0.1692974
vn -0.6951329 -0.6951887 0.1830382
vn -0.6951329 -0.6951887 -0.1830382
vn -0.8194074 -0.5476127 0.1693867
vn -0.8194074 -0.5476127 -0.1693867
vn -0.9048461 -0.3767351 0.1983031
vn -0.9048461 -0.3767351 -0.1983031
vn -0.9669834 0.1902675 0.1695326
vn -0.9669834 0.1902675 -0.1695326
vn -0.897079 0.3689122 -0.2432141
vn 0.9670392 0.1902675 -0.1692141
vn -0.6951329 0.6951329 -0.1832502
vn 0.904902 -0.3767352 -0.1980481
vn -0.8116403 0.5397897 -0.2233097
vn 0.8194632 -0.5476127 -0.1691166
vn -0.6873657 0.6873657 -0.2346418
vn 0.6951887 -0.6951887 -0.182826
vn -0.5397897 0.8116403 -0.2233097
vn 0.5476127 -0.8194632 -0.1691165
vn -0.3689122 0.897079 -0.2432141
vn 0.3767352 -0.904902 -0.198048
vn -0.1902675 0.9514491 -0.2419564
vn 0.1903233 -0.9670392 -0.1691512
vn -0.003855666 0.9747506 -0.2232632
vn -0.003855666 -0.9825736 -0.1858342
vn 0.1903233 0.9514491 -0.2419124
vn -0.1902675 -0.9670392 -0.1692141
vn 0.368968 0.897079 -0.2431294
vn -0.3766793 -0.904902 -0.1981542
vn 0.5398455 0.8116403 -0.2231748
vn -0.5475568 -0.8194632 -0.1692974
vn 0.6874215 0.6873657 -0.2344783
vn -0.6951329 -0.6951887 -0.1830382
vn 0.811696 0.5397897 -0.2231067
vn -0.8194074 -0.5476127 -0.1693867
vn 0.8971348 0.3689122 -0.243008
vn -0.9048461 -0.3767351 -0.1983031
vn 0.6951887 0.6951329 -0.1830382
vn -0.9669834 0.1902675 -0.1695326
vn -0.6951329 0.6951329 0.1832502
vn 0.9670392 0.1902675 0.1692141
vn 0.904902 -0.3767352 0.1980481
vn -0.897079 0.3689122 0.2432141
vn 0.8194632 -0.5476127 0.1691166
vn -0.8116403 0.5397897 0.2233097
vn 0.6951887 -0.6951887 0.182826
vn -0.6873657 0.6873657 0.2346418
vn 0.5476127 -0.8194632 0.1691165
vn -0.5397897 0.8116403 0.2233097
vn 0.3767352 -0.904902 0.198048
vn -0.3689122 0.897079 0.2432141
vn 0.1903233 -0.9670392 0.1691512
vn -0.1902675 0.9514491 0.2419564
vn -0.003855666 -0.9825736 0.1858342
vn -0.003855666 0.9747506 0.2232632
vn -0.1902675 -0.9670392 0.1692141
vn 0.1903233 0.9514491 0.2419124
vn -0.3766793 -0.904902 0.1981542
vn 0.368968 0.897079 0.2431294
vn -0.5475568 -0.8194632 0.1692974
vn 0.5398455 0.8116403 0.2231748
vn -0.6951329 -0.6951887 0.1830382
vn 0.6874215 0.6873657 0.2344783
vn -0.8194074 -0.5476127 0.1693867
vn 0.811696 0.5397897 0.2231067
vn -0.9048461 -0.3767351 0.1983031
vn 0.8971348 0.3689122 0.243008
vn -0.9669834 0.1902675 0.1695326
vn 0.6951887 0.6951329 0.1830382
vn 0.9670392 0.1902675 -0.1692141
vn 0.9670392 0.1902675 0.1692141
vn -0.6951329 0.6951329 0.1832502
vn -0.6951329 0.6951329 -0.1832502
vn 0.6951887 0.6951329 0.1830382
vn 0.6951887 0.6951329 -0.1830382
vn 0.8971348 0.3689122 -0.243008
vn 0.8971348 0.3689122 0.243008
vn 0.811696 0.5397897 -0.2231067
vn 0.811696 0.5397897 0.2231067
vn 0.6874215 0.6873657 -0.2344783
vn 0.6874215 0.6873657 0.2344783
vn 0.5398455 0.8116403 -0.2231748
vn 0.5398455 0.8116403 0.2231748
vn 0.368968 0.897079 -0.2431294
vn 0.368968 0.897079 0.2431294
vn 0.1903233 0.9514491 -0.2419124
vn 0.1903233 0.9514491 0.2419124
vn -0.003855666 0.9747506 -0.2232632
vn -0.003855666 0.9747506 0.2232632
vn -0.1902675 0.9514491 -0.2419564
vn -0.1902675 0.9514491 0.2419564
vn -0.3689122 0.897079 -0.2432141
vn -0.3689122 0.897079 0.2432141
vn -0.5397897 0.8116403 -0.2233097
vn -0.5397897 0.8116403 0.2233097
vn -0.6873657 0.6873657 -0.2346418
vn -0.6873657 0.6873657 0.2346418
vn -0.8116403 0.5397897 -0.2233097
vn -0.8116403 0.5397897 0.2233097
vn -0.897079 0.3689122 -0.2432141
vn -0.897079 0.3689122 0.2432141
vn -0.6951329 0.6951329 -0.1832502
vn -0.6951329 0.6951329 0.1832502
vn -0.9669834 0.1902675 -0.1695326
vn 0.6951887 0.6951329 -0.1830382
vn 0.6951887 0.6951329 0.1830382
vn -0.9669834 0.1902675 0.1695326
vn -0.314542 -0.8893676 -0.3317959
vn -0.2990077 -0.8816004 -0.3652054
vn 0.1825562 -0.07381593 -0.9804206
vn -0.003855667 0.003855667 -0.9999852
vn 0.4078037 0.8349417 -0.3695517
vn 0.4078038 0.8660104 -0.2893478
vn 0.8816004 0.3689121 -0.2944221
vn 0.617517 0.6174612 -0.4872518
vn 0.3145979 -0.7650931 -0.561837
vn 0.3068307 0.7417358 -0.5963916
vn -0.003855666 -0.7806274 -0.6249849
vn -0.003855667 0.7805716 -0.6250546
vn -0.3067749 -0.7417916 -0.5963509
vn -0.314542 0.7650373 -0.5619442
vn -0.6174612 -0.617517 -0.4872518
vn -0.6485299 0.6485299 -0.3985197
vn -0.8815446 -0.368968 -0.2945194
vn -0.9126134 0.3766793 -0.1589013
vn -0.998052 0.003855666 -0.06226715
vn -0.9126134 -0.3767352 0.1587688
vn -0.998052 0.003855666 0.06226715
vn -0.8815446 0.3689122 0.2945894
vn -0.6485299 -0.6485857 0.3984289
vn -0.6174613 0.6174613 0.4873225
vn -0.3145421 -0.7650931 0.5618683
vn -0.3067749 0.7417358 0.5964202
vn -0.003855666 -0.7806274 0.6249849
vn -0.003855667 0.7805716 0.6250546
vn 0.3068307 -0.7417916 0.5963222
vn 0.3145979 0.7650373 0.5619129
vn -0.314542 -0.8816004 0.3519146
vn 0.6485857 0.6485299 0.3984288
vn -0.003855667 0.003855667 0.9999852
vn 0.9126691 0.3766793 0.1585806
vn -0.2990077 -0.8816004 0.3652054
vn 0.4078038 0.8660104 0.2893478
vn 0.1825562 -0.07381593 0.9804206
vn 0.4078037 0.8349417 0.3695517
vn 0.4078037 0.8349417 -0.3695517
vn 0.1825562 -0.07381593 -0.9804206
vn 0.1825562 -0.07381593 0.9804206
vn 0.4078037 0.8349417 0.3695517
vn -0.2990077 -0.8816004 0.3652054
vn 0.4078038 0.8660104 -0.2893478
vn -0.2990077 -0.8816004 -0.3652054
vn 0.4078038 0.8660104 0.2893478
vn -0.314542 -0.8816004 0.3519146
vn 0.8816004 0.3689121 -0.2944221
vn -0.314542 -0.8893676 -0.3317959
vn 0.9126691 0.3766793 0.1585806
vn 0.3068307 -0.7417916 0.5963222
vn 0.617517 0.6174612 -0.4872518
vn 0.3145979 -0.7650931 -0.561837
vn 0.6485857 0.6485299 0.3984288
vn -0.003855666 -0.7806274 0.6249849
vn 0.3068307 0.7417358 -0.5963916
vn -0.003855666 -0.7806274 -0.6249849
vn 0.3145979 0.7650373 0.5619129
vn -0.3145421 -0.7650931 0.5618683
vn -0.003855667 0.7805716 -0.6250546
vn -0.3067749 -0.7417916 -0.5963509
vn -0.003855667 0.7805716 0.6250546
vn -0.6485299 -0.6485857 0.3984289
vn -0.314542 0.7650373 -0.5619442
vn -0.6174612 -0.617517 -0.4872518
vn -0.3067749 0.7417358 0.5964202
vn -0.9126134 -0.3767352 0.1587688
vn -0.6485299 0.6485299 -0.3985197
vn -0.8815446 -0.368968 -0.2945194
vn -0.6174613 0.6174613 0.4873225
vn -0.998052 0.003855666 0.06226715
vn -0.9126134 0.3766793 -0.1589013
vn -0.998052 0.003855666 -0.06226715
vn -0.8815446 0.3689122 0.2945894
g Spin_Holder_0
f 3/3/3 2/2/2 1/1/1
f 2/2/2 4/4/4 1/1/1
f 2/2/2 5/5/5 4/4/4
f 5/5/5 6/6/6 4/4/4
f 5/5/5 7/7/7 6/6/6
f 7/7/7 8/8/8 6/6/6
f 7/7/7 9/9/9 8/8/8
f 9/9/9 10/10/10 8/8/8
f 9/9/9 11/11/11 10/10/10
f 11/11/11 12/12/12 10/10/10
f 11/11/11 13/13/13 12/12/12
f 13/13/13 14/14/14 12/12/12
f 13/13/13 15/15/15 14/14/14
f 15/15/15 16/16/16 14/14/14
f 15/15/15 17/17/17 16/16/16
f 17/17/17 18/18/18 16/16/16
f 17/17/17 19/19/19 18/18/18
f 19/19/19 20/20/20 18/18/18
f 19/19/19 21/21/21 20/20/20
f 21/21/21 22/22/22 20/20/20
f 21/21/21 23/23/23 22/22/22
f 23/23/23 24/24/24 22/22/22
f 23/23/23 25/25/25 24/24/24
f 25/25/25 26/26/26 24/24/24
f 25/25/25 27/27/27 26/26/26
f 27/27/27 28/28/28 26/26/26
f 27/27/27 29/29/29 28/28/28
f 29/29/29 30/30/30 28/28/28
f 33/33/33 32/32/32 31/31/31
f 32/32/32 34/34/34 31/31/31
f 31/31/31 34/34/34 35/35/35
f 34/34/34 36/36/36 35/35/35
f 35/35/35 36/36/36 37/37/37
f 36/36/36 38/38/38 37/37/37
f 37/37/37 38/38/38 39/39/39
f 38/38/38 40/40/40 39/39/39
f 39/39/39 40/40/40 41/41/41
f 40/40/40 42/42/42 41/41/41
f 41/41/41 42/42/42 43/43/43
f 42/42/42 44/44/44 43/43/43
f 43/43/43 44/44/44 45/45/45
f 44/44/44 46/46/46 45/45/45
f 45/45/45 46/46/46 47/47/47
f 46/46/46 48/48/48 47/47/47
f 47/47/47 48/48/48 49/49/49
f 48/48/48 50/50/50 49/49/49
f 49/49/49 50/50/50 51/51/51
f 50/50/50 52/52/52 51/51/51
f 51/51/51 52/52/52 53/53/53
f 52/52/52 54/54/54 53/53/53
f 53/53/53 54/54/54 55/55/55
f 54/54/54 56/56/56 55/55/55
f 55/55/55 56/56/56 57/57/57
f 56/56/56 58/58/58 57/57/57
f 57/57/57 58/58/58 59/59/59
f 58/58/58 60/60/60 59/59/59
f 63/63/63 62/62/62 61/61/61
f 64/64/64 63/63/63 61/61/61
f 65/65/65 63/63/63 64/64/64
f 66/66/66 65/65/65 64/64/64
f 67/67/67 65/65/65 66/66/66
f 68/68/68 67/67/67 66/66/66
f 69/69/69 67/67/67 68/68/68
f 70/70/70 69/69/69 68/68/68
f 71/71/71 69/69/69 70/70/70
f 72/72/72 71/71/71 70/70/70
f 73/73/73 71/71/71 72/72/72
f 74/74/74 73/73/73 72/72/72
f 75/75/75 73/73/73 74/74/74
f 76/76/76 75/75/75 74/74/74
f 77/77/77 75/75/75 76/76/76
f 78/78/78 77/77/77 76/76/76
f 79/79/79 77/77/77 78/78/78
f 80/80/80 79/79/79 78/78/78
f 81/81/81 79/79/79 80/80/80
f 82/82/82 81/81/81 80/80/80
f 83/83/83 81/81/81 82/82/82
f 84/84/84 83/83/83 82/82/82
f 85/85/85 83/83/83 84/84/84
f 86/86/86 85/85/85 84/84/84
f 87/87/87 85/85/85 86/86/86
f 88/88/88 87/87/87 86/86/86
f 89/89/89 87/87/87 88/88/88
f 90/90/90 89/89/89 88/88/88
f 93/93/93 92/92/92 91/91/91
f 94/94/94 93/93/93 91/91/91
f 97/97/97 96/96/96 95/95/95
f 98/98/98 97/97/97 95/95/95
f 99/99/99 97/97/97 98/98/98
f 100/100/100 99/99/99 98/98/98
f 101/101/101 99/99/99 100/100/100
f 102/102/102 101/101/101 100/100/100
f 103/103/103 101/101/101 102/102/102
f 104/104/104 103/103/103 102/102/102
f 105/105/105 103/103/103 104/104/104
f 106/106/106 105/105/105 104/104/104
f 107/107/107 105/105/105 106/106/106
f 108/108/108 107/107/107 106/106/106
f 109/109/109 107/107/107 108/108/108
f 110/110/110 109/109/109 108/108/108
f 111/111/111 109/109/109 110/110/110
f 112/112/112 111/111/111 110/110/110
f 113/113/113 111/111/111 112/112/112
f 114/114/114 113/113/113 112/112/112
f 115/115/115 113/113/113 114/114/114
f 116/116/116 115/115/115 114/114/114
f 117/117/117 115/115/115 116/116/116
f 118/118/118 117/117/117 116/116/116
f 119/119/119 117/117/117 118/118/118
f 120/120/120 119/119/119 118/118/118
f 121/121/121 119/119/119 120/120/120
f 122/122/122 121/121/121 120/120/120
f 123/123/123 121/121/121 122/122/122
f 124/124/124 123/123/123 122/122/122
f 127/127/127 126/126/126 125/125/125
f 128/128/128 127/127/127 125/125/125
f 131/131/131 130/130/130 129/129/129
f 132/132/132 131/131/131 129/129/129
f 133/133/133 131/131/131 132/132/132
f 134/134/134 133/133/133 132/132/132
f 135/135/135 134/134/134 132/132/132
f 132/132/132 129/129/129 135/135/135
f 129/129/129 136/136/136 135/135/135
f 129/129/129 137/137/137 136/136/136
f 137/137/137 138/138/138 136/136/136
f 137/137/137 139/139/139 138/138/138
f 139/139/139 140/140/140 138/138/138
f 139/139/139 141/141/141 140/140/140
f 141/141/141 142/142/142 140/140/140
f 141/141/141 143/143/143 142/142/142
f 143/143/143 144/144/144 142/142/142
f 143/143/143 145/145/145 144/144/144
f 145/145/145 146/146/146 144/144/144
f 145/145/145 147/147/147 146/146/146
f 150/150/150 149/149/149 148/148/148
f 150/150/150 148/148/148 151/151/151
f 152/152/152 150/150/150 151/151/151
f 152/152/152 151/151/151 153/153/153
f 154/154/154 152/152/152 153/153/153
f 154/154/154 153/153/153 155/155/155
f 156/156/156 154/154/154 155/155/155
f 156/156/156 155/155/155 157/157/157
f 158/158/158 156/156/156 157/157/157
f 158/158/158 157/157/157 159/159/159
f 160/160/160 158/158/158 159/159/159
f 160/160/160 159/159/159 161/161/161
f 162/162/162 160/160/160 161/161/161
f 159/159/159 163/163/163 161/161/161
f 161/161/161 164/164/164 162/162/162
f 163/163/163 165/165/165 161/161/161
f 161/161/161 165/165/165 164/164/164
f 165/165/165 166/166/166 164/164/164
f 169/169/169 168/168/168 167/167/167
f 170/170/170 169/169/169 167/167/167
f 169/169/169 171/171/171 168/168/168
f 170/170/170 167/167/167 172/172/172
f 171/171/171 173/173/173 168/168/168
f 174/174/174 170/170/170 172/172/172
f 173/173/173 171/171/171 175/175/175
f 174/174/174 172/172/172 176/176/176
f 177/177/177 173/173/173 175/175/175
f 178/178/178 174/174/174 176/176/176
f 175/175/175 179/179/179 177/177/177
f 178/178/178 176/176/176 180/180/180
f 179/179/179 181/181/181 177/177/177
f 182/182/182 178/178/178 180/180/180
f 179/179/179 183/183/183 181/181/181
f 182/182/182 180/180/180 184/184/184
f 183/183/183 185/185/185 181/181/181
f 186/186/186 182/182/182 184/184/184
f 183/183/183 187/187/187 185/185/185
f 186/186/186 184/184/184 188/188/188
f 187/187/187 189/189/189 185/185/185
f 190/190/190 186/186/186 188/188/188
f 187/187/187 191/191/191 189/189/189
f 190/190/190 188/188/188 192/192/192
f 191/191/191 193/193/193 189/189/189
f 194/194/194 190/190/190 192/192/192
f 191/191/191 195/195/195 193/193/193
f 194/194/194 192/192/192 196/196/196
f 195/195/195 197/197/197 193/193/193
f 198/198/198 194/194/194 196/196/196
f 195/195/195 199/199/199 197/197/197
f 198/198/198 196/196/196 200/200/200
f 199/199/199 201/201/201 197/197/197
f 202/202/202 198/198/198 200/200/200
f 202/202/202 200/200/200 201/201/201
f 199/199/199 202/202/202 201/201/201
