g spitfire_cockpit
v 0.2829659 -0.2389739 -0.2297281
v 0.1420221 0.06163106 -0.2412181
v 0.1417387 0.05336335 -0.2822348
v 0.2652778 -0.1929764 -0.1907702
v 0.2829659 -0.1447099 0.2704084
v 0.2650986 -0.114909 0.2226544
v 0.1432138 0.1519587 0.2607222
v 0.1373136 0.1523308 0.2158867
v 0.1417387 0.05336335 -0.2822348
v 0.1420221 0.06163106 -0.2412181
v -8.378204E-05 0.149566 -0.2577917
v -8.379226E-05 0.1393852 -0.2984479
v 0.2200312 -0.2138864 -0.1868292
v 0.1420221 0.06163106 -0.2412181
v 0.2652778 -0.1929764 -0.1907702
v 0.1030338 0.02765984 -0.2352647
v -8.378204E-05 0.149566 -0.2577917
v -8.378874E-05 0.09119825 -0.2479159
v -0.1032015 0.02765986 -0.2352647
v -0.1421898 0.0616311 -0.241218
v -0.220199 -0.2138864 -0.1868291
v -0.2654457 -0.1929764 -0.1907702
v -8.378934E-05 0.21014 0.2178257
v 0.09649353 0.1502696 0.2165845
v 0.1373136 0.1523308 0.2158867
v -8.37788E-05 0.269311 0.2217072
v -0.1374813 0.1523308 0.2158867
v -0.09666114 0.1502696 0.2165845
v 0.09649353 0.1502696 0.2165845
v 0.2199257 -0.1357671 0.2277366
v 0.2650986 -0.114909 0.2226544
v 0.1373136 0.1523308 0.2158867
v 0.2199257 -0.1357671 0.2277366
v 0.2200312 -0.2138864 -0.1868292
v 0.2652778 -0.1929764 -0.1907702
v 0.2650986 -0.114909 0.2226544
v -0.2200934 -0.135767 0.2277367
v -0.2652663 -0.1149089 0.2226544
v -0.2654457 -0.1929764 -0.1907702
v -0.220199 -0.2138864 -0.1868291
v -0.1374813 0.1523308 0.2158867
v -8.37788E-05 0.269311 0.2217072
v -8.376918E-05 0.2689523 0.2679024
v -0.1433814 0.1519588 0.2607222
v -0.2652663 -0.1149089 0.2226544
v -0.1374813 0.1523308 0.2158867
v -0.1433814 0.1519588 0.2607222
v -0.2831336 -0.1447099 0.2704084
v -0.2654457 -0.1929764 -0.1907702
v -0.2831337 -0.2389738 -0.229728
v -0.1421898 0.0616311 -0.241218
v -0.1419065 0.05336338 -0.2822348
v -0.09666114 0.1502696 0.2165845
v -0.1374813 0.1523308 0.2158867
v -0.2652663 -0.1149089 0.2226544
v -0.2200934 -0.135767 0.2277367
v -0.1419065 0.05336338 -0.2822348
v -8.379226E-05 0.1393852 -0.2984479
v -8.378204E-05 0.149566 -0.2577917
v -0.1421898 0.0616311 -0.241218
v 0.1373136 0.1523308 0.2158867
v 0.1432138 0.1519587 0.2607222
v -8.376918E-05 0.2689523 0.2679024
v -8.37788E-05 0.269311 0.2217072
v 0.09696206 0.1301274 0.2558242
v 0.09649353 0.1502696 0.2165845
v -8.378934E-05 0.21014 0.2178257
v -8.378066E-05 0.2075747 0.2613307
v 0.2199257 -0.1461421 0.271258
v 0.2199257 -0.1357671 0.2277366
v 0.09649353 0.1502696 0.2165845
v 0.09696206 0.1301274 0.2558242
v -0.2200934 -0.1461421 0.271258
v -0.0971297 0.1301274 0.2558242
v -0.09666114 0.1502696 0.2165845
v -0.2200934 -0.135767 0.2277367
v -0.1032015 0.02765986 -0.2352647
v -8.378874E-05 0.09119825 -0.2479159
v -8.379686E-05 0.0657135 -0.2845625
v -0.1032015 0.002052117 -0.2725638
v -0.0971297 0.1301274 0.2558242
v -8.378066E-05 0.2075747 0.2613307
v -8.378934E-05 0.21014 0.2178257
v -0.09666114 0.1502696 0.2165845
v -0.2200934 -0.135767 0.2277367
v -0.220199 -0.2138864 -0.1868291
v -0.220199 -0.2394941 -0.2241281
v -0.2200934 -0.1461421 0.271258
v 0.2200312 -0.2138864 -0.1868292
v 0.2200312 -0.2394942 -0.2241283
v 0.1030337 0.002052099 -0.2725638
v 0.1030338 0.02765984 -0.2352647
v 0.2199257 -0.1357671 0.2277366
v 0.2199257 -0.1461421 0.271258
v 0.2200312 -0.2394942 -0.2241283
v 0.2200312 -0.2138864 -0.1868292
v -0.2831337 -0.2389738 -0.229728
v -0.2831336 -0.1447099 0.2704084
v -0.2200934 -0.1461421 0.271258
v -0.220199 -0.2394941 -0.2241281
v 0.1030338 0.02765984 -0.2352647
v 0.1030337 0.002052099 -0.2725638
v -8.379686E-05 0.0657135 -0.2845625
v -8.378874E-05 0.09119825 -0.2479159
v -0.220199 -0.2138864 -0.1868291
v -0.1032015 0.02765986 -0.2352647
v -0.1032015 0.002052117 -0.2725638
v -0.220199 -0.2394941 -0.2241281
v -0.2831337 -0.2389738 -0.229728
v -0.220199 -0.2394941 -0.2241281
v -0.1032015 0.002052117 -0.2725638
v -0.1419065 0.05336338 -0.2822348
v -8.379686E-05 0.0657135 -0.2845625
v -8.379226E-05 0.1393852 -0.2984479
v 0.1417387 0.05336335 -0.2822348
v 0.1030337 0.002052099 -0.2725638
v 0.2829659 -0.2389739 -0.2297281
v 0.2200312 -0.2394942 -0.2241283
v -0.1433814 0.1519588 0.2607222
v -0.0971297 0.1301274 0.2558242
v -0.2200934 -0.1461421 0.271258
v -0.2831336 -0.1447099 0.2704084
v -8.376918E-05 0.2689523 0.2679024
v -8.378066E-05 0.2075747 0.2613307
v -0.0971297 0.1301274 0.2558242
v -0.1433814 0.1519588 0.2607222
v 0.1432138 0.1519587 0.2607222
v 0.09696206 0.1301274 0.2558242
v -8.378066E-05 0.2075747 0.2613307
v -8.376918E-05 0.2689523 0.2679024
v 0.2829659 -0.1447099 0.2704084
v 0.2199257 -0.1461421 0.271258
v 0.09696206 0.1301274 0.2558242
v 0.1432138 0.1519587 0.2607222
v 0.2829659 -0.2389739 -0.2297281
v 0.2200312 -0.2394942 -0.2241283
v 0.2199257 -0.1461421 0.271258
v 0.2829659 -0.1447099 0.2704084
v -8.386982E-05 0.2393156 -0.0481144
v 0.1373137 0.1525403 0.2169981
v -8.37788E-05 0.269311 0.2217072
v 0.1420221 0.06163106 -0.2412181
v -8.386982E-05 0.2393156 -0.0481144
v -8.378204E-05 0.149566 -0.2577917
v 0.1373137 0.1525403 0.2169981
v -8.386982E-05 0.2393156 -0.0481144
v 0.1420221 0.06163106 -0.2412181
v -8.386982E-05 0.2393156 -0.0481144
v -8.37788E-05 0.269311 0.2217072
v -0.1374813 0.1523308 0.2158867
v -0.1421898 0.0616311 -0.241218
v -8.378204E-05 0.149566 -0.2577917
v -8.386982E-05 0.2393156 -0.0481144
v -0.1374813 0.1523308 0.2158867
v -0.1421898 0.0616311 -0.241218
v -8.386982E-05 0.2393156 -0.0481144
v 0.2650986 -0.1146994 0.2237658
v 0.1373137 0.1525403 0.2169981
vt 0.372105 0.9496877
vt 0.3444815 0.9461287
vt 0.3445258 0.9496877
vt 0.3685725 0.9457335
vt 0.3718537 0.9063848
vt 0.3683461 0.909936
vt 0.3445816 0.9027334
vt 0.3437139 0.9064814
vt 0.3445258 0.9496877
vt 0.3444815 0.9461287
vt 0.3314484 0.9461281
vt 0.331643 0.9496853
vt 0.8506202 0.9651538
vt 0.8269907 0.9585157
vt 0.848828 0.9690039
vt 0.8298997 0.955198
vt 0.8194536 0.9464235
vt 0.8244498 0.9464235
vt 0.8298997 0.9376489
vt 0.8269907 0.9343312
vt 0.8506202 0.9276932
vt 0.848828 0.923843
vt 0.9015716 0.9445165
vt 0.9066131 0.9362984
vt 0.9064332 0.9328249
vt 0.8966116 0.9445165
vt 0.9064332 0.9562081
vt 0.9066131 0.9527346
vt 0.9066131 0.9362984
vt 0.9308443 0.9257952
vt 0.9290411 0.9219513
vt 0.9064332 0.9328249
vt 0.9881198 0.06372485
vt 0.988125 0.09962126
vt 0.9921089 0.09963326
vt 0.9921089 0.06383299
vt 0.2560318 0.9534584
vt 0.2523814 0.9535263
vt 0.2523881 0.9893242
vt 0.2560307 0.9893526
vt 0.9493838 0.4044687
vt 0.964462 0.4022499
vt 0.963951 0.3983937
vt 0.948534 0.4007211
vt 0.9258414 0.4080244
vt 0.9493838 0.4044687
vt 0.948534 0.4007211
vt 0.9225017 0.4044885
vt 0.9255869 0.4438236
vt 0.9222174 0.4477936
vt 0.9485732 0.4441157
vt 0.948535 0.447676
vt 0.9066131 0.9527346
vt 0.9064332 0.9562081
vt 0.9290411 0.9670817
vt 0.9308443 0.9632378
vt 0.948535 0.447676
vt 0.9622764 0.4477936
vt 0.9624487 0.4442335
vt 0.9485732 0.4441157
vt 0.3437139 0.9064814
vt 0.3445816 0.9027334
vt 0.3297798 0.9003133
vt 0.329176 0.9041794
vt 0.9323304 0.6061308
vt 0.9302443 0.6032629
vt 0.9222174 0.6038465
vt 0.9230263 0.6073959
vt 0.9578187 0.603018
vt 0.956423 0.5996147
vt 0.9302443 0.6032629
vt 0.9323304 0.6061308
vt 0.9896051 0.7154443
vt 0.9887658 0.740408
vt 0.991448 0.7417341
vt 0.9927984 0.7160836
vt 0.287611 0.9735835
vt 0.2887096 0.9834864
vt 0.2922853 0.9822391
vt 0.2912408 0.972335
vt 0.9887658 0.740408
vt 0.9894547 0.7506832
vt 0.9927984 0.7507976
vt 0.991448 0.7417341
vt 0.2560318 0.9534584
vt 0.2560307 0.9893526
vt 0.2573146 0.9928632
vt 0.2573146 0.9499711
vt 0.9564234 0.5638563
vt 0.9578187 0.5602882
vt 0.9346905 0.5600563
vt 0.9332952 0.5636244
vt 0.956423 0.5996147
vt 0.9578187 0.603018
vt 0.9578187 0.5602882
vt 0.9564234 0.5638563
vt 0.9933935 0.4399687
vt 0.9933935 0.3983937
vt 0.989976 0.3995028
vt 0.9899809 0.4406807
vt 0.9332952 0.5636244
vt 0.9346905 0.5600563
vt 0.9259511 0.5595726
vt 0.9245557 0.5630844
vt 0.2886555 0.9512197
vt 0.287611 0.9735835
vt 0.2912408 0.972335
vt 0.2922852 0.9499711
vt 0.5608369 0.8793206
vt 0.5609283 0.8739653
vt 0.5401343 0.8640096
vt 0.5357224 0.8673031
vt 0.5346604 0.855235
vt 0.5283258 0.855235
vt 0.5357224 0.8431668
vt 0.5401343 0.8464604
vt 0.5608369 0.8311494
vt 0.5609283 0.8365047
vt 0.9415364 0.3031362
vt 0.9433547 0.3070719
vt 0.9668195 0.2966085
vt 0.9666933 0.2912442
vt 0.9316801 0.3153298
vt 0.9368345 0.3153298
vt 0.9433547 0.3070719
vt 0.9415364 0.3031362
vt 0.9415364 0.3275235
vt 0.9433547 0.3235877
vt 0.9368345 0.3153298
vt 0.9316801 0.3153298
vt 0.9666933 0.3394154
vt 0.9668195 0.3340511
vt 0.9433547 0.3235877
vt 0.9415364 0.3275235
vt 0.984362 0.5486497
vt 0.9879722 0.5471024
vt 0.9879722 0.5059208
vt 0.984355 0.5070746
vt 0.3278688 0.9272338
vt 0.3437134 0.9063852
vt 0.329176 0.9041794
vt 0.3444815 0.9461287
vt 0.3278688 0.9272338
vt 0.3314484 0.9461281
vt 0.3437134 0.9063852
vt 0.3278688 0.9272338
vt 0.3444815 0.9461287
vt 0.9655448 0.4252824
vt 0.964462 0.4022499
vt 0.9493838 0.4044687
vt 0.9485732 0.4441157
vt 0.9624487 0.4442335
vt 0.9655448 0.4252824
vt 0.9493838 0.4044687
vt 0.9485732 0.4441157
vt 0.9655448 0.4252824
vt 0.3683456 0.9098397
vt 0.3437134 0.9063852
vn 0.9031624 0.420081 -0.08848445
vn 0.9031624 0.420081 -0.08848445
vn 0.9031624 0.420081 -0.08848445
vn 0.9031624 0.420081 -0.08848445
vn 0.9060286 0.4159141 -0.07827913
vn 0.9060286 0.4159141 -0.07827913
vn 0.9006211 0.4245763 -0.09282605
vn 0.9006211 0.4245763 -0.09282605
vn 0.5287881 0.8274993 -0.1887537
vn 0.5287881 0.8274993 -0.1887537
vn 0.5287881 0.8274993 -0.1887537
vn 0.5287881 0.8274993 -0.1887537
vn -0.009242179 0.1911412 0.9815191
vn -0.009242179 0.1911412 0.9815191
vn -0.009242179 0.1911412 0.9815191
vn -0.009242179 0.1911412 0.9815191
vn -0.01037941 0.1732074 0.9848307
vn -0.01037941 0.1732074 0.9848307
vn 0.01037963 0.1732075 0.9848307
vn 0.01037963 0.1732075 0.9848307
vn 0.009242365 0.1911417 0.981519
vn 0.009242365 0.1911417 0.981519
vn 0.006056293 0.04789564 -0.998834
vn 0.006056293 0.04789564 -0.998834
vn 0.006056293 0.04789564 -0.998834
vn 0.006056293 0.04789564 -0.998834
vn -0.00605638 0.04789633 -0.998834
vn -0.00605638 0.04789633 -0.998834
vn -0.05210601 -0.05595258 -0.9970728
vn -0.05210601 -0.05595258 -0.9970728
vn -0.05210601 -0.05595258 -0.9970728
vn -0.05210601 -0.05595258 -0.9970728
vn -0.4271615 0.888479 -0.167744
vn -0.4271615 0.888479 -0.167744
vn -0.4271615 0.888479 -0.167744
vn -0.4271615 0.888479 -0.167744
vn 0.4271618 0.8884789 -0.1677441
vn 0.4271618 0.8884789 -0.1677441
vn 0.4271618 0.8884789 -0.1677441
vn 0.4271618 0.8884789 -0.1677441
vn -0.6389218 0.768464 -0.03524188
vn -0.6389218 0.768464 -0.03524188
vn -0.6389218 0.768464 -0.03524188
vn -0.6389218 0.768464 -0.03524188
vn -0.9006209 0.4245768 -0.09282634
vn -0.9006209 0.4245768 -0.09282634
vn -0.9006209 0.4245768 -0.09282634
vn -0.9006209 0.4245768 -0.09282634
vn -0.9060286 0.4159141 -0.07827877
vn -0.9060286 0.4159141 -0.07827877
vn -0.9031624 0.4200812 -0.08848508
vn -0.9031624 0.4200812 -0.08848508
vn 0.05210584 -0.05595271 -0.9970728
vn 0.05210584 -0.05595271 -0.9970728
vn 0.05210584 -0.05595271 -0.9970728
vn 0.05210584 -0.05595271 -0.9970728
vn -0.5287873 0.8275 -0.1887538
vn -0.5287873 0.8275 -0.1887538
vn -0.5287873 0.8275 -0.1887538
vn -0.5287873 0.8275 -0.1887538
vn 0.6389217 0.768464 -0.03524195
vn 0.6389217 0.768464 -0.03524195
vn 0.6389217 0.768464 -0.03524195
vn 0.6389217 0.768464 -0.03524195
vn -0.5699922 -0.793173 -0.2144422
vn -0.5699922 -0.793173 -0.2144422
vn -0.5699922 -0.793173 -0.2144422
vn -0.5699922 -0.793173 -0.2144422
vn -0.9039434 -0.4028791 -0.1434395
vn -0.9039434 -0.4028791 -0.1434395
vn -0.9039434 -0.4028791 -0.1434395
vn -0.9039434 -0.4028791 -0.1434395
vn 0.9039432 -0.4028791 -0.1434399
vn 0.9039432 -0.4028791 -0.1434399
vn 0.9039432 -0.4028791 -0.1434399
vn 0.9039432 -0.4028791 -0.1434399
vn 0.4987116 -0.713104 0.4927164
vn 0.4987116 -0.713104 0.4927164
vn 0.4987116 -0.713104 0.4927164
vn 0.4987116 -0.713104 0.4927164
vn 0.5699919 -0.7931733 -0.2144424
vn 0.5699919 -0.7931733 -0.2144424
vn 0.5699919 -0.7931733 -0.2144424
vn 0.5699919 -0.7931733 -0.2144424
vn 1 -3.846137E-05 -0.0002247766
vn 1 -3.846137E-05 -0.0002247766
vn 1 -3.846137E-05 -0.0002247766
vn 1 -3.846137E-05 -0.0002247766
vn -0.8885088 -0.378287 0.2597135
vn -0.8885088 -0.378287 0.2597135
vn -0.8885088 -0.378287 0.2597135
vn -0.8885088 -0.378287 0.2597135
vn -1 -3.921436E-05 -0.0002241154
vn -1 -3.921436E-05 -0.0002241154
vn -1 -3.921436E-05 -0.0002241154
vn -1 -3.921436E-05 -0.0002241154
vn -0.02470491 -0.9824005 0.1851458
vn -0.02470491 -0.9824005 0.1851458
vn -0.02470491 -0.9824005 0.1851458
vn -0.02470491 -0.9824005 0.1851458
vn -0.4987124 -0.7131034 0.4927165
vn -0.4987124 -0.7131034 0.4927165
vn -0.4987124 -0.7131034 0.4927165
vn -0.4987124 -0.7131034 0.4927165
vn 0.8885085 -0.3782872 0.2597138
vn 0.8885085 -0.3782872 0.2597138
vn 0.8885085 -0.3782872 0.2597138
vn 0.8885085 -0.3782872 0.2597138
vn 0.04221836 -0.2052926 -0.9777896
vn 0.04221836 -0.2052926 -0.9777896
vn 1.979647E-07 -0.1852153 -0.982698
vn 1.979647E-07 -0.1852153 -0.982698
vn -2.513839E-07 -0.1852152 -0.982698
vn -2.513839E-07 -0.1852152 -0.982698
vn -2.513839E-07 -0.1852152 -0.982698
vn -2.513839E-07 -0.1852152 -0.982698
vn -0.0422182 -0.2052922 -0.9777898
vn -0.0422182 -0.2052922 -0.9777898
vn 0.04220057 0.0244409 0.9988102
vn 0.04220057 0.0244409 0.9988102
vn 0.04220057 0.0244409 0.9988102
vn 0.04220057 0.0244409 0.9988102
vn 0.04021351 -0.1144709 0.9926124
vn 0.04021351 -0.1144709 0.9926124
vn 0.04021351 -0.1144709 0.9926124
vn 0.04021351 -0.1144709 0.9926124
vn -0.04021355 -0.1144719 0.9926122
vn -0.04021355 -0.1144719 0.9926122
vn -0.04021355 -0.1144719 0.9926122
vn -0.04021355 -0.1144719 0.9926122
vn -0.04219979 0.02444155 0.9988102
vn -0.04219979 0.02444155 0.9988102
vn -0.04219979 0.02444155 0.9988102
vn -0.04219979 0.02444155 0.9988102
vn 0.0247046 -0.9824005 0.1851456
vn 0.0247046 -0.9824005 0.1851456
vn 0.0247046 -0.9824005 0.1851456
vn 0.0247046 -0.9824005 0.1851456
vn 0.6435891 0.7606853 -0.08456368
vn 0.6435891 0.7606853 -0.08456368
vn 0.6435891 0.7606853 -0.08456368
vn 0.5237176 0.7831639 -0.3352226
vn 0.5237176 0.7831639 -0.3352226
vn 0.5237176 0.7831639 -0.3352226
vn 0.6990165 0.702771 -0.1322458
vn 0.6990165 0.702771 -0.1322458
vn 0.6990165 0.702771 -0.1322458
vn -0.6438677 0.7604524 -0.08453735
vn -0.6438677 0.7604524 -0.08453735
vn -0.6438677 0.7604524 -0.08453735
vn -0.5237171 0.783164 -0.335223
vn -0.5237171 0.783164 -0.335223
vn -0.5237171 0.783164 -0.335223
vn -0.6990169 0.7027706 -0.1322448
vn -0.6990169 0.7027706 -0.1322448
vn -0.6990169 0.7027706 -0.1322448
vn 0.9017351 0.4253042 -0.07739694
vn 0.9017351 0.4253042 -0.07739694
g spitfire_cockpit_0
f 3/3/3 2/2/2 1/1/1
f 2/2/2 4/4/4 1/1/1
f 5/5/5 1/1/1 4/4/4
f 6/6/6 5/5/5 4/4/4
f 7/7/7 5/5/5 6/6/6
f 8/8/8 7/7/7 6/6/6
f 11/11/11 10/10/10 9/9/9
f 12/12/12 11/11/11 9/9/9
f 15/15/15 14/14/14 13/13/13
f 14/14/14 16/16/16 13/13/13
f 14/14/14 17/17/17 16/16/16
f 17/17/17 18/18/18 16/16/16
f 18/18/18 17/17/17 19/19/19
f 17/17/17 20/20/20 19/19/19
f 19/19/19 20/20/20 21/21/21
f 20/20/20 22/22/22 21/21/21
f 25/25/25 24/24/24 23/23/23
f 26/26/26 25/25/25 23/23/23
f 27/27/27 26/26/26 23/23/23
f 28/28/28 27/27/27 23/23/23
f 31/31/31 30/30/30 29/29/29
f 32/32/32 31/31/31 29/29/29
f 35/35/35 34/34/34 33/33/33
f 36/36/36 35/35/35 33/33/33
f 39/39/39 38/38/38 37/37/37
f 40/40/40 39/39/39 37/37/37
f 43/43/43 42/42/42 41/41/41
f 44/44/44 43/43/43 41/41/41
f 47/47/47 46/46/46 45/45/45
f 48/48/48 47/47/47 45/45/45
f 48/48/48 45/45/45 49/49/49
f 50/50/50 48/48/48 49/49/49
f 49/49/49 51/51/51 50/50/50
f 51/51/51 52/52/52 50/50/50
f 55/55/55 54/54/54 53/53/53
f 56/56/56 55/55/55 53/53/53
f 59/59/59 58/58/58 57/57/57
f 60/60/60 59/59/59 57/57/57
f 63/63/63 62/62/62 61/61/61
f 64/64/64 63/63/63 61/61/61
f 67/67/67 66/66/66 65/65/65
f 68/68/68 67/67/67 65/65/65
f 71/71/71 70/70/70 69/69/69
f 72/72/72 71/71/71 69/69/69
f 75/75/75 74/74/74 73/73/73
f 76/76/76 75/75/75 73/73/73
f 79/79/79 78/78/78 77/77/77
f 80/80/80 79/79/79 77/77/77
f 83/83/83 82/82/82 81/81/81
f 84/84/84 83/83/83 81/81/81
f 87/87/87 86/86/86 85/85/85
f 88/88/88 87/87/87 85/85/85
f 91/91/91 90/90/90 89/89/89
f 92/92/92 91/91/91 89/89/89
f 95/95/95 94/94/94 93/93/93
f 96/96/96 95/95/95 93/93/93
f 99/99/99 98/98/98 97/97/97
f 100/100/100 99/99/99 97/97/97
f 103/103/103 102/102/102 101/101/101
f 104/104/104 103/103/103 101/101/101
f 107/107/107 106/106/106 105/105/105
f 108/108/108 107/107/107 105/105/105
f 111/111/111 110/110/110 109/109/109
f 112/112/112 111/111/111 109/109/109
f 113/113/113 111/111/111 112/112/112
f 114/114/114 113/113/113 112/112/112
f 113/113/113 114/114/114 115/115/115
f 116/116/116 113/113/113 115/115/115
f 116/116/116 115/115/115 117/117/117
f 118/118/118 116/116/116 117/117/117
f 121/121/121 120/120/120 119/119/119
f 122/122/122 121/121/121 119/119/119
f 125/125/125 124/124/124 123/123/123
f 126/126/126 125/125/125 123/123/123
f 129/129/129 128/128/128 127/127/127
f 130/130/130 129/129/129 127/127/127
f 133/133/133 132/132/132 131/131/131
f 134/134/134 133/133/133 131/131/131
f 137/137/137 136/136/136 135/135/135
f 138/138/138 137/137/137 135/135/135
g spitfire_cockpit_1
f 141/141/141 140/140/140 139/139/139
f 144/144/144 143/143/143 142/142/142
f 147/147/147 146/146/146 145/145/145
f 150/150/150 149/149/149 148/148/148
f 153/153/153 152/152/152 151/151/151
f 156/156/156 155/155/155 154/154/154
f 158/158/158 157/157/157 4/4/4
f 2/2/2 158/158/158 4/4/4
f 46/46/46 51/51/51 49/49/49
f 45/45/45 46/46/46 49/49/49
