g train_wagon_oil_wheel_front_B
v -0.9478145 -0.1428884 0.674944
v -0.9478145 -1.811981E-05 1.215344
v -0.9478145 -0.1428884 1.215344
v -0.9478145 -1.811981E-05 0.674944
v -0.9478145 -0.3756276 0.3077539
v -0.9478145 -1.811981E-05 0.3077539
v -0.9478145 -0.3756276 -0.3077531
v -0.9478145 -1.811981E-05 -0.3077531
v -0.9478145 -0.1428884 -0.6749432
v -0.9478145 -1.811981E-05 -0.6749432
v -0.9478145 -0.1428884 -1.215343
v -0.9478145 -1.811981E-05 -1.215343
v -0.8369899 -1.811981E-05 -0.3077531
v -0.8369899 -0.1428884 -0.6749432
v -0.8369899 -0.3756276 -0.3077531
v -0.8369899 -1.811981E-05 -0.6749432
v -0.8369899 -0.1428884 -1.215343
v -0.8369899 -1.811981E-05 -1.215343
v -0.8369899 -1.811981E-05 0.674944
v -0.8369899 -1.811981E-05 0.3077539
v -0.8369899 -0.3756276 0.3077539
v -0.8369899 -0.1428884 0.674944
v -0.8369899 -1.811981E-05 1.215344
v -0.8369899 -0.1428884 1.215344
v -0.8369899 -1.811981E-05 0.3077539
v -0.8369899 -1.811981E-05 -0.3077531
v 0.836989 -1.811981E-05 -0.3077531
v 0.836989 -1.811981E-05 0.3077539
v -0.9478145 -1.811981E-05 -1.215343
v -0.8369899 -1.811981E-05 -1.215343
v -0.8369899 -1.811981E-05 -0.6749432
v -0.9478145 -1.811981E-05 -0.6749432
v -0.8369899 -1.811981E-05 -0.3077531
v -0.9478145 -1.811981E-05 -0.3077531
v -0.8369899 -1.811981E-05 0.3077539
v -0.9478145 -1.811981E-05 0.3077539
v -0.8369899 -1.811981E-05 0.674944
v -0.9478145 -1.811981E-05 0.674944
v -0.8369899 -1.811981E-05 1.215344
v -0.9478145 -1.811981E-05 1.215344
v -0.9478145 -1.811981E-05 1.215344
v -0.8369899 -1.811981E-05 1.215344
v -0.8369899 -0.1428884 1.215344
v -0.9478145 -0.1428884 1.215344
v -0.9478145 -0.1428884 0.674944
v -0.8369899 -0.1428884 0.674944
v -0.8369899 -0.3756276 0.3077539
v -0.9478145 -0.3756276 0.3077539
v -0.9478145 -0.1428884 -1.215343
v -0.8369899 -0.1428884 -1.215343
v -0.8369899 -1.811981E-05 -1.215343
v -0.9478145 -1.811981E-05 -1.215343
v -0.9478145 -0.1428884 1.215344
v -0.8369899 -0.1428884 1.215344
v -0.8369899 -0.1428884 0.674944
v -0.9478145 -0.1428884 0.674944
v -0.9478145 -0.1428884 -0.6749432
v -0.8369899 -0.1428884 -0.6749432
v -0.8369899 -0.1428884 -1.215343
v -0.9478145 -0.1428884 -1.215343
v -0.9478145 -0.3756276 -0.3077531
v -0.8369899 -0.3756276 -0.3077531
v -0.8369899 -0.1428884 -0.6749432
v -0.9478145 -0.1428884 -0.6749432
v 0.836989 -1.811981E-05 -0.3077531
v -0.8369899 -1.811981E-05 -0.3077531
v -0.8369899 -0.3756276 -0.3077531
v 0.836989 -0.3756276 -0.3077531
v -0.9478145 -0.3756276 0.3077539
v -0.8369899 -0.3756276 0.3077539
v -0.8369899 -0.3756276 -0.3077531
v -0.9478145 -0.3756276 -0.3077531
v 0.9478137 -0.1428884 0.674944
v 0.9478137 -0.1428884 1.215344
v 0.9478137 -1.811981E-05 1.215344
v 0.9478137 -1.811981E-05 0.674944
v 0.9478137 -0.3756276 0.3077539
v 0.9478137 -1.811981E-05 0.3077539
v 0.9478137 -0.3756276 -0.3077531
v 0.9478137 -1.811981E-05 -0.3077531
v 0.9478137 -0.1428884 -0.6749432
v 0.9478137 -1.811981E-05 -0.6749432
v 0.9478137 -0.1428884 -1.215343
v 0.9478137 -1.811981E-05 -1.215343
v 0.836989 -1.811981E-05 -0.3077531
v 0.836989 -0.3756276 -0.3077531
v 0.836989 -0.1428884 -0.6749432
v 0.836989 -1.811981E-05 -0.6749432
v 0.836989 -0.1428884 -1.215343
v 0.836989 -1.811981E-05 -1.215343
v 0.836989 -1.811981E-05 0.674944
v 0.836989 -0.3756276 0.3077539
v 0.836989 -1.811981E-05 0.3077539
v 0.836989 -0.1428884 0.674944
v 0.836989 -1.811981E-05 1.215344
v 0.836989 -0.1428884 1.215344
v -0.8369899 -0.3756276 -0.3077531
v -0.8369899 -0.3756276 0.3077539
v 0.836989 -0.3756276 0.3077539
v 0.836989 -0.3756276 -0.3077531
v 0.9478137 -1.811981E-05 -1.215343
v 0.836989 -1.811981E-05 -0.6749432
v 0.836989 -1.811981E-05 -1.215343
v 0.9478137 -1.811981E-05 -0.6749432
v 0.836989 -1.811981E-05 -0.3077531
v 0.9478137 -1.811981E-05 -0.3077531
v 0.836989 -1.811981E-05 0.3077539
v 0.9478137 -1.811981E-05 0.3077539
v 0.836989 -1.811981E-05 0.674944
v 0.9478137 -1.811981E-05 0.674944
v 0.836989 -1.811981E-05 1.215344
v 0.9478137 -1.811981E-05 1.215344
v 0.9478137 -1.811981E-05 1.215344
v 0.9478137 -0.1428884 1.215344
v 0.836989 -0.1428884 1.215344
v 0.836989 -1.811981E-05 1.215344
v 0.9478137 -0.1428884 0.674944
v 0.9478137 -0.3756276 0.3077539
v 0.836989 -0.3756276 0.3077539
v 0.836989 -0.1428884 0.674944
v 0.9478137 -0.1428884 -1.215343
v 0.9478137 -1.811981E-05 -1.215343
v 0.836989 -1.811981E-05 -1.215343
v 0.836989 -0.1428884 -1.215343
v 0.9478137 -0.1428884 1.215344
v 0.9478137 -0.1428884 0.674944
v 0.836989 -0.1428884 0.674944
v 0.836989 -0.1428884 1.215344
v 0.9478137 -0.1428884 -0.6749432
v 0.9478137 -0.1428884 -1.215343
v 0.836989 -0.1428884 -1.215343
v 0.836989 -0.1428884 -0.6749432
v 0.9478137 -0.3756276 -0.3077531
v 0.9478137 -0.1428884 -0.6749432
v 0.836989 -0.1428884 -0.6749432
v 0.836989 -0.3756276 -0.3077531
v 0.9478137 -0.3756276 0.3077539
v 0.9478137 -0.3756276 -0.3077531
v 0.836989 -0.3756276 -0.3077531
v 0.836989 -0.3756276 0.3077539
v -0.8369899 -1.811981E-05 0.3077539
v 0.836989 -1.811981E-05 0.3077539
v 0.836989 -0.3756276 0.3077539
v -0.8369899 -0.3756276 0.3077539
vt 0.1290723 0.7972163
vt 0.1448919 0.7646466
vt 0.1365168 0.7627855
vt 0.138378 0.7972163
vt 0.1216278 0.821411
vt 0.1402391 0.8186193
vt 0.1216278 0.8493278
vt 0.1402391 0.851189
vt 0.1300029 0.8735225
vt 0.1393085 0.8725919
vt 0.1374474 0.9051616
vt 0.1448919 0.9033005
vt 0.1030166 0.8632863
vt 0.123489 0.8753836
vt 0.1160445 0.8502584
vt 0.1151139 0.8791058
vt 0.131864 0.9060922
vt 0.1244195 0.9088838
vt 0.1141833 0.791633
vt 0.102086 0.8074525
vt 0.1160445 0.8204804
vt 0.1225584 0.7953552
vt 0.1216278 0.7599938
vt 0.1300029 0.7618549
vt 0.002515815 0.8121053
vt 0.002515815 0.8474667
vt 0.09743321 0.8474667
vt 0.09743321 0.8121053
vt 0.1448919 0.9033005
vt 0.1514058 0.9023699
vt 0.1458225 0.8725919
vt 0.1393085 0.8725919
vt 0.146753 0.851189
vt 0.1402391 0.851189
vt 0.1458225 0.8186193
vt 0.1402391 0.8186193
vt 0.1448919 0.7981469
vt 0.138378 0.7972163
vt 0.1514058 0.7655772
vt 0.1448919 0.7646466
vt 0.1448919 0.7646466
vt 0.1458225 0.7581327
vt 0.1374474 0.7562715
vt 0.1365168 0.7627855
vt 0.1290723 0.7972163
vt 0.1225584 0.7953552
vt 0.1160445 0.8204804
vt 0.1216278 0.821411
vt 0.1374474 0.9051616
vt 0.138378 0.910745
vt 0.1458225 0.9088838
vt 0.1448919 0.9033005
vt 0.1365168 0.7627855
vt 0.1300029 0.7618549
vt 0.1225584 0.7953552
vt 0.1290723 0.7972163
vt 0.1300029 0.8735225
vt 0.123489 0.8753836
vt 0.131864 0.9060922
vt 0.1374474 0.9051616
vt 0.1216278 0.8493278
vt 0.1160445 0.8502584
vt 0.123489 0.8753836
vt 0.1300029 0.8735225
vt 0.09743321 0.8474667
vt 0.002515815 0.8474667
vt 0.002515815 0.8688697
vt 0.09743321 0.8688697
vt 0.1216278 0.821411
vt 0.1160445 0.8204804
vt 0.1160445 0.8502584
vt 0.1216278 0.8493278
vt 0.3403101 0.9144672
vt 0.346824 0.9479675
vt 0.3551991 0.9461063
vt 0.3496157 0.9135367
vt 0.3328656 0.8902726
vt 0.3505463 0.8921337
vt 0.3328656 0.8614252
vt 0.3514768 0.859564
vt 0.3403101 0.8381611
vt 0.3496157 0.8381611
vt 0.3477546 0.8055914
vt 0.3551991 0.8074525
vt 0.3133238 0.8474667
vt 0.3272822 0.8604946
vt 0.3337961 0.8363
vt 0.3263516 0.8316472
vt 0.3421712 0.8046608
vt 0.3347267 0.8027997
vt 0.3244905 0.9200506
vt 0.3272822 0.8912032
vt 0.3133238 0.9033005
vt 0.3328656 0.9163283
vt 0.3328656 0.9516897
vt 0.3403101 0.948898
vt 0.002515815 0.7562715
vt 0.002515815 0.791633
vt 0.09743321 0.791633
vt 0.09743321 0.7562715
vt 0.3551991 0.8074525
vt 0.3561296 0.8390917
vt 0.361713 0.808383
vt 0.3496157 0.8381611
vt 0.3570602 0.859564
vt 0.3514768 0.859564
vt 0.3570602 0.8921337
vt 0.3505463 0.8921337
vt 0.3561296 0.9135367
vt 0.3496157 0.9135367
vt 0.361713 0.9451758
vt 0.3551991 0.9461063
vt 0.3551991 0.9461063
vt 0.346824 0.9479675
vt 0.3477546 0.9544814
vt 0.3561296 0.9526203
vt 0.3403101 0.9144672
vt 0.3328656 0.8902726
vt 0.3272822 0.8912032
vt 0.3328656 0.9163283
vt 0.3477546 0.8055914
vt 0.3551991 0.8074525
vt 0.3561296 0.8018692
vt 0.3486851 0.800008
vt 0.346824 0.9479675
vt 0.3403101 0.9144672
vt 0.3328656 0.9163283
vt 0.3403101 0.948898
vt 0.3403101 0.8381611
vt 0.3477546 0.8055914
vt 0.3421712 0.8046608
vt 0.3337961 0.8363
vt 0.3328656 0.8614252
vt 0.3403101 0.8381611
vt 0.3337961 0.8363
vt 0.3272822 0.8604946
vt 0.3328656 0.8902726
vt 0.3328656 0.8614252
vt 0.3272822 0.8604946
vt 0.3272822 0.8912032
vt 0.002515815 0.8121053
vt 0.09743321 0.8121053
vt 0.09743321 0.791633
vt 0.002515815 0.791633
vn -0.9999923 0.003921509 -0.0003449296
vn -0.9999923 0.003921509 -0.0003449296
vn -0.9999923 0.003921509 -0.0003449296
vn -0.9999923 0.003921509 -0.0003449296
vn -0.9999923 0.003921509 -0.0003449296
vn -0.9999923 0.003921509 -0.0003449296
vn -0.9999923 0.003921509 -0.0003449296
vn -0.9999923 0.003921509 -0.0003449296
vn -0.9999923 0.003921509 -0.0003449296
vn -0.9999923 0.003921509 -0.0003449296
vn -0.9999923 0.003921509 -0.0003449296
vn -0.9999923 0.003921509 -0.0003449296
vn 0.9999924 0.003921509 0
vn 0.9999924 0.003921509 0
vn 0.9999924 0.003921509 0
vn 0.9999924 0.003921509 0
vn 0.9999924 0.003921509 0
vn 0.9999924 0.003921509 0
vn 0.9999924 0.003921509 0
vn 0.9999924 0.003921509 0
vn 0.9999924 0.003921509 0
vn 0.9999924 0.003921509 0
vn 0.9999924 0.003921509 0
vn 0.9999924 0.003921509 0
vn -0.003921509 0.9999923 -0.000345267
vn -0.003921509 0.9999923 -0.000345267
vn -0.003921509 0.9999923 -0.000345267
vn -0.003921509 0.9999923 -0.000345267
vn -0.003921509 0.9999923 -0.000345267
vn -0.003921509 0.9999923 -0.000345267
vn -0.003921509 0.9999923 -0.000345267
vn -0.003921509 0.9999923 -0.000345267
vn -0.003921509 0.9999923 -0.000345267
vn -0.003921509 0.9999923 -0.000345267
vn -0.003921509 0.9999923 -0.000345267
vn -0.003921509 0.9999923 -0.000345267
vn -0.003921509 0.9999923 -0.000345267
vn -0.003921509 0.9999923 -0.000345267
vn -0.003921509 0.9999923 -0.000345267
vn -0.003921509 0.9999923 -0.000345267
vn -0.003921509 0.003921509 0.9999846
vn -0.003921509 0.003921509 0.9999846
vn -0.003921509 0.003921509 0.9999846
vn -0.003921509 0.003921509 0.9999846
vn -0.003921509 -0.8431308 0.5376942
vn -0.003921509 -0.8431308 0.5376942
vn -0.003921509 -0.8431308 0.5376942
vn -0.003921509 -0.8431308 0.5376942
vn -0.003921509 0.003921509 -0.9999846
vn -0.003921509 0.003921509 -0.9999846
vn -0.003921509 0.003921509 -0.9999846
vn -0.003921509 0.003921509 -0.9999846
vn -0.003921509 -0.9999924 0
vn -0.003921509 -0.9999924 0
vn -0.003921509 -0.9999924 0
vn -0.003921509 -0.9999924 0
vn -0.003921509 -0.9999924 0
vn -0.003921509 -0.9999924 0
vn -0.003921509 -0.9999924 0
vn -0.003921509 -0.9999924 0
vn -0.003921509 -0.8431308 -0.5376942
vn -0.003921509 -0.8431308 -0.5376942
vn -0.003921509 -0.8431308 -0.5376942
vn -0.003921509 -0.8431308 -0.5376942
vn -0.003921509 0.003921509 -0.9999846
vn -0.003921509 0.003921509 -0.9999846
vn -0.003921509 0.003921509 -0.9999846
vn -0.003921509 0.003921509 -0.9999846
vn -0.003921509 -0.9999924 0
vn -0.003921509 -0.9999924 0
vn -0.003921509 -0.9999924 0
vn -0.003921509 -0.9999924 0
vn 0.9999924 0.003921509 0
vn 0.9999924 0.003921509 0
vn 0.9999924 0.003921509 0
vn 0.9999924 0.003921509 0
vn 0.9999924 0.003921509 0
vn 0.9999924 0.003921509 0
vn 0.9999924 0.003921509 0
vn 0.9999924 0.003921509 0
vn 0.9999924 0.003921509 0
vn 0.9999924 0.003921509 0
vn 0.9999924 0.003921509 0
vn 0.9999924 0.003921509 0
vn -0.9999923 0.003921509 -0.0003449296
vn -0.9999923 0.003921509 -0.0003449296
vn -0.9999923 0.003921509 -0.0003449296
vn -0.9999923 0.003921509 -0.0003449296
vn -0.9999923 0.003921509 -0.0003449296
vn -0.9999923 0.003921509 -0.0003449296
vn -0.9999923 0.003921509 -0.0003449296
vn -0.9999923 0.003921509 -0.0003449296
vn -0.9999923 0.003921509 -0.0003449296
vn -0.9999923 0.003921509 -0.0003449296
vn -0.9999923 0.003921509 -0.0003449296
vn -0.9999923 0.003921509 -0.0003449296
vn -0.003921509 -0.9999924 0
vn -0.003921509 -0.9999924 0
vn -0.003921509 -0.9999924 0
vn -0.003921509 -0.9999924 0
vn -0.003921509 0.9999923 -0.000345267
vn -0.003921509 0.9999923 -0.000345267
vn -0.003921509 0.9999923 -0.000345267
vn -0.003921509 0.9999923 -0.000345267
vn -0.003921509 0.9999923 -0.000345267
vn -0.003921509 0.9999923 -0.000345267
vn -0.003921509 0.9999923 -0.000345267
vn -0.003921509 0.9999923 -0.000345267
vn -0.003921509 0.9999923 -0.000345267
vn -0.003921509 0.9999923 -0.000345267
vn -0.003921509 0.9999923 -0.000345267
vn -0.003921509 0.9999923 -0.000345267
vn -0.003921509 0.003921509 0.9999846
vn -0.003921509 0.003921509 0.9999846
vn -0.003921509 0.003921509 0.9999846
vn -0.003921509 0.003921509 0.9999846
vn -0.003921509 -0.8431308 0.5376942
vn -0.003921509 -0.8431308 0.5376942
vn -0.003921509 -0.8431308 0.5376942
vn -0.003921509 -0.8431308 0.5376942
vn -0.003921509 0.003921509 -0.9999846
vn -0.003921509 0.003921509 -0.9999846
vn -0.003921509 0.003921509 -0.9999846
vn -0.003921509 0.003921509 -0.9999846
vn -0.003921509 -0.9999924 0
vn -0.003921509 -0.9999924 0
vn -0.003921509 -0.9999924 0
vn -0.003921509 -0.9999924 0
vn -0.003921509 -0.9999924 0
vn -0.003921509 -0.9999924 0
vn -0.003921509 -0.9999924 0
vn -0.003921509 -0.9999924 0
vn -0.003921509 -0.8431308 -0.5376942
vn -0.003921509 -0.8431308 -0.5376942
vn -0.003921509 -0.8431308 -0.5376942
vn -0.003921509 -0.8431308 -0.5376942
vn -0.003921509 -0.9999924 0
vn -0.003921509 -0.9999924 0
vn -0.003921509 -0.9999924 0
vn -0.003921509 -0.9999924 0
vn -0.003921509 0.003921509 0.9999846
vn -0.003921509 0.003921509 0.9999846
vn -0.003921509 0.003921509 0.9999846
vn -0.003921509 0.003921509 0.9999846
g train_wagon_oil_wheel_front_B_0
f 3/3/3 2/2/2 1/1/1
f 2/2/2 4/4/4 1/1/1
f 5/5/5 1/1/1 4/4/4
f 6/6/6 5/5/5 4/4/4
f 7/7/7 5/5/5 6/6/6
f 8/8/8 7/7/7 6/6/6
f 9/9/9 7/7/7 8/8/8
f 10/10/10 9/9/9 8/8/8
f 11/11/11 9/9/9 10/10/10
f 12/12/12 11/11/11 10/10/10
f 15/15/15 14/14/14 13/13/13
f 14/14/14 16/16/16 13/13/13
f 14/14/14 17/17/17 16/16/16
f 17/17/17 18/18/18 16/16/16
f 21/21/21 20/20/20 19/19/19
f 22/22/22 21/21/21 19/19/19
f 19/19/19 23/23/23 22/22/22
f 23/23/23 24/24/24 22/22/22
f 27/27/27 26/26/26 25/25/25
f 28/28/28 27/27/27 25/25/25
f 31/31/31 30/30/30 29/29/29
f 32/32/32 31/31/31 29/29/29
f 33/33/33 31/31/31 32/32/32
f 34/34/34 33/33/33 32/32/32
f 35/35/35 33/33/33 34/34/34
f 36/36/36 35/35/35 34/34/34
f 37/37/37 35/35/35 36/36/36
f 38/38/38 37/37/37 36/36/36
f 39/39/39 37/37/37 38/38/38
f 40/40/40 39/39/39 38/38/38
f 43/43/43 42/42/42 41/41/41
f 44/44/44 43/43/43 41/41/41
f 47/47/47 46/46/46 45/45/45
f 48/48/48 47/47/47 45/45/45
f 51/51/51 50/50/50 49/49/49
f 52/52/52 51/51/51 49/49/49
f 55/55/55 54/54/54 53/53/53
f 56/56/56 55/55/55 53/53/53
f 59/59/59 58/58/58 57/57/57
f 60/60/60 59/59/59 57/57/57
f 63/63/63 62/62/62 61/61/61
f 64/64/64 63/63/63 61/61/61
f 67/67/67 66/66/66 65/65/65
f 68/68/68 67/67/67 65/65/65
f 71/71/71 70/70/70 69/69/69
f 72/72/72 71/71/71 69/69/69
f 75/75/75 74/74/74 73/73/73
f 76/76/76 75/75/75 73/73/73
f 73/73/73 77/77/77 76/76/76
f 77/77/77 78/78/78 76/76/76
f 77/77/77 79/79/79 78/78/78
f 79/79/79 80/80/80 78/78/78
f 79/79/79 81/81/81 80/80/80
f 81/81/81 82/82/82 80/80/80
f 81/81/81 83/83/83 82/82/82
f 83/83/83 84/84/84 82/82/82
f 87/87/87 86/86/86 85/85/85
f 88/88/88 87/87/87 85/85/85
f 89/89/89 87/87/87 88/88/88
f 90/90/90 89/89/89 88/88/88
f 93/93/93 92/92/92 91/91/91
f 92/92/92 94/94/94 91/91/91
f 95/95/95 91/91/91 94/94/94
f 96/96/96 95/95/95 94/94/94
f 99/99/99 98/98/98 97/97/97
f 100/100/100 99/99/99 97/97/97
f 103/103/103 102/102/102 101/101/101
f 102/102/102 104/104/104 101/101/101
f 102/102/102 105/105/105 104/104/104
f 105/105/105 106/106/106 104/104/104
f 105/105/105 107/107/107 106/106/106
f 107/107/107 108/108/108 106/106/106
f 107/107/107 109/109/109 108/108/108
f 109/109/109 110/110/110 108/108/108
f 109/109/109 111/111/111 110/110/110
f 111/111/111 112/112/112 110/110/110
f 115/115/115 114/114/114 113/113/113
f 116/116/116 115/115/115 113/113/113
f 119/119/119 118/118/118 117/117/117
f 120/120/120 119/119/119 117/117/117
f 123/123/123 122/122/122 121/121/121
f 124/124/124 123/123/123 121/121/121
f 127/127/127 126/126/126 125/125/125
f 128/128/128 127/127/127 125/125/125
f 131/131/131 130/130/130 129/129/129
f 132/132/132 131/131/131 129/129/129
f 135/135/135 134/134/134 133/133/133
f 136/136/136 135/135/135 133/133/133
f 139/139/139 138/138/138 137/137/137
f 140/140/140 139/139/139 137/137/137
f 143/143/143 142/142/142 141/141/141
f 144/144/144 143/143/143 141/141/141
